<svg xmlns="http://www.w3.org/2000/svg" xml:space="preserve" fill-rule="evenodd" stroke-linejoin="round" stroke-miterlimit="2" clip-rule="evenodd" viewBox="0 0 64 64">
  <g id="orange">
    <path fill="#d4ab64" d="M29.714 55.682s-7.246-3.4-9.314-7.2a14.028 14.028 0 0 1-1.038-8.566c.563-2.893 7.764 3.752 10.352 7.692a7.882 7.882 0 0 1 0 8.074Zm3.632 0a7.352 7.352 0 0 1 0-8.074c2.816-3.94 10.654-10.592 11.268-7.692.615 2.9.217 5.924-1.128 8.566-2.254 3.8-10.14 7.2-10.14 7.2Z"/>
    <path fill="#e1b66b" d="M29.714 45.32s-7.246-3.4-9.314-7.2a14.028 14.028 0 0 1-1.038-8.566c.563-2.893 7.764 3.752 10.352 7.692a7.882 7.882 0 0 1 0 8.074Zm3.632-.69a7.352 7.352 0 0 1 0-8.074c2.816-3.94 10.654-10.592 11.268-7.692.615 2.9.217 5.924-1.128 8.566-2.254 3.8-10.14 7.2-10.14 7.2Z"/>
    <path fill="#f4c36d" d="M29.714 34.614s-7.246-3.4-9.314-7.2a14.028 14.028 0 0 1-1.038-8.566c.563-2.893 7.764 3.752 10.352 7.692a7.882 7.882 0 0 1 0 8.074Zm3.632-.69a7.352 7.352 0 0 1 0-8.074C36.162 21.91 44 15.258 44.614 18.158c.615 2.9.217 5.924-1.128 8.566-2.254 3.8-10.14 7.2-10.14 7.2Zm-1.834-9.172s-4.856-1.234-4.856-5.344 4.856-11.09 4.856-11.09 4.636 6.98 4.636 11.09c0 4.11-4.636 5.344-4.636 5.344Z"/>
  </g>
</svg>
