<svg xmlns="http://www.w3.org/2000/svg" xml:space="preserve" fill-rule="evenodd" stroke-linejoin="round" stroke-miterlimit="2" clip-rule="evenodd" viewBox="0 0 64 64">
  <g id="orange">
    <path fill="#fc9e32" fill-rule="nonzero" d="M8 56s12.955-23.088 19.687-27.158a6.79 6.79 0 0 1 3.874-1.21c3.681 0 6.711 2.979 6.711 6.598a6.53 6.53 0 0 1-1.416 4.055C32.33 44.386 8 56 8 56Z"/>
  </g>
  <g id="green">
    <path fill="#9adf4b" d="M35.602 27.689a32.193 32.193 0 0 0 1.542-7.63 81.526 81.526 0 0 0 0-11.249c-.26-3.746 4.639 6.448 4.173 11.249-.465 4.803-5.715 7.63-5.715 7.63Zm2.083 1.002s4.874-3.13 9.577-1.414c4.702 1.716 4.731 9.385 4.731 9.385s-1.876-5.312-6.576-7.029a14.235 14.235 0 0 0-7.732-.942Zm-.303-.25s3.174-6.371 6.725-8.295c3.55-1.925 11.893 0 11.893 0s-7.183.818-10.733 2.742a59.356 59.356 0 0 0-7.885 5.553Z"/>
  </g>
</svg>
