<svg xmlns="http://www.w3.org/2000/svg" xml:space="preserve" fill-rule="evenodd" stroke-linejoin="round" stroke-miterlimit="2" clip-rule="evenodd" viewBox="0 0 64 64">
  <g id="white">
    <path fill="#ebebeb" d="M29.361 32.353c-1.085 1.626-2.141 3.709-2.359 5.873-.124 1.238.025 2.502.314 3.695-4.054-1.66-9.305-2.097-9.305-2.097s-.597 2.41.032 4.656c-5.149-1.477-8.92-6.223-8.92-11.843 0-6.202 4.592-11.339 10.559-12.194.058 5.838 4.186 10.709 9.679 11.91Zm14.957-11.91c5.967.855 10.559 5.992 10.559 12.194 0 5.62-3.771 10.366-8.92 11.843.629-2.246.032-4.656.032-4.656s-4.981.414-8.986 1.97c.381-1.156.605-2.374.521-3.568-.154-2.195-1.346-4.306-2.584-5.943 5.342-1.31 9.321-6.109 9.378-11.84Z"/>
    <path fill="#f4f4f4" d="M29.361 32.353c-5.532-1.209-9.68-6.141-9.68-12.034C19.681 13.52 25.201 8 32 8c6.799 0 12.319 5.52 12.319 12.319 0 5.785-3.998 10.645-9.379 11.964-1.441-1.903-2.944-3.164-2.944-3.164s-1.338 1.291-2.635 3.234Z"/>
  </g>
  <g id="green">
    <path fill="#7ab966" d="m29.887 51.053-1.516-2.648s-5.376 1.082-8.505-1.181c-3.129-2.263-1.855-7.4-1.855-7.4s5.251.437 9.305 2.097c-.289-1.193-.438-2.457-.314-3.695.479-4.751 4.994-9.107 4.994-9.107s5.195 4.357 5.528 9.107c.084 1.194-.14 2.412-.521 3.568 4.005-1.556 8.986-1.97 8.986-1.97s1.274 5.137-1.855 7.4c-3.129 2.263-8.505 1.181-8.505 1.181l-2.015 3.519s-.02-.027-.055-.08L33.816 56h-4.26l.331-4.947Z"/>
  </g>
</svg>
