<svg xmlns="http://www.w3.org/2000/svg" xml:space="preserve" fill-rule="evenodd" stroke-linejoin="round" stroke-miterlimit="2" clip-rule="evenodd" viewBox="0 0 64 64">
  <g id="grey">
    <path fill="#838383" d="M33.094 41.866c.138-1.63 1.018-2.241 2.081-1.349 1.158.972 2.099 3.365 2.099 5.339v10.635l-.001.124.001.09c0 .271-.034.535-.098.786-.054.28-.161.547-.316.786a3.201 3.201 0 0 1-1.935 1.505V46.951c0-1.819-.799-3.994-1.831-5.085Zm.416 17.977a3.157 3.157 0 0 1-.638-.188c.167.067.447.145.638.188Zm-.685-.207a3.223 3.223 0 0 1-.841-.531c.224.169.418.341.841.531Z"/>
    <path fill="#ababab" d="M34.925 46.951v12.831c-.394.109-.805.14-1.211.091-.042.021-.651-.131-.889-.237-.423-.19-.617-.362-.841-.531-.806-.612-1.258-1.373-1.258-2.919V43.428c0-1.974.941-2.788 2.099-1.816 1.159.972 2.1 3.365 2.1 5.339ZM26.338 2.958l2.584-1.782 12.38 7.244 8.713 16.946-.058 16.721-9.954 7.48-.062-.036 7.432-5.662.059-16.72-8.713-16.946-12.381-7.245Z"/>
  </g>
  <g id="red">
    <path fill="#d40000" d="m26.338 2.958 12.381 7.245 8.713 16.946-.059 16.72-8.795 6.701-12.38-7.245-8.713-16.946.058-16.721 8.795-6.7Z"/>
  </g>
  <g id="white" fill="#ebebeb">
    <path d="M22.177 25.801c-1.359-.8-2.375-2.395-2.766-4.207l1.171.105c.3 1.089.887 2.062 1.646 2.509.759.446 1.267.275 1.272-.634.005-.953-.741-1.748-1.572-2.622-1.051-1.104-2.226-2.352-2.216-4.243.008-1.449.888-2.155 2.437-1.243 1.286.757 2.091 2.142 2.347 3.518l-1.139-.157c-.187-.695-.606-1.383-1.301-1.793-.664-.391-1.056-.237-1.06.446-.004.724.637 1.401 1.405 2.195 1.072 1.145 2.394 2.551 2.383 4.655-.011 1.918-1.153 2.327-2.607 1.471Zm6.997-4.39-.045 8.312-1.263-.743.046-8.312-2.096-1.235.009-1.632 5.454 3.212-.009 1.632-2.096-1.234Zm5.99 12.037c-2.37-1.396-3.218-4.588-3.205-7.046.013-2.459.891-4.635 3.261-3.24 2.381 1.402 3.218 4.588 3.205 7.047-.014 2.459-.881 4.641-3.261 3.239Zm.009-1.632c1.422.837 1.939-.855 1.947-2.376.009-1.634-.476-3.802-1.909-4.645-1.433-.844-1.939.84-1.947 2.375-.009 1.62.476 3.802 1.909 4.646Zm4.753 4.265.055-9.945 3.064 1.805c1.833 1.079 2.466 3.018 2.458 4.539-.008 1.422-.722 2.682-2.492 1.64l-1.802-1.061-.02 3.766-1.263-.744Zm3.157-3.542c.812.478 1.111-.13 1.115-.827.003-.625-.234-1.607-1.098-2.116l-1.866-1.098-.016 2.943 1.865 1.098Z"/>
    <path d="m26.338 2.958 12.381 7.245 8.713 16.946-.059 16.72-8.795 6.701-12.38-7.245-8.713-16.946.058-16.721 8.795-6.7Zm.617 2.397-7.91 6.026-.053 15.037 7.836 15.24 11.134 6.515 7.91-6.026.052-15.037-7.836-15.24-11.133-6.515Z"/>
  </g>
</svg>
