<svg xmlns="http://www.w3.org/2000/svg" xml:space="preserve" fill-rule="evenodd" stroke-linejoin="round" stroke-miterlimit="2" clip-rule="evenodd" viewBox="0 0 64 64">
  <g id="grey">
    <path fill="#c2bdbd" d="m46.968 52.316-.069 8.097a2.04 2.04 0 0 1-.804-.396c-.363-.302-.508-.677-.447-1.032l.001-7.782 1.319 1.113ZM11.165 22.273l-.069 8.097a2.04 2.04 0 0 1-.804-.396c-.363-.301-.508-.677-.447-1.032l.001-7.782 1.319 1.113Z"/>
    <path fill="#707070" d="M48.249 60.427c-.332.114-1.057.116-1.35-.014l.069-8.048.663.501.698.211-.08 7.35ZM12.446 30.384c-.332.115-1.057.116-1.35-.014l.069-8.097.663.55.698.211-.08 7.35Z"/>
    <path fill="#909090" d="m46.975 52.322-1.341-1.132.015-1.68 1.333 1.12-.007 1.692ZM11.172 22.279l-1.341-1.132.015-1.68 1.334 1.12-.008 1.692Z"/>
    <path fill="#525252" d="m48.329 53.077-.698-.211-.664-.452.015-1.784 2.488 1.997-.013 6.595c0 .376-.225.744-.665.998-.17.095-.353.165-.543.207l.08-7.35ZM12.526 23.034l-.698-.211-.656-.544.007-1.691 1.361 1.146 1.127.938-.013 6.508c0 .375-.225.744-.665.997-.17.096-.353.166-.543.207l.08-7.35Z"/>
    <path fill="#c2bdbd" fill-rule="nonzero" d="m6.161 16.374 47.321 39.708 4.936-2.85v-1.765l-4.774 2.756L6.161 14.472v1.902Z"/>
    <path fill="#ababab" d="M58.418 48.96v2.505L10.914 11.604V9.099L58.418 48.96Z"/>
    <path fill="#929191" fill-rule="nonzero" d="m6.141 14.484 47.435 39.778 4.843-2.795-47.505-39.863-4.773 2.88Z"/>
    <path fill="#bdbdbd" d="M53.634 51.831v2.505L6.141 14.484v-2.505l47.493 39.852Z"/>
    <path fill="#444" d="m11.872 9.903.034-.088.239-.58c3.957-9.034 14.432-7.704 24.546.783 10.358 8.691 17.801 22.758 20.917 38.262l-1.867-1.566a78.263 78.263 0 0 0-4.036-12.776l-3.122 4.7.387 2.394-.434-.364-.255-1.576-.581.875-.285-.24.779-1.173-2.537-15.674-3.717 7.091 1.217 6.184-.451-.379-1.041-5.282-1.605 3.062-.29-.243 1.781-3.398-3.229-16.395-.15-.146-3.195 10.443 1.08 6.379-.438-.367-.884-5.223-1.091 3.566-.308-.258 1.261-4.122-2.611-15.428a17.391 17.391 0 0 0-.247-.162l-3.422 9.515 1.712 7.421-.471-.395-1.472-6.383-1.422 3.955-.302-.254 1.57-4.367-2.919-12.658a21.868 21.868 0 0 0-.403-.106l-4.511 6.561 1.944 6.946-.502-.421-1.715-6.127-2.044 2.973-.285-.239 2.2-3.199-1.752-6.26c-2.175.905-3.841 2.811-4.849 5.766l-1.224-1.027Zm39.662 23.625c-1.559-3.697-3.389-7.196-5.465-10.421l2.427 14.994 3.038-4.573Zm-5.992-11.226c-2.033-3.053-4.291-5.848-6.751-8.318l3.034 15.408 3.717-7.09Zm-7.669-9.215a45.385 45.385 0 0 0-2.146-1.92 41.74 41.74 0 0 0-3.318-2.521l2.43 14.357 3.034-9.916ZM24.224 4.839c-2.161-.481-4.171-.442-5.933.191l1.679 5.997 4.254-6.188Zm7.195 3.159c-2.057-1.3-4.078-2.263-5.999-2.844l2.743 11.897 3.256-9.053Z"/>
    <path fill="#444" d="m7.673 16.564-.084 1.01-1.41-1.171.02-.092 1.471.27.003-.017Zm21.79-9.151 1.713-.989v1.308l-.636.368a29.33 29.33 0 0 0-1.077-.687Zm6.525 5.201 2.024-1.168v1.308l-1.209.698c-.268-.284-.54-.563-.815-.838Zm7.538 9.958 2.555-1.474v1.308l-1.996 1.153c-.183-.332-.37-.661-.559-.987Zm5.488 12.199L52.081 33v1.33l-2.692 1.554a90.73 90.73 0 0 0-.375-1.113Zm4.557 19.492.005-.001-.001.028-.004-.027Zm.003.036-.092 1.783L52.1 54.93l-.019-.479h.001l.008.057 1.484-.209Z"/>
    <path fill="#444" d="M9.437 11.362c-.796 1.464-1.397 3.205-1.767 5.219l-1.476-.27c1.029-5.599 3.738-9.249 7.346-10.997 5.345-2.59 12.793-.997 19.926 4.987 11.533 9.679 17.636 26.45 20.11 43.997l-1.486.21c-.27-1.921-.585-3.832-.945-5.726l-3.509 1.795-.267-.135-1.643-10.157-3.548 5.339-.336-.066-2.732-13.872-4.231 8.071-.346-.055-2.353-13.904-2.769 9.048-.181-.055-.176.041-3.524-15.279-3.431 9.539-.352-.013-4.476-15.999-5.241 7.623-.152-.105-.18.044-2.261-9.28Zm41.635 37.042c-.776-4.005-1.76-7.927-2.978-11.684l-2.067 3.111 1.667 10.301 3.378-1.728Zm-3.125-12.132c-1.159-3.509-2.524-6.87-4.116-10.014l2.109 13.035 2.007-3.021Zm-5.272-12.184c-1.868-3.341-4.017-6.399-6.474-9.085l3.069 15.581 3.405-6.496Zm-7.309-9.97a38.293 38.293 0 0 0-2.864-2.667 32.638 32.638 0 0 0-2.723-2.059l2.504 14.802 3.083-10.076Zm-6.387-5.246c-2.093-1.313-4.172-2.234-6.169-2.756l2.798 12.128 3.371-9.372Zm-7.206-2.993c-2.171-.423-4.228-.359-6.077.2l1.718 6.14 4.359-6.34Zm-6.43.313c-.393.134-.776.292-1.149.472-1.799.872-3.328 2.285-4.49 4.23l2.256 9.258 5.181-7.536-1.798-6.424Zm6.822-.232-4.621 6.723 4.403 15.738 3.429-9.534-2.968-12.871c-.081-.02-.162-.038-.243-.056Zm7.133 3.115-3.537 9.835 3.498 15.167 2.783-9.094-2.686-15.87-.058-.038Zm6.362 5.348-3.239 10.585 2.385 14.091 4.19-7.992-3.273-16.618-.063-.066Zm7.23 10.052-3.506 6.688 2.735 13.882 3.52-5.298-2.353-14.539c-.13-.246-.262-.49-.396-.733Z"/>
  </g>
</svg>
