<?xml version="1.0" encoding="UTF-8" standalone="no"?><!DOCTYPE svg PUBLIC "-//W3C//DTD SVG 1.1//EN" "http://www.w3.org/Graphics/SVG/1.1/DTD/svg11.dtd"><svg width="100%" height="100%" viewBox="0 0 64 64" version="1.1" xmlns="http://www.w3.org/2000/svg" xmlns:xlink="http://www.w3.org/1999/xlink" xml:space="preserve" xmlns:serif="http://www.serif.com/" style="fill-rule:evenodd;clip-rule:evenodd;stroke-linejoin:round;stroke-miterlimit:2;"><g id="grey"><path d="M32.045,11.016C31.951,12.243 32.371,13.44 33.301,14.249C34.746,15.505 36.951,15.411 38.574,14.141L58.331,23.598C59.638,24.997 59.693,27.223 58.459,28.798L58.404,28.869L38.844,55.018C37.566,56.364 35.451,56.56 34.072,55.369C34.032,55.334 33.993,55.298 33.955,55.262C33.682,55.002 33.374,54.781 33.039,54.606L32.381,54.264C32.675,52.846 32.281,51.391 31.206,50.456C29.684,49.133 27.319,49.308 25.679,50.777L5.689,40.377C4.344,38.981 4.276,36.726 5.522,35.137L5.531,35.126L24.017,11.368C24.823,10.442 26.12,9.81 27.43,9.562C28.43,9.372 29.496,9.33 30.218,9.97C30.497,10.218 30.809,10.425 31.146,10.586L32.045,11.016Z" style="fill:#707070;"/></g><g id="black"><path d="M41,41L41,42.5C41,43.323 40.323,44 39.5,44C38.677,44 38,43.323 38,42.5L38,41L41,41ZM27,41L27,42.5C27,43.323 26.323,44 25.5,44C24.677,44 24,43.323 24,42.5L24,41L27,41Z" style="fill:#010001;"/></g><g id="blue"><path d="M24.032,54.43L3.369,43.679C0.158,40.95 -0.285,36.061 2.374,32.669L20.914,8.842C23.602,5.643 29.631,4.101 32.873,6.978L33.996,7.516C35.612,6.292 37.779,6.216 39.206,7.456C40.117,8.248 40.539,9.413 40.468,10.613L60.612,20.256C63.823,22.985 64.265,27.874 61.607,31.265L41.933,57.566C39.215,60.649 34.499,61.023 31.457,58.396C31.367,58.318 31.279,58.237 31.192,58.155L29.994,57.532C28.455,58.415 26.58,58.361 25.301,57.249C24.476,56.532 24.052,55.508 24.032,54.43ZM32.045,11.016L31.146,10.586C30.809,10.425 30.497,10.218 30.218,9.97C29.496,9.33 28.43,9.372 27.43,9.562C26.12,9.81 24.823,10.442 24.017,11.368L5.531,35.126L5.522,35.137C4.276,36.726 4.344,38.981 5.689,40.377L25.679,50.777C27.319,49.308 29.684,49.133 31.206,50.456C32.281,51.391 32.675,52.846 32.381,54.264L33.039,54.606C33.373,54.781 33.682,55.001 33.955,55.262C33.993,55.298 34.032,55.334 34.072,55.369C35.451,56.56 37.566,56.364 38.844,55.018L58.404,28.869L58.459,28.798C59.693,27.223 59.638,24.997 58.331,23.598L38.574,14.141C36.951,15.411 34.746,15.505 33.301,14.249C32.371,13.44 31.951,12.243 32.045,11.016Z" style="fill:#33c2fc;"/><path d="M26,21L39,21C40.646,21 42,22.354 42,24L42,40C42,40.549 41.549,41 41,41L24,41C23.451,41 23,40.549 23,40L23,24C23,22.354 24.354,21 26,21ZM39.071,34.896L39.028,34.898C38.15,34.968 37.475,35.73 37.513,36.61C37.599,37.509 38.405,38.18 39.305,38.102L39.346,38.099C40.224,38.03 40.899,37.268 40.861,36.388C40.767,35.494 39.968,34.827 39.071,34.896ZM37.41,22.649C37.41,22.072 36.941,21.604 36.364,21.604L28.636,21.604C28.081,21.63 27.638,22.093 27.636,22.649C27.638,23.205 28.081,23.668 28.636,23.694L36.364,23.694C36.941,23.694 37.41,23.226 37.41,22.649ZM41,27C41,25.903 40.097,25 39,25L26,25C24.903,25 24,25.903 24,27L24,31C24,32.097 24.903,33 26,33L39,33C40.097,33 41,32.097 41,31L41,27ZM26.326,34.896L26.283,34.898C25.405,34.968 24.73,35.73 24.768,36.61C24.854,37.509 25.66,38.18 26.56,38.102L26.601,38.099C27.479,38.03 28.154,37.268 28.116,36.388C28.022,35.494 27.223,34.827 26.326,34.896Z" style="fill:#248b99;"/><path d="M26.326,34.896C27.224,34.823 28.026,35.492 28.116,36.388C28.154,37.268 27.479,38.03 26.601,38.099L26.56,38.102C25.663,38.172 24.862,37.505 24.768,36.61C24.73,35.73 25.405,34.968 26.283,34.898L26.326,34.896ZM39.071,34.896C39.969,34.823 40.771,35.492 40.861,36.388C40.899,37.268 40.224,38.03 39.346,38.099L39.305,38.102C38.408,38.172 37.607,37.505 37.513,36.61C37.475,35.73 38.15,34.968 39.028,34.898L39.071,34.896ZM41,27L41,31C41,32.097 40.097,33 39,33L26,33C24.903,33 24,32.097 24,31L24,27C24,25.903 24.903,25 26,25L39,25C40.097,25 41,25.903 41,27ZM37.41,22.649C37.41,23.226 36.941,23.694 36.364,23.694L28.636,23.694C28.081,23.668 27.638,23.205 27.636,22.649C27.638,22.093 28.081,21.63 28.636,21.604L36.364,21.604C36.941,21.604 37.41,22.072 37.41,22.649Z" style="fill:#d1f8fd;"/></g></svg>