<svg xmlns="http://www.w3.org/2000/svg" xml:space="preserve" fill-rule="evenodd" stroke-linejoin="round" stroke-miterlimit="2" clip-rule="evenodd" viewBox="0 0 64 64">
  <g id="grey">
    <path fill="#c2bdbd" fill-rule="nonzero" d="m5.916 18.98 47.321 39.707 4.936-2.85v-1.765l-4.774 2.756L5.894 16.966l.022 2.014Z"/>
    <path fill="#929191" fill-rule="nonzero" d="m5.897 16.969 47.434 39.899 4.843-2.796-47.503-39.86-4.774 2.757Z"/>
    <path fill="#b5b5b5" d="M53.31 55.186v1.665L5.895 17.065V15.4L53.31 55.186Zm4.863-2.558v1.664L10.506 14.294V12.63l47.667 39.998Z"/>
    <path fill="#c2bdbd" d="m30.171 12.112 2.407 19.039-1.979-1.66-2.419-18.537 1.608 1.275-.002.105.385-.222Z"/>
    <path fill="#707070" d="m31.674 9.877 2.679 22.764-1.775-1.49-2.407-19.039 1.503-.867V9.877Z"/>
    <path fill="#131313" d="M27.525 12.439v1.172l-20.3 6.467-.683-.573 20.983-7.066ZM11.701 23.834 27.525 18.8v1.173l-15.057 4.505-.767-.644ZM17.38 28.6l10.145-2.798v1.173l-9.286 2.345-.859-.72Zm-3.406-13.059 15.814-4.991v1.172l-15.104 4.414-.71-.595Zm5.198 4.361 10.616-2.991v1.172l-9.816 2.49-.8-.671Zm5.808 4.874 4.808-.863v1.172l-3.868.48-.94-.789Z"/>
    <path fill="#c2bdbd" d="m29.716 12.171-3.662 37.257-2-1.587 3.788-38.633.022-.013V6.35l1.797-1.037 2.013 1.689-1.797 1.037-.013-.011-.113 4.171-.035-.028Z"/>
    <path fill="#707070" d="m31.504 11.365-3.64 37.018-1.888 1.09 3.739-37.302.015.012.134-4.136 1.81-1.045v4.243l-.17.12Z"/>
    <path fill="#131313" d="m38.273 35.93-5.555-8.748v-2.386l7.953 13.146-2.398-2.012Zm7.85 6.587L32.051 20.499v-2.385l16.272 26.248-2.2-1.845Zm7.305 6.129L30.659 14.281v-2.385l24.836 38.485-2.067-1.735Z"/>
    <path fill="#131313" d="m51.231 57.004-1.95-1.636-18.622-41.282v-2.385l20.572 45.303Zm-7.869-6.603-1.658-1.391-12.045-27.196v-2.385l13.703 30.972Zm-7.702-6.463-1.428-1.198-5.136-13.975V26.38l6.564 17.558Z"/>
  </g>
</svg>
