<?xml version="1.0" encoding="UTF-8" standalone="no"?><!DOCTYPE svg PUBLIC "-//W3C//DTD SVG 1.1//EN" "http://www.w3.org/Graphics/SVG/1.1/DTD/svg11.dtd"><svg width="100%" height="100%" viewBox="0 0 64 64" version="1.1" xmlns="http://www.w3.org/2000/svg" xmlns:xlink="http://www.w3.org/1999/xlink" xml:space="preserve" xmlns:serif="http://www.serif.com/" style="fill-rule:evenodd;clip-rule:evenodd;stroke-linejoin:round;stroke-miterlimit:2;"><g id="grey"><path d="M32.045,11.016C31.951,12.243 32.371,13.44 33.301,14.249C34.746,15.505 36.951,15.411 38.574,14.141L58.331,23.598C59.638,24.997 59.693,27.223 58.459,28.798L58.404,28.869L38.844,55.018C37.566,56.364 35.451,56.56 34.072,55.369C34.032,55.334 33.993,55.298 33.955,55.262C33.682,55.002 33.374,54.781 33.039,54.606L32.381,54.264C32.675,52.846 32.281,51.391 31.206,50.456C29.684,49.133 27.319,49.308 25.679,50.777L5.689,40.377C4.344,38.981 4.276,36.726 5.522,35.137L5.531,35.126L24.017,11.368C24.823,10.442 26.12,9.81 27.43,9.562C28.43,9.372 29.496,9.33 30.218,9.97C30.497,10.218 30.809,10.425 31.146,10.586L32.045,11.016Z" style="fill:#707070;"/><path d="M27.03,34.2C21.655,34.595 13.528,35.13 12.131,34.858C10.013,34.446 10.931,34.249 12.131,33.828C12.931,33.547 21.425,32.558 27.001,31.929C27.01,31.264 27.153,30.608 27.422,30C25.121,29.718 22.716,29.406 22.425,29.299C21.854,29.088 21.417,28.989 22.425,28.782C22.968,28.67 25.652,28.829 28.011,29C28.841,27.896 30.091,27.183 31.464,27.029L31.464,21.09C31.464,20.816 31.69,20.59 31.964,20.59C32.238,20.59 32.464,20.816 32.464,21.09L32.464,27.022C33.881,27.16 35.174,27.894 36.019,29.04C38.399,28.899 40.968,28.758 41.31,28.783C41.965,28.831 42.49,29.088 41.31,29.299C40.758,29.398 38.643,29.671 36.548,29.935C36.845,30.579 36.999,31.28 37,31.99C42.367,32.62 50.214,33.556 51.814,33.828C54.293,34.249 53.19,34.761 51.814,34.858C50.91,34.922 42.585,34.458 36.975,34.131C36.832,36.413 36.048,38.644 32,38.644C27.992,38.644 27.184,36.458 27.03,34.2Z" style="fill:#b2b2b2;"/><path d="M24.5,34C25.871,34 27,35.129 27,36.5C27,37.871 25.871,39 24.5,39C23.131,38.993 22.007,37.869 22,36.5C22,35.129 23.129,34 24.5,34ZM18.5,34C19.871,34 21,35.129 21,36.5C21,37.871 19.871,39 18.5,39C17.131,38.993 16.007,37.869 16,36.5C16,35.129 17.129,34 18.5,34ZM39.5,34C40.871,34 42,35.129 42,36.5C42,37.871 40.871,39 39.5,39C38.131,38.993 37.007,37.869 37,36.5C37,35.129 38.129,34 39.5,34ZM45.5,34C46.871,34 48,35.129 48,36.5C48,37.871 46.871,39 45.5,39C44.131,38.993 43.007,37.869 43,36.5C43,35.129 44.129,34 45.5,34Z" style="fill:#838383;"/></g><g id="black"><path d="M24.5,35C25.323,35 26,35.678 26,36.501C26,37.324 25.323,38.001 24.5,38.001L24.499,38.001C23.676,38.001 22.999,37.323 22.999,36.501C22.999,35.677 23.676,35 24.5,35ZM18.5,35C19.323,35 20,35.678 20,36.501C20,37.324 19.323,38.001 18.5,38.001L18.499,38.001C17.676,38.001 16.999,37.323 16.999,36.501C16.999,35.677 17.676,35 18.5,35ZM39.5,35C40.323,35 41,35.678 41,36.501C41,37.324 40.323,38.001 39.5,38.001L39.499,38.001C38.676,38.001 37.999,37.323 37.999,36.501C37.999,35.677 38.676,35 39.5,35ZM45.5,35C46.323,35 47,35.678 47,36.501C47,37.324 46.323,38.001 45.5,38.001L45.499,38.001C44.676,38.001 43.999,37.323 43.999,36.501C43.999,35.677 44.676,35 45.5,35ZM32,29C33.614,29.049 34.917,30.385 34.924,32C34.917,33.615 33.614,34.951 32,35C30.386,34.951 29.083,33.615 29.076,32C29.083,30.385 30.386,29.049 32,29Z" style="fill:#010001;"/></g><g id="blue"><path d="M35,29.5C35,29.774 34.774,30 34.5,30L29.5,30C29.226,29.998 29.002,29.774 29,29.5C29,29.226 29.226,29 29.5,29L34.5,29C34.774,29 35,29.226 35,29.5Z" style="fill:#d1f8fd;"/><path d="M24.032,54.43L3.369,43.679C0.158,40.95 -0.285,36.061 2.374,32.669L20.914,8.842C23.602,5.643 29.631,4.101 32.873,6.978L33.996,7.516C35.612,6.292 37.779,6.216 39.206,7.456C40.117,8.248 40.539,9.413 40.468,10.613L60.612,20.256C63.823,22.985 64.265,27.874 61.607,31.265L41.933,57.566C39.215,60.649 34.499,61.023 31.457,58.396C31.367,58.318 31.279,58.237 31.192,58.155L29.994,57.532C28.455,58.415 26.58,58.361 25.301,57.249C24.476,56.532 24.052,55.508 24.032,54.43ZM32.045,11.016L31.146,10.586C30.809,10.425 30.497,10.218 30.218,9.97C29.496,9.33 28.43,9.372 27.43,9.562C26.12,9.81 24.823,10.442 24.017,11.368L5.531,35.126L5.522,35.137C4.276,36.726 4.344,38.981 5.689,40.377L25.679,50.777C27.319,49.308 29.684,49.133 31.206,50.456C32.281,51.391 32.675,52.846 32.381,54.264L33.039,54.606C33.373,54.781 33.682,55.001 33.955,55.262C33.993,55.298 34.032,55.334 34.072,55.369C35.451,56.56 37.566,56.364 38.844,55.018L58.404,28.869L58.459,28.798C59.693,27.223 59.638,24.997 58.331,23.598L38.574,14.141C36.951,15.411 34.746,15.505 33.301,14.249C32.371,13.44 31.951,12.243 32.045,11.016Z" style="fill:#9de2fc;"/></g></svg>