<?xml version="1.0" encoding="UTF-8" standalone="no"?><!DOCTYPE svg PUBLIC "-//W3C//DTD SVG 1.1//EN" "http://www.w3.org/Graphics/SVG/1.1/DTD/svg11.dtd"><svg width="100%" height="100%" viewBox="0 0 64 64" version="1.1" xmlns="http://www.w3.org/2000/svg" xmlns:xlink="http://www.w3.org/1999/xlink" xml:space="preserve" xmlns:serif="http://www.serif.com/" style="fill-rule:evenodd;clip-rule:evenodd;stroke-linejoin:round;stroke-miterlimit:2;"><g id="grey"><path d="M32.045,11.016C31.951,12.243 32.371,13.44 33.301,14.249C34.746,15.505 36.951,15.411 38.574,14.141L58.331,23.598C59.638,24.997 59.693,27.223 58.459,28.798L58.404,28.869L38.844,55.018C37.566,56.364 35.451,56.56 34.072,55.369C34.032,55.334 33.993,55.298 33.955,55.262C33.682,55.002 33.374,54.781 33.039,54.606L32.381,54.264C32.675,52.846 32.281,51.391 31.206,50.456C29.684,49.133 27.319,49.308 25.679,50.777L5.689,40.377C4.344,38.981 4.276,36.726 5.522,35.137L5.531,35.126L24.017,11.368C24.823,10.442 26.12,9.81 27.43,9.562C28.43,9.372 29.496,9.33 30.218,9.97C30.497,10.218 30.809,10.425 31.146,10.586L32.045,11.016Z" style="fill:#707070;"/></g><g id="black"><path d="M28.087,42.637L26.934,46.329L22.6,46.329L25.346,41.822C25.716,41.999 26.137,42.148 26.6,42.277C27.092,42.413 27.588,42.534 28.087,42.637ZM38.598,41.734L41.4,46.329L37.066,46.329L35.935,42.702C36.495,42.584 37.051,42.443 37.6,42.277C37.6,42.277 38.048,42.076 38.598,41.734Z" style="fill:#010001;"/></g><g id="brown"><path d="M35.6,22.277L37.6,22.277C39.246,22.277 40.6,23.631 40.6,25.277L40.6,39.277C40.6,40.934 37.6,42.277 37.6,42.277C35.861,42.802 34.057,43.085 32.241,43.119C30.333,43.069 28.439,42.787 26.6,42.277C24.761,41.767 23.6,40.934 23.6,39.277L23.6,25.277C23.6,23.631 24.954,22.277 26.6,22.277L28.6,22.277L28.6,21.277C28.6,20.18 29.503,19.277 30.6,19.277L33.6,19.277C34.697,19.277 35.6,20.18 35.6,21.277L35.6,22.277ZM27.453,36.173C26.598,36.264 25.965,37.034 26.04,37.89L26.042,37.938C26.104,38.773 26.828,39.417 27.665,39.381C28.519,39.289 29.153,38.52 29.079,37.664L29.076,37.616C29.014,36.781 28.29,36.137 27.453,36.173ZM32.1,20.277C31.277,20.277 30.6,20.955 30.6,21.778C30.6,22.601 31.277,23.278 32.1,23.278C32.101,23.278 32.101,23.278 32.101,23.278C32.924,23.278 33.601,22.6 33.601,21.778C33.601,20.954 32.924,20.277 32.1,20.277C32.1,20.277 32.1,20.277 32.1,20.277ZM39.6,28.277C39.6,27.18 38.697,26.277 37.6,26.277L26.6,26.277C25.503,26.277 24.6,27.18 24.6,28.277C24.6,29.374 25.503,30.277 26.6,30.277L37.6,30.277C38.697,30.277 39.6,29.374 39.6,28.277ZM37.022,36.173C36.167,36.264 35.534,37.034 35.609,37.89L35.611,37.938C35.673,38.773 36.397,39.417 37.234,39.381C38.088,39.289 38.722,38.52 38.648,37.664L38.645,37.616C38.583,36.781 37.859,36.137 37.022,36.173Z" style="fill:#6c3e27;"/></g><g id="blue"><path d="M27.453,36.173C28.29,36.137 29.014,36.781 29.076,37.616L29.079,37.664C29.153,38.52 28.519,39.289 27.665,39.381C26.828,39.417 26.104,38.773 26.042,37.938L26.04,37.89C25.965,37.034 26.598,36.264 27.453,36.173ZM37.022,36.173C37.859,36.137 38.583,36.781 38.645,37.616L38.648,37.664C38.722,38.52 38.088,39.289 37.234,39.381C36.397,39.417 35.673,38.773 35.611,37.938L35.609,37.89C35.534,37.034 36.167,36.264 37.022,36.173ZM39.6,28.277C39.6,29.374 38.697,30.277 37.6,30.277L26.6,30.277C25.503,30.277 24.6,29.374 24.6,28.277C24.6,27.18 25.503,26.277 26.6,26.277L37.6,26.277C38.697,26.277 39.6,27.18 39.6,28.277ZM32.1,20.277C32.923,20.277 33.6,20.955 33.6,21.778C33.6,22.601 32.923,23.278 32.1,23.278C32.099,23.278 32.099,23.278 32.099,23.278C31.276,23.278 30.599,22.6 30.599,21.778C30.599,20.954 31.276,20.277 32.1,20.277C32.1,20.277 32.1,20.277 32.1,20.277Z" style="fill:#d1f8fd;"/></g><g id="green"><path d="M24.032,54.43L3.369,43.679C0.158,40.95 -0.285,36.061 2.374,32.669L20.914,8.842C23.602,5.643 29.631,4.101 32.873,6.978L33.996,7.516C35.612,6.292 37.779,6.216 39.206,7.456C40.117,8.248 40.539,9.413 40.468,10.613L60.612,20.256C63.823,22.985 64.265,27.874 61.607,31.265L41.933,57.566C39.215,60.649 34.499,61.023 31.457,58.396C31.367,58.318 31.279,58.237 31.192,58.155L29.994,57.532C28.455,58.415 26.58,58.361 25.301,57.249C24.476,56.532 24.052,55.508 24.032,54.43ZM32.045,11.016L31.146,10.586C30.809,10.425 30.497,10.218 30.218,9.97C29.496,9.33 28.43,9.372 27.43,9.562C26.12,9.81 24.823,10.442 24.017,11.368L5.531,35.126L5.522,35.137C4.276,36.726 4.344,38.981 5.689,40.377L25.679,50.777C27.319,49.308 29.684,49.133 31.206,50.456C32.281,51.391 32.675,52.846 32.381,54.264L33.039,54.606C33.373,54.781 33.682,55.001 33.955,55.262C33.993,55.298 34.032,55.334 34.072,55.369C35.451,56.56 37.566,56.364 38.844,55.018L58.404,28.869L58.459,28.798C59.693,27.223 59.638,24.997 58.331,23.598L38.574,14.141C36.951,15.411 34.746,15.505 33.301,14.249C32.371,13.44 31.951,12.243 32.045,11.016Z" style="fill:#3b9442;"/></g></svg>