<svg xmlns="http://www.w3.org/2000/svg" xml:space="preserve" fill-rule="evenodd" stroke-linejoin="round" stroke-miterlimit="2" clip-rule="evenodd" viewBox="0 0 64 64">
  <g id="grey">
    <path fill="#6e6e6e" d="M10.001 10.001h43.998V53.99H10.001z"/>
  </g>
  <g id="blue">
    <path fill="none" stroke="#d7e3f0" stroke-dasharray="1,1" stroke-width="1px" d="m28.801 40.95-4.609 5.82a1.603 1.603 0 0 1-2.145.295 1.433 1.433 0 0 1-.281-2.059l4.468-5.641c.01-.063.024-.125.042-.187l1.888-6.575a1.088 1.088 0 0 1-.051-.33v-5.479l-1.09 1.621c0 .034-.001.068-.004.103l-.258 3.304a1.327 1.327 0 0 1-1.39 1.195 1.306 1.306 0 0 1-1.188-1.381l.258-3.302c.009-.119.034-.233.073-.34-.01-.262.065-.521.212-.739l3.262-4.849c.122-.18.284-.322.466-.421.196-.186.462-.301.753-.301 1.209.619 4.415.62 5.551 0 .461 0 .856.286 1.017.691l7.012 7.715a1.206 1.206 0 0 1-.12 1.754 1.358 1.358 0 0 1-1.83-.126l-4.985-5.485v6.04c0 .039-.002.078-.006.116l3.503 4.933c.236.333.327.72.287 1.09l1.794 7.805a1.504 1.504 0 0 1-1.147 1.795 1.582 1.582 0 0 1-1.828-1.167l-1.747-7.602a1.853 1.853 0 0 1-.103-.131l-4.433-4.878-2.695 5.788c-.11.379-.349.708-.676.928Zm3.217-27.932c2.184.001 3.981 1.798 3.982 3.982a4.02 4.02 0 0 1-3.983 3.875A4.02 4.02 0 0 1 28.035 17c.001-2.184 1.799-3.981 3.983-3.982Z"/>
    <path fill="#e9ffff" fill-rule="nonzero" d="m8.421 52.65 44.546-44L55.35 11 10.719 55l-2.298-2.35Z"/>
  </g>
  <g id="red">
    <path fill="#f23923" d="M48.003 8h6.473C55.312 8 56 8.688 56 9.524v6.473h-2.001v-5.996h-5.996V8Zm-9.999 45.999h7.997V56h-7.997v-2.001Zm-10.007 0h8.006V56h-8.006v-2.001Zm-9.998 0h8.005V56h-8.005v-2.001ZM8 38.004h2.001v7.997H8v-7.997ZM16.006 56H9.524A1.538 1.538 0 0 1 8 54.476v-6.473h2.001v5.996h6.005V56Zm37.993-28.003H56v7.997h-2.001v-7.997ZM8 27.997h2.001v7.997H8v-7.997Zm48 19.997v6.473c0 .837-.688 1.525-1.525 1.525h-6.472V53.99h5.996v-5.996H56Zm-2.001-29.995H56v7.997h-2.001v-7.997Zm0 20.005H56v7.997h-2.001v-7.997ZM10.001 10.001v5.996H8V9.524C8 8.688 8.688 8 9.524 8h6.473v2.001h-5.996ZM27.997 8h8.006v2.001h-8.006V8Zm-9.998 0h8.005v2.001h-8.005V8Zm20.005 0h7.997v2.001h-7.997V8ZM8 17.999h2.001v7.997H8v-7.997Z"/>
  </g>
</svg>
