<svg xmlns="http://www.w3.org/2000/svg" xml:space="preserve" fill-rule="evenodd" stroke-linejoin="round" stroke-miterlimit="2" clip-rule="evenodd" viewBox="0 0 64 64">
  <g id="brown">
    <path fill="#aa7850" d="M25.218 23.424a3.109 3.109 0 0 1-.762-.472c-.918-.77-1.468-2.111-1.468-3.918 0-2.356.937-5.001 2.403-7.233L43.11 26.674c-1.465 2.231-2.402 4.876-2.402 7.229 0 1.538.398 2.739 1.087 3.538L25.218 23.424Z"/>
    <path fill="#ba7b48" d="M43.11 26.674 25.391 11.802c.768-1.169 1.681-2.224 2.681-3.064a10.302 10.302 0 0 1 1.452-1.027c1.079-.622 2.097-.907 2.995-.889.104.001.205.007.302.017.906.09 1.674.505 2.234 1.204L51.54 21.87l-.093.053c-1.14-.446-2.601-.268-4.203.657-1.566.905-3.01 2.378-4.134 4.094Z"/>
    <path fill="#8a7257" d="M47.244 22.58c3.607-2.081 6.54-.389 6.54 3.773 0 4.167-2.933 9.242-6.54 11.323-3.607 2.086-6.536.394-6.536-3.773 0-4.166 2.929-9.237 6.536-11.323Zm.032 2.126c-2.6 1.505-4.714 5.165-4.714 8.171 0 3.006 2.114 4.227 4.714 2.726 2.601-1.505 4.715-5.164 4.715-8.171 0-3.006-2.114-4.227-4.715-2.726Z"/>
    <path fill="#463738" d="M47.276 24.706c2.601-1.501 4.715-.28 4.715 2.726 0 3.007-2.114 6.666-4.715 8.171-2.6 1.501-4.714.28-4.714-2.726 0-3.006 2.114-6.666 4.714-8.171Z"/>
    <path fill="#7e5234" fill-rule="nonzero" d="M47.685 33.38c-1.61 2.074-2.663 4.401-3.099 7.008 0 0-.41 4.02 3.098 4.02s3.28-4.02 3.28-4.02c-.293-2.465-1.384-4.756-3.279-7.008Z"/>
    <path fill="#aa7850" d="M46.823 39.648c.591 0 1.07.639 1.07 1.426 0 .787-.479 1.426-1.07 1.426-.59 0-1.069-.639-1.069-1.426 0-.787.479-1.426 1.069-1.426Zm2.852 2.852a.357.357 0 1 1 0 .714.357.357 0 0 1 0-.714Z"/>
  </g>
  <g id="blue">
    <path fill="#61a2d3" d="M12.446 36.195a3.086 3.086 0 0 1-.762-.472c-.917-.77-1.468-2.111-1.468-3.917 0-2.356.937-5.002 2.403-7.233l17.719 14.872c-1.464 2.232-2.402 4.877-2.402 7.23 0 1.538.398 2.739 1.088 3.538L12.446 36.195Z"/>
    <path fill="#7ac6ff" d="M30.338 39.445 12.619 24.573c.768-1.168 1.681-2.223 2.681-3.064a10.526 10.526 0 0 1 1.452-1.026c1.079-.623 2.098-.908 2.995-.89.104.002.205.008.303.018.906.09 1.673.504 2.233 1.204l16.486 13.827-.094.053c-1.14-.447-2.6-.268-4.203.657-1.566.905-3.01 2.377-4.134 4.093Z"/>
    <path fill="#4a6168" d="M34.472 35.352c3.607-2.081 6.54-.39 6.54 3.773 0 4.167-2.933 9.242-6.54 11.323-3.606 2.085-6.536.394-6.536-3.773 0-4.166 2.93-9.238 6.536-11.323Zm.033 2.126c-2.601 1.505-4.715 5.164-4.715 8.171 0 3.006 2.114 4.227 4.715 2.726 2.6-1.505 4.714-5.165 4.714-8.171 0-3.006-2.114-4.227-4.714-2.726Z"/>
    <path fill="#324565" d="M34.505 37.478c2.6-1.501 4.714-.28 4.714 2.726 0 3.006-2.114 6.666-4.714 8.171-2.601 1.501-4.715.28-4.715-2.726 0-3.007 2.114-6.666 4.715-8.171Z"/>
    <path fill="#39c2ff" fill-rule="nonzero" d="M34.914 46.152c-1.611 2.074-2.664 4.401-3.1 7.008 0 0-.41 4.019 3.098 4.019s3.28-4.019 3.28-4.019c-.293-2.465-1.383-4.756-3.278-7.008Z"/>
    <ellipse cx="34.052" cy="53.846" fill="#d2f9ff" rx="1.069" ry="1.426"/>
    <circle cx="36.904" cy="55.629" r=".356" fill="#a4ecff"/>
  </g>
</svg>
