<svg xmlns="http://www.w3.org/2000/svg" xml:space="preserve" fill-rule="evenodd" stroke-linejoin="round" stroke-miterlimit="2" clip-rule="evenodd" viewBox="0 0 64 64">
  <g id="grey">
    <path fill="#c2bdbd" d="m46.968 52.316-.069 8.097a2.04 2.04 0 0 1-.804-.396c-.363-.302-.508-.677-.447-1.032l.001-7.782 1.319 1.113Z"/>
    <path fill="#525252" d="m48.343 51.776 1.127.851-.013 6.595c0 .376-.225.744-.665.998-.17.095-.353.165-.543.207l.094-8.651Z"/>
    <path fill="#707070" d="m46.983 50.629 1.41 1.185-.144 8.613c-.332.114-1.057.116-1.35-.014l.084-9.784Z"/>
    <path fill="#909090" d="m46.975 52.322-1.341-1.132.015-1.68 1.333 1.12-.007 1.692Z"/>
    <path fill="#525252" d="m46.982 50.63 1.431 1.22-.02 1.246-.762-.23-.649-.531V50.63Z"/>
    <path fill="#c2bdbd" d="M9.846 19.467v-.181l2.013 1.777v.094l-.679-.57-1.334-1.12Zm1.319 2.806-.069 8.097a2.04 2.04 0 0 1-.804-.396c-.363-.301-.508-.677-.447-1.032l.001-7.782 1.319 1.113Z"/>
    <path fill="#525252" d="m12.54 21.734 1.127.851-.013 6.595c0 .375-.225.744-.665.997-.17.096-.353.166-.543.207l.094-8.65Z"/>
    <path fill="#707070" d="m11.18 20.587 1.41 1.184-.144 8.613c-.332.115-1.057.116-1.35-.014l.084-9.783Z"/>
    <path fill="#909090" d="m11.172 22.279-1.341-1.132.015-1.68 1.333 1.121-.007 1.691Z"/>
    <path fill="#525252" d="m11.179 20.588 1.431 1.219-.02 1.246-.762-.23-.649-.53v-1.705Z"/>
    <path fill="#c2bdbd" fill-rule="nonzero" d="m6.161 16.374 47.321 39.708 4.936-2.85v-1.765l-4.774 2.756L6.161 14.472v1.902Z"/>
    <path fill="#929191" fill-rule="nonzero" d="m6.141 14.484 47.435 39.778 4.843-2.795-47.505-39.863-4.773 2.88Z"/>
    <path fill="#707070" d="m22.015 19.296.623-.359.698.585-.623.36-.005-.004v7.916l-.693-.55v-7.948ZM8.927 8.314l.623-.36.698.586-.624.36-.004-.004v7.916l-.693-.55V8.314Zm25.468 21.371.623-.36.698.585-.623.36-.004-.004v7.916l-.694-.55v-7.947Zm16.756 14.059.623-.359.698.585-.623.36-.005-.004v7.916l-.693-.55v-7.948Z"/>
    <path fill="#575757" d="M23.336 19.522v7.91l-.655.378.027-7.925.628-.363ZM10.248 8.54v7.91l-.655.377.027-7.925.628-.362Zm25.468 21.37v7.91l-.654.378.027-7.925.627-.363Zm16.756 14.06v7.91l-.654.378.026-7.925.628-.363Z"/>
    <path fill="#ababab" d="M58.418 48.96v2.505L10.914 11.604V9.099L58.418 48.96Z"/>
    <path fill="#bdbdbd" d="M53.634 51.831v2.505L6.141 14.484v-2.505l47.493 39.852Z"/>
    <path fill="#6e6e6e" d="m55.118 41.929.623-.36.698.586-.623.36-.005-.004v7.882l-.693-.551v-7.913Z"/>
    <path fill="#575757" d="M56.439 42.155v7.875l-.655.378.027-7.891.628-.362Z"/>
    <path fill="#707070" d="m52.53 47.148-.845 1.26L4.18 8.546l.787-1.228 6.947-3.829 47.505 39.862-6.889 3.797Z"/>
    <path fill="#909090" fill-rule="nonzero" d="M4.967 7.318 52.472 47.18l.494-.273L5.462 7.045l-.495.273Z"/>
    <path fill="#ababab" d="m7.912 9.708-.845 1.259-.419-.35.787-1.228 6.947-3.83.419.352-6.889 3.797Zm9.283 7.789-.846 1.259-.419-.35.787-1.228 6.947-3.83.419.352-6.888 3.797Zm10.582 8.88-.845 1.259-.419-.35.787-1.228 6.947-3.83.419.352-6.889 3.797Zm12 10.069-.845 1.26-.419-.351.787-1.228 6.947-3.83.419.352-6.889 3.797Zm11.908 9.992-.845 1.26-.419-.351.787-1.228 6.947-3.83.419.352-6.889 3.797Z"/>
    <path fill="#444" d="m58.883 43.599.937.564-.401-.812-.536.248Z"/>
  </g>
</svg>
