<svg xmlns="http://www.w3.org/2000/svg" xml:space="preserve" fill-rule="evenodd" stroke-linejoin="round" stroke-miterlimit="2" clip-rule="evenodd" viewBox="0 0 64 64">
  <g id="grey">
    <path fill="#444" fill-rule="nonzero" d="m3.409 29.865 28.964 24.304 28.243-16.307.007-3.493-6.578 3.782v.917L32.611 51.443 3.377 26.913l.032 2.952Z"/>
    <path fill="#c2bdbd" d="M54.045 38.155v.908L24.811 14.532v-.907l29.234 24.53Z"/>
    <path fill="#929191" fill-rule="nonzero" d="m3.377 26.913 29.234 24.53 21.434-12.375-29.234-24.53L3.377 26.913Z"/>
    <path fill="#d4d4d4" d="m19.204 24.732 3.657 3.065-.895.516-3.647-3.07.885-.511Zm13.391 11.221 3.576 2.998-.937.541-3.567-3.003.928-.536Zm5.404 4.53 3.758 3.15-.951.55-3.748-3.156.941-.544ZM14.292 20.61l3.013 2.525-.895.516-3.003-2.53.885-.511Z"/>
    <path fill="#bdbdbd" d="m31.381 9.831 29.242 24.538-6.57 3.793-29.242-24.537 6.57-3.794Z"/>
  </g>
  <g id="white">
    <path fill="#f4f4f4" d="m33.365 22.145 9.172 7.696-2.066 1.193-9.171-7.696 2.065-1.193Zm-4.096 2.365 9.171 7.696-2.065 1.193-9.172-7.696 2.066-1.193Zm-4.166 2.405 9.172 7.696-2.066 1.193-9.172-7.696 2.066-1.193ZM20.972 29.3l9.171 7.697-2.065 1.192-9.172-7.696 2.066-1.193Zm-4.132 2.386 9.172 7.696-2.065 1.192-9.172-7.696 2.065-1.192Z"/>
  </g>
</svg>
