<svg xmlns="http://www.w3.org/2000/svg" xml:space="preserve" fill-rule="evenodd" stroke-linejoin="round" stroke-miterlimit="2" clip-rule="evenodd" viewBox="0 0 64 64">
  <g id="grey">
    <path fill="#909090" d="m23.039 21.085-1.564.902-2.443-2.051 1.562-.902 2.445 2.051Zm4.366 3.664-1.563.902-2.443-2.05 1.562-.903 2.444 2.051Zm-5.02-6.748 5.608-3.239 2.444 2.051-5.609 3.238-2.443-2.05Zm7.41-4.279 1.214-.7 2.443 2.05-1.213.701-2.444-2.051Zm4.367 3.664 1.213-.7 2.444 2.05-1.213.701-2.444-2.051Zm2.216 14.892-1.562.902-2.444-2.05 1.562-.902 2.444 2.05Zm-9.626-10.613 5.608-3.239 2.444 2.051-5.609 3.239-2.443-2.051Zm11.792-.577 1.231-.71 2.445 2.051-1.231.71-2.445-2.051Zm4.611 3.825 1.194-.698 2.443 2.05-1.193.698-2.444-2.05Zm-11.35 3.528-1.562.902-2.444-2.05 1.562-.902 2.444 2.05Zm-.674-3.064 5.63-3.258 2.443 2.051-5.629 3.258-2.444-2.051Zm12.646 2.629L38.2 31.235l-2.444-2.051 5.577-3.228 2.444 2.05Zm-33.142.372-1.563.902-2.443-2.051 1.562-.902 2.444 2.051Zm3.713.58 5.609-3.239 2.444 2.051-5.61 3.239-2.443-2.051Zm.654 3.084-1.564.902-2.443-2.05 1.562-.903 2.445 2.051Zm-5.021-6.748 5.609-3.239 2.444 2.051-5.61 3.238-2.443-2.05Zm7.411-4.279 1.213-.7 2.444 2.05-1.214.701-2.443-2.051Zm4.367 3.664 1.213-.7 2.443 2.05-1.213.701-2.443-2.051Zm4.382 3.702 1.231-.71 2.444 2.051-1.231.71-2.444-2.051Zm4.611 3.824 1.193-.697 2.443 2.05-1.193.698-2.443-2.051Zm.621 3.094-5.577 3.229-2.444-2.051 5.578-3.228 2.443 2.05Zm-7.398 4.272-1.563.902-2.444-2.05 1.562-.902 2.445 2.05Zm-4.574-3.837-1.562.902-2.443-2.05 1.562-.902 2.443 2.05Zm-.673-3.064 5.629-3.258 2.444 2.051-5.629 3.258-2.444-2.051Zm22.537 3.708-1.564.902-2.443-2.05 1.562-.902 2.445 2.05Zm4.366 3.664-1.563.902-2.443-2.05 1.562-.902 2.444 2.05Zm-5.02-6.748 5.608-3.238 2.444 2.051-5.609 3.238-2.443-2.051Zm4.367 3.664 5.608-3.238 2.444 2.051-5.609 3.238-2.443-2.051Zm3.043-7.942 1.214-.701 2.443 2.051-1.213.7-2.444-2.05Zm4.367 3.664 1.213-.701 2.444 2.051-1.213.7-2.444-2.05Zm-24.181 7.907 5.609-3.238L36.26 39.4l-5.609 3.238-2.444-2.051Zm.654 3.084-1.563.902-2.443-2.05 1.562-.902 2.444 2.05Zm3.713.58 5.609-3.238 2.444 2.051-5.61 3.238-2.443-2.051Zm.654 3.084-1.564.902-2.443-2.05 1.562-.902 2.445 2.05Zm2.39-11.026 1.213-.701 2.444 2.051-1.213.7-2.444-2.05Zm4.367 3.664 1.213-.701 2.443 2.051-1.213.7-2.443-2.05Z"/>
    <path fill="#6e6e6e" d="m20.923 22.431-1.891-1.582v-.913l2.443 2.045 1.559-.9.644.541-2.203 1.271-.431-.361v.742l-.569.328-.644-.54 1.092-.631Zm4.367 3.664-1.891-1.582v-.912l2.443 2.044 1.559-.9.643.541-2.202 1.271-.431-.361v.742l-.569.329-.645-.541 1.093-.631Zm8.974 7.53-1.892-1.583v-.912l2.444 2.044 1.557-.899.645.541-2.202 1.271-.432-.361v.742l-.572.306-.621-.521 1.073-.628Zm-4.574-3.837-1.891-1.582v-.913l2.444 2.044 1.557-.899.645.54-2.202 1.272-.432-.361v.742l-.587.338-.644-.541 1.11-.64Zm9.459 7.937-1.891-1.582v-.913l2.443 2.044 1.559-.9.644.542-2.203 1.271-.431-.361v.741l-.569.329-.644-.541 1.092-.63Zm4.367 3.664-1.891-1.582v-.913l2.443 2.044 1.559-.899.643.541-2.202 1.271-.431-.361v.742l-.569.328-.645-.541 1.093-.63ZM24.751 20.097l5.682-3.288.644.541-5.682 3.288-.644-.541Zm4.367 3.664 5.681-3.288.645.541-5.682 3.289-.644-.542Zm16.476 3.199 1.194-.698v.913l-.572.306-.622-.521Zm-1.177 1.584-5.577 3.228-.644-.541 5.576-3.228.645.541Zm-10.846-1.12 5.628-3.259.645.542-5.629 3.258-.644-.541Zm-1.337-11.655 1.213-.701v.913l-.569.328-.644-.54Zm4.367 3.664 1.213-.701v.913l-.569.329-.644-.541Zm4.382 3.702 1.232-.71v.913l-.587.338-.645-.541Zm-25.342 9.444-2.203 1.271-2.443-2.044v-.912l2.443 2.044 1.559-.9.644.541Zm-3.293-5.189 5.681-3.288.644.541-5.681 3.288-.644-.541Zm4.366 3.664 5.682-3.288.644.541-5.681 3.289-.645-.542Zm15.3 4.783-5.577 3.228-.645-.541 5.577-3.228.645.541Zm-10.847-1.12 5.629-3.259.644.542-5.629 3.258-.644-.541Zm3.448 5.392-2.203 1.271-2.444-2.045v-.912l2.444 2.044 1.558-.899.645.541Zm-4.573-3.838-2.203 1.272-2.443-2.044v-.913l2.443 2.044 1.558-.899.645.54Zm-8.768-7.356-2.202 1.271-2.443-2.044v-.913l2.443 2.044 1.558-.899.644.541Zm31.703 6.476 5.682-3.288.644.54-5.682 3.289-.644-.541Zm4.367 3.664 5.681-3.288.645.541-5.682 3.288-.644-.541Zm3.116-7.993 1.213-.7v.913l-.569.328-.644-.541Zm4.367 3.664 1.213-.7v.913l-.569.328-.644-.541ZM34.94 46.348l5.682-3.288.644.541-5.681 3.288-.645-.541Zm-4.366-3.664 5.681-3.288.644.54-5.681 3.289-.644-.541ZM29.5 44.209l-2.202 1.271-2.443-2.044v-.913l2.443 2.044 1.558-.9.644.542Zm4.367 3.664-2.203 1.271-2.443-2.044v-.913l2.443 2.044 1.559-.899.644.541Z"/>
    <path fill="#575656" d="m47.708 41.822.105-1.209.921-.538-.106 1.214-.92.533Zm7.399-4.271.105-1.211.921-.537-.107 1.215-.919.533ZM35.304 49.115l.105-1.209.921-.538-.106 1.214-.92.533Zm7.399-4.271.105-1.211.921-.537-.106 1.215-.92.533Z"/>
    <path fill="#b5b5b5" d="m19.708 17.023.921-.532 28.11 23.587-.926.528-28.105-23.583Zm7.399-4.272.921-.532 28.109 23.587-.925.528-28.105-23.583ZM7.304 24.316l.921-.532 28.11 23.587-.926.528L7.304 24.316Zm7.4-4.272.92-.532 28.11 23.587-.926.528-28.104-23.583Z"/>
    <path fill="#575757" d="m30.215 38.298.014.187-5.337-1.182-.003-.175 5.326 1.17Zm-3.986-1.965-7.2-5.946-.004-.228 7.366 6.081-.162.093ZM36.765 22.84l-.025.211-1.344.792-.152-.125 1.521-.878Zm5.843 6.972.01.219-1.638.974-7.42-6.081-1.519.884v-.257l.017-.009.001.005 1.532-.882 7.376 6.091 1.641-.944Z"/>
  </g>
  <g id="brown">
    <path fill="#877563" d="M19.708 18.327v-1.304l28.105 23.583-.106 1.215-27.999-23.494Zm7.399-4.272v-1.304l28.105 23.583-.107 1.216-27.998-23.495ZM7.304 25.62v-1.304l28.105 23.583-.106 1.215L7.304 25.62Zm7.4-4.272v-1.304l28.104 23.583-.106 1.216-27.998-23.495Z"/>
  </g>
  <g id="yellow">
    <path fill="#fcf565" d="M16.735 19.563v-1.304L44.84 41.842l-.106 1.215-27.999-23.494Zm1.605-.926v-1.304l28.104 23.583-.106 1.215L18.34 18.637Z"/>
    <path fill="#fbd508" d="m16.735 18.259.921-.532 28.11 23.587-.926.528-28.105-23.583Zm1.605-.926.92-.532 28.11 23.587-.926.528L18.34 17.333Z"/>
    <path fill="#9a8a39" d="m44.735 43.058.105-1.209.921-.538-.106 1.214-.92.532v.001Zm1.604-.926.105-1.21.921-.538-.106 1.215-.92.532v.001Z"/>
  </g>
  <g id="white">
    <path fill="#fefffe" d="m28.041 35.29 1.533-.881.641 3.889-5.357-1.177 1.533-.881-7.376-6.09 1.651-.95 7.375 6.09Zm5.55-10.625-1.532.882-.641-3.889 5.357 1.176-1.533.882 7.376 6.09-1.651.95-7.376-6.091Z"/>
  </g>
</svg>
