<svg xmlns="http://www.w3.org/2000/svg" xml:space="preserve" fill-rule="evenodd" stroke-linejoin="round" stroke-miterlimit="2" clip-rule="evenodd" viewBox="0 0 64 64">
  <g id="grey" fill-rule="nonzero">
    <path fill="#444" d="M6.916 27.386 35.88 51.69l21.672-12.513v-2.588L36.118 48.964 6.884 24.434l.032 2.952Z"/>
    <path fill="#e89099" d="m6.884 24.434 29.234 24.53 21.434-12.375-29.234-24.53L6.884 24.434Z"/>
    <path fill="#d4d4d4" d="m16.96 18.676 29.135 24.528.956-.552-29.21-24.484-.881.508Z"/>
  </g>
  <g id="white">
    <path fill="#fff" fill-rule="nonzero" d="m29.165 36.457-.448-4.142-1.781 1.016-4.635-3.912-1.756 1.014 4.665 3.907-1.761 1.017 5.716 1.1Zm3.722-13.148.448 4.141 1.78-1.016 4.635 3.912 1.756-1.014-4.665-3.907 1.761-1.016-5.715-1.1Z"/>
  </g>
</svg>
