<svg xmlns="http://www.w3.org/2000/svg" xml:space="preserve" fill-rule="evenodd" stroke-linejoin="round" stroke-miterlimit="2" clip-rule="evenodd" viewBox="0 0 64 64">
  <g id="grey">
    <path fill="#909090" d="m21.864 29.421-1.563.902-2.444-2.05 1.563-.902 2.444 2.05Zm4.367 3.664-1.564.902-2.443-2.05 1.562-.902 2.445 2.05Zm-5.021-6.748 5.609-3.238 2.444 2.051-5.61 3.238-2.443-2.051Zm4.367 3.664 5.609-3.238 2.443 2.051-5.609 3.238-2.443-2.051Zm3.044-7.942 1.213-.701 2.444 2.05-1.214.701-2.443-2.05Zm4.366 3.664 1.214-.701 2.443 2.051-1.213.7-2.444-2.05Zm4.383 3.702 1.231-.71 2.444 2.05-1.231.711-2.444-2.051Zm4.611 3.824 1.193-.697 2.443 2.05-1.193.698-2.443-2.051Zm.621 3.094-5.577 3.229-2.444-2.051 5.577-3.228 2.444 2.05Zm-7.398 4.271-1.563.903-2.444-2.051 1.562-.902 2.445 2.05Zm-4.574-3.836-1.562.902-2.444-2.051 1.563-.902 2.443 2.051Zm-.674-3.064 5.63-3.259 2.443 2.051-5.628 3.258-2.445-2.05Zm-20.496 3-1.563.902-2.443-2.05 1.562-.902 2.444 2.05Zm4.367 3.664-1.563.902-2.443-2.05 1.562-.902 2.444 2.05Zm-5.02-6.748 5.608-3.238 2.444 2.051-5.609 3.238-2.443-2.051Zm4.366 3.664 5.609-3.238 2.444 2.051-5.609 3.238-2.444-2.051Zm3.044-7.942 1.214-.701 2.443 2.05-1.213.701-2.444-2.05Zm4.367 3.664 1.213-.701 2.444 2.051-1.213.7-2.444-2.05Zm4.382 3.702 1.231-.71 2.445 2.05-1.231.711-2.445-2.051Zm4.611 3.824 1.194-.697 2.443 2.05-1.194.698-2.443-2.051Zm.622 3.094-5.577 3.229-2.445-2.051 5.578-3.228 2.444 2.05ZM22.8 47.907l-1.562.903-2.444-2.051 1.562-.902 2.444 2.05Zm-4.573-3.836-1.562.902-2.444-2.051 1.562-.902 2.444 2.051Zm-.674-3.064 5.629-3.259 2.444 2.051-5.629 3.258-2.444-2.05Zm22.537 3.708-1.563.902-2.444-2.051 1.563-.902 2.444 2.051Zm4.367 3.664-1.564.902-2.443-2.051 1.562-.902 2.445 2.051Zm-5.021-6.749 5.609-3.238 2.444 2.051-5.61 3.238-2.443-2.051Zm4.367 3.665 5.609-3.239 2.444 2.051-5.61 3.238-2.443-2.05Zm3.044-7.943 1.213-.701 2.444 2.051-1.214.7-2.443-2.05Zm4.367 3.664 1.213-.7 2.443 2.05-1.213.701-2.443-2.051ZM27.686 52.008l-1.563.902-2.443-2.051 1.562-.902 2.444 2.051Zm4.367 3.664-1.563.902-2.443-2.051 1.562-.902 2.444 2.051Zm-5.02-6.749 5.608-3.238 2.444 2.051-5.609 3.238-2.443-2.051Zm4.366 3.664 5.609-3.238 2.444 2.051-5.609 3.238-2.444-2.051Zm3.044-7.942 1.214-.701 2.443 2.051-1.213.7-2.444-2.05Zm4.367 3.664 1.213-.7 2.444 2.05-1.213.7-2.444-2.05Z"/>
    <path fill="#6e6e6e" d="m19.748 30.768-1.891-1.582v-.913l2.444 2.044 1.558-.9.644.542-2.202 1.271-.432-.361v.741l-.569.329-.644-.541 1.092-.63Zm4.367 3.664-1.891-1.582v-.913l2.443 2.044 1.559-.9.644.542-2.203 1.271-.431-.361v.741l-.569.329-.644-.541 1.092-.63Zm8.975 7.53-1.893-1.583v-.913l2.444 2.045 1.558-.9.644.541-2.202 1.271-.431-.36v.741l-.572.306-.622-.521 1.074-.627Zm-4.574-3.838-1.892-1.582v-.913l2.444 2.044 1.557-.899.645.541-2.202 1.271-.431-.36v.741l-.587.339-.645-.541 1.111-.641Zm9.458 7.937-1.891-1.582v-.913l2.444 2.044 1.558-.899.644.541-2.202 1.271-.432-.361v.742l-.569.328-.644-.54 1.092-.631Zm4.367 3.664-1.891-1.582v-.913l2.443 2.044 1.559-.899.644.541-2.203 1.271-.431-.361v.742l-.569.328-.644-.54 1.092-.631ZM23.577 28.434l5.681-3.288.644.54-5.681 3.289-.644-.541Zm4.366 3.664 5.682-3.288.644.54-5.682 3.289-.644-.541Zm3.117-7.993 1.213-.7v.912l-.569.329-.644-.541Zm4.366 3.664 1.214-.7v.912l-.57.329-.644-.541Zm4.383 3.703 1.231-.711v.913l-.587.339-.644-.541Zm4.611 3.824 1.193-.697v.913l-.572.305-.621-.521Zm-1.177 1.584-5.578 3.228-.644-.54 5.577-3.229.645.541Zm-10.847-1.12 5.629-3.258.644.541-5.629 3.258-.644-.541Zm-22.297 1.492-2.202 1.271-2.443-2.044v-.913l2.443 2.044 1.559-.9.643.542Zm4.367 3.664-2.202 1.271-2.443-2.044v-.913l2.443 2.044 1.558-.9.644.542Zm-3.293-5.189 5.682-3.288.644.54-5.682 3.289-.644-.541Zm4.367 3.664 5.681-3.288.644.54-5.681 3.289-.644-.541Zm15.299 4.782-5.577 3.228-.644-.54 5.576-3.229.645.541Zm-7.399 4.272-2.202 1.271-2.444-2.044v-.913l2.444 2.045 1.557-.9.645.541Zm-4.573-3.837-2.202 1.271-2.444-2.044v-.913l2.444 2.044 1.557-.899.645.541Zm1.126-1.555 5.628-3.258.645.541-5.629 3.258-.644-.541Zm21.81.674 5.681-3.288.644.541-5.681 3.288-.644-.541Zm4.366 3.664 5.682-3.288.644.541-5.682 3.288-.644-.541Zm3.117-7.992 1.213-.701v.913l-.569.328-.644-.54Zm4.366 3.664 1.214-.701v.913l-.57.328-.644-.54Zm-25.327 9.482-2.202 1.271-2.443-2.044v-.913l2.443 2.044 1.559-.899.643.541Zm4.367 3.664L30.49 57.48l-2.443-2.044v-.913l2.443 2.044 1.558-.899.644.541Zm-3.293-5.189 5.682-3.288.644.541-5.682 3.288-.644-.541Zm4.367 3.664 5.681-3.288.644.541-5.681 3.288-.644-.541Z"/>
    <path fill="#575656" d="m46.533 50.159.105-1.21.921-.538-.106 1.215-.92.533Zm7.399-4.272.105-1.21.921-.538-.106 1.215-.92.533ZM34.13 57.451l.105-1.209.921-.538-.107 1.215-.919.532Zm7.399-4.271.105-1.21.921-.538-.107 1.215-.919.533Z"/>
    <path fill="#b5b5b5" d="m18.533 25.359.921-.532 28.11 23.588-.926.527-28.105-23.583Zm7.399-4.272.921-.532 28.109 23.587-.925.529-28.105-23.584ZM6.13 32.652l.921-.532 28.11 23.588-.926.527L6.13 32.652Zm7.399-4.272.921-.532 28.109 23.587-.925.529L13.529 28.38Z"/>
    <path fill="#575757" d="m35.59 31.176-.024.211-1.471.867-.151-.127 1.646-.951Zm5.843 6.968.01.223-1.638.974-7.42-6.081-1.518.884v-.257l1.59-.909 7.334 6.11 1.642-.944Zm-17.719 7.32 5.326 1.17.014.187-5.337-1.182-.003-.175Zm-5.863-6.969 7.365 6.081-.162.093-7.2-5.946-.003-.228Z"/>
    <path fill="#909090" d="M7.718 40.189v.756h-.05a.415.415 0 0 1-.138.122c-.216.125-.529.11-.7-.033a.342.342 0 0 1-.076-.089h-.031V21.841h.061a.451.451 0 0 1 .129-.109c.215-.124.529-.109.699.033.028.024.05.05.067.076h.039v1.949l.69.578v-1.113h.061a.447.447 0 0 1 .128-.109c.216-.125.529-.11.7.033.028.024.05.049.067.076h.039v19.103h-.05a.42.42 0 0 1-.139.123c-.216.124-.529.109-.699-.033a.364.364 0 0 1-.076-.09h-.031v-1.591l-.69-.578Zm0-15.223v3.586l.69.578v-3.586l-.69-.578Zm0 4.761V33.8l.69.578v-4.073l-.69-.578Zm0 5.249v4.038l.69.578v-4.038l-.69-.578Zm19.924 21.931v.755h-.051a.408.408 0 0 1-.138.123c-.216.125-.529.109-.699-.033a.346.346 0 0 1-.076-.09h-.031V38.559h.06a.465.465 0 0 1 .129-.109c.215-.125.529-.109.699.033.028.024.051.05.068.076h.039v1.949l.689.578v-1.114h.061a.433.433 0 0 1 .129-.108c.215-.125.529-.11.699.032.028.024.05.05.067.076h.039v19.104h-.05a.414.414 0 0 1-.138.122c-.216.125-.529.11-.7-.033a.342.342 0 0 1-.076-.089h-.031v-1.591l-.689-.578Zm0-15.224v3.586l.689.578v-3.586l-.689-.578Zm0 4.762v4.073l.689.578v-4.073l-.689-.578Zm0 5.248v4.039l.689.578v-4.039l-.689-.578Z"/>
    <path fill="#d4d4d4" d="m18.888 19.054.005.004-3.502 3.761 2.51-.376.326.273-.608.394-2.601.111-5.66 6.08.045-1.448 6.652-7.198-6.595 3.73-.115-.943 9.358-5.36.766.643-.581.329Zm19.925 16.717.004.004-3.502 3.763 2.51-.377.325.273-.608.394-2.601.111-5.659 6.079.044-1.447 6.651-7.196-6.593 3.728-.116-.943 9.358-5.361.767.644-.58.328Z"/>
    <path fill="#909090" d="M37.043 23.259v.755h-.05a.398.398 0 0 1-.139.122c-.216.125-.528.11-.699-.032a.364.364 0 0 1-.076-.09h-.031V4.911h.061a.41.41 0 0 1 .129-.109c.215-.125.528-.11.699.033.028.024.05.049.067.076h.039V6.86l.69.578V6.324h.06a.465.465 0 0 1 .129-.109c.215-.125.529-.109.699.033.028.024.051.05.068.076h.039v19.103h-.051a.408.408 0 0 1-.138.123c-.216.125-.529.109-.699-.033a.314.314 0 0 1-.076-.09h-.031v-1.59l-.69-.578Zm0-10.463v4.074l.69.578v-4.074l-.69-.578Zm0 5.249v4.038l.69.578v-4.038l-.69-.578Zm0-10.01v3.586l.69.578V8.613l-.69-.578Zm19.819 31.853v.756h-.051a.415.415 0 0 1-.138.122c-.216.125-.529.11-.699-.033a.308.308 0 0 1-.076-.089h-.032V21.54h.061a.451.451 0 0 1 .129-.109c.215-.124.529-.109.699.033.028.024.051.05.067.076h.04v1.949l.689.578v-1.113h.061a.418.418 0 0 1 .128-.109c.216-.125.529-.11.7.033.028.024.05.049.067.076h.039v19.103h-.05a.407.407 0 0 1-.139.122c-.216.125-.529.11-.699-.032a.364.364 0 0 1-.076-.09h-.031v-1.591l-.689-.578Zm0-15.223v3.586l.689.578v-3.586l-.689-.578Zm0 4.761v4.073l.689.578v-4.073l-.689-.578Zm0 5.249v4.038l.689.578v-4.038l-.689-.578Z"/>
    <path fill="#d4d4d4" d="m25.037 15.531-1.145.661-.763-.641 1.145-.66L37.11 7.48l.763.64-10.331 5.965 9.303-2.294.763.64-6.707 1.654-3.856 3.184-.791.414-.324-.272 3.953-3.075-4.846 1.195ZM44.855 32.16l-1.609.93-.763-.641 1.609-.929 12.836-7.411.763.641-10.33 5.964 9.302-2.294.763.64-6.705 1.654-3.858 3.185-.791.413-.324-.271 3.954-3.076-4.847 1.195Z"/>
  </g>
  <g id="brown">
    <path fill="#877563" d="m6.723 34.454-.593-.498v-1.304l.593.498v1.304Zm2.68.944 17.244 14.47v1.305L9.403 36.703v-1.305Zm17.244 5.295L13.529 29.685V28.38l13.118 11.008v1.305Zm.995-.47.689.578v.285l-.689-.578v-.285Zm1.684 1.413 1.528 1.282-.679.735-.849-.712v-1.305Zm0 10.48 4.909 4.119-.107 1.216-4.802-4.03v-1.305ZM8.408 35.868l-.69-.579v-.313l.69.578v.314Zm19.923 16.718-.689-.578v-.315l.689.578v.315Zm5.602-13-.751-.631.929-.525.501.421-.679.735Zm-1.486-1.247L18.533 26.663v-1.304L33.371 37.81l-.924.529Zm2.918 1.144.048.04-.098.015.05-.055Zm.497.417 10.776 9.042-.106 1.216-11.849-9.943.258-.276.921-.039Zm-4.27 3.637 10.042 8.427-.107 1.215L30.91 44.27l.682-.733Zm-5.66-21.145v-1.305l28.105 23.584-.106 1.215-27.999-23.494Z"/>
  </g>
  <g id="white">
    <path fill="#fefffe" d="m36.245 36.163-3.828-3.161-1.533.881-.641-3.888 5.357 1.176-1.533.881 3.832 3.164-1.654.947Zm2.467-.276 2.731 2.255-1.651.95-2.297-1.897 1.217-1.308ZM26.647 46.109l-2.964-.651 1.533-.882-7.376-6.09 1.651-.949 7.156 5.908v2.664Zm.995-2.928.689-.397v3.063l-.689-.578v-2.088Z"/>
  </g>
  <g id="black">
    <path d="m18.057 22.826.172.145 16.652 13.973-.739.424-16.969-14.239.446-.019.438-.284Zm18.423 15.46 1.076.903.013.01-1.056.159-.579-.486.546-.586Zm-1.301-.048-.294-.246.744-.42.093.078-.543.588Z"/>
    <path d="m26.929 17.33.436.366 16.578 13.91-.737.426L26.161 17.73l.093-.047.675-.353Zm19.113 16.957-.094.046-1.979-1.661.737-.425 1.611 1.351-.569.443.294.246Z"/>
  </g>
</svg>
