<svg xmlns="http://www.w3.org/2000/svg" xml:space="preserve" fill-rule="evenodd" stroke-linejoin="round" stroke-miterlimit="2" clip-rule="evenodd" viewBox="0 0 64 64">
  <g id="grey">
    <path fill="#444" fill-rule="nonzero" d="M3.377 30 32.5 54.693 60.431 38.8l.034-2.608-27.854 16.082L3.377 27.695V30Z"/>
    <path fill="#929191" fill-rule="nonzero" d="m3.377 27.744 29.234 24.53 27.854-16.082-29.123-24.594L3.377 27.744Z"/>
    <path fill="#d4d4d4" fill-rule="nonzero" d="M16.955 19.964 46.09 44.492l.956-.552-29.21-24.484-.881.508Z"/>
    <path fill="#929191" d="m33.171 26.13 1.828 1.533-9.651 5.572-1.828-1.533 9.651-5.572Zm-10.962-9.199 1.827 1.533-9.652 5.572-1.827-1.533 9.652-5.572Zm16.423 13.781 1.827 1.533-9.651 5.572-1.827-1.534 9.651-5.571Zm5.401 4.532 1.826 1.533-9.65 5.572-1.827-1.533 9.651-5.572Zm5.582 4.684 1.827 1.474-9.65 5.572-1.827-1.474 9.65-5.572ZM27.69 21.531l1.827 1.533-9.65 5.572-1.827-1.534 9.65-5.571Z"/>
    <path fill="#d4d4d4" fill-rule="nonzero" d="m32.571 64.001-2.761-2.318-.021-9.288 1.195 1.043-.008-1.256 1.029.829-.005-1.25.611.513-.04 11.727Z"/>
    <path fill="#d4d4d4" fill-rule="nonzero" d="m6.124 41.809-2.761-2.317-.021-11.777.693.581.009 1.188.863.73.02 1.1 7.631 6.838-6.434 3.657Z"/>
    <path fill="#565656" d="m6.05 32.267 6.965 5.629-6.891 3.913-.074-9.542Z"/>
    <path fill="#bdbdbd" fill-rule="nonzero" d="m32.571 64 27.915-16.053-.021-11.755-27.854 16.082L32.571 64Z"/>
  </g>
</svg>
