<svg xmlns="http://www.w3.org/2000/svg" xml:space="preserve" fill-rule="evenodd" stroke-linejoin="round" stroke-miterlimit="2" clip-rule="evenodd" viewBox="0 0 64 64">
  <g id="blue">
    <path fill="#005f95" d="m51 32.501 10.706 5.289L34.676 58 2.3 37.79l10.222-6.321v4.952l23.45 13.549.004.034L51 39.524v-7.023Z"/>
    <path fill="#0089cf" d="m29 26.145 7.113 3.749-.017 2.494-5.093-2.747v1.153l-.916.538 5.993 3.308-.013 1.776-23.544-12.664.001-2.114 3.998 2.207v1.485L29 31.972v-5.827Zm-12.478-4.312-3.998-2.156v-2.215l3.998 2.107v2.264Zm19.529 16.878-.013 1.825-23.514-12.71v1.96l23.499 13.008-.051 7.176-2.106-1.217-.018-5.181-19.974-11.16-.015 4.781-1.337-.693.001-10.788 23.528 12.999Z"/>
    <path fill="#73e0fc" d="m16.522 19.569-3.998-2.107 14.712-7.196L51 21l-14.887 8.894-5.111-2.694L31 22.621l-12.578-6.237-1.878.873-.022-.011v2.323Z"/>
    <path fill="#73d0ff" fill-rule="nonzero" d="M16.522 25.33 29 31.972v-8.379l-12.478-6.347v8.084Z"/>
    <path fill="#03243e" d="m16.522 23.845-4-2.208.002-1.96 3.998 2.156v2.012Zm19.531 14.867-23.531-13v-1.96l23.545 12.664-.014 2.296Zm-5.05-9.071 5.093 2.747-.015 2.253-5.994-3.309.916-.538v-1.153Zm5.022 13.154L12.524 29.786v-1.96l23.517 12.711-.016 2.258Zm-22.166-5.602.015-4.781 19.974 11.16.018 5.181-20.007-11.56Z"/>
    <path fill="#0071a9" d="m35.976 50.004.105-15.363.015-2.253.017-2.494L51 21v18.524l-15.024 10.48Zm-4.973-19.21L29 31.972v-8.379l-12.476-6.327 1.898-.882L31 22.621l.003 7.02v1.153Z"/>
    <path fill="#001209" d="M36.038 40.537 51 31.378v2.045l-14.977 9.374.015-2.26Zm.029-4.121L51 27.304v2.044l-14.947 9.364.014-2.296Zm.029-4.028L51 23.229v2.045l-14.92 9.367.016-2.253Zm1.446 11.152 11.8-7.636-.044 4.807-11.756 8.181V43.54Z"/>
  </g>
</svg>
