<svg xmlns="http://www.w3.org/2000/svg" xml:space="preserve" fill-rule="evenodd" stroke-linejoin="round" stroke-miterlimit="2" clip-rule="evenodd" viewBox="0 0 64 64">
  <g id="blue">
    <path fill="#00c1ff" d="m2.3 37.79 26.382-16.314L61.706 37.79 34.676 58 2.3 37.79Zm15.357.016.001 1.552L34.898 49.5l.005-5.381.005 5.387 11.488-8.25V31.5L29 23l-11.348 6.794.003 4.352-1.903 2.628 1.905 1.032Z"/>
    <path fill="#0089cf" d="m17.655 34.146-.003-4.352 17.256 9.782-.005 3.924-17.219-9.394-.029.04ZM34.9 43.523l-.002 5.977-17.24-10.142-.001-1.552 15.221 8.244 2.022-2.527Z"/>
    <path fill="#0071a9" fill-rule="nonzero" d="m34.908 49.506 11.488-8.25V31.5L34.9 39.576l.008 9.93Z"/>
    <path fill="#73e0fc" d="M17.652 29.794 29 23l17.396 8.5-11.488 8.076-17.256-9.782ZM35 37.647 43.051 32 29.07 24.929 21 30l6.354 3.563v.951L35 38.64v-.993Z"/>
    <path fill="#3ed2ff" d="M27.354 33.563 21 30l8.07-5.071L43.051 32 35 37.647v-3.771l-7.646-4.128v3.815Z"/>
    <path fill="#73e0fc" fill-rule="nonzero" d="m17.684 34.106-1.932 2.668 17.126 9.276 2.03-2.537-17.224-9.407Z"/>
    <path fill="#0089cf" fill-rule="nonzero" d="M27.354 34.514 35 38.64v-4.764l-7.646-4.128v4.766Z"/>
  </g>
</svg>
