<svg xmlns="http://www.w3.org/2000/svg" xml:space="preserve" fill-rule="evenodd" stroke-linejoin="round" stroke-miterlimit="2" clip-rule="evenodd" viewBox="0 0 64 64">
  <g id="green">
    <path fill="#274100" fill-rule="nonzero" d="M2.297 37.79 34.673 58l27.03-20.21-33.024-16.314L2.297 37.79Z"/>
    <path fill="#00b41a" d="m21.549 38.028-4.89-2.858V11.36l18.598 8.86-.022 12.862-18.554-9.48v1.488l18.518 9.686.008 1.366-18.526-9.76v1.488l18.524 9.92-.02 2.964.012-1.672-18.516-9.924v1.488l18.504 10.108-.034 5.226-7.52-4.396.03-2.346-6.112-3.416v2.206ZM16.681 21.06l18.534 9.616.03-7.528-18.564-9.544v7.456Zm5.976-8.53V9.684l3.168 1.346v2.972l-3.168-1.472Zm8 4v-2.846l3.17 1.346-.002 2.972-3.168-1.472Z"/>
    <path fill="#00580d" d="M16.681 25.09v-1.488l18.554 9.48-.036 1.694-18.518-9.686Zm0-4.03v-7.456l18.564 9.544-.03 7.528-18.534-9.616Zm0 6.81v-1.488l18.526 9.76v1.65L16.681 27.87Zm0 2.776v-1.488l18.482 9.868.022 1.728-18.504-10.108Zm4.868 7.426v-2.25l6.112 3.416-.03 2.344-6.082-3.51Z"/>
    <path fill="#0f4e06" d="m46.587 36.406-.032 1.64-11.4 7.96.008-2.13 11.424-7.47Zm-11.416 5.78.028-7.41 11.552-7.278.04-1.618-.064 3.296-11.51 6.974-.01 1.642 11.488-6.942-.024 1.232-11.486 6.986v1.686l11.456-7.144-.024 1.274-11.446 7.302Zm.028-7.41.016-4.1 11.616-7.566-.04 2.77-11.556 7.202-.036 1.694Zm.046-11.628.012-2.928 11.77-6.54-.05 2.608-11.732 6.86Zm-9.418-9.142V11.03l1.954-1.126v3l-1.954 1.102Zm8 4V15.03l1.954-1.078v2.952l-1.954 1.102Z"/>
    <path fill="#81f340" d="m16.659 11.36 11.598-5.528 18.77 7.848-11.77 6.54-18.598-8.86Zm6.012-1.67-.014-.006v2.846l3.17 1.472v.004l1.954-1.102v-3L24.623 8.82l-1.952.87Zm9.952 3.13-1.966.864v2.846l3.168 1.472.002-2.972v2.976l1.954-1.102v-2.952l-3.158-1.132Z"/>
    <path fill="#002612" d="m35.235 33.082 11.556-7.202-.04 1.618-11.552 7.278.036-1.694Zm.01-9.934 11.74-6.866-.154 6.828-11.616 7.566.03-7.528Zm-.028 13.002 11.51-6.974-.032 1.674-11.488 6.942.01-1.642Zm-.032 2.918 11.486-6.986-.03 1.528-11.456 7.144v-1.686Zm-.022 3.122 11.454-7.306-.03 1.522-11.424 7.47V42.19Z"/>
    <path fill="#c2fdaa" d="m22.665 9.692 1.958-.872 3.158 1.084-1.954 1.126-3.162-1.338Zm8 4 1.958-.872 3.158 1.132-1.954 1.078-3.162-1.338Z"/>
  </g>
</svg>
