<svg xmlns="http://www.w3.org/2000/svg" xml:space="preserve" fill-rule="evenodd" stroke-linejoin="round" stroke-miterlimit="2" clip-rule="evenodd" viewBox="0 0 64 64">
  <g id="green">
    <path fill="#1fa70b" fill-rule="nonzero" d="M2.3 37.79 34.676 58l27.03-20.21-33.024-16.314L2.3 37.79Z"/>
    <path fill="#2fcf08" fill-rule="nonzero" d="m19.324 38.802 16 10.28.06-23-16.06-9.264v21.984Z"/>
    <path fill="#00580d" d="M20.374 24.424V19.28l4.14 2.35v5.292l-4.14-2.498Zm-.05 6.466v-5.144l4.14 2.35v5.292l-4.14-2.498Zm0 6.522v-5.144l4.14 2.35v5.292l-4.14-2.498Zm9.822-7.322v-5.13l4.14 2.35v5.276l-4.14-2.496Zm-.05 6.468v-5.13l4.14 2.35v5.276l-4.14-2.496Zm0 6.52v-5.13l4.14 2.35v5.276l-4.14-2.496Zm-4.942-15.874V22.06l4.14 2.35v5.29l-4.14-2.496Zm-.05 6.466v-5.144l4.14 2.35v5.29l-4.14-2.496Zm.05 8.878-.05-7.558 4.14 2.35.08 7.888-4.17-2.68Z"/>
    <path fill="#006117" fill-rule="nonzero" d="m35.324 48.948 12-8.278.366-22.588-12.306 8-.06 22.866Z"/>
    <path fill="#81f340" fill-rule="nonzero" d="m19.324 16.818 16.06 9.264 12.388-7.87-16.294-8.044-12.154 6.65Z"/>
  </g>
</svg>
