<svg xmlns="http://www.w3.org/2000/svg" xml:space="preserve" fill-rule="evenodd" stroke-linejoin="round" stroke-miterlimit="2" clip-rule="evenodd" viewBox="0 0 64 64">
  <g id="green">
    <path fill="#1fa70b" fill-rule="nonzero" d="m2.298 37.806 32.376 20.21 27.03-20.21L28.68 21.492 2.298 37.806Z"/>
    <path fill="#006117" d="m19.382 41.356-.76.49.008-9.454 16.286-9-.004.862-15.448 8.664-.082-.04v8.478Zm9.276 5.694-.654.458.008-10.282 16.214-9.956.004.91-15.49 9.454-.082-.044v9.46ZM53.5 31.488l-.196 10.044L37.28 53.508l.008-11.186L53.5 31.488Z"/>
    <path fill="#2fcf08" d="m13.054 38.814-2.996-1.632v-9.02l8.564 4.068v9.614L15.2 39.982l.084-3.76-2.148-1.074-.082 3.666Zm-2.362-6.316 2.146 1.14.052-2.312-2.148-1.076-.05 2.248Zm4.972 6.31 2.146 1.138.05-2.306-2.146-1.074-.05 2.242Zm.08-3.626 2.146 1.14.05-2.308-2.146-1.074-.05 2.242Zm-5.132.94 2.146 1.14.052-2.312-2.148-1.074-.05 2.246Zm2.556-2.352 2.144 1.14.052-2.312-2.148-1.074-.048 2.246Zm6.214 8.916v-9.808l8.622 4.174v10.454l-8.622-4.82Zm5.744-2.448 2.16 1.206.02-2.51-2.162-1.132-.018 2.436Zm-5.118 1.108 2.16 1.204.02-2.514-2.162-1.136-.018 2.446Zm2.478 3.026 2.16 1.204.034-4.198-2.162-1.132-.032 4.126Zm.044-5.626 2.16 1.204.02-2.514-2.162-1.134-.018 2.444Zm-2.492-1.344 2.16 1.204.02-2.514-2.16-1.134-.02 2.444Zm5.058 6.78 2.16 1.204.02-2.508-2.162-1.134-.018 2.438Zm3.562 4.08V37.59l8.622 4.542v11.374l-8.622-5.244Zm3.136-4.278 2.17 1.292V42.54l-2.17-1.214v2.658Zm2.608 1.602 2.17 1.292v-2.73l-2.17-1.214v2.652Zm-5.11-3.042 2.17 1.292V41.1l-2.17-1.216v2.66Zm0 4.29 2.17 1.292V45.39l-2.17-1.216v2.66Zm5.11 3.042 2.17 1.292v-2.73l-2.17-1.214v2.652Zm-2.608.228 2.17 1.292V46.83l-2.17-1.214v4.488Z"/>
    <path fill="#00580d" d="m10.692 32.498.05-2.248 2.148 1.076-.052 2.312-2.146-1.14Zm5.052 2.684.05-2.242 2.146 1.074-.05 2.308-2.146-1.14Zm-2.576-1.412.048-2.246 2.148 1.074-.052 2.312-2.144-1.14Zm-2.556 2.352.05-2.246 2.148 1.074-.052 2.312-2.146-1.14Zm5.052 2.686.05-2.242 2.146 1.074-.05 2.306-2.146-1.138Zm-2.612.134.084-3.794 2.148 1.074-.086 3.86-2.146-1.14Zm6.986-1.54.02-2.444 2.16 1.134-.02 2.514-2.16-1.204Zm5.088 2.836.018-2.436 2.162 1.132-.02 2.51-2.16-1.206Zm-2.596-1.492.018-2.444 2.162 1.134-.02 2.514-2.16-1.204Zm-2.522 2.6.018-2.446 2.162 1.136-.02 2.514-2.16-1.204Zm5.088 2.836.018-2.438 2.162 1.134-.02 2.508-2.16-1.204Zm-2.61.19.032-4.126 2.162 1.132-.034 4.198-2.16-1.204Zm6.806-1.828v-2.66l2.17 1.216v2.736l-2.17-1.292Zm5.11 3.042v-2.652l2.17 1.214v2.73l-2.17-1.292Zm-2.608-1.602v-2.658l2.17 1.214v2.736l-2.17-1.292Zm-2.502 2.85v-2.66l2.17 1.216v2.736l-2.17-1.292Zm5.11 3.042v-2.652l2.17 1.214v2.73l-2.17-1.292Zm-2.608.228v-4.488l2.17 1.214v4.566l-2.17-1.292Z"/>
    <path fill="#81f340" d="M10.058 28.242C15.168 25.418 20.89 22.824 26.42 20l8.496 3.392-16.334 9.026-8.524-4.176Zm9.324 4.722 16.42-9.21 8.496 3.472-16.334 10.03-8.582-4.292Zm9.276 4.72 16.42-10.022 8.496 3.778L37.24 42.354l-8.582-4.67Z"/>
  </g>
</svg>
