<svg xmlns="http://www.w3.org/2000/svg" xml:space="preserve" fill-rule="evenodd" stroke-linejoin="round" stroke-miterlimit="2" clip-rule="evenodd" viewBox="0 0 64 64">
  <g id="blue">
    <path fill="#33c2fc" fill-rule="nonzero" d="M2.297 37.79 34.673 58l27.03-20.21-33.024-16.314L2.297 37.79Z"/>
    <path fill="#2cabfc" fill-rule="nonzero" d="m19.321 38.802 16 10.28v-8.5l-16-9.5v7.72Z"/>
    <path fill="#324565" d="m19.321 37.858-.038-6.43 5.178 3.19v6.464l-5.14-3.224Zm10.776 7.056-.004-6.966 5.288 3.134v7l-5.284-3.168Zm-4.946-2.366-.05-7.558 4.14 2.35.08 7.888-4.17-2.68Z"/>
    <path fill="#17a" fill-rule="nonzero" d="m35.321 49.082 12-8.412.14-8.588-12.14 8.326v8.674Z"/>
    <path fill="#33c2fc" fill-rule="nonzero" d="m22.391 33.082 9.206 5.288.002-1.804-9.18-5.138-.028 1.654Z"/>
  </g>
  <g id="green">
    <path fill="#2fcf08" d="m22.395 32.904-3.052-1.808-.022-14.278 16.06 9.264-.038 14.5-3.746-2.222.002-1.794-9.18-5.138-.024 1.476Z"/>
    <path fill="#00580d" d="m22.407 32.148-2.086-1.258v-5.144l4.14 2.35v4.474l-2.042-1.142-.012.72Zm2.694.782v-4.404l4.14 2.35v4.37l-4.14-2.316Zm4.992 2.794v-4.296l4.14 2.35v5.276l-2.634-1.588v-.9l-1.506-.842Zm-9.722-11.3V19.28l4.14 2.35v5.292l-4.14-2.498Zm9.772 5.666v-5.13l4.14 2.35v5.276l-4.14-2.496Zm-4.992-2.886V22.06l4.14 2.35v5.29l-4.14-2.496Z"/>
    <path fill="#006117" fill-rule="nonzero" d="m35.333 40.448 12.128-8.27.226-14.096-12.306 8-.048 14.366Z"/>
    <path fill="#81f340" fill-rule="nonzero" d="m19.321 16.818 16.06 9.264 12.388-7.87-16.294-8.044-12.154 6.65Z"/>
  </g>
</svg>
