<svg xmlns="http://www.w3.org/2000/svg" xml:space="preserve" fill-rule="evenodd" stroke-linejoin="round" stroke-miterlimit="2" clip-rule="evenodd" viewBox="0 0 64 64">
  <g id="green">
    <path fill="#00b0b0" d="M24.008 55.493C12.812 52.072 4.659 41.651 4.659 29.341 4.659 14.251 16.91 2 32 2c15.09 0 27.341 12.251 27.341 27.341 0 11.808-7.502 21.878-17.996 25.7L32.936 62l-8.928-6.507Z"/>
    <path fill="#01dbdb" d="M45 39h-2v-2H33V27h12v12Zm-24 0h-2V27h11v10h-9v2Z"/>
  </g>
  <g id="white">
    <g>
      <path fill="#e9e4e4" d="M48 26v19h-3V26h3Zm-15 0v11h-3V26h3Zm10 16v3h-3v-3h3Zm-10 0v3h-3v-3h3Zm-9 0v3h-3v-3h3Zm-5-16v19h-3V26h3Z"/>
      <path fill="#fff" d="M43 37v5H21v-5h22ZM14 16h36v10H14V16Z"/>
    </g>
  </g>
</svg>
