<svg xmlns="http://www.w3.org/2000/svg" xml:space="preserve" fill-rule="evenodd" stroke-linejoin="round" stroke-miterlimit="2" clip-rule="evenodd" viewBox="0 0 64 64">
  <g id="green">
    <path fill="#00b0b0" d="M24.008 55.493C12.812 52.072 4.659 41.651 4.659 29.341 4.659 14.251 16.91 2 32 2c15.09 0 27.341 12.251 27.341 27.341 0 11.808-7.502 21.878-17.996 25.7L32.936 62l-8.928-6.507Z"/>
  </g>
  <g id="white">
    <path fill="#fff" d="M20.514 41.319h-.467c-.549 0-1-.451-1-1V17.05c0-1.646 1.354-3 3-3h19.905c1.646 0 3 1.354 3 3v23.269c0 .549-.451 1-1 1h-.466a2 2 0 0 1 .103.636v1.454a2 2 0 0 1-2 2h-.09a2 2 0 0 1-2-2v-1.454a2 2 0 0 1 .103-.636H24.398a2 2 0 0 1 .103.636v1.454a2 2 0 0 1-2 2h-.09a2 2 0 0 1-2-2v-1.454a2 2 0 0 1 .103-.636Zm3.067-8.322a2.234 2.234 0 0 0-2.121 2.341 2.267 2.267 0 0 0 2.442 2.033l.056-.003a2.237 2.237 0 0 0 2.066-2.335 2.27 2.27 0 0 0-2.443-2.036Zm17.376 0a2.234 2.234 0 0 0-2.121 2.341 2.267 2.267 0 0 0 2.442 2.033l.056-.003a2.237 2.237 0 0 0 2.066-2.335 2.27 2.27 0 0 0-2.443-2.036Zm2.632-11.493a2 2 0 0 0-2-2H22.411a2 2 0 0 0-2 2v6.907a2 2 0 0 0 2 2h19.178a2 2 0 0 0 2-2v-6.907Z"/>
  </g>
</svg>
