<svg xmlns="http://www.w3.org/2000/svg" xml:space="preserve" fill-rule="evenodd" stroke-linejoin="round" stroke-miterlimit="2" clip-rule="evenodd" viewBox="0 0 64 64">
  <g id="orange">
    <path fill="#ffa800" d="M24.008 55.493C12.812 52.072 4.659 41.651 4.659 29.341 4.659 14.251 16.91 2 32 2c15.09 0 27.341 12.251 27.341 27.341 0 11.808-7.502 21.878-17.996 25.7L32.936 62l-8.928-6.507Z"/>
  </g>
  <g id="white">
    <path fill="#fefffe" d="M37.575 19.813h3.186a2.09 2.09 0 0 1 1.911 1.243l3.521 7.946.244-.001c.854-.029 1.465.335 1.813 1.124l-.034 8.129c0 .567-.283 1.077-.724 1.417v2.521c0 1.102-.599 1.996-1.356 1.996H43.42c-.757 0-1.356-.894-1.356-1.996v-2.433l-.871-.583-18.138.027-1.126.64v2.349c0 1.102-.6 1.996-1.357 1.996h-2.715c-.757 0-1.357-.894-1.357-1.996v-2.581c-.445-.337-.75-.81-.75-1.331v-8.128c.483-.802 1.243-1.11 1.869-1.105l3.542-7.991a2.09 2.09 0 0 1 1.91-1.243h3.356l1.212-2.697h8.765l1.171 2.697Zm6.955 10.406a1.997 1.997 0 0 0-1.998 1.995 1.997 1.997 0 0 0 3.996 0 1.997 1.997 0 0 0-1.998-1.995Zm-25.223.062a1.997 1.997 0 0 0-1.998 1.995 1.998 1.998 0 0 0 3.996 0 1.998 1.998 0 0 0-1.998-1.995Zm25.064-1.976-2.73-6.434c-.333-.761-.191-.871-1.022-.871H23.213c-.829 0-.742.062-1.074.822l-2.856 6.446 13.217-.801 11.871.838Z"/>
  </g>
</svg>
