<svg xmlns="http://www.w3.org/2000/svg" xml:space="preserve" fill-rule="evenodd" stroke-linejoin="round" stroke-miterlimit="2" clip-rule="evenodd" viewBox="0 0 64 64">
  <g id="violet">
    <path fill="#c54bff" d="M24.008 55.493C12.812 52.072 4.659 41.651 4.659 29.341 4.659 14.251 16.91 2 32 2c15.09 0 27.341 12.251 27.341 27.341 0 11.808-7.502 21.878-17.996 25.7L32.936 62l-8.928-6.507Z"/>
  </g>
  <g id="white">
    <path fill="#f4f4f4" d="m27.302 40.15-1.862 5.169h-5.502l3.637-5.169h-2.28a1.046 1.046 0 0 1-1.034-1.039V18.34a3.139 3.139 0 0 1 3.104-3.115h17.593a3.139 3.139 0 0 1 3.104 3.115v20.771c0 .571-.467 1.039-1.034 1.039h-2.859l3.638 5.169h-5.501l-1.862-5.169h-9.142Zm14.69-17.21a2.535 2.535 0 0 0-2.523-2.523H24.526a2.535 2.535 0 0 0-2.523 2.523v5.339a2.535 2.535 0 0 0 2.523 2.523h14.943a2.535 2.535 0 0 0 2.523-2.523V22.94Zm-17.911 9.764-.052.003a2.057 2.057 0 0 0-1.887 2.142 2.072 2.072 0 0 0 2.23 1.864l.05-.003a2.056 2.056 0 0 0 1.888-2.141 2.085 2.085 0 0 0-2.229-1.865Zm15.871 0-.052.003a2.057 2.057 0 0 0-1.887 2.142 2.073 2.073 0 0 0 2.231 1.864l.05-.003a2.055 2.055 0 0 0 1.887-2.141 2.084 2.084 0 0 0-2.229-1.865ZM27.504 13.147h-2.069v-3.116h13.454v3.116h-2.072v2.076h-3.104v-2.076h-3.104v2.076h-3.105v-2.076Z"/>
  </g>
</svg>
