<svg xmlns="http://www.w3.org/2000/svg" xml:space="preserve" fill-rule="evenodd" stroke-linejoin="round" stroke-miterlimit="2" clip-rule="evenodd" viewBox="0 0 64 64">
  <g id="grey">
    <path fill="#838383" d="M33.094 41.866c.138-1.63 1.018-2.241 2.081-1.349 1.158.972 2.099 3.365 2.099 5.339v10.635l-.001.124.001.09c0 .271-.034.535-.098.786a2.232 2.232 0 0 1-.316.786 3.2 3.2 0 0 1-1.935 1.505V46.951c0-1.819-.799-3.994-1.831-5.085Zm.416 17.977a3.191 3.191 0 0 1-.638-.188c.167.067.447.145.638.188Zm-.685-.207a3.226 3.226 0 0 1-.841-.531c.224.169.418.341.841.531Z"/>
    <path fill="#ababab" d="M34.925 46.951v12.831a3.149 3.149 0 0 1-1.211.091c-.042.021-.651-.131-.889-.237-.423-.19-.617-.362-.841-.531-.806-.612-1.258-1.373-1.258-2.919V43.428c0-1.974.941-2.788 2.099-1.816 1.159.972 2.1 3.365 2.1 5.339ZM22.031 4.941c.282-.283.578-.543.887-.779.262-.269.536-.517.821-.744C26.42.778 30.301.196 34.662 2.312c8.361 4.056 15.342 16.499 15.581 27.769.124 5.879-1.611 10.284-4.486 12.579a8.964 8.964 0 0 1-.832.724c-.28.287-.574.551-.881.791 2.426-2.429 3.853-6.559 3.739-11.91-.238-11.27-7.219-23.713-15.58-27.769-3.97-1.926-7.541-1.617-10.172.445Z"/>
  </g>
  <g id="white">
    <path fill="#ebebeb" d="M32.3 9.118c6.469 3.138 11.87 12.764 12.054 21.483.185 8.719-4.917 13.25-11.385 10.112-6.469-3.138-11.87-12.764-12.054-21.483C20.73 10.511 25.832 5.98 32.3 9.118Z"/>
  </g>
  <g id="black">
    <path d="m28.267 19.753.001.051-.094-.045.108 5.102-6.251-9.419 5.977-3.547.095 4.491 4.301 2.052c.617.294.983.94 1 1.763l.354 19.077-2.536-1.119-.305-16.821c-.005-.206-.096-.367-.25-.441l-2.4-1.144Z"/>
  </g>
  <g id="red">
    <path fill="#d40000" d="M32.203 4.496c8.361 4.056 15.342 16.499 15.58 27.769.239 11.27-6.356 17.127-14.717 13.071-8.361-4.057-15.342-16.499-15.58-27.769C17.247 6.297 23.842.44 32.203 4.496Zm-9.177 6.44c-1.396 1.926-2.186 4.767-2.111 8.294.184 8.719 5.585 18.345 12.054 21.483 2.616 1.27 5.009 1.284 6.918.275L23.026 10.936Zm19.217 27.959c1.396-1.925 2.186-4.767 2.111-8.294-.184-8.719-5.585-18.345-12.054-21.483-2.616-1.269-5.009-1.284-6.918-.274l16.861 30.051Z"/>
  </g>
</svg>
