<svg xmlns="http://www.w3.org/2000/svg" xml:space="preserve" fill-rule="evenodd" stroke-linecap="round" stroke-linejoin="round" stroke-miterlimit="1.5" clip-rule="evenodd" viewBox="0 0 64 64">
  <g id="brown">
    <path fill="#b26528" fill-rule="nonzero" d="M12.621 38.732c3.321-.896 6.734.971 7.627 4.173.893 3.202-1.091 6.515-4.412 7.411-3.323.895-6.736-.975-7.624-4.171-.887-3.198 1.086-6.518 4.409-7.413Zm35.537 0c3.322-.896 6.734.971 7.628 4.173.894 3.202-1.092 6.515-4.413 7.411-3.321.895-6.736-.975-7.623-4.171-.886-3.198 1.085-6.518 4.408-7.413Z"/>
    <path fill="#754600" fill-rule="nonzero" d="M31.172 27.853c3.503-.966 7.104 1.046 8.047 4.496.943 3.448-1.151 7.018-4.654 7.983-3.504.965-7.107-1.049-8.044-4.493-.934-3.445 1.146-7.022 4.651-7.986Z"/>
    <path fill="#884c1e" fill-rule="nonzero" d="M36.437 39.448c3.083-.832 6.251.902 7.08 3.874.829 2.971-1.013 6.047-4.095 6.878-3.085.832-6.253-.903-7.078-3.871-.822-2.968 1.009-6.051 4.093-6.881Z"/>
    <path fill="#e09458" fill-rule="nonzero" d="M12.6 39.911c2.884-.691 5.922.873 6.782 3.494.86 2.62-.781 5.307-3.665 5.998-2.885.692-5.923-.871-6.785-3.492-.862-2.621.782-5.308 3.668-6Zm35.537 0c2.885-.691 5.923.873 6.783 3.494.86 2.62-.782 5.307-3.666 5.998-2.884.692-5.923-.871-6.785-3.492-.862-2.621.783-5.308 3.668-6ZM31.15 29.123c3.045-.744 6.248.941 7.155 3.763.908 2.823-.823 5.718-3.866 6.462-3.043.745-6.248-.938-7.157-3.761-.911-2.824.823-5.718 3.868-6.464Zm5.267 11.419c2.678-.641 5.497.811 6.295 3.243.799 2.432-.724 4.927-3.402 5.567-2.676.643-5.498-.807-6.297-3.24-.801-2.433.725-4.927 3.404-5.57Z"/>
    <path fill="#49362f" fill-rule="nonzero" d="M19.23 28.575c3.199-.911 6.485.987 7.345 4.24.862 3.253-1.05 6.62-4.248 7.531-3.199.91-6.487-.989-7.341-4.239-.853-3.249 1.045-6.624 4.244-7.532Z"/>
    <path fill="#7e5234" fill-rule="nonzero" d="M24.723 38.858c3.248-.876 6.586.951 7.46 4.083.874 3.13-1.066 6.372-4.316 7.248-3.249.875-6.588-.952-7.456-4.08-.867-3.127 1.061-6.375 4.312-7.251Z"/>
    <path fill="#66503a" fill-rule="nonzero" d="M43.157 30.116c2.769-.747 5.613.81 6.358 3.479.747 2.669-.909 5.431-3.678 6.178-2.77.747-5.615-.811-6.356-3.477-.739-2.667.906-5.434 3.676-6.18Z"/>
    <path fill="#b26528" fill-rule="nonzero" d="M24.955 20.084c2.768-.747 5.615.81 6.359 3.48.745 2.668-.909 5.431-3.678 6.178-2.769.746-5.617-.812-6.355-3.478-.739-2.665.904-5.434 3.674-6.18Z"/>
    <path fill="#b26528" fill-rule="nonzero" d="M32.907 13.647c2.768-.746 5.615.811 6.359 3.48.745 2.668-.909 5.431-3.678 6.178-2.769.746-5.617-.812-6.356-3.477-.738-2.666.905-5.435 3.675-6.181Z"/>
    <path fill="#754600" fill-rule="nonzero" d="M39.633 21.116c2.768-.747 5.615.81 6.359 3.479.745 2.669-.909 5.431-3.678 6.178-2.769.747-5.617-.811-6.355-3.477-.739-2.666.904-5.434 3.674-6.18Z"/>
    <path fill="#e09458" fill-rule="nonzero" d="M19.211 29.773c2.777-.702 5.703.887 6.531 3.55.828 2.662-.754 5.393-3.53 6.095-2.778.703-5.704-.885-6.533-3.548-.83-2.663.753-5.394 3.532-6.097Zm5.491 10.239c2.822-.677 5.793.854 6.634 3.417.841 2.563-.764 5.191-3.585 5.867-2.822.677-5.793-.852-6.636-3.415-.844-2.564.764-5.192 3.587-5.869Zm18.437-8.913c2.405-.576 4.937.728 5.654 2.912.717 2.185-.651 4.425-3.055 5.001-2.404.577-4.937-.726-5.656-2.911-.718-2.185.652-4.425 3.057-5.002ZM24.937 21.068c2.406-.577 4.939.727 5.656 2.912.716 2.184-.653 4.424-3.057 5.001-2.405.576-4.937-.727-5.656-2.912-.719-2.185.651-4.425 3.057-5.001Zm7.952-6.436c2.406-.578 4.939.726 5.656 2.911.716 2.184-.653 4.424-3.057 5.001-2.405.576-4.937-.727-5.656-2.911-.719-2.186.651-4.426 3.057-5.001Zm6.726 7.467c2.406-.576 4.939.728 5.656 2.912.716 2.185-.653 4.425-3.057 5.001-2.405.577-4.937-.726-5.656-2.911-.719-2.185.651-4.425 3.057-5.002Z"/>
    <ellipse cx="14.144" cy="44.765" fill="none" stroke="#754600" stroke-width=".15" rx="4.856" ry="4.691"/>
    <path fill="none" stroke="#754600" stroke-width=".15" d="M25.971 49.456c-2.68-.029-4.834-2.155-4.806-4.744.029-2.589 2.228-4.667 4.908-4.638 2.68.029 4.834 2.155 4.806 4.744-.03 2.589-2.228 4.667-4.908 4.638Zm9.713-.902c-2.103-1.244-2.835-3.904-1.633-5.936 1.203-2.031 3.886-2.671 5.99-1.426 2.103 1.244 2.834 3.904 1.632 5.936-1.202 2.031-3.886 2.67-5.989 1.426Zm11.533.222c-2.31-1.367-3.093-4.323-1.747-6.597 1.345-2.274 4.313-3.011 6.623-1.645 2.311 1.368 3.094 4.324 1.748 6.599-1.345 2.274-4.314 3.01-6.624 1.643ZM27.54 35.735c-.804-2.671.84-5.531 3.669-6.383 2.83-.852 5.78.624 6.585 3.296.804 2.671-.84 5.532-3.67 6.384-2.829.852-5.779-.626-6.584-3.297Zm12.953.416c-.646-2.146.625-4.43 2.836-5.095 2.211-.666 4.531.536 5.177 2.682.647 2.147-.624 4.43-2.835 5.096-2.212.665-4.531-.537-5.178-2.683Zm-17.34 2.401c-2.103 1.372-4.959.727-6.372-1.439-1.414-2.167-.854-5.041 1.248-6.412 2.103-1.373 4.959-.728 6.373 1.439 1.413 2.166.854 5.04-1.249 6.412Zm5.232-10.193c-1.851 1.208-4.303.733-5.474-1.06-1.169-1.793-.616-4.229 1.235-5.437 1.851-1.208 4.303-.733 5.473 1.061 1.171 1.792.618 4.228-1.234 5.436Zm16.46-2.268c-.052 2.21-1.831 3.963-3.972 3.913-2.14-.051-3.836-1.885-3.784-4.095.053-2.21 1.832-3.963 3.972-3.913 2.141.05 3.837 1.886 3.784 4.095Zm-13.931-5.668a3.857 3.857 0 0 1 1.33-5.287 3.857 3.857 0 0 1 5.287 1.332 3.857 3.857 0 0 1-1.331 5.287 3.856 3.856 0 0 1-5.286-1.332Z"/>
    <ellipse cx="14.157" cy="44.824" fill="none" stroke="#754600" stroke-width=".15" rx="4.377" ry="4.228"/>
    <path fill="none" stroke="#754600" stroke-width=".15" d="M25.963 48.934c-2.415-.026-4.355-1.942-4.33-4.276.025-2.333 2.008-4.206 4.423-4.18 2.416.026 4.356 1.942 4.331 4.276-.025 2.333-2.008 4.206-4.424 4.18Zm9.954-.796c-1.896-1.121-2.555-3.518-1.472-5.35 1.083-1.83 3.501-2.406 5.397-1.285 1.896 1.122 2.555 3.518 1.472 5.35-1.083 1.831-3.502 2.407-5.397 1.285Zm11.561.173c-2.083-1.232-2.789-3.896-1.576-5.946s3.888-2.714 5.971-1.482c2.082 1.233 2.788 3.897 1.575 5.947-1.213 2.05-3.888 2.714-5.97 1.481Zm-19.372-12.76c-.724-2.408.758-4.986 3.308-5.754 2.55-.768 5.209.564 5.934 2.971.725 2.407-.756 4.986-3.307 5.754-2.55.767-5.209-.563-5.935-2.971Zm12.83.455c-.583-1.934.563-3.992 2.555-4.592 1.994-.6 4.085.483 4.667 2.418.583 1.934-.563 3.992-2.555 4.592-1.994.6-4.085-.484-4.667-2.418Zm-18.078 2.115c-1.896 1.238-4.469.656-5.743-1.297-1.274-1.952-.771-4.542 1.125-5.779 1.895-1.237 4.469-.655 5.744 1.297 1.273 1.953.769 4.543-1.126 5.779Zm5.283-10.117c-1.669 1.088-3.879.66-4.934-.956-1.054-1.616-.555-3.812 1.113-4.9 1.668-1.089 3.879-.661 4.933.956 1.054 1.615.556 3.811-1.112 4.9Zm16.273-1.912c-.047 1.991-1.652 3.572-3.581 3.526-1.928-.046-3.457-1.7-3.41-3.691.048-1.992 1.652-3.572 3.58-3.526 1.929.046 3.457 1.699 3.411 3.691Zm-13.137-5.898a3.476 3.476 0 0 1 1.199-4.765 3.476 3.476 0 0 1 3.565 5.966 3.476 3.476 0 0 1-4.764-1.201Z"/>
    <ellipse cx="14.231" cy="44.948" fill="none" stroke="#754600" stroke-width=".15" rx="3.918" ry="3.784"/>
    <path fill="none" stroke="#754600" stroke-width=".15" d="M25.895 48.365c-2.162-.024-3.899-1.738-3.876-3.826.023-2.09 1.797-3.765 3.959-3.742 2.162.024 3.898 1.738 3.876 3.827-.024 2.088-1.797 3.764-3.959 3.741Zm10.227-.707c-1.697-1.004-2.287-3.15-1.318-4.788.97-1.639 3.134-2.155 4.831-1.151 1.697 1.004 2.286 3.149 1.317 4.788-.97 1.639-3.134 2.154-4.83 1.151Zm11.587.115c-1.864-1.102-2.496-3.486-1.41-5.32 1.085-1.835 3.479-2.43 5.343-1.326 1.863 1.102 2.495 3.486 1.41 5.321-1.086 1.834-3.48 2.429-5.343 1.325ZM28.706 35.289c-.649-2.154.677-4.462 2.959-5.149 2.282-.688 4.662.504 5.311 2.659.649 2.154-.678 4.461-2.96 5.149-2.283.687-4.661-.504-5.31-2.659Zm12.697.511c-.521-1.731.504-3.573 2.288-4.11 1.783-.537 3.655.433 4.176 2.164.521 1.732-.504 3.572-2.287 4.11-1.784.537-3.656-.433-4.177-2.164Zm-18.914 1.884c-1.697 1.107-3.999.587-5.14-1.161-1.14-1.748-.689-4.065 1.007-5.172 1.697-1.107 3.999-.586 5.14 1.161 1.14 1.748.689 4.066-1.007 5.172Zm5.343-10.04c-1.493.973-3.471.591-4.415-.855-.943-1.446-.498-3.412.996-4.385 1.493-.975 3.471-.592 4.415.854.943 1.447.498 3.411-.996 4.386Zm16.11-1.502c-.041 1.782-1.477 3.197-3.203 3.155-1.727-.04-3.094-1.519-3.052-3.302.041-1.782 1.477-3.196 3.203-3.156 1.726.041 3.094 1.521 3.052 3.303Zm-12.295-6.239a3.112 3.112 0 0 1 1.073-4.264 3.11 3.11 0 0 1 3.192 5.339 3.112 3.112 0 0 1-4.265-1.075Z"/>
    <ellipse cx="14.409" cy="45.067" fill="none" stroke="#754600" stroke-width=".15" rx="3.277" ry="3.299"/>
    <path fill="none" stroke="#754600" stroke-width=".15" d="M25.723 47.759c-1.809-.02-3.26-1.514-3.24-3.334.019-1.822 1.504-3.283 3.312-3.264 1.809.02 3.261 1.515 3.241 3.335-.02 1.821-1.505 3.283-3.313 3.263Zm10.539-.658c-1.42-.839-1.885-2.681-1.039-4.109a2.999 2.999 0 0 1 4.102-1.069c1.42.84 1.885 2.682 1.039 4.111-.844 1.428-2.683 1.907-4.102 1.067Zm11.607.052c-1.559-.923-2.057-2.97-1.111-4.57.947-1.599 2.981-2.148 4.54-1.226 1.559.923 2.056 2.969 1.109 4.569-.946 1.599-2.98 2.149-4.538 1.227Zm-18.558-12.24c-.543-1.803.633-3.753 2.623-4.351 1.989-.6 4.045.377 4.588 2.179.542 1.803-.632 3.752-2.622 4.352-1.99.599-4.045-.378-4.589-2.18Zm12.565.589c-.436-1.448.472-3.004 2.028-3.472 1.555-.468 3.171.327 3.607 1.775.436 1.449-.472 3.004-2.028 3.473-1.555.467-3.171-.327-3.607-1.776Zm-19.857 1.769c-1.419.926-3.378.44-4.372-1.084-.995-1.524-.65-3.512.769-4.438 1.419-.926 3.378-.441 4.373 1.083.993 1.524.649 3.513-.77 4.439Zm5.418-9.965c-1.25.816-2.931.454-3.754-.808-.823-1.261-.477-2.946.772-3.761s2.931-.453 3.754.808c.822 1.261.476 2.946-.772 3.761Zm16.003-1.028c-.035 1.491-1.285 2.672-2.791 2.637-1.505-.036-2.699-1.275-2.663-2.766.035-1.49 1.285-2.672 2.791-2.637 1.504.035 2.698 1.274 2.663 2.766ZM32 19.528c-.736-1.233-.292-2.857.992-3.624 1.284-.767 2.925-.39 3.662.842.736 1.233.292 2.856-.993 3.624-1.284.767-2.925.39-3.661-.842Z"/>
    <ellipse cx="14.75" cy="45.503" fill="none" stroke="#754600" stroke-width=".15" rx="2.75" ry="2.863"/>
    <path fill="none" stroke="#754600" stroke-width=".15" d="M25.392 46.882c-1.518-.016-2.736-1.312-2.718-2.892.017-1.58 1.263-2.849 2.781-2.832 1.517.016 2.736 1.313 2.718 2.892-.017 1.58-1.263 2.849-2.781 2.832Zm11.007-.623c-1.19-.706-1.562-2.284-.828-3.524.734-1.239 2.296-1.674 3.487-.969 1.191.705 1.562 2.283.829 3.523-.734 1.239-2.296 1.674-3.488.97Zm11.63-.047c-1.309-.774-1.704-2.529-.883-3.916.821-1.388 2.549-1.886 3.858-1.113 1.309.775 1.704 2.53.883 3.917-.822 1.388-2.55 1.886-3.858 1.112ZM30.163 34.286c-.455-1.512.577-3.163 2.304-3.683 1.726-.52 3.497.287 3.953 1.799.455 1.513-.577 3.163-2.303 3.683-1.727.52-3.498-.286-3.954-1.799Zm12.376.719c-.365-1.216.432-2.532 1.782-2.939 1.349-.406 2.742.252 3.108 1.467.366 1.215-.432 2.532-1.782 2.938-1.349.406-2.742-.251-3.108-1.466Zm-21.264 1.709c-1.191.777-2.858.334-3.721-.987-.863-1.322-.596-3.027.595-3.803 1.191-.778 2.858-.335 3.72.987.863 1.322.597 3.026-.594 3.803Zm5.532-9.859c-1.048.684-2.479.351-3.192-.743-.715-1.094-.443-2.538.605-3.222 1.048-.684 2.478-.351 3.192.744.715 1.094.443 2.537-.605 3.221Zm15.905-.314c-.03 1.252-1.114 2.242-2.42 2.211-1.306-.03-2.343-1.071-2.313-2.322.03-1.251 1.114-2.242 2.42-2.211 1.306.03 2.342 1.071 2.313 2.322Zm-10.235-7.614c-.618-1.034-.215-2.415.899-3.08 1.114-.666 2.521-.368 3.139.667.618 1.034.215 2.414-.899 3.081-1.115.666-2.521.366-3.139-.668Z"/>
    <ellipse cx="15.501" cy="46.218" fill="none" stroke="#754600" stroke-width=".15" rx="1.843" ry="1.695"/>
    <path fill="none" stroke="#754600" stroke-width=".15" d="M24.663 44.991c-1.017-.011-1.835-.779-1.825-1.715.01-.934.845-1.684 1.862-1.673 1.017.011 1.834.779 1.824 1.714-.01.935-.844 1.685-1.861 1.674Zm12.023-.559c-.799-.472-1.094-1.451-.66-2.185.435-.734 1.435-.946 2.233-.474.799.472 1.094 1.452.66 2.185-.434.734-1.435.947-2.233.474Zm11.675-.257c-.877-.519-1.194-1.606-.708-2.428.486-.821 1.593-1.067 2.469-.549.877.519 1.194 1.608.708 2.429-.486.822-1.592 1.067-2.469.548ZM31.996 32.919a1.927 1.927 0 0 1 1.298-2.394 1.926 1.926 0 0 1 2.405 1.279 1.926 1.926 0 0 1-1.298 2.394 1.928 1.928 0 0 1-2.405-1.279Zm11.971 1.001c-.245-.815.203-1.671 1.003-1.911.799-.241 1.646.225 1.891 1.04.245.814-.204 1.671-1.003 1.911-.798.241-1.646-.225-1.891-1.04Zm-24.308 1.602c-.798.521-1.861.308-2.372-.474-.51-.783-.277-1.841.521-2.362.799-.52 1.861-.308 2.372.475.511.782.277 1.84-.521 2.361Zm5.779-9.633c-.703.458-1.616.304-2.039-.343-.422-.647-.195-1.545.507-2.004.703-.459 1.617-.305 2.039.343.422.648.195 1.546-.507 2.004Zm15.703 1.234c-.02.839-.664 1.505-1.437 1.486-.773-.018-1.384-.714-1.365-1.552.02-.838.664-1.504 1.437-1.486.772.018 1.384.713 1.365 1.552Zm-7.641-9.5c-.415-.693-.216-1.576.444-1.971.66-.394 1.531-.151 1.946.542.414.694.215 1.576-.445 1.97-.659.394-1.531.152-1.945-.541Z"/>
    <ellipse cx="15.831" cy="46.5" fill="none" stroke="#754600" stroke-width=".15" rx="1.421" ry="1.207"/>
    <path fill="none" stroke="#754600" stroke-width=".15" d="M24.34 44.218c-.785-.008-1.415-.556-1.408-1.222.008-.666.65-1.199 1.435-1.191.784.009 1.415.556 1.408 1.222-.007.666-.651 1.2-1.435 1.191Zm12.444-.543c-.617-.365-.865-1.085-.557-1.607.31-.523 1.061-.65 1.676-.286.616.364.865 1.084.555 1.606-.308.523-1.059.651-1.674.287Zm11.691-.344c-.676-.401-.944-1.2-.598-1.785s1.177-.735 1.853-.335c.675.401.944 1.2.598 1.785s-1.177.735-1.853.335ZM32.738 32.336c-.236-.783.164-1.595.891-1.814.729-.219 1.51.238 1.746 1.019.235.783-.164 1.596-.892 1.815-.728.218-1.509-.238-1.745-1.02Zm11.807 1.121c-.19-.628.118-1.277.687-1.448.569-.172 1.184.199 1.373.828.19.628-.119 1.277-.687 1.448-.57.171-1.184-.2-1.373-.828Zm-25.566 1.591c-.616.402-1.41.275-1.775-.282-.363-.557-.158-1.336.457-1.737.616-.402 1.41-.276 1.774.282.363.557.159 1.335-.456 1.737Zm5.883-9.543c-.542.354-1.226.267-1.527-.195-.301-.46-.106-1.122.436-1.475.543-.354 1.227-.267 1.527.194.301.462.106 1.122-.436 1.476Zm15.636 1.876c-.015.647-.475 1.161-1.025 1.148-.551-.013-.985-.548-.969-1.195.015-.647.473-1.162 1.025-1.149.55.013.984.55.969 1.196Zm-6.59-10.308c-.32-.535-.198-1.197.272-1.478.469-.28 1.11-.074 1.43.461.319.534.197 1.196-.273 1.476-.469.281-1.11.075-1.429-.459Z"/>
  </g>
</svg>
