<?xml version="1.0" encoding="UTF-8" standalone="no"?><!DOCTYPE svg PUBLIC "-//W3C//DTD SVG 1.1//EN" "http://www.w3.org/Graphics/SVG/1.1/DTD/svg11.dtd"><svg width="100%" height="100%" viewBox="0 0 64 64" version="1.1" xmlns="http://www.w3.org/2000/svg" xmlns:xlink="http://www.w3.org/1999/xlink" xml:space="preserve" xmlns:serif="http://www.serif.com/" style="fill-rule:evenodd;clip-rule:evenodd;stroke-linejoin:round;stroke-miterlimit:2;"><g id="grey"><path d="M0.89,29.865L29.854,54.169L63.142,34.95L63.142,32.362L30.092,51.443L0.858,26.913L0.89,29.865Z" style="fill:#c4c4c4;fill-rule:nonzero;"/><path d="M0.858,26.913L30.092,51.443L63.142,32.362L33.908,7.831L0.858,26.913Z" style="fill:#929191;fill-rule:nonzero;"/><path d="M26.735,16.037L32.22,20.635L31.364,21.129L25.895,16.522L26.735,16.037ZM35.876,23.7L41.361,28.298L40.479,28.806L35.01,24.2L35.876,23.7ZM45.017,31.363L50.502,35.96L49.594,36.484L44.125,31.877L45.017,31.363ZM31.463,13.307L36.948,17.905L36.092,18.399L30.623,13.792L31.463,13.307ZM40.604,20.97L46.089,25.568L45.207,26.076L39.738,21.47L40.604,20.97ZM49.745,28.633L55.23,33.23L54.322,33.754L48.853,29.147L49.745,28.633Z" style="fill:#d4d4d4;"/><path d="M9.968,25.718L15.453,30.316L14.597,30.81L9.128,26.203L9.968,25.718ZM19.109,33.381L24.594,37.979L23.712,38.487L18.243,33.881L19.109,33.381ZM28.25,41.044L33.735,45.641L32.827,46.165L27.358,41.558L28.25,41.044ZM14.695,22.988L20.18,27.586L19.324,28.08L13.855,23.473L14.695,22.988ZM23.836,30.651L29.321,35.249L28.439,35.757L22.97,31.151L23.836,30.651ZM32.977,38.314L38.462,42.911L37.554,43.435L32.085,38.828L32.977,38.314Z" style="fill:#d4d4d4;"/></g><g id="white"><path d="M31.854,33.907L27.896,33.146L29.115,32.441L25.884,29.735L27.101,29.033L30.311,31.743L31.544,31.039L31.854,33.907ZM26.706,36.88L22.747,36.118L23.967,35.414L20.736,32.708L21.952,32.006L25.162,34.715L26.396,34.011L26.706,36.88ZM21.446,39.917L17.487,39.155L18.707,38.45L15.476,35.745L16.692,35.042L19.902,37.752L21.135,37.048L21.446,39.917ZM32.492,25.593L36.451,26.355L35.231,27.059L38.462,29.765L37.246,30.467L34.036,27.758L32.803,28.461L32.492,25.593ZM42.9,19.583L46.859,20.345L45.639,21.049L48.87,23.755L47.654,24.457L44.444,21.748L43.21,22.451L42.9,19.583ZM37.71,22.579L41.668,23.341L40.449,24.045L43.68,26.751L42.463,27.454L39.253,24.744L38.02,25.448L37.71,22.579Z" style="fill:#fff;"/></g><g id="yellow"><path d="M17.116,17.526L46.284,42.094L47.199,41.566L17.948,17.046L17.116,17.526Z" style="fill:#fbd508;fill-rule:nonzero;"/></g></svg>