<svg xmlns="http://www.w3.org/2000/svg" xml:space="preserve" fill-rule="evenodd" stroke-linejoin="round" stroke-miterlimit="2" clip-rule="evenodd" viewBox="0 0 64 64">
  <g id="grey">
    <path fill="#444" fill-rule="nonzero" d="m3.409 29.865 28.964 24.304 28.243-16.307.007-3.493-6.578 3.782v.917L32.611 51.443 3.377 26.913l.032 2.952Z"/>
    <path fill="#c2bdbd" d="M54.045 38.155v.908L24.811 14.532v-.907l29.234 24.53Z"/>
    <path fill="#929191" fill-rule="nonzero" d="m3.377 26.913 29.234 24.53 21.434-12.375-29.234-24.53L3.377 26.913Z"/>
    <path fill="#d4d4d4" fill-rule="nonzero" d="m13.453 21.155 29.135 24.528.956-.552-29.21-24.484-.881.508Z"/>
    <path fill="#929191" d="m30.139 27.05 1.827 1.533-9.651 5.572-1.827-1.533 9.651-5.572Zm-10.963-9.199 1.827 1.533-9.651 5.572-1.827-1.533 9.651-5.572Zm16.423 13.781 1.827 1.533-9.651 5.572-1.827-1.534 9.651-5.571ZM41 36.164l1.827 1.533-9.651 5.572-1.827-1.533L41 36.164Zm5.583 4.684 1.827 1.533-9.651 5.572-1.827-1.533 9.651-5.572ZM24.657 22.451l1.827 1.533-9.65 5.572-1.827-1.534 9.65-5.571Z"/>
  </g>
  <g id="green">
    <path fill="#379442" d="m31.381 9.831 29.242 24.538-6.57 3.793-29.242-24.537 6.57-3.794Z"/>
  </g>
</svg>
