<svg xmlns="http://www.w3.org/2000/svg" xml:space="preserve" fill-rule="evenodd" stroke-linejoin="round" stroke-miterlimit="2" clip-rule="evenodd" viewBox="0 0 64 64">
  <g id="grey">
    <path fill="#c4c4c4" fill-rule="nonzero" d="m3.99 28.075 28.964 24.304 27.188-15.697v-2.588l-26.95 15.559-29.234-24.53.032 2.952Z"/>
    <path fill="#929191" fill-rule="nonzero" d="m3.858 25.181 29.234 24.53 27.05-15.617L30.908 9.563 3.858 25.181Z"/>
    <path fill="#d4d4d4" d="m10.776 21.247-.042-.036.832-.48.042.036-.832.48Zm12.765-7.37-.042-.036.832-.48.042.036-.832.48Zm3.661 1.891 5.484 4.597-.855.494-5.469-4.606.84-.485Zm9.141 7.662 5.484 4.598-.881.509-5.469-4.607.866-.5Zm9.141 7.663 5.484 4.598-.907.523-5.469-4.606.892-.515Zm-8.188 12.491-5.469-4.606.892-.515 5.484 4.597-.907.524Zm-9.115-7.677L22.712 31.3l.866-.5 5.484 4.598-.881.509Zm-9.115-7.678-5.469-4.606.84-.485 5.484 4.597-.855.494Z"/>
  </g>
  <g id="yellow">
    <path fill="#fbd508" fill-rule="nonzero" d="m17.116 17.526 29.168 24.568.915-.528-29.251-24.52-.832.48Z"/>
  </g>
  <g id="white" fill="#fff" fill-rule="nonzero">
    <path d="m31.122 24.348.423 3.91 1.681-.959 4.377 3.694 1.658-.957-4.405-3.689 1.663-.961-5.397-1.038Zm-5.478 13.549-.423-3.91-1.681.959-4.377-3.694-1.658.957 4.405 3.689-1.663.961 5.397 1.038Zm6.383-3.685-.423-3.91-1.681.959-4.377-3.694-1.658.957 4.405 3.689-1.663.961 5.397 1.038Zm5.477-13.549.423 3.91 1.681-.959 4.377 3.694 1.658-.957-4.405-3.689 1.663-.961-5.397-1.038Z"/>
  </g>
</svg>
