<svg xmlns="http://www.w3.org/2000/svg" xml:space="preserve" fill-rule="evenodd" stroke-linejoin="round" stroke-miterlimit="2" clip-rule="evenodd" viewBox="0 0 64 64">
  <g id="orange" fill="#c56d2a">
    <path d="M10.699 24.321v1.391c.004.38.315.692.696.695a.708.708 0 0 0 .695-.695v-1.391a.703.703 0 0 0-.695-.695.702.702 0 0 0-.696.695ZM7.75 21.085v1.391c.003.38.315.692.695.695a.707.707 0 0 0 .696-.695v-1.391a.703.703 0 0 0-.696-.695.704.704 0 0 0-.695.695Zm-2.885-4.056-.068 1.461c.004.38.316.691.696.695a.708.708 0 0 0 .695-.695v-1.391a.704.704 0 0 0-.695-.695c-.382 0-.628.244-.628.625ZM29.988 4.028v1.264c0 .346.292.631.646.631a.65.65 0 0 0 .647-.631V4.028a.645.645 0 0 0-.647-.632.645.645 0 0 0-.646.632Zm-2.798 6.948v1.263c0 .347.292.632.647.632a.652.652 0 0 0 .647-.632v-1.263a.646.646 0 0 0-1.294 0Zm-2.066 6.148v1.263l-.001.029a.651.651 0 0 0 .647.623.652.652 0 0 0 .648-.623l-.001-.029v-1.263a.645.645 0 0 0-.646-.632.645.645 0 0 0-.647.632Z"/>
    <path d="M36.537 46.607v1.391c.003.38.315.692.695.695a.708.708 0 0 0 .696-.695v-1.391a.702.702 0 0 0-.696-.695.703.703 0 0 0-.695.695Zm-2.949-3.235v1.39c.004.38.315.691.695.696a.707.707 0 0 0 .695-.696v-1.39a.702.702 0 0 0-.695-.696.703.703 0 0 0-.695.696Zm-2.953-3.986v1.39c.004.38.315.691.695.695a.71.71 0 0 0 .696-.695v-1.39a.703.703 0 0 0-.696-.696.702.702 0 0 0-.695.696Zm25.503-13.415v1.263c0 .346.292.631.646.631a.65.65 0 0 0 .647-.631v-1.263a.645.645 0 0 0-.647-.632.645.645 0 0 0-.646.632Zm-2.798 6.948v1.263c0 .346.292.631.647.631a.652.652 0 0 0 .647-.631v-1.263a.646.646 0 0 0-1.294 0Zm-2.066 6.147v1.263l-.001.03a.651.651 0 0 0 .648.605.651.651 0 0 0 .647-.605l-.001-.03v-1.263a.645.645 0 0 0-.646-.631.645.645 0 0 0-.647.631Z"/>
  </g>
  <g id="grey">
    <path fill="#4c4c4c" fill-rule="nonzero" d="m50.486 58.845-1.045-.929-2.044-15.102.974-14.249.556.739-.818 14.039"/>
    <path fill="#747373" d="m49.549 31.907 7.882-6.76-10.052.771-1.248-1.483-.869-.587-3.651 4.359-.181.493-10.413 10.083.447.441 9.873-3.498-.026.702-7.421 6.275.334.348 6.921-2.044-.087 1.906-4.108 3.108.246.257 3.719-.744-.05.035.058.044-2.986 12.513 1.009.728 1.963-6.847 2.842 2.107-.397 7.849 1.051.73 1.021-.486.002-8.07 3.578-2.27 1.461 6.98 1.257-.717-2.901-15.055.093-1.423 3.647-3.294-3.454.327.107-1.661 5.433-4.924-5.142.451.042-.644Zm-1.684-5.412 6.665-.347-5.016 2.306-1.649-1.959Zm1.857 2.75 4.683-2.409-4.79 4.062.107-1.653Zm-6.286-1.637 1.734-2.022-.084 1.123-1.65.899Zm-2.072 7.375-8.42 2.79 8.465-4.016-.045 1.226Zm.087-2.39-6.853 3.478 6.951-6.17-.098 2.692Zm-.284 7.799-5.604 1.324 5.623-1.846-.019.522Zm.05-1.363-3.751 1.453 3.805-2.931-.054 1.478Zm.942 3.133.04-1.534 2.101-.753-.009.24-.177-.174-1.955 2.221Zm-1.161 2.863-.019.007.019-.011v.004Zm.022-.587-1.996.82 2.002-1.485-.006.665Zm.121 6.372.846-4.378 2 1.542-.036.959-2.81 1.877Zm2.661 1.97-2.079-1.346 2.187-1.451-.108 2.797Zm5.106-1.746-3.361-1.921.032-1.319 2.736-1.804.593 5.044Zm-3.38-1.116 2.728 1.516-2.805 1.759.077-3.275Zm2.483-7.445-.038.602.241 2.053-2.315-1.377.191-.069 1.449-.78.472-.429Zm1.07-3.372 1.883-.159-1.944 1.113.061-.954Zm-.091 1.41 1.905-1.167-1.942 1.725.037-.558Zm-.683-2.66-.058.898-1.523.111 1.155-.621.426-.388Zm1.165-4.752 3.008-.206-3.094 1.516.086-1.31Zm-.131 2.004 3.046-1.666-3.119 2.789.073-1.123Zm-6.297-6.517 1.977-.988-.166 2.26-1.811-1.272Zm3.037 1.433.397-3.148.36-.18 1.612 2.247-2.369 1.081Zm-3.659 1.997.074-2.827 1.82 1.704-1.894 1.123Zm-.03 1.181 2.214-1.262-.074 1.913-.459.264-1.719.552.038-1.467Zm3.536-.155.044-1.839.501-.261 2.35-1.179-.122 1.912-.375.319-1.41.747-.533.039-.455.262Zm-3.672 5.378.053-2.049 1.172-1.331.211-.111.809-.274-.097 2.506-2.148 1.259Zm2.065.899-2.107.716.02-.768 2.136-1.229-.049 1.281Zm-2.205 4.532.022-.861 2.135-2.421-.084 2.172-2.073 1.11Zm.15.744-.172.059.007-.241 2.068-1.141-1.903 1.323Zm1.768 2.189-1.841-1.24 1.406-.971.527-.188-.092 2.399Zm1.627-2.455 2.104 1.215-2.167 1.413.063-2.628Zm2.442-3.284-.054.835-.562.505-1.804 1.01.023-.971.07-.039 2.327-1.34Zm-2.334-1.279 1.082-.57 1.373-.059-.09 1.416-2.416 1.365.051-2.152Zm2.681-4.168-.092 1.447-.546.492-2.017 1.131.035-1.481 2.62-1.589Zm-.601-2.429.759-.033-.111 1.729-2.647 1.473.052-2.176 1.947-.993Z"/>
    <path fill="#8c8a8a" fill-rule="nonzero" d="m46.097 24.387-.648 6.927.529-.239.455-4.256.706-.288 1.883 2.577.753-.409"/>
    <path fill="#4c4c4c" fill-rule="nonzero" d="m24.218 36.803-1.045-.929-2.044-15.102.973-14.249.556.739-.817 14.039"/>
    <path fill="#747373" d="m23.281 9.865 7.882-6.759-10.052.77-1.248-1.483-.869-.587-3.651 4.359-.181.494L4.748 16.741l.448.441 9.873-3.497-.026.701-7.421 6.275.334.348 6.921-2.044-.045 1.903-4.15 3.112.246.256 3.719-.744-.05.035.057.044-2.985 12.513 1.009.728 1.963-6.846 2.842 2.106-.398 7.849 1.051.73 1.022-.486.002-8.069 3.577-2.27 1.462 6.979 1.257-.717-2.902-15.055.093-1.423 3.648-3.294-3.455.327.108-1.661 5.433-4.923-5.142.45.042-.644Zm-1.684-5.412 6.665-.347-5.017 2.306-1.648-1.959Zm1.857 2.75 4.683-2.409-4.791 4.063.108-1.654Zm-6.287-1.637 1.734-2.022-.083 1.123-1.651.899Zm-2.071 7.375-8.42 2.79 8.464-4.016-.044 1.226Zm.087-2.39-6.854 3.478 6.952-6.17-.098 2.692Zm-.284 7.799-5.605 1.324 5.624-1.845-.019.521Zm.05-1.363-3.752 1.453 3.806-2.931-.054 1.478Zm.942 3.133.04-1.534 2.1-.753-.009.24.009-.24-2.14 2.287Zm-1.161 2.864-.02.006.02-.011v.005Zm.021-.587-1.878.664 1.927-1.332-.049.668Zm.121 6.371.846-4.377 2.001 1.541-.037.959-2.81 1.877Zm2.662 1.97-2.079-1.346 2.187-1.451-.108 2.797Zm5.105-1.746-3.36-1.921.032-1.319 2.736-1.803.592 5.043Zm-3.379-1.115 2.727 1.515-2.804 1.759.077-3.274Zm2.483-7.445-.039.601.241 2.053-2.315-1.377.192-.069 1.449-.78.472-.428Zm1.07-3.373 1.883-.159-1.945 1.113.062-.954Zm-.091 1.41 1.904-1.167-1.941 1.725.037-.558Zm-.684-2.659-.057.897-1.523.111 1.154-.621.426-.387Zm1.165-4.753 3.008-.206-3.093 1.516.085-1.31Zm-.13 2.005 3.046-1.667L23 14.184l.073-1.122Zm-6.298-6.518 1.978-.988-.166 2.261-1.812-1.273Zm3.038 1.433.396-3.148.36-.18 1.613 2.248-2.369 1.08Zm-3.659 1.998.073-2.828 1.82 1.704-1.893 1.124Zm-.03 1.18 2.214-1.261-.074 1.912-.46.264-1.719.553.039-1.468Zm3.536-.154.044-1.84.5-.261 2.35-1.178-.121 1.912-.376.319-1.409.746-.534.039-.454.263Zm-3.672 5.377.053-2.049 1.172-1.331.211-.111.808-.274-.096 2.506-2.148 1.259Zm2.065.899-2.107.717.02-.769 2.136-1.229-.049 1.281Zm-2.206 4.533.022-.862 2.136-2.42-.084 2.172-2.074 1.11Zm.151.744-.172.058.007-.241L17.9 21.23l-1.902 1.324Zm1.767 2.189-1.84-1.241 1.406-.971.526-.188-.092 2.4Zm1.627-2.455 2.105 1.214-2.167 1.413.062-2.627Zm2.442-3.285-.054.836-.561.504-1.804 1.01.022-.971.071-.039 2.326-1.34Zm-2.333-1.278 1.082-.571 1.373-.059-.09 1.416-2.416 1.365.051-2.151Zm2.681-4.169-.092 1.447-.547.492-2.017 1.131.036-1.481 2.62-1.589Zm-.601-2.429.758-.033-.11 1.729-2.647 1.473.051-2.176 1.948-.993Z"/>
    <path fill="#8c8a8a" fill-rule="nonzero" d="m19.828 2.345-.647 6.928.528-.24.455-4.256.707-.288 1.882 2.577.754-.409"/>
  </g>
  <g id="black">
    <path d="M31.281 5.287c7.366 9.588 15.032 16.251 23.007 20.101l-1.924.148c-7.56-3.996-14.852-10.501-21.867-19.627a.65.65 0 0 0 .784-.617v-.005Zm24.862 22.028a41.941 41.941 0 0 1-.828-.353l.823-.706v.978c0 .028.002.055.005.081Zm-6.365 4.396c.448.241.898.474 1.348.698l-1.619.142.042-.644.229-.196Zm3.708 2.868c-.357-.147-.712-.3-1.068-.457l.812-.736.11.047v.749c0 .15.055.288.146.397Zm-4.355 3.761c.195.098.389.194.584.288l-.606.057.022-.345Zm2.152 2.094c-.23-.097-.46-.196-.689-.298l.68-.614v.807l-.001.03a.59.59 0 0 0 .01.075Zm-13.304-8.392c-4.134-3.513-8.18-7.842-12.139-13.007a.652.652 0 0 0 .578-.619l-.001-.029v-.244c4.005 5.261 8.099 9.655 12.283 13.201l-.721.698Zm-9.517-19.653c4.6 6.006 9.316 10.871 14.151 14.622l-.642.766c-4.946-3.842-9.77-8.83-14.469-14.998a.653.653 0 0 0 .96-.39Zm25.573 13.987a32.66 32.66 0 0 1-.378-.183l.873-.045-.495.228Zm-1.858 6.538.134.062-1.15.563a47.201 47.201 0 0 1-.983-.488l1.999-.137Zm-4.037-.972a49.256 49.256 0 0 1-1.664-1.002l1.048-.525c.231.14.461.279.692.415l-.076 1.112Zm-4.096-3.856c.297.217.596.429.894.637l-.083 1.135-1.811-1.272 1-.5Zm2.098 1.452.41.266-.461.21.051-.476Zm5.747 4.344a13.029 13.029 0 0 1-.171-.079l.669-.366-.498.445Zm-1.418 5.102.234.106-1.065.61c-.193-.092-.386-.184-.579-.279l.02-.32 1.39-.117Zm-2.794-.27a56.23 56.23 0 0 1-.34-.182l.366-.197-.026.379Zm-.994-.544a46.933 46.933 0 0 1-.864-.498l.011-.485.559-.339c.439.258.878.507 1.319.747l-1.025.575Zm-2.266-1.357a52.366 52.366 0 0 1-1.579-1.043l.643-.73.033-.018c.316.216.632.426.948.632l-.045 1.159Zm-3.044-2.083a58.837 58.837 0 0 1-.782-.585l.818-.388-.036.973Zm-1.652-1.259a67.672 67.672 0 0 1-1.147-.929l.756-.671a61.3 61.3 0 0 0 1.374 1.101l-.983.499Zm2.645.746c.142.103.285.205.428.306l-.44.141.012-.447Zm7.836 5.743-.179-.082.872-.534-.693.616Z"/>
    <path d="M6.182 18.57c7.87 10.291 15.895 17.729 24.453 21.49v.716a.702.702 0 0 0 .164.443C21.897 37.481 13.55 29.851 5.386 19.176a.76.76 0 0 0 .107.009.708.708 0 0 0 .689-.615Z"/>
    <path d="M34.841 45.169a.502.502 0 0 1-.683.546c-9.094-3.726-17.815-12.059-26.141-23.008a.501.501 0 0 1 .796-.606c7.91 10.403 16.161 18.432 24.775 22.282v.379c.004.38.315.691.695.696a.704.704 0 0 0 .558-.289Z"/>
    <path d="M37.789 48.406a.502.502 0 0 1-.686.403c-9.095-3.727-17.626-11.703-25.952-22.653a.501.501 0 0 1 .796-.606c7.91 10.404 15.988 18.104 24.59 21.929v.519c.003.38.315.692.695.695a.707.707 0 0 0 .557-.287Z"/>
  </g>
</svg>
