<svg xmlns="http://www.w3.org/2000/svg" xml:space="preserve" fill-rule="evenodd" stroke-linejoin="round" stroke-miterlimit="2" clip-rule="evenodd" viewBox="0 0 64 64">
  <g id="grey">
    <path fill="#c4c4c4" fill-rule="nonzero" d="m6.99 26.343 28.964 24.304 20.892-12.062v-2.588L36.192 47.921 6.958 23.391l.032 2.952Z"/>
    <path fill="#929191" fill-rule="nonzero" d="m6.858 23.449 29.234 24.53 20.755-11.982-29.234-24.531L6.858 23.449Z"/>
    <path fill="#d4d4d4" d="m13.869 19.461-.042-.035.832-.48.042.035-.832.48Zm6.383-3.685-.042-.035.832-.48.041.035-.831.48Zm3.66 1.891 5.485 4.598-.856.493-5.469-4.606.84-.485Zm9.141 7.663 5.485 4.597-.881.509-5.47-4.607.866-.499Zm9.141 7.662 5.485 4.598-.907.524-5.469-4.607.891-.515Zm-1.805 8.806-5.469-4.606.892-.515 5.484 4.598-.907.523Zm-9.115-7.677-5.469-4.607.866-.499 5.484 4.597-.881.509Zm-9.115-7.678-5.469-4.606.84-.485 5.484 4.598-.855.493Z"/>
  </g>
  <g id="white" fill="#fff" fill-rule="nonzero">
    <path d="m34.215 22.562.423 3.91 1.681-.959 4.377 3.694 1.658-.957-4.405-3.689 1.663-.961-5.397-1.038Zm-6.383 3.685.423 3.91 1.681-.959 4.377 3.694 1.658-.957-4.405-3.689 1.663-.961-5.397-1.038Zm-6.382 3.685.423 3.91 1.681-.959 4.377 3.694 1.658-.957-4.405-3.689 1.663-.961-5.397-1.038Z"/>
  </g>
</svg>
