<svg xmlns="http://www.w3.org/2000/svg" xml:space="preserve" fill-rule="evenodd" stroke-linejoin="round" stroke-miterlimit="2" clip-rule="evenodd" viewBox="0 0 64 64">
  <g id="grey">
    <path fill="#c4c4c4" fill-rule="nonzero" d="m9.99 24.611 28.964 24.304 14.892-8.598v-2.588l-14.654 8.46-29.234-24.53.032 2.952Z"/>
    <path fill="#929191" fill-rule="nonzero" d="m9.858 21.717 29.234 24.53 14.755-8.518-29.234-24.531-14.755 8.519Z"/>
    <path fill="#d4d4d4" d="m17.06 17.619-.042-.036.832-.48.042.036-.832.48Zm3.66 1.891 5.485 4.597-.855.494-5.469-4.606.839-.485Zm9.141 7.662 5.485 4.598-.881.509-5.469-4.607.865-.5Zm9.142 7.663 5.484 4.597-.907.524-5.469-4.606.892-.515Z"/>
  </g>
  <g id="white" fill="#fff" fill-rule="nonzero">
    <path d="m31.023 24.405.423 3.91 1.681-.959 4.377 3.694 1.658-.957-4.405-3.689 1.663-.961-5.397-1.038ZM24.64 28.09l.423 3.91 1.681-.959 4.377 3.694 1.658-.957-4.405-3.689 1.663-.961-5.397-1.038Z"/>
  </g>
</svg>
