<svg xmlns="http://www.w3.org/2000/svg" xml:space="preserve" fill-rule="evenodd" stroke-linejoin="round" stroke-miterlimit="2" clip-rule="evenodd" viewBox="0 0 64 64">
  <g id="grey" fill-rule="nonzero">
    <path fill="#c4c4c4" d="m9.99 24.611 28.964 24.304 14.892-8.598v-2.588l-14.654 8.46-29.234-24.53.032 2.952Z"/>
    <path fill="#929191" d="m9.858 21.717 29.234 24.53 14.755-8.518-29.234-24.531-14.755 8.519Z"/>
  </g>
  <g id="yellow">
    <path fill="#fbd508" fill-rule="nonzero" d="m17.018 17.583 29.168 24.568.915-.528-29.251-24.52-.832.48Z"/>
  </g>
  <g id="white" fill="#fff" fill-rule="nonzero">
    <path d="m31.023 24.405.423 3.91 1.681-.959 4.377 3.694 1.658-.957-4.405-3.689 1.663-.961-5.397-1.038Zm.905 9.864-.423-3.91-1.681.959-4.377-3.694-1.658.957 4.405 3.689-1.663.961 5.397 1.038Z"/>
  </g>
</svg>
