<svg xmlns="http://www.w3.org/2000/svg" xml:space="preserve" fill-rule="evenodd" stroke-linejoin="round" stroke-miterlimit="2" clip-rule="evenodd" viewBox="0 0 64 64">
  <g id="grey">
    <path fill="#c4c4c4" fill-rule="nonzero" d="m.89 29.865 28.964 24.304L63.142 34.95v-2.588l-33.05 19.081L.858 26.913l.032 2.952Z"/>
    <path fill="#929191" fill-rule="nonzero" d="m.858 26.913 29.234 24.53 33.05-19.081L33.908 7.831.858 26.913Z"/>
    <path fill="#d4d4d4" d="m7.585 23.089-.042-.035.832-.48.042.035-.832.48Zm6.382-3.685-.042-.035.832-.48.042.035-.832.48Zm6.383-3.685-.042-.035.832-.48.042.035-.832.48Zm6.382-3.685-.042-.035.832-.48.042.035-.832.48Zm3.661 1.891 5.485 4.598-.856.494-5.469-4.607.84-.485Zm9.141 7.663 5.485 4.598-.882.508-5.469-4.606.866-.5Zm9.141 7.663 5.485 4.597-.908.524-5.469-4.607.892-.514Zm-14.57 16.176-5.469-4.607.892-.515 5.484 4.598-.907.524Zm-9.115-7.678-5.469-4.606.865-.5 5.485 4.597-.881.509Zm-9.115-7.677-5.47-4.607.84-.485 5.485 4.598-.855.494Zm30.995 7.985-5.469-4.607.892-.515 5.484 4.598-.907.524Zm-6.383 3.685-5.469-4.607.892-.515 5.485 4.598-.908.524ZM17.628 21.295l5.485 4.598-.856.494-5.469-4.607.84-.485Zm6.382-3.685 5.485 4.598-.855.494-5.469-4.607.839-.485Zm9.141 7.663 5.485 4.597-.881.509-5.469-4.606.865-.5Zm-1.779 8.791-5.469-4.606.866-.5 5.485 4.597-.882.509Z"/>
  </g>
  <g id="white" fill="#fff" fill-rule="nonzero">
    <path d="m27.931 26.19.423 3.91 1.681-.959 4.377 3.694 1.658-.957-4.405-3.689 1.663-.961-5.397-1.038Zm-6.383 3.685.423 3.91 1.681-.959 4.377 3.694 1.658-.957-4.405-3.689 1.663-.961-5.397-1.038Zm-6.383 3.685.423 3.91 1.681-.959 4.377 3.694 1.658-.957-4.405-3.689 1.663-.961-5.397-1.038Zm19.148-11.055.423 3.91 1.681-.959 4.377 3.694 1.658-.957-4.405-3.689 1.663-.961-5.397-1.038Zm6.383-3.685.423 3.91 1.681-.959 4.377 3.694 1.658-.957-4.405-3.689 1.663-.961-5.397-1.038Z"/>
  </g>
</svg>
