<svg xmlns="http://www.w3.org/2000/svg" xml:space="preserve" fill-rule="evenodd" stroke-linejoin="round" stroke-miterlimit="2" clip-rule="evenodd" viewBox="0 0 64 64">
  <g id="grey">
    <path fill="#c4c4c4" fill-rule="nonzero" d="m3.99 28.075 28.964 24.304 27.188-15.697v-2.588l-26.95 15.559-29.234-24.53.032 2.952Z"/>
    <path fill="#929191" fill-rule="nonzero" d="m3.858 25.181 29.234 24.53 27.05-15.617L30.908 9.563 3.858 25.181Z"/>
    <path fill="#d4d4d4" d="m10.776 21.247-.042-.036.832-.48.042.036-.832.48Zm6.382-3.685-.042-.036.832-.48.042.036-.832.48Zm6.383-3.685-.042-.036.832-.48.042.036-.832.48Zm3.661 1.891 5.484 4.597-.855.494-5.469-4.606.84-.485Zm9.141 7.662 5.484 4.598-.881.509-5.469-4.607.866-.5Zm9.141 7.663 5.484 4.598-.907.523-5.469-4.606.892-.515Zm-8.188 12.491-5.469-4.606.892-.515 5.484 4.597-.907.524Zm-9.115-7.677L22.712 31.3l.866-.5 5.484 4.598-.881.509Zm-9.115-7.678-5.469-4.606.84-.485 5.484 4.597-.855.494Zm24.612 11.67-5.469-4.606.892-.515 5.485 4.597-.908.524ZM20.819 19.453l5.485 4.597-.856.494-5.469-4.606.84-.485Zm9.141 7.662 5.485 4.598-.882.509-5.469-4.607.866-.5Z"/>
  </g>
  <g id="white" fill="#fff" fill-rule="nonzero">
    <path d="m31.122 24.348.423 3.91 1.681-.959 4.377 3.694 1.658-.957-4.405-3.689 1.663-.961-5.397-1.038Zm-6.383 3.685.423 3.91 1.681-.959 4.377 3.694 1.658-.957-4.405-3.689 1.663-.961-5.397-1.038Zm-6.382 3.685.423 3.91 1.681-.959 4.377 3.694 1.658-.957-4.405-3.689 1.663-.961-5.397-1.038Zm19.147-11.055.423 3.91 1.681-.959 4.377 3.694 1.658-.957-4.405-3.689 1.663-.961-5.397-1.038Z"/>
  </g>
</svg>
