<svg xmlns="http://www.w3.org/2000/svg" xml:space="preserve" fill-rule="evenodd" stroke-linejoin="round" stroke-miterlimit="2" clip-rule="evenodd" viewBox="0 0 64 64">
  <g id="blue">
    <path fill="#11b7e8" fill-rule="nonzero" d="m39.285 33.619 20.098-11.758s-4.277 19.885-5.481 21.638c-1.204 1.753-5.481 4.556-5.481 4.556v-6.726l-9.136-7.71Z"/>
    <path fill="#71dfff" d="M15.454 13.622c-.321-.299-.608-.576-.862-.809a81.612 81.612 0 0 0 2.788-1.067 18.607 18.607 0 0 0 5.519-4.143l4.512-.339 10.047-3.8c.687.865 20.758 17.523 21.859 18.436-4.689-.03-8.955-2.182-13.536-3.218-5.071-.696-12.788-4.738-12.094-5.058 0 0-5.328 3.295-10.628 3.408-2.481.054-4.408-.891-5.885-1.967l-1.72-1.443Z"/>
    <path fill="#88e4ff" fill-rule="nonzero" d="M14.154 12.532c1.24.485 3.567 4.615 8.905 4.5 5.3-.113 10.628-3.408 10.628-3.408a49.372 49.372 0 0 0 12.094 5.058c4.618 1.044 8.915 3.223 13.649 3.219L39.285 33.619 14.154 12.532Z"/>
  </g>
  <g id="grey" fill-rule="nonzero">
    <path fill="#97a4b6" d="m4.57 28.34 38.369 32.196V43.84L4.57 11.644V28.34Z"/>
    <path fill="#545f71" d="m42.939 60.536 5.482-3.087V40.9l-5.482 3.133v16.503Z"/>
    <path fill="#a3b7c8" d="m4.57 11.644 38.369 32.389 5.46-3.152L9.621 8.728 4.57 11.644Z"/>
  </g>
</svg>
