<svg xmlns="http://www.w3.org/2000/svg" xml:space="preserve" fill-rule="evenodd" stroke-linejoin="round" stroke-miterlimit="2" clip-rule="evenodd" viewBox="0 0 64 64">
  <g id="yellow">
    <path fill="#ffdc00" d="m41.574 28.502-.015-.665 20.147 9.953L34.676 58 2.3 37.79l26.382-16.314 8.125 4.014-.01.646-8.301-4.112-10.844 6.752.006 9.564L35 48.302l11.396-8.074V30.89l-4.822-2.388Z"/>
    <path fill="#f4e88a" d="m17.652 28.776 10.844-6.752 8.301 4.112c-.01.618-.018 1.22-.025 1.789L29 24l-8 5 11 6 4.736-3.439-.004.649c0 .846 1.098 1.534 2.458 1.534s2.46-.686 2.46-1.528c0-.134-.029-1.657-.076-3.714l4.822 2.388L35 38.469l-17.348-9.693Z"/>
  </g>
  <g id="orange">
    <path fill="#f29d00" fill-rule="nonzero" d="m21 29 11 6 7.703-5.594L29 24l-8 5Z"/>
    <path fill="#fbc33c" d="M39.192 15.712a3.525 3.525 0 0 1 1.914.568c.234.108.544 15.498.544 15.936 0 .842-1.1 1.528-2.46 1.528-1.36 0-2.458-.688-2.458-1.534 0-.244.092-15.454.48-15.884a2.828 2.828 0 0 1 1.98-.614Zm-.014.29c-.818 0-1.478.224-1.478.508 0 .284.664.516 1.478.516s1.468-.236 1.468-.516-.654-.508-1.468-.508Z"/>
  </g>
  <g id="brown" fill-rule="nonzero">
    <path fill="#c4940c" d="M17.658 38.34 35 48.302v-9.833l-17.348-9.693.006 9.564Z"/>
    <path fill="#8c6c05" d="m35 48.302 11.396-8.074V30.89L35 38.469v9.833Z"/>
    <path fill="#5b4b0c" d="M39.178 16.002c.814 0 1.468.228 1.468.508s-.654.516-1.468.516-1.478-.232-1.478-.516c0-.284.66-.508 1.478-.508Z"/>
  </g>
</svg>
