<svg xmlns="http://www.w3.org/2000/svg" xml:space="preserve" fill-rule="evenodd" stroke-linejoin="round" stroke-miterlimit="2" clip-rule="evenodd" viewBox="0 0 64 64">
  <g id="green">
    <path fill="#3c9442" d="M24.008 55.493C12.812 52.072 4.659 41.651 4.659 29.341 4.659 14.251 16.91 2 32 2c15.09 0 27.341 12.251 27.341 27.341 0 11.808-7.502 21.878-17.996 25.7L32.936 62l-8.928-6.507Z"/>
  </g>
  <g id="white">
    <path fill="#fefffe" d="m27.235 40.43-1.404 4.478h-5.277l3.344-5.467c-1.336-.64-2.126-1.584-2.126-3.087V19.37c0-1.996 1.648-3.639 3.653-3.639h2.435v-1.213a2.442 2.442 0 0 1 2.435-2.426h3.653a2.443 2.443 0 0 1 2.436 2.426v1.213h2.435c2.004 0 3.653 1.643 3.653 3.639v16.984c0 1.233-1.375 2.322-2.438 2.98l3.412 5.574h-5.277l-1.378-4.4a24.163 24.163 0 0 1-4.498.506 28.646 28.646 0 0 1-5.058-.584Zm14.019-17.42a2.443 2.443 0 0 0-2.435-2.427H25.425a2.444 2.444 0 0 0-2.436 2.427c0 1.331 1.1 2.426 2.436 2.426h13.394a2.442 2.442 0 0 0 2.435-2.426Zm-9.132-9.705a1.833 1.833 0 0 0-1.827 1.82c0 .999.825 1.82 1.828 1.82a1.832 1.832 0 0 0 1.826-1.82c0-.998-.825-1.82-1.827-1.82Zm5.993 19.283a1.937 1.937 0 0 0-1.72 2.083l.002.058a1.906 1.906 0 0 0 1.976 1.751 1.94 1.94 0 0 0 1.722-2.083l-.004-.058a1.905 1.905 0 0 0-1.976-1.751Zm-11.652 0a1.937 1.937 0 0 0-1.72 2.083l.002.058a1.907 1.907 0 0 0 1.976 1.751 1.94 1.94 0 0 0 1.722-2.083l-.003-.058a1.906 1.906 0 0 0-1.977-1.751Z"/>
  </g>
</svg>
