<svg xmlns="http://www.w3.org/2000/svg" xml:space="preserve" fill-rule="evenodd" stroke-linejoin="round" stroke-miterlimit="2" clip-rule="evenodd" viewBox="0 0 64 64">
  <g id="blue">
    <path fill="#2dabff" d="M24.008 55.493C12.812 52.072 4.659 41.651 4.659 29.341 4.659 14.251 16.91 2 32 2c15.09 0 27.341 12.251 27.341 27.341 0 11.808-7.502 21.878-17.996 25.7L32.936 62l-8.928-6.507Z"/>
  </g>
  <g id="white">
    <path fill="#fefffe" d="M15.369 30.442c-2.37.103-4.223.13-4.843.009-2.281-.443-1.292-.655 0-1.109.861-.302 10.006-1.367 16.01-2.044a5.289 5.289 0 0 1 .453-2.077c-2.477-.304-5.067-.64-5.38-.755-.615-.227-1.085-.334 0-.557.585-.12 3.475.051 6.014.235a5.407 5.407 0 0 1 3.718-2.122v-6.394c0-.295.243-.539.538-.539.295 0 .539.244.539.539v6.386a5.408 5.408 0 0 1 3.827 2.173c2.563-.152 5.329-.304 5.697-.277.705.052 1.271.329 0 .556-.594.107-2.871.4-5.127.685.32.694.486 1.448.487 2.212 5.778.679 14.227 1.686 15.949 1.979 2.67.454 1.482 1.005 0 1.109-.425.03-2.376-.048-4.943-.175.515.491.837 1.182.837 1.943a2.705 2.705 0 0 1-2.692 2.692 2.704 2.704 0 0 1-2.691-2.692c0-.86.412-1.631 1.048-2.126-1.134-.061-2.303-.126-3.453-.19a2.701 2.701 0 0 1 1.328 2.316 2.705 2.705 0 0 1-2.692 2.692 2.704 2.704 0 0 1-2.691-2.692c0-1.088.659-2.034 1.597-2.456l-1.624-.095c-.154 2.457-.998 4.859-5.357 4.859-4.315 0-5.185-2.353-5.351-4.784-.468.034-.955.07-1.456.105a2.704 2.704 0 0 1 1.424 2.371 2.705 2.705 0 0 1-2.692 2.692 2.705 2.705 0 0 1-2.692-2.692c0-.888.44-1.682 1.113-2.174-1.019.068-2.053.134-3.065.195.537.493.876 1.2.876 1.979a2.705 2.705 0 0 1-2.692 2.692 2.705 2.705 0 0 1-2.692-2.692c0-.678.257-1.302.678-1.777Zm31.084.162c-.886 0-1.616.729-1.616 1.616 0 .886.729 1.615 1.616 1.615.886 0 1.615-.729 1.615-1.615s-.729-1.616-1.615-1.616Zm-12.217-5.383h.374a.541.541 0 0 0 .538-.539.54.54 0 0 0-.538-.538h-5.383a.541.541 0 0 0-.539.538c0 .296.243.539.539.539h.373a3.218 3.218 0 0 0-.829 2.153 3.245 3.245 0 0 0 3.147 3.23 3.246 3.246 0 0 0 3.148-3.23c0-.823-.314-1.579-.83-2.153Zm-16.853 5.383c-.886 0-1.616.729-1.616 1.616 0 .886.729 1.615 1.615 1.615.887 0 1.616-.729 1.616-1.615s-.729-1.616-1.615-1.616Zm22.61 0c-.886 0-1.616.729-1.616 1.616 0 .886.729 1.615 1.615 1.615.887 0 1.616-.729 1.616-1.615s-.729-1.616-1.615-1.616Zm-16.15 0c-.886 0-1.616.729-1.616 1.616 0 .886.729 1.615 1.615 1.615.887 0 1.616-.729 1.616-1.615s-.729-1.616-1.615-1.616Z"/>
    <path fill="#dcdcdc" d="M34.808 25.134A3.606 3.606 0 0 1 32 31a3.606 3.606 0 0 1-2.808-5.866h5.616Z"/>
  </g>
</svg>
