<svg xmlns="http://www.w3.org/2000/svg" xml:space="preserve" fill-rule="evenodd" stroke-linejoin="round" stroke-miterlimit="2" clip-rule="evenodd" viewBox="0 0 64 64">
  <g id="green">
    <path fill="#3c9442" d="M24.008 55.493C12.812 52.072 4.659 41.651 4.659 29.341 4.659 14.251 16.91 2 32 2c15.09 0 27.341 12.251 27.341 27.341 0 11.808-7.502 21.878-17.996 25.7L32.936 62l-8.928-6.507Z"/>
  </g>
  <g id="white">
    <path fill="#fefffe" d="m27.236 40.509-1.405 4.81h-5.277l3.344-5.872c-1.335-.686-2.126-1.7-2.126-3.315V17.893c0-2.145 1.648-3.909 3.652-3.909h2.724a2.462 2.462 0 0 1 2.17-1.303h3.607c.908 0 1.744.502 2.171 1.303h2.724c2.003 0 3.652 1.764 3.652 3.909v18.239c0 1.324-1.375 2.494-2.438 3.201-.669.445-.668.445 0 0l3.412 5.986h-5.277l-1.378-4.725a22.618 22.618 0 0 1-4.497.543 26.748 26.748 0 0 1-5.058-.628Zm4.886-26.525c-1.008 0-1.827.875-1.827 1.954 0 1.08.819 1.955 1.827 1.955s1.826-.875 1.826-1.955c0-1.079-.818-1.954-1.826-1.954Zm7.762 19.937a1.172 1.172 0 0 0-1.53-.747l-2.299.847a1.3 1.3 0 0 0-.777 1.596l.04.122a1.172 1.172 0 0 0 1.53.746l2.299-.847c.636-.235.984-.95.776-1.596l-.039-.121ZM28.99 35.527a1.299 1.299 0 0 0-.831-1.565l-2.321-.758a1.18 1.18 0 0 0-1.507.8l-.036.127a1.301 1.301 0 0 0 .83 1.565l2.322.758a1.178 1.178 0 0 0 1.506-.8l.037-.127Zm-3.566-16.332c-1.339 0-2.435 1.666-2.435 3.72v3.721c0 2.057.869 2.48 2.435 3.721 0 0 3.508 3.029 6.856 3.029 3.349 0 6.54-3.029 6.54-3.029 1.314-1.05 2.435-1.666 2.435-3.721v-3.721c0-2.054-1.097-3.72-2.435-3.72H25.424Z"/>
  </g>
</svg>
