<svg xmlns="http://www.w3.org/2000/svg" xml:space="preserve" fill-rule="evenodd" stroke-linejoin="round" stroke-miterlimit="2" clip-rule="evenodd" viewBox="0 0 64 64">
  <g id="orange">
    <path fill="#f9682b" d="M24.008 55.493C12.812 52.072 4.659 41.651 4.659 29.341 4.659 14.251 16.91 2 32 2c15.09 0 27.341 12.251 27.341 27.341 0 11.808-7.502 21.878-17.996 25.7L32.936 62l-8.928-6.507Z"/>
  </g>
  <path id="white" fill="#fefffe" d="M23.758 38.535c-2.137-.59-3.441-1.523-3.441-3.223V19.473c.115-1.959 1.972-3.488 4.124-3.394h1.375v-1.295c0-1.349 1.11-2.46 2.459-2.46h7.45a2.472 2.472 0 0 1 2.459 2.46v1.295h1.375c2.152-.094 4.009 1.435 4.124 3.394v15.839c0 1.417-2.348 2.628-3.5 3.137-.375.166-.624.257-.624.257 1.094-.271.249-.091.624-.257l3.5 5.227h-5.957l-1.483-4.329a32.819 32.819 0 0 1-4.049.311 38.46 38.46 0 0 1-4.422-.346l-1.498 4.364h-5.957l3.441-5.141Zm10.991-24.959c-1.138 0-2.062.841-2.062 1.877 0 1.035.924 1.876 2.062 1.876 1.137 0 2.061-.841 2.061-1.876 0-1.036-.924-1.877-2.061-1.877Zm-5.498 0c-1.137 0-2.061.841-2.061 1.877 0 1.035.924 1.876 2.061 1.876 1.138 0 2.062-.841 2.062-1.876 0-1.036-.924-1.877-2.062-1.877Zm3 17.106c-1.382.007-2.516 1.042-2.521 2.3v.015c0 1.244 1.124 2.267 2.49 2.267h.011c1.381-.007 2.513-1.041 2.519-2.298v-.016c0-1.245-1.124-2.268-2.491-2.268h-.008Zm10.057-9.641c0-1.349-1.11-2.46-2.46-2.46H24.152a2.472 2.472 0 0 0-2.46 2.46v2.59a2.47 2.47 0 0 0 2.46 2.459h15.696a2.47 2.47 0 0 0 2.46-2.459v-2.59Z"/>
</svg>
