<svg xmlns="http://www.w3.org/2000/svg" xml:space="preserve" fill-rule="evenodd" stroke-linejoin="round" stroke-miterlimit="2" clip-rule="evenodd" viewBox="0 0 64 64">
  <g id="blue">
    <path fill="#4255ff" d="M24.008 55.493C12.812 52.072 4.659 41.651 4.659 29.341 4.659 14.251 16.91 2 32 2c15.09 0 27.341 12.251 27.341 27.341 0 11.808-7.502 21.878-17.996 25.7L32.936 62l-8.928-6.507Z"/>
  </g>
  <g id="white">
    <path fill="#ebebeb" d="M20.293 36.573a80.411 80.411 0 0 1-.51-7.407L32 29.167h12.008a52.826 52.826 0 0 1-.831 7.409l-.181.009a16.616 16.616 0 0 1-6.464-1.591 8.114 8.114 0 0 1-4.535 1.591 14.828 14.828 0 0 1-5.592-1.591 14.074 14.074 0 0 1-5.906 1.591l-.206-.012Z"/>
    <path fill="#fefffe" fill-rule="nonzero" d="M14.35 34.994a15.884 15.884 0 0 0 6.149 1.591 14.074 14.074 0 0 0 5.906-1.591 14.828 14.828 0 0 0 5.592 1.591 8.114 8.114 0 0 0 4.535-1.591 16.616 16.616 0 0 0 6.464 1.591 18.121 18.121 0 0 0 6.654-1.591v8.146h-35.3v-8.146Z"/>
    <path fill="#fafafa" d="M28 22v6h-6v-6h6Zm7 0v6h-6v-6h6Zm0-7v6h-6v-6h6Zm7 0v6h-6v-6h6Zm-14 0v6h-6v-6h6Zm14 7v6h-6v-6h6Z"/>
  </g>
</svg>
