<svg xmlns="http://www.w3.org/2000/svg" xml:space="preserve" fill-rule="evenodd" stroke-linejoin="round" stroke-miterlimit="2" clip-rule="evenodd" viewBox="0 0 64 64">
  <g id="blue">
    <path fill="#1a8be4" d="M24.008 55.493C12.812 52.072 4.659 41.651 4.659 29.341 4.659 14.251 16.91 2 32 2c15.09 0 27.341 12.251 27.341 27.341 0 11.808-7.502 21.878-17.996 25.7L32.936 62l-8.928-6.507Z"/>
  </g>
  <g id="white">
    <path fill="#fff" d="M18.877 32.316c-4.093.288-7.808.465-8.748.249-2.323-.535-1.311-.79 0-1.337.827-.343 9.143-1.503 15.215-2.318l-.001-.071c0-.929.194-1.814.543-2.615-2.881-.355-5.785-.735-6.148-.869-.737-.274-1.312-.402 0-.67.68-.139 3.921.046 6.889.256a6.56 6.56 0 0 1 4.609-2.632v-7.616a.64.64 0 0 1 .636-.636.64.64 0 0 1 .637.637v7.608a6.562 6.562 0 0 1 4.741 2.725c3.124-.186 6.545-.375 6.994-.342.85.063 1.531.396 0 .67-.729.131-3.561.497-6.326.844a6.53 6.53 0 0 1 .553 2.64l-.001.149c5.662.789 13.505 1.901 15.172 2.236 2.719.546 1.509 1.211 0 1.336-.634.053-4.605-.175-8.994-.455a3.177 3.177 0 0 1-1.732 5.838 3.177 3.177 0 0 1-1.372-6.041c-1.28-.085-2.539-.17-3.705-.25a6.565 6.565 0 0 1-11.816.097c-1.096.095-2.282.194-3.498.292a3.177 3.177 0 0 1-1.629 5.902 3.177 3.177 0 0 1-2.019-5.627Zm2.02.545a1.907 1.907 0 1 0 .002 3.814 1.907 1.907 0 0 0-.002-3.814Zm15.032-6.774c0-.701-.569-1.271-1.27-1.271h-5.082a1.271 1.271 0 0 0 0 2.541h5.082c.701 0 1.27-.57 1.27-1.27Zm6.987 6.774a1.907 1.907 0 1 0 .002 3.814 1.907 1.907 0 0 0-.002-3.814Z"/>
    <path fill="#ebebeb" d="M31.911 27.5a3.517 3.517 0 0 1 3.411 3.5 3.517 3.517 0 0 1-3.411 3.5A3.517 3.517 0 0 1 28.5 31a3.517 3.517 0 0 1 3.411-3.5Z"/>
  </g>
</svg>
