<svg xmlns="http://www.w3.org/2000/svg" xml:space="preserve" fill-rule="evenodd" stroke-linejoin="round" stroke-miterlimit="2" clip-rule="evenodd" viewBox="0 0 64 64">
  <g id="blue">
    <path fill="#4255ff" d="M24.008 55.493C12.812 52.072 4.659 41.651 4.659 29.341 4.659 14.251 16.91 2 32 2c15.09 0 27.341 12.251 27.341 27.341 0 11.808-7.502 21.878-17.996 25.7L32.936 62l-8.928-6.507Z"/>
  </g>
  <g id="white">
    <path fill="#ebebeb" d="M20.953 36.65a10.555 10.555 0 0 1-1.027-1.343c-.384-2.489-.649-3.619-.795-6.123l12.658-3.628 12.069 3.601.069.021c-.142 2.521-.403 3.649-.782 6.147-.287.452-.607.881-.959 1.285-2.786-.357-4.449-2.407-5.653-1.523a8.176 8.176 0 0 1-4.536 1.575c-2.532 0-5.592-1.575-5.592-1.575s-2.609 1.421-5.452 1.563Zm-1.822-7.466-.001-.024.001-.001v.025Zm-.001-1.408a80.692 80.692 0 0 1-.11-2.736l2.808-.824.024-1.7h5.771l3.906-1.147v.019l3.847 1.128h6.052l-.023 1.77 2.632.772a80.53 80.53 0 0 1-.11 2.735l-12.398-3.637-12.399 3.62Zm2.687-7.634v-2.768h19.577v2.768H21.817Zm1.399-5.22V13.13h6.431V8h3.356v5.13h7.027v1.792H23.216Z"/>
    <path fill="#fefffe" d="M27.623 22.516h-5.771l-.035.291v-2.665h19.577v-.222h.034l-.031 2.596h-6.021l-3.847-1.128v-.019l-3.906 1.147Zm-4.407-5.142v-2.452H40.03v2.452H23.216ZM14.35 35.087s3.136 1.575 6.15 1.575c3.014 0 5.905-1.575 5.905-1.575s3.06 1.575 5.592 1.575a8.176 8.176 0 0 0 4.536-1.575c1.316-.967 3.182 1.575 6.464 1.575 3.281 0 6.653-1.575 6.653-1.575v8.065h-35.3v-8.065Zm29.577-7.294v1.385l-12.138-3.622-12.658 3.628-.001-1.408 12.399-3.62 12.398 3.637Z"/>
  </g>
</svg>
