<svg xmlns="http://www.w3.org/2000/svg" xml:space="preserve" fill-rule="evenodd" stroke-linejoin="round" stroke-miterlimit="2" clip-rule="evenodd" viewBox="0 0 64 64">
  <g id="grey">
    <path fill="#444" fill-rule="nonzero" d="m2.871 29.722 28.963 24.303 29.308-16.921v-2.588L32.073 51.299 2.839 26.769l.032 2.953Z"/>
    <path fill="#929191" fill-rule="nonzero" d="m2.839 26.769 29.234 24.53 29.069-16.783-29.234-24.53L2.839 26.769Z"/>
    <path fill="#d4d4d4" d="m28.936 14.374 3.536 2.964-.619.36-3.53-2.969.613-.355Zm5.436 4.557 3.584 3.005-.629.366-3.579-3.01.624-.361Zm5.484 4.598 3.679 3.084-.64.373-3.673-3.09.634-.367Zm5.579 4.677 3.608 3.025-.65.378-3.603-3.029.645-.374Zm5.508 4.618 3.422 2.87-.66.384-3.417-2.875.655-.379ZM34.411 47.297l-3.42-2.911.653-.379 3.426 2.908-.659.382Zm-5.274-4.49-3.604-3.068.642-.372 3.61 3.063-.648.377Zm-5.458-4.646-3.675-3.128.633-.367 3.68 3.123-.638.372Zm-5.529-4.707-3.581-3.048.623-.361 3.586 3.044-.628.365Zm-5.435-4.627L9.183 25.82l.612-.354 3.538 3.002-.618.359Zm6.743-8.961 3.55 2.976-.623.362-3.541-2.982.614-.356Zm-5.131 2.973 3.532 2.997-.621.361-3.525-3.002.614-.356Zm10.074-5.837 3.542 2.97-.613.356-3.54-2.972.611-.354Zm5.435 4.557 3.591 3.011-.618.359-3.588-3.013.615-.357Zm5.485 4.598 3.685 3.09-.622.362-3.684-3.093.621-.359Zm5.579 4.677 3.614 3.031-.627.365-3.613-3.033.626-.363Zm5.507 4.618 3.43 2.875-.633.368-3.427-2.878.63-.365Zm-2.187 6.142-3.429-2.888.674-.39 3.436 2.881-.681.397Zm-5.292 3.077-3.413-2.907.66-.383 3.419 2.902-.666.388Zm-5.273-4.491-3.597-3.063.649-.376 3.603 3.058-.655.381Zm-5.457-4.648-3.667-3.123.637-.369 3.674 3.118-.644.374Zm-5.527-4.707-3.573-3.044.626-.362 3.579 3.038-.632.368Zm2.223-6.402 3.598 3.017-.638.371-3.589-3.024.629-.364Zm5.484 4.598 3.693 3.096-.653.38-3.683-3.103.643-.373Zm5.579 4.677 3.622 3.037-.668.388-3.613-3.043.659-.382Z"/>
  </g>
</svg>
