<svg xmlns="http://www.w3.org/2000/svg" xml:space="preserve" fill-rule="evenodd" stroke-linejoin="round" stroke-miterlimit="2" clip-rule="evenodd" viewBox="0 0 64 64">
  <g id="blue">
    <path fill="#61a2d3" d="M42.563 49.329 45 51.375c-.361.55-.592 1.202-.592 1.782 0 .379.098.675.268.872l-2.765-2.353c-.069-.879.186-1.738.652-2.347Z"/>
    <path fill="#7ac6ff" d="m45.228 48.64 1.85 1.551-.023.013c-.281-.11-.641-.066-1.036.162-.386.223-.742.586-1.019 1.009l-2.439-2.045c.304-.397.697-.689 1.149-.813.875-.249 1.308-.034 1.457.072.031.023.05.042.061.051Z"/>
    <path fill="#4a6168" d="M41.914 51.713c-.13-1.464.638-2.878 1.796-3.196 1.119-.318 1.516.123 1.516.123l-1.669-1.402-4.134 2.386 2.491 2.089Zm4.105-1.347c.889-.513 1.612-.096 1.612.93 0 1.027-.723 2.278-1.612 2.791-.889.514-1.611.097-1.611-.93 0-1.027.722-2.277 1.611-2.791Zm.008.524c-.641.371-1.162 1.273-1.162 2.014 0 .741.521 1.042 1.162.672.641-.371 1.162-1.273 1.162-2.014 0-.741-.521-1.042-1.162-.672Z"/>
    <path fill="#324565" d="M46.027 50.89c.641-.37 1.162-.069 1.162.672 0 .741-.521 1.643-1.162 2.014-.641.37-1.162.069-1.162-.672 0-.741.521-1.643 1.162-2.014Z"/>
  </g>
  <g id="brown">
    <path fill="#aa7850" d="m54.515 48.35-2.765-2.344c-.071-.882.182-1.745.65-2.357l2.438 2.046c-.362.55-.591 1.202-.591 1.782 0 .38.097.677.268.873Z"/>
    <path fill="#be7a38" d="m54.838 45.695-2.439-2.045c.304-.397.696-.689 1.149-.813.875-.249 1.309-.034 1.458.072.03.023.049.042.06.051l1.851 1.551-.024.013c-.28-.11-.641-.066-1.036.162-.387.223-.742.586-1.019 1.009Z"/>
    <path fill="#66503a" d="M51.753 46.033c-.131-1.464.637-2.878 1.795-3.196 1.119-.319 1.518.123 1.518.123l-1.672-1.402-4.132 2.386 2.491 2.089Z"/>
    <path fill="#8f7148" d="M55.857 44.686c.889-.513 1.612-.097 1.612.93 0 1.027-.723 2.278-1.612 2.791-.888.514-1.61.097-1.61-.93 0-1.027.722-2.278 1.61-2.791Zm.008.524c-.642.371-1.162 1.273-1.162 2.014 0 .741.52 1.042 1.162.672.641-.371 1.162-1.273 1.162-2.014 0-.741-.521-1.042-1.162-.672Z"/>
    <path fill="#49362f" d="M55.865 45.21c.641-.37 1.162-.069 1.162.672 0 .741-.521 1.643-1.162 2.014-.642.37-1.162.069-1.162-.672 0-.741.52-1.643 1.162-2.014Z"/>
    <path fill="#74352a" d="M50.945 48.05c.643-.37 1.164-.069 1.164.672 0 .741-.521 1.643-1.164 2.014-.641.37-1.162.069-1.162-.672 0-.741.521-1.643 1.162-2.014Z"/>
  </g>
  <g id="orange">
    <path fill="#e3704a" d="m47.481 46.489 2.437 2.046c-.36.55-.592 1.202-.592 1.782 0 .379.1.675.268.872l-2.763-2.353c-.069-.879.184-1.738.65-2.347Z"/>
    <path fill="#fca303" d="m50.146 45.8 1.851 1.551-.022.013c-.28-.11-.643-.066-1.036.162-.388.223-.742.586-1.021 1.009l-2.437-2.045c.302-.397.695-.689 1.147-.813.875-.249 1.31-.034 1.457.072a.589.589 0 0 1 .061.051Z"/>
    <path fill="#b26528" d="M46.833 48.873c-.129-1.464.639-2.878 1.795-3.196 1.121-.318 1.518.123 1.518.123l-1.671-1.402-4.131 2.386 2.489 2.089Zm4.106-1.347c.889-.513 1.61-.097 1.61.93 0 1.027-.721 2.278-1.61 2.791-.891.514-1.613.097-1.613-.93 0-1.027.722-2.278 1.613-2.791Zm.006.524c-.641.371-1.162 1.273-1.162 2.014 0 .741.521 1.042 1.162.672.643-.371 1.164-1.273 1.164-2.014 0-.741-.521-1.042-1.164-.672Z"/>
  </g>
  <g id="grey">
    <path fill="#444" fill-rule="nonzero" d="m2.871 29.722 28.963 24.303 29.308-16.921v-2.588L32.073 51.299 2.839 26.769l.032 2.953Z"/>
    <path fill="#929191" fill-rule="nonzero" d="m2.839 26.769 29.234 24.53 29.069-16.783-29.234-24.53L2.839 26.769Z"/>
    <path fill="#d4d4d4" d="m13.189 23.486 3.539 2.967-.56.327-3.534-2.973.555-.321Zm5.436 4.557 3.588 3.008-.57.333-3.584-3.014.566-.327Zm5.484 4.598 3.683 3.087-.581.34-3.678-3.094.576-.333Zm5.579 4.677 3.611 3.028-.591.346-3.606-3.034.586-.34Zm5.508 4.618 3.426 2.872-.601.352-3.422-2.878.597-.346Zm-1.252 5.609-3.439-2.891.59-.342 3.442 2.886-.593.347Zm-5.314-4.467-3.624-3.047.581-.336 3.627 3.041-.584.342Zm-5.499-4.623-3.695-3.106.572-.332 3.699 3.101-.576.337Zm-5.57-4.682-3.601-3.027.564-.327 3.604 3.022-.567.332Zm-5.476-4.604-3.552-2.986.555-.321 3.555 2.981-.558.326ZM30.4 13.548l3.536 2.964-.555.324-3.534-2.967.553-.321Zm5.436 4.557 3.584 3.005-.559.327-3.583-3.009.558-.323Zm5.484 4.598 3.679 3.085-.564.328-3.677-3.087.562-.326Zm5.579 4.677 3.608 3.025-.568.332-3.607-3.028.567-.329Zm5.508 4.618 3.422 2.87-.572.334-3.421-2.873.571-.331Zm-5.42 8.03-3.446-2.892.57-.33 3.446 2.889-.57.333Zm-5.319-4.464-3.63-3.049.565-.327 3.632 3.045-.567.331Zm-5.503-4.621-3.702-3.107.561-.325 3.703 3.104-.562.328Zm-5.575-4.68-3.607-3.028.557-.323 3.608 3.026-.558.325Zm-5.48-4.6-3.558-2.987.552-.321 3.56 2.984-.554.324Zm1.099-5.686 3.547 2.974-.559.326-3.543-2.979.555-.321Zm5.436 4.557 3.596 3.015-.569.332-3.592-3.02.565-.327Zm5.484 4.598 3.691 3.094-.579.338-3.686-3.1.574-.332Zm5.579 4.677 3.62 3.035-.588.344-3.616-3.041.584-.338Zm5.508 4.618 3.434 2.879-.597.349-3.431-2.884.594-.344Z"/>
  </g>
  <g id="yellow">
    <path fill="#fbd508" fill-rule="nonzero" d="m15.221 19.62 29.181 24.577.689-.398-29.259-24.531-.611.352Z"/>
  </g>
  <g id="white" fill="#fff" fill-rule="nonzero">
    <path d="m29.846 34.966-.281-2.597-1.117.637-2.905-2.452-1.1.636 2.924 2.448-1.104.638 3.583.69Zm-4.108 2.371-.281-2.596-1.116.637-2.905-2.452-1.101.635 2.924 2.449-1.103.637 3.582.69Zm-4.132 2.386-.28-2.597-1.117.637-2.905-2.451-1.101.635 2.924 2.449-1.104.637 3.583.69Zm8.131-11.65.281 2.595 1.116-.636 2.906 2.452 1.1-.635-2.924-2.45 1.104-.637-3.583-.689Zm8.308-4.797.281 2.596 1.116-.637 2.905 2.452 1.101-.635-2.924-2.449 1.104-.637-3.583-.69ZM33.848 25.7l.281 2.595 1.116-.637 2.906 2.453 1.1-.636-2.924-2.449 1.104-.638-3.583-.688Zm8.308-4.797.281 2.596 1.116-.638 2.906 2.453 1.1-.635-2.924-2.449 1.104-.638-3.583-.689Z"/>
  </g>
</svg>
