<svg xmlns="http://www.w3.org/2000/svg" xml:space="preserve" fill-rule="evenodd" stroke-linejoin="round" stroke-miterlimit="2" clip-rule="evenodd" viewBox="0 0 64 64">
  <g id="blue">
    <path fill="#61a2d3" d="M42.563 49.329 45 51.375c-.361.55-.592 1.202-.592 1.782 0 .379.098.675.268.872l-2.765-2.353c-.069-.879.186-1.738.652-2.347Z"/>
    <path fill="#7ac6ff" d="m45.228 48.64 1.85 1.551-.023.013c-.281-.11-.641-.066-1.036.162-.386.223-.742.586-1.019 1.009l-2.439-2.045c.304-.397.697-.689 1.149-.813.875-.249 1.308-.034 1.457.072.031.023.05.042.061.051Z"/>
    <path fill="#4a6168" d="M41.914 51.713c-.13-1.464.638-2.878 1.796-3.196 1.119-.318 1.516.123 1.516.123l-1.669-1.402-4.134 2.386 2.491 2.089Zm4.105-1.347c.889-.513 1.612-.096 1.612.93 0 1.027-.723 2.278-1.612 2.791-.889.514-1.611.097-1.611-.93 0-1.027.722-2.277 1.611-2.791Zm.008.524c-.641.371-1.162 1.273-1.162 2.014 0 .741.521 1.042 1.162.672.641-.371 1.162-1.273 1.162-2.014 0-.741-.521-1.042-1.162-.672Z"/>
    <path fill="#324565" d="M46.027 50.89c.641-.37 1.162-.069 1.162.672 0 .741-.521 1.643-1.162 2.014-.641.37-1.162.069-1.162-.672 0-.741.521-1.643 1.162-2.014Z"/>
  </g>
  <g id="brown">
    <path fill="#aa7850" d="m54.515 48.35-2.765-2.344c-.071-.882.182-1.745.65-2.357l2.438 2.046c-.362.55-.591 1.202-.591 1.782 0 .38.097.677.268.873Z"/>
    <path fill="#be7a38" d="m54.838 45.695-2.439-2.045c.304-.397.696-.689 1.149-.813.875-.249 1.309-.034 1.458.072.03.023.049.042.06.051l1.851 1.551-.024.013c-.28-.11-.641-.066-1.036.162-.387.223-.742.586-1.019 1.009Z"/>
    <path fill="#66503a" d="M51.753 46.033c-.131-1.464.637-2.878 1.795-3.196 1.119-.319 1.518.123 1.518.123l-1.672-1.402-4.132 2.386 2.491 2.089Z"/>
    <path fill="#8f7148" d="M55.857 44.686c.889-.513 1.612-.097 1.612.93 0 1.027-.723 2.278-1.612 2.791-.888.514-1.61.097-1.61-.93 0-1.027.722-2.278 1.61-2.791Zm.008.524c-.642.371-1.162 1.273-1.162 2.014 0 .741.52 1.042 1.162.672.641-.371 1.162-1.273 1.162-2.014 0-.741-.521-1.042-1.162-.672Z"/>
    <path fill="#49362f" d="M55.865 45.21c.641-.37 1.162-.069 1.162.672 0 .741-.521 1.643-1.162 2.014-.642.37-1.162.069-1.162-.672 0-.741.52-1.643 1.162-2.014Z"/>
    <path fill="#74352a" d="M50.945 48.05c.643-.37 1.164-.069 1.164.672 0 .741-.521 1.643-1.164 2.014-.641.37-1.162.069-1.162-.672 0-.741.521-1.643 1.162-2.014Z"/>
  </g>
  <g id="orange">
    <path fill="#e3704a" d="m47.481 46.489 2.437 2.046c-.36.55-.592 1.202-.592 1.782 0 .379.1.675.268.872l-2.763-2.353c-.069-.879.184-1.738.65-2.347Z"/>
    <path fill="#fca303" d="m50.146 45.8 1.851 1.551-.022.013c-.28-.11-.643-.066-1.036.162-.388.223-.742.586-1.021 1.009l-2.437-2.045c.302-.397.695-.689 1.147-.813.875-.249 1.31-.034 1.457.072a.589.589 0 0 1 .061.051Z"/>
    <path fill="#b26528" d="M46.833 48.873c-.129-1.464.639-2.878 1.795-3.196 1.121-.318 1.518.123 1.518.123l-1.671-1.402-4.131 2.386 2.489 2.089Zm4.106-1.347c.889-.513 1.61-.097 1.61.93 0 1.027-.721 2.278-1.61 2.791-.891.514-1.613.097-1.613-.93 0-1.027.722-2.278 1.613-2.791Zm.006.524c-.641.371-1.162 1.273-1.162 2.014 0 .741.521 1.042 1.162.672.643-.371 1.164-1.273 1.164-2.014 0-.741-.521-1.042-1.164-.672Z"/>
  </g>
  <g id="grey">
    <path fill="#444" fill-rule="nonzero" d="m2.871 29.722 28.963 24.303 29.308-16.921v-2.588L32.073 51.299 2.839 26.769l.032 2.953Z"/>
    <path fill="#929191" fill-rule="nonzero" d="m2.839 26.769 29.234 24.53 29.069-16.783-29.234-24.53L2.839 26.769Z"/>
    <path fill="#d4d4d4" d="m28.936 14.374 3.536 2.964-.619.36-3.53-2.969.613-.355Zm5.436 4.557 3.584 3.005-.629.366-3.579-3.01.624-.361Zm5.484 4.598 3.679 3.084-.64.373-3.673-3.09.634-.367Zm5.579 4.677 3.608 3.025-.65.378-3.603-3.029.645-.374Zm5.508 4.618 3.422 2.87-.66.384-3.417-2.875.655-.379ZM34.411 47.297l-3.42-2.911.653-.379 3.426 2.908-.659.382Zm-5.274-4.49-3.604-3.068.642-.372 3.61 3.063-.648.377Zm-5.458-4.646-3.675-3.128.633-.367 3.68 3.123-.638.372Zm-5.529-4.707-3.581-3.048.623-.361 3.586 3.044-.628.365Zm-5.435-4.627L9.183 25.82l.612-.354 3.538 3.002-.618.359Zm6.743-8.961 3.55 2.976-.623.362-3.541-2.982.614-.356Zm-5.131 2.973 3.532 2.997-.621.361-3.525-3.002.614-.356Zm10.074-5.837 3.542 2.97-.613.356-3.54-2.972.611-.354Zm5.435 4.557 3.591 3.011-.618.359-3.588-3.013.615-.357Zm5.485 4.598 3.685 3.09-.622.362-3.684-3.093.621-.359Zm5.579 4.677 3.614 3.031-.627.365-3.613-3.033.626-.363Zm5.507 4.618 3.43 2.875-.633.368-3.427-2.878.63-.365Zm-2.187 6.142-3.429-2.888.674-.39 3.436 2.881-.681.397Zm-5.292 3.077-3.413-2.907.66-.383 3.419 2.902-.666.388Zm-5.273-4.491-3.597-3.063.649-.376 3.603 3.058-.655.381Zm-5.457-4.648-3.667-3.123.637-.369 3.674 3.118-.644.374Zm-5.527-4.707-3.573-3.044.626-.362 3.579 3.038-.632.368Zm2.223-6.402 3.598 3.017-.638.371-3.589-3.024.629-.364Zm5.484 4.598 3.693 3.096-.653.38-3.683-3.103.643-.373Zm5.579 4.677 3.622 3.037-.668.388-3.613-3.043.659-.382Z"/>
  </g>
  <g id="white" fill="#fff" fill-rule="nonzero">
    <path d="m16.796 34.983.31 2.868 1.233-.704 3.21 2.71 1.217-.702-3.231-2.706 1.219-.705-3.958-.761Zm4.538-2.621.31 2.869 1.234-.704 3.21 2.709 1.216-.702-3.231-2.706 1.22-.704-3.959-.762Zm4.565-2.636.311 2.869 1.233-.704 3.21 2.71 1.216-.703-3.231-2.705 1.22-.705-3.959-.762Zm5.279-3.375.311 2.868 1.233-.703 3.21 2.709 1.216-.702-3.231-2.706 1.22-.704-3.959-.762Zm9.18-5.3.31 2.868 1.234-.703 3.21 2.709 1.216-.702-3.231-2.706 1.22-.704-3.959-.762Zm-4.637 2.677.31 2.869 1.233-.704 3.21 2.71 1.217-.703-3.231-2.706 1.219-.704-3.958-.762Z"/>
  </g>
</svg>
