<svg xmlns="http://www.w3.org/2000/svg" xml:space="preserve" fill-rule="evenodd" stroke-linejoin="round" stroke-miterlimit="2" clip-rule="evenodd" viewBox="0 0 64 64">
  <g id="blue">
    <path fill="#61a2d3" d="M42.563 49.329 45 51.375c-.361.55-.592 1.202-.592 1.782 0 .379.098.675.268.872l-2.765-2.353c-.069-.879.186-1.738.652-2.347Z"/>
    <path fill="#7ac6ff" d="m45.228 48.64 1.85 1.551-.023.013c-.281-.11-.641-.066-1.036.162-.386.223-.742.586-1.019 1.009l-2.439-2.045c.304-.397.697-.689 1.149-.813.875-.249 1.308-.034 1.457.072.031.023.05.042.061.051Z"/>
    <path fill="#4a6168" d="M41.914 51.713c-.13-1.464.638-2.878 1.796-3.196 1.119-.318 1.516.123 1.516.123l-1.669-1.402-4.134 2.386 2.491 2.089Zm4.105-1.347c.889-.513 1.612-.096 1.612.93 0 1.027-.723 2.278-1.612 2.791-.889.514-1.611.097-1.611-.93 0-1.027.722-2.277 1.611-2.791Zm.008.524c-.641.371-1.162 1.273-1.162 2.014 0 .741.521 1.042 1.162.672.641-.371 1.162-1.273 1.162-2.014 0-.741-.521-1.042-1.162-.672Z"/>
    <path fill="#324565" d="M46.027 50.89c.641-.37 1.162-.069 1.162.672 0 .741-.521 1.643-1.162 2.014-.641.37-1.162.069-1.162-.672 0-.741.521-1.643 1.162-2.014Z"/>
  </g>
  <g id="brown">
    <path fill="#aa7850" d="m54.515 48.35-2.765-2.344c-.071-.882.182-1.745.65-2.357l2.438 2.046c-.362.55-.591 1.202-.591 1.782 0 .38.097.677.268.873Z"/>
    <path fill="#be7a38" d="m54.838 45.695-2.439-2.045c.304-.397.696-.689 1.149-.813.875-.249 1.309-.034 1.458.072.03.023.049.042.06.051l1.851 1.551-.024.013c-.28-.11-.641-.066-1.036.162-.387.223-.742.586-1.019 1.009Z"/>
    <path fill="#66503a" d="M51.753 46.033c-.131-1.464.637-2.878 1.795-3.196 1.119-.319 1.518.123 1.518.123l-1.672-1.402-4.132 2.386 2.491 2.089Z"/>
    <path fill="#8f7148" d="M55.857 44.686c.889-.513 1.612-.097 1.612.93 0 1.027-.723 2.278-1.612 2.791-.888.514-1.61.097-1.61-.93 0-1.027.722-2.278 1.61-2.791Zm.008.524c-.642.371-1.162 1.273-1.162 2.014 0 .741.52 1.042 1.162.672.641-.371 1.162-1.273 1.162-2.014 0-.741-.521-1.042-1.162-.672Z"/>
    <path fill="#49362f" d="M55.865 45.21c.641-.37 1.162-.069 1.162.672 0 .741-.521 1.643-1.162 2.014-.642.37-1.162.069-1.162-.672 0-.741.52-1.643 1.162-2.014Z"/>
  </g>
  <g id="orange">
    <path fill="#e3704a" d="m47.481 46.489 2.437 2.046c-.36.55-.592 1.202-.592 1.782 0 .379.1.675.268.872l-2.763-2.353c-.069-.879.184-1.738.65-2.347Z"/>
    <path fill="#fca303" d="m50.146 45.8 1.851 1.551-.022.013c-.28-.11-.643-.066-1.036.162-.388.223-.742.586-1.021 1.009l-2.437-2.045c.302-.397.695-.689 1.147-.813.875-.249 1.31-.034 1.457.072a.589.589 0 0 1 .061.051Z"/>
    <path fill="#b26528" d="M46.833 48.873c-.129-1.464.639-2.878 1.795-3.196 1.121-.318 1.518.123 1.518.123l-1.671-1.402-4.131 2.386 2.489 2.089Zm4.106-1.347c.889-.513 1.61-.097 1.61.93 0 1.027-.721 2.278-1.61 2.791-.891.514-1.613.097-1.613-.93 0-1.027.722-2.278 1.613-2.791Zm.006.524c-.641.371-1.162 1.273-1.162 2.014 0 .741.521 1.042 1.162.672.643-.371 1.164-1.273 1.164-2.014 0-.741-.521-1.042-1.164-.672Z"/>
    <path fill="#74352a" d="M50.945 48.05c.643-.37 1.164-.069 1.164.672 0 .741-.521 1.643-1.164 2.014-.641.37-1.162.069-1.162-.672 0-.741.521-1.643 1.162-2.014Z"/>
  </g>
  <g id="grey">
    <path fill="#444" fill-rule="nonzero" d="m2.871 29.722 28.963 24.303 29.308-16.921v-2.588L32.073 51.299 2.839 26.769l.032 2.953Z"/>
    <path fill="#929191" fill-rule="nonzero" d="m2.839 26.769 29.234 24.53 29.069-16.783-29.234-24.53L2.839 26.769Z"/>
    <path fill="#d4d4d4" d="m30.384 13.535 3.534 2.962-.556.323-3.531-2.965.553-.32Zm5.436 4.557 3.582 3.003-.56.326-3.58-3.006.558-.323Zm5.484 4.598 3.677 3.082-.564.329-3.675-3.086.562-.325Zm5.579 4.677 3.606 3.023-.569.331-3.604-3.026.567-.328Zm5.508 4.618 3.42 2.868-.573.333-3.418-2.87.571-.331Zm-18.43 15.574-3.447-2.897.59-.342 3.451 2.894-.594.345Zm-5.314-4.467-3.632-3.053.581-.337 3.637 3.049-.586.341Zm-5.499-4.623-3.703-3.112.572-.332 3.708 3.109-.577.335Zm-5.57-4.682-3.608-3.034.563-.326 3.613 3.029-.568.331Zm-5.476-4.603-3.559-2.993.555-.321 3.564 2.988-.56.326Zm5.652-8.331 3.552 2.978-.555.323-3.55-2.98.553-.321Zm-4.556 2.64 3.559 2.984-.561.326-3.553-2.988.555-.322Zm8.89-5.151 3.546 2.972-.555.323-3.543-2.975.552-.32Zm4.105-2.379 3.54 2.968-.56.326-3.535-2.972.555-.322Zm5.436 4.557 3.588 3.009-.57.331-3.583-3.013.565-.327Zm5.484 4.598 3.683 3.088-.579.337-3.678-3.092.574-.333Zm5.579 4.678 3.612 3.028-.589.343-3.607-3.033.584-.338Zm5.508 4.617 3.426 2.873-.598.348-3.422-2.877.594-.344Zm-10.152 10.77-3.44-2.893.597-.346 3.446 2.888-.603.351Zm4.58-2.664-3.437-2.885.569-.33 3.439 2.883-.571.332Zm4.328-2.517-3.431-2.88.57-.33 3.432 2.878-.571.332Zm-14.22.712-3.625-3.048.586-.34 3.631 3.044-.592.344Zm-5.498-4.623-3.696-3.109.576-.333 3.702 3.103-.582.339Zm-5.568-4.684-3.601-3.029.565-.327 3.607 3.024-.571.332Zm1.52-5.996 3.6 3.018-.559.325-3.598-3.021.557-.322Zm4.334-2.512 3.594 3.014-.559.325-3.592-3.016.557-.323Zm5.484 4.598 3.689 3.093-.563.327-3.687-3.095.561-.325Zm5.579 4.677 3.618 3.034-.567.33-3.616-3.036.565-.328Zm-1.277 5.881-3.623-3.041.566-.328 3.624 3.039-.567.33Zm-5.504-4.621-3.693-3.1.561-.325 3.695 3.098-.563.327Z"/>
  </g>
  <g id="white" fill="#fff" fill-rule="nonzero">
    <path d="m16.769 35.62.281 2.597 1.117-.637 2.905 2.452 1.1-.636-2.924-2.448 1.104-.638-3.583-.69Zm4.108-2.371.281 2.596 1.116-.637 2.905 2.452 1.101-.635-2.924-2.449 1.103-.637-3.582-.69Zm4.132-2.386.28 2.597 1.117-.637 2.905 2.451 1.101-.635-2.924-2.449 1.104-.637-3.583-.69Zm4.728-2.79.281 2.595 1.116-.636 2.906 2.452 1.1-.635-2.924-2.45 1.104-.637-3.583-.689Zm8.308-4.797.281 2.596 1.116-.637 2.905 2.452 1.101-.635-2.924-2.449 1.104-.637-3.583-.69ZM33.848 25.7l.281 2.595 1.116-.637 2.906 2.453 1.1-.636-2.924-2.449 1.104-.638-3.583-.688Zm8.308-4.797.281 2.596 1.116-.638 2.906 2.453 1.1-.635-2.924-2.449 1.104-.638-3.583-.689Z"/>
  </g>
</svg>
