<svg xmlns="http://www.w3.org/2000/svg" xml:space="preserve" fill-rule="evenodd" stroke-linejoin="round" stroke-miterlimit="2" clip-rule="evenodd" viewBox="0 0 64 64">
  <g id="blue">
    <path fill="#61a2d3" d="M42.563 49.329 45 51.375c-.361.55-.592 1.202-.592 1.782 0 .379.098.675.268.872l-2.765-2.353c-.069-.879.186-1.738.652-2.347Z"/>
    <path fill="#7ac6ff" d="m45.228 48.64 1.85 1.551-.023.013c-.281-.11-.641-.066-1.036.162-.386.223-.742.586-1.019 1.009l-2.439-2.045c.304-.397.697-.689 1.149-.813.875-.249 1.308-.034 1.457.072.031.023.05.042.061.051Z"/>
    <path fill="#4a6168" d="M41.914 51.713c-.13-1.464.638-2.878 1.796-3.196 1.119-.318 1.516.123 1.516.123l-1.669-1.402-4.134 2.386 2.491 2.089Zm4.105-1.347c.889-.513 1.612-.096 1.612.93 0 1.027-.723 2.278-1.612 2.791-.889.514-1.611.097-1.611-.93 0-1.027.722-2.277 1.611-2.791Zm.008.524c-.641.371-1.162 1.273-1.162 2.014 0 .741.521 1.042 1.162.672.641-.371 1.162-1.273 1.162-2.014 0-.741-.521-1.042-1.162-.672Z"/>
    <path fill="#324565" d="M46.027 50.89c.641-.37 1.162-.069 1.162.672 0 .741-.521 1.643-1.162 2.014-.641.37-1.162.069-1.162-.672 0-.741.521-1.643 1.162-2.014Z"/>
  </g>
  <g id="brown">
    <path fill="#aa7850" d="m54.515 48.35-2.765-2.344c-.071-.882.182-1.745.65-2.357l2.438 2.046c-.362.55-.591 1.202-.591 1.782 0 .38.097.677.268.873Z"/>
    <path fill="#be7a38" d="m54.838 45.695-2.439-2.045c.304-.397.696-.689 1.149-.813.875-.249 1.309-.034 1.458.072.03.023.049.042.06.051l1.851 1.551-.024.013c-.28-.11-.641-.066-1.036.162-.387.223-.742.586-1.019 1.009Z"/>
    <path fill="#66503a" d="M51.753 46.033c-.131-1.464.637-2.878 1.795-3.196 1.119-.319 1.518.123 1.518.123l-1.672-1.402-4.132 2.386 2.491 2.089Z"/>
    <path fill="#8f7148" d="M55.857 44.686c.889-.513 1.612-.097 1.612.93 0 1.027-.723 2.278-1.612 2.791-.888.514-1.61.097-1.61-.93 0-1.027.722-2.278 1.61-2.791Zm.008.524c-.642.371-1.162 1.273-1.162 2.014 0 .741.52 1.042 1.162.672.641-.371 1.162-1.273 1.162-2.014 0-.741-.521-1.042-1.162-.672Z"/>
    <path fill="#49362f" d="M55.865 45.21c.641-.37 1.162-.069 1.162.672 0 .741-.521 1.643-1.162 2.014-.642.37-1.162.069-1.162-.672 0-.741.52-1.643 1.162-2.014Z"/>
    <path fill="#74352a" d="M50.945 48.05c.643-.37 1.164-.069 1.164.672 0 .741-.521 1.643-1.164 2.014-.641.37-1.162.069-1.162-.672 0-.741.521-1.643 1.162-2.014Z"/>
  </g>
  <g id="orange">
    <path fill="#e3704a" d="m47.481 46.489 2.437 2.046c-.36.55-.592 1.202-.592 1.782 0 .379.1.675.268.872l-2.763-2.353c-.069-.879.184-1.738.65-2.347Z"/>
    <path fill="#fca303" d="m50.146 45.8 1.851 1.551-.022.013c-.28-.11-.643-.066-1.036.162-.388.223-.742.586-1.021 1.009l-2.437-2.045c.302-.397.695-.689 1.147-.813.875-.249 1.31-.034 1.457.072a.589.589 0 0 1 .061.051Z"/>
    <path fill="#b26528" d="M46.833 48.873c-.129-1.464.639-2.878 1.795-3.196 1.121-.318 1.518.123 1.518.123l-1.671-1.402-4.131 2.386 2.489 2.089Zm4.106-1.347c.889-.513 1.61-.097 1.61.93 0 1.027-.721 2.278-1.61 2.791-.891.514-1.613.097-1.613-.93 0-1.027.722-2.278 1.613-2.791Zm.006.524c-.641.371-1.162 1.273-1.162 2.014 0 .741.521 1.042 1.162.672.643-.371 1.164-1.273 1.164-2.014 0-.741-.521-1.042-1.164-.672Z"/>
  </g>
  <g id="grey">
    <path fill="#444" fill-rule="nonzero" d="m2.871 29.722 28.963 24.303 29.308-16.921v-2.588L32.073 51.299 2.839 26.769l.032 2.953Z"/>
    <path fill="#929191" fill-rule="nonzero" d="m2.839 26.769 29.234 24.53 29.069-16.783-29.234-24.53L2.839 26.769Z"/>
    <path fill="#d4d4d4" d="m13.903 23.078 3.541 2.969-.619.361-3.535-2.975.613-.355Zm5.436 4.557 3.589 3.01-.629.368-3.585-3.016.625-.362Zm5.484 4.598 3.684 3.089-.641.375-3.679-3.095.636-.369Zm5.579 4.678 3.613 3.029-.653.381-3.607-3.035.647-.375Zm5.508 4.617 3.428 2.874-.664.388-3.423-2.88.659-.382Zm-1.744 5.897-3.44-2.893.652-.378 3.444 2.887-.656.384Zm-5.313-4.468-3.625-3.048.643-.372 3.628 3.042-.646.378Zm-5.498-4.624-3.696-3.107.633-.367 3.699 3.102-.636.372Zm-5.569-4.683-3.601-3.028.622-.361 3.606 3.023-.627.366Zm-5.475-4.604-3.552-2.987.613-.355 3.556 2.981-.617.361Zm17.441-15.12 3.541 2.969-.612.358-3.541-2.973.612-.354Zm5.435 4.557 3.591 3.011-.617.36-3.59-3.014.616-.357Zm5.484 4.598 3.685 3.09-.621.363-3.684-3.093.62-.36Zm5.579 4.678 3.614 3.03-.626.366-3.613-3.034.625-.362Zm5.508 4.618 3.429 2.874-.632.369-3.427-2.878.63-.365Zm-1.847 5.955-3.439-2.892.656-.38 3.443 2.887-.66.385Zm-5.312-4.468-3.624-3.048.645-.374 3.628 3.042-.649.38Zm-5.497-4.624-3.695-3.108.634-.367 3.7 3.102-.639.373Zm-5.569-4.684-3.6-3.028.624-.361 3.605 3.022-.629.367Zm-5.474-4.604-3.551-2.987.613-.356 3.556 2.982-.618.361Z"/>
    <path fill="#575757" fill-rule="nonzero" d="m16.122 19.1 29.301 24.522 2.019-1.196-29.239-24.514-2.081 1.188Z"/>
  </g>
  <g id="white" fill="#fff" fill-rule="nonzero">
    <path d="m30.683 34.401-.31-2.869-1.234.704-3.21-2.71-1.216.703 3.231 2.705-1.22.705 3.959.762Zm-4.539 2.62-.31-2.868-1.233.703-3.21-2.709-1.217.702 3.231 2.706-1.219.704 3.958.762Zm-4.565 2.636-.31-2.869-1.234.704-3.21-2.709-1.216.702 3.231 2.706-1.22.704 3.959.762Zm15.043-16.304.311 2.869 1.233-.704 3.21 2.709 1.216-.702-3.231-2.706 1.22-.704-3.959-.762Zm-4.637 2.678.31 2.868 1.234-.704 3.21 2.71 1.216-.702-3.231-2.706 1.22-.705-3.959-.761Zm9.18-5.3.31 2.868 1.233-.704 3.211 2.71 1.216-.702-3.231-2.706 1.22-.705-3.959-.761Z"/>
  </g>
</svg>
