<svg xmlns="http://www.w3.org/2000/svg" xml:space="preserve" fill-rule="evenodd" stroke-linejoin="round" stroke-miterlimit="2" clip-rule="evenodd" viewBox="0 0 64 64">
  <g id="grey">
    <path fill="#444" fill-rule="nonzero" d="m3.409 29.865 28.964 24.304 28.243-16.307.007-2.517-6.578 3.782v-.059L32.611 51.443 3.377 26.913l.032 2.952Z"/>
    <path fill="#929191" fill-rule="nonzero" d="m3.377 26.913 29.234 24.53 21.434-12.375-29.234-24.53L3.377 26.913Z"/>
    <path fill="#838383" d="m31.291 10.86 29.243 24.537-6.571 3.794-29.242-24.538 6.57-3.793Z"/>
    <path fill="#b6b6b6" d="M52.695 32.867a.912.912 0 0 1-.884.584 1.374 1.374 0 0 1-1.04-.588l.638-14.226-1.792 1.2-1.724 2.347-.882.624s-1.394.121-1.88-.365 0-1.555 0-1.555l1.044-.79 2.468-.911 3.168-2.047.884.45v15.277Zm-18.947-15a.912.912 0 0 1-.884.584 1.374 1.374 0 0 1-1.04-.588l.638-14.226-1.792 1.2-1.724 2.347-.882.624s-1.394.121-1.88-.365 0-1.555 0-1.555l1.044-.79 2.468-.911 3.168-2.047.884.45v15.277Z"/>
  </g>
  <g id="yellow">
    <path fill="#fbd508" fill-rule="nonzero" d="m13.453 21.155 29.135 24.528.956-.552-29.21-24.484-.881.508Z"/>
  </g>
</svg>
