<svg xmlns="http://www.w3.org/2000/svg" xml:space="preserve" fill-rule="evenodd" stroke-linejoin="round" stroke-miterlimit="2" clip-rule="evenodd" viewBox="0 0 64 64">
  <g id="brown">
    <path fill="#8f7148" d="m19.178 6.641-.011 28.875a1.45 1.45 0 0 1-1.807 1.397l.066-29.322a8.681 8.681 0 0 0-.061-.009h.364l-.001.028c.794-.002 1.439-.405 1.439-.902 0-.03-.003-.06-.007-.089l.018.022Z"/>
    <path fill="#8c7a62" d="m17.426 7.591-.066 29.332s-1.08-.249-1.08-1.046l.029-28.837a.85.85 0 0 1 .009-.126c.127.339.561.605 1.108.677Z"/>
    <path fill="#c8ab8a" d="M17.723 5.806c.797 0 1.444.404 1.444.902s-.647.902-1.444.902c-.796 0-1.443-.404-1.443-.902.004-.501.647-.902 1.443-.902Z"/>
    <path fill="#8f7148" d="m47.739 30.612-.011 28.875a1.45 1.45 0 0 1-1.443 1.444 1.4 1.4 0 0 1-.363-.047l.065-29.322-.06-.009h.363l-.001.028c.795-.001 1.439-.405 1.439-.902a.534.534 0 0 0-.007-.089l.018.022Z"/>
    <path fill="#8c7a62" d="m45.987 31.562-.065 29.333s-1.08-.25-1.08-1.047l.028-28.837a.87.87 0 0 1 .009-.126c.127.339.561.605 1.108.677Z"/>
    <path fill="#c8ab8a" d="M46.284 29.777c.797 0 1.444.404 1.444.902s-.647.902-1.444.902c-.796 0-1.443-.404-1.443-.902.004-.5.647-.902 1.443-.902Z"/>
  </g>
  <g id="grey">
    <path fill="#909090" d="m19.177 10.74.001.014c-.025.508-.82.822-1.585.915l-6.136 3.543v-1.08l6.288-3.63c.549-.064.987-.289 1.287-.716v-.027L25.2 6.197v1.08l-6.023 3.463Zm28.561 23.972.001.013c-.025.509-.82.822-1.585.916l-6.135 3.542v-1.08l6.287-3.63c.549-.064.987-.289 1.287-.716l.001-.027 6.168-3.561v1.079l-6.024 3.464Z"/>
    <path fill="#c9c9c9" d="M11.457 14.132v1.08l-1.219-1.023v-1.08l1.219 1.023Zm28.562 23.971v1.08L38.8 38.16v-1.079l1.219 1.022Z"/>
    <path fill="#707070" d="m13.549 14.004.87-.511 2.434-.274c.223.032.267.141.149.319l-3.453.466Zm5.629-1.494v-.482l2.903-2.958.752-.426-3.655 3.866ZM42.11 37.976l.87-.511 2.434-.275c.223.032.267.141.149.319l-3.453.467Zm5.629-1.495v-.482l2.903-2.958.753-.426-3.656 3.866Z"/>
    <path fill="#c2bdbd" d="m17.511 10.637-6.054 3.495-1.219-1.023 6.068-3.503c.077.481.488.864 1.054.913.924-.055 1.557-.382 1.807-1.022V7.954l4.766-2.752 1.267.995-5.855 3.381c-.374.666-.998 1.002-1.834 1.059Zm28.561 23.971-6.053 3.495-1.219-1.022 6.067-3.504c.077.482.488.865 1.055.913.923-.055 1.557-.381 1.806-1.022v-1.542l4.766-2.752 1.268.995-5.856 3.381c-.374.665-.997 1.001-1.834 1.058Z"/>
    <path fill="#707070" d="M11.463 11.433c-.027-.143.044-.289.209-.384a.84.84 0 0 1 .896.078c.033.028.061.083.084.114l.028 1.625c-.125.493-.833.775-1.217.219v-1.652ZM22.797 4.89c-.027-.144.044-.29.208-.385a.841.841 0 0 1 .896.079.46.46 0 0 1 .084.088l.029 1.65c-.125.493-.833.775-1.217.219V4.89Zm17.227 30.515c-.027-.144.044-.29.209-.385a.842.842 0 0 1 .896.079c.033.028.061.082.084.113l.028 1.625c-.125.493-.833.775-1.217.219v-1.651Zm11.334-6.544c-.027-.144.044-.289.208-.384a.841.841 0 0 1 .897.078.574.574 0 0 1 .084.088l.028 1.651c-.125.492-.833.774-1.217.218v-1.651Z"/>
    <g id="red">
      <path fill="#a43819" d="M22.515 4.064c-.233-.286-.162-.646.193-.851.401-.232 1.016-.178 1.372.12.286.241.317.567.108.806.163.2.177.436.05.629.188.278.105.609-.229.802l-.014.008c-.401.232-1.016.178-1.371-.12-.266-.223-.312-.521-.15-.754a.508.508 0 0 1 .041-.64Zm-11.283 6.514c-.233-.286-.162-.646.193-.85.402-.232 1.016-.179 1.372.12.286.24.317.566.108.805.167.205.178.447.041.643.182.277.099.604-.233.796-.402.232-1.017.178-1.372-.12-.266-.223-.312-.521-.15-.753a.51.51 0 0 1 .041-.641Zm39.844 17.458c-.233-.287-.162-.646.193-.851.402-.232 1.016-.178 1.372.12.286.24.317.566.108.805.163.2.177.436.05.63.188.277.106.608-.229.801a.091.091 0 0 1-.013.008c-.402.232-1.017.178-1.372-.12-.266-.223-.312-.521-.149-.753a.507.507 0 0 1 .04-.64ZM39.793 34.55c-.233-.287-.162-.646.193-.851.402-.232 1.016-.178 1.372.12.286.24.317.566.109.805.166.205.177.448.04.644.182.276.099.604-.233.795-.402.232-1.017.179-1.372-.12-.266-.223-.312-.52-.149-.753a.507.507 0 0 1 .04-.64Z"/>
    </g>
  </g>
  <g id="black">
    <path fill="#131313" d="M11.654 10.41a.5.5 0 1 1 .816-.578c9.21 13.014 18.596 21.995 28.372 23.869a.5.5 0 0 1-.188.982c-9.972-1.911-19.607-10.999-29-24.273Zm11.155-6.441a.5.5 0 0 1 .816-.577c9.21 13.013 18.597 21.994 28.373 23.868a.5.5 0 0 1-.188.982c-9.972-1.911-19.607-10.999-29.001-24.273Z"/>
  </g>
</svg>
