<svg xmlns="http://www.w3.org/2000/svg" xml:space="preserve" fill-rule="evenodd" stroke-linejoin="round" stroke-miterlimit="2" clip-rule="evenodd" viewBox="0 0 64 64">
  <g id="grey">
    <path fill="#444" d="M19.44 22.649c7.834-4.523 19.835-3.46 26.783 2.371 6.949 5.831 6.232 14.237-1.6 18.759-7.834 4.522-19.835 3.459-26.783-2.372-6.949-5.83-6.232-14.236 1.6-18.758Z"/>
    <path fill="#ebebeb" d="M19.377 20.221c7.834-4.522 19.835-3.46 26.783 2.371 6.949 5.831 6.232 14.237-1.6 18.759-7.834 4.523-19.835 3.46-26.783-2.371-6.949-5.831-6.232-14.236 1.6-18.759Z"/>
    <path fill="#838383" d="M21.562 21.834c6.494-3.749 16.442-2.868 22.202 1.965 5.761 4.834 5.166 11.802-1.326 15.55-6.494 3.75-16.442 2.869-22.202-1.965-5.761-4.834-5.166-11.801 1.326-15.55Z"/>
  </g>
</svg>
