<svg xmlns="http://www.w3.org/2000/svg" xml:space="preserve" fill-rule="evenodd" stroke-linejoin="round" stroke-miterlimit="2" clip-rule="evenodd" viewBox="0 0 64 64">
  <g id="blue">
    <path fill="#007fff" d="m57.555 36.648.023.008v1.902L36.02 51.05 6.773 26.629v-2.067l29.25 24.544 21.532-12.458Z"/>
    <path fill="#42a0ff" fill-rule="nonzero" d="m6.773 24.562 29.25 24.544 21.555-12.472-29.234-24.53L6.773 24.562Z"/>
    <path fill="#9ee2fc" d="m28.501 31.933.07.033-.066.036-.004-.069Zm3.7 1.074a.245.245 0 0 0 .027.002c-1.301.907-3.311.831-4.73.122-2.776-1.106-6.6-5.654-6.6-5.654l-.38-1.98c.375.421 5.088 5.676 7.016 6.353 1.367.464 2.761.848 4.173 1.149.204.044.368.045.494.008Zm7.39 2.042 4.718-2.807-.229 1.941-4.066 2.4s-4.675-4.113-5.76-5.483c-.588-.742-.621-1.886-.752-2.74.482 1.764 6.089 6.689 6.089 6.689Zm-7.699-11.695 4.718-2.807-.229 1.941-4.066 2.4s-4.674-4.113-5.76-5.483c-.588-.743-.62-1.886-.752-2.74.482 1.763 6.089 6.689 6.089 6.689Zm2.826 21.309.07.034-.066.035-.004-.069Zm3.701 1.075.026.002c-1.301.907-3.311.831-4.73.121-2.776-1.106-6.6-5.654-6.6-5.654l-.38-1.98c.376.421 5.088 5.677 7.016 6.353 1.368.465 2.761.849 4.173 1.149.205.044.368.045.495.009Z"/>
    <path fill="#64c1ff" d="m26.617 26.88 1.648-.897 2.039 1.967-1.579.9-2.108-1.97Zm-1.856-1.029 1.507-.783.872.621-1.579.9-.8-.738Zm10.953.118 1.634-.708 1.489 1.259-1.677.678-1.446-1.229Zm3.978 3.516-.945.463-1.077-.857 1.634-.708.882.644-.345.142-.149.316ZM28.015 14.274l1.634-.708 1.489 1.259-1.677.678-1.446-1.229Zm3.978 3.516-.945.463-1.077-.857 1.634-.708.882.643-.345.143-.149.316Zm.841 21.82 1.648-.897 2.039 1.967-1.579.9-2.108-1.97Zm-1.856-1.029 1.507-.783.872.621-1.579.9-.8-.738Z"/>
    <path fill="#9fb8c8" d="m26.48 28.293 2.062 1.867 2.553-1.488.112.867-2.668 1.587-2.062-1.734.003-1.099Zm-4.735-2.866.123-.74 3.348 3.061v.917l-3.471-3.238Zm12.802 1.093 1.322 1.278v.975l-1.748-1.586.426-.667Zm2.353 3.397 2.987 2.77 3.406-1.938.158.688-3.687 2.228-2.864-2.916v-.832ZM26.848 14.825l1.322 1.278v.975l-1.748-1.586.426-.667Zm2.353 3.397 2.987 2.77 3.406-1.938.158.688-3.687 2.228-2.864-2.916v-.832Zm3.496 22.801 2.062 1.867 2.553-1.488.112.867-2.668 1.587-2.062-1.734.003-1.099Zm-4.735-2.866.123-.74 3.348 3.061v.917l-3.471-3.238Z"/>
    <path fill="#9eb9e1" d="m40.9 36.071 2.477-1.473 5.412 6.282-7.889-4.809Zm-20.002-8.594-4.988-7.258 6.02 4.118-.062.35-1.35.768.38 2.022Zm12.303-3.101 2.478-1.473 1.75 2.031-1.968.82-2.26-1.378Zm-6.086 15.831-4.988-7.258 6.02 4.118-.062.35-1.35.768.38 2.022Z"/>
    <path fill="#96a6b9" d="m22.417 23.674.253-1.622.446-.147.543.418.341 1.711-.759.426-.824-.786Zm1.425-.705.253-1.622.446-.147.543.418.341 1.711-.759.426-.824-.786Zm17.061 6.987-.002.834-.693.33-.914-.792.547-1.159.6-.248.408.342.331-.7.6-.248.463.388-.003 1.481-.693.33-.644-.558Zm-7.699-11.695-.002.834-.693.33-.914-.792.547-1.159.6-.248.409.342.33-.7.6-.248.463.388-.003 1.481-.693.33-.644-.558Zm-4.57 18.143.253-1.622.446-.147.543.418.341 1.711-.759.426-.824-.786Zm1.425-.705.253-1.622.446-.147.543.418.341 1.711-.759.426-.824-.786Z"/>
  </g>
  <g id="orange">
    <path fill="#d3b47f" d="M31.306 29.396c1.287 2.197 1.808 3.903.401 3.603a36.961 36.961 0 0 1-4.173-1.149c-2.009-.705-7.04-6.38-7.04-6.38l1.419-.916-.026.15-.019-.017-.123.74.012.011-.06.336 6.803 6.144.005.084 2.925-1.588-.124-1.018Zm12.18 2.059c.247.249.494.5.738.752l-4.633 2.842s-5.825-5.117-6.111-6.787a2.864 2.864 0 0 1 1.06-2.659c.334.042.667.098.996.166l-.654.289-.028-.027-.302.494-.005-.005-.426.667.016.015-.363.593 5.935 6.489.077-.632.012-.008-.045.503 3.844-2.3-.111-.392ZM35.787 19.76c.248.249.494.499.738.752l-4.633 2.842s-5.825-5.117-6.111-6.787a2.864 2.864 0 0 1 1.06-2.659c.335.042.667.098.996.166l-.654.289-.028-.027-.302.493-.005-.004-.426.667.016.015-.363.593 5.935 6.489.077-.633.013-.007-.046.503 3.844-2.3-.111-.392Zm1.737 22.366c1.286 2.197 1.808 3.903.4 3.603a36.602 36.602 0 0 1-4.173-1.149c-2.009-.705-7.04-6.38-7.04-6.38l1.42-.916-.027.15-.019-.017-.123.74.012.011-.06.336 6.803 6.144.005.084 2.925-1.588-.123-1.018Z"/>
    <path fill="#f3eded" d="M28.542 29.54v.62l-2.062-1.867-.003 1.099 2.062 1.734.003-.002v.832l-6.845-6.182.06-.336 3.459 3.227v-.917l-3.329-3.044.143-.809 1.177 1.047.34.827 1.451 1.306.749-.118 2.694 2.642.101-.059Zm11.244 4.112-.077.632-5.935-6.489.363-.593 1.732 1.571v-.975l-1.317-1.273.302-.494 1.8 1.763v1.21l1.531 1.595.373-.373 1.465 1.484-.118.967-.018.01-2.987-2.77v.832l2.864 2.916.022-.013Zm-7.699-11.696-.077.633-5.935-6.489.363-.593 1.732 1.571v-.975l-1.317-1.274.302-.493 1.8 1.763v1.21l1.531 1.595.373-.373 1.465 1.484-.118.967-.018.01-2.987-2.77v.832l2.864 2.916.022-.014Zm2.672 20.315v.619l-2.062-1.867-.003 1.099 2.062 1.734.003-.001v.831l-6.845-6.182.06-.336 3.459 3.227v-.917l-3.329-3.044.143-.809 1.177 1.047.34.827 1.451 1.306.749-.117 2.694 2.641.101-.058Z"/>
  </g>
  <g id="white">
    <path fill="#fff" d="m25.334 22.872.872.752-3 1.387-1.238-1.16.455-.212-.006.035.824.786.759-.426-.208-1.043.05-.024v.002l.824.786.759-.426-.091-.457Zm.389 4.062c.148-.064 2.853-1.547 2.853-1.547l2.623 2.612-2.758 1.6-2.718-2.665Zm.894-.054 2.108 1.97 1.579-.9-2.039-1.967-1.648.897Zm8.242-.812 2.907-1.283 1.94 1.709-2.991 1.355-1.856-1.781Zm.855-.099 1.446 1.229 1.677-.678-1.489-1.259-1.634.708Zm6.528 3.384.831.694-3.051 1.625-1.525-1.423 1.099-.561-.302.64.914.792.693-.33.002-.834.644.558.693-.33.002-.831Zm-1.552-.223.293-.15-.134.283-.159-.133ZM27.16 14.373l2.907-1.283 1.94 1.709-2.991 1.355-1.856-1.781Zm.855-.099 1.446 1.229 1.677-.678-1.489-1.259-1.634.708Zm6.528 3.384.831.694-3.051 1.625-1.525-1.423 1.099-.561-.302.64.914.792.693-.33.002-.834.644.558.693-.33.002-.831Zm-1.552-.223.293-.15-.133.283-.16-.133Zm-1.44 18.167.872.752-3 1.387-1.238-1.16c.035-.014.208-.096.455-.212l-.006.035.824.786.759-.426-.207-1.043.05-.023-.001.001.824.786.759-.426-.091-.457Zm.389 4.062c.148-.064 2.853-1.547 2.853-1.547l2.623 2.612-2.758 1.6-2.718-2.665Zm.894-.054 2.108 1.97 1.579-.9-2.039-1.967-1.648.897Z"/>
  </g>
  <g id="grey">
    <path fill="#d5d5d5" d="M28.542 30.16v-.62l2.594-1.547.294 2.421-2.925 1.588.034-.876 2.668-1.587-.112-.867-2.553 1.488Zm11.343 2.525.138-1.014 3.051-1.664.212.746-3.399 1.934-.002-.002Zm3.442-1.788.27.95-3.844 2.3.045-.503 3.653-2.207-.124-.54ZM32.186 20.99l.138-1.014 3.051-1.664.212.746-3.399 1.934-.002-.002Zm3.442-1.788.27.95-3.844 2.3.046-.503 3.652-2.207-.124-.54Zm-.869 23.688v-.619l2.594-1.548.294 2.421-2.925 1.588.034-.876 2.668-1.587-.112-.867-2.553 1.488Z"/>
    <path fill="#ddd" d="m39.167 26.738.588-.252.056 1.155 1.279 1.112-.107.227-.293.15-.249-.209-.255.106-.882-.644-1.634.708 1.077.857.945-.463-.096.203-1.099.561.02.018-.332.332-1.531-1.595v-1.188l.018-.008.043.041 2.452-1.111Zm-15.936-1.737 2.887-1.376.464 1 1.522 1.021c-.782.428-2.272 1.241-2.381 1.288l.024.023-.749.118-1.451-1.306-.316-.768Zm1.53.85.8.738 1.579-.9-.872-.621-1.507.783Zm6.707-10.808.588-.252.056 1.155 1.279 1.112-.107.227-.293.15-.249-.209-.255.105-.882-.643-1.634.708 1.077.857.945-.463-.096.203-1.099.561.02.018-.332.332-1.531-1.595v-1.188l.019-.008.042.041 2.452-1.111Zm-2.019 22.688 2.886-1.376.464 1 1.522 1.021c-.782.428-2.272 1.241-2.381 1.288l.024.024-.749.117-1.451-1.306-.315-.768Zm1.529.85.8.738 1.579-.9-.872-.621-1.507.783Z"/>
  </g>
</svg>
