<svg xmlns="http://www.w3.org/2000/svg" xml:space="preserve" fill-rule="evenodd" stroke-linejoin="round" stroke-miterlimit="2" clip-rule="evenodd" viewBox="0 0 64 64">
  <g id="blue">
    <path fill="#61a2d3" d="m43.084 49.028 2.437 2.046c-.361.55-.592 1.202-.592 1.782 0 .379.098.675.268.872l-2.765-2.353c-.069-.879.186-1.738.652-2.347Z"/>
    <path fill="#7ac6ff" d="m45.749 48.339 1.85 1.551-.023.013c-.281-.11-.641-.066-1.036.162-.386.223-.742.586-1.019 1.009l-2.439-2.045c.304-.397.697-.689 1.149-.813.875-.249 1.308-.034 1.457.072.031.023.05.042.061.051Z"/>
    <path fill="#4a6168" d="M42.435 51.412c-.13-1.464.638-2.878 1.796-3.196 1.119-.318 1.516.123 1.516.123l-1.669-1.402-4.134 2.386 2.491 2.089Zm4.105-1.347c.889-.513 1.612-.096 1.612.93 0 1.027-.723 2.278-1.612 2.791-.889.514-1.611.097-1.611-.93 0-1.027.722-2.277 1.611-2.791Zm.008.524c-.641.371-1.162 1.273-1.162 2.014 0 .741.521 1.042 1.162.672.641-.371 1.162-1.273 1.162-2.014 0-.741-.521-1.042-1.162-.672Z"/>
    <path fill="#324565" d="M46.548 50.589c.641-.37 1.162-.069 1.162.672 0 .741-.521 1.643-1.162 2.014-.641.37-1.162.069-1.162-.672 0-.741.521-1.643 1.162-2.014Z"/>
  </g>
  <g id="brown">
    <path fill="#aa7850" d="m55.036 48.049-2.765-2.344c-.071-.882.182-1.745.65-2.357l2.438 2.046c-.362.55-.591 1.202-.591 1.782 0 .38.097.677.268.873Z"/>
    <path fill="#be7a38" d="m55.359 45.394-2.439-2.045c.304-.397.696-.689 1.149-.813.875-.249 1.309-.034 1.458.072.03.023.049.042.06.051l1.851 1.551-.024.013c-.28-.11-.641-.066-1.036.162-.387.223-.742.586-1.019 1.009Z"/>
    <path fill="#66503a" d="M52.274 45.732c-.131-1.464.637-2.878 1.795-3.196 1.119-.319 1.518.123 1.518.123l-1.672-1.402-4.132 2.386 2.491 2.089Z"/>
    <path fill="#8f7148" d="M56.378 44.385c.889-.513 1.612-.097 1.612.93 0 1.027-.723 2.278-1.612 2.791-.888.514-1.61.097-1.61-.93 0-1.027.722-2.278 1.61-2.791Zm.008.524c-.642.371-1.162 1.273-1.162 2.014 0 .741.52 1.042 1.162.672.641-.371 1.162-1.273 1.162-2.014 0-.741-.521-1.042-1.162-.672Z"/>
    <path fill="#49362f" d="M56.386 44.909c.641-.37 1.162-.069 1.162.672 0 .741-.521 1.643-1.162 2.014-.642.37-1.162.069-1.162-.672 0-.741.52-1.643 1.162-2.014Z"/>
    <path fill="#74352a" d="M51.466 47.749c.643-.37 1.164-.069 1.164.672 0 .741-.521 1.643-1.164 2.014-.641.37-1.162.069-1.162-.672 0-.741.521-1.643 1.162-2.014Z"/>
  </g>
  <g id="orange">
    <path fill="#e3704a" d="m48.002 46.188 2.437 2.046c-.36.55-.592 1.202-.592 1.782 0 .379.1.675.268.872l-2.763-2.353c-.069-.879.184-1.738.65-2.347Z"/>
    <path fill="#fca303" d="m50.667 45.499 1.851 1.551-.022.013c-.28-.11-.643-.066-1.036.162-.388.223-.742.586-1.021 1.009l-2.437-2.045c.302-.397.695-.689 1.147-.813.875-.249 1.31-.034 1.457.072a.589.589 0 0 1 .061.051Z"/>
    <path fill="#b26528" d="M47.354 48.572c-.129-1.464.639-2.878 1.795-3.196 1.121-.318 1.518.123 1.518.123l-1.671-1.402-4.131 2.386 2.489 2.089Zm4.106-1.347c.889-.513 1.61-.097 1.61.93 0 1.027-.721 2.278-1.61 2.791-.891.514-1.613.097-1.613-.93 0-1.027.722-2.278 1.613-2.791Zm.006.524c-.641.371-1.162 1.273-1.162 2.014 0 .741.521 1.042 1.162.672.643-.371 1.164-1.273 1.164-2.014 0-.741-.521-1.042-1.164-.672Z"/>
  </g>
  <g id="grey">
    <path fill="#444" fill-rule="nonzero" d="m5.349 28.291 28.964 24.303 25.094-14.488v-2.588L34.551 49.869 5.317 25.338l.032 2.953Z"/>
    <path fill="#929191" fill-rule="nonzero" d="m5.317 25.338 29.234 24.531 24.856-14.351-29.234-24.53-24.856 14.35Z"/>
    <path fill="#d4d4d4" d="m26.463 15.824 3.544 2.971-.622.363-3.536-2.978.614-.356Zm5.436 4.557 3.592 3.012-.636.372-3.585-3.019.629-.365Zm5.484 4.598 3.687 3.092-.651.38-3.68-3.099.644-.373Zm5.579 4.678 3.616 3.031-.666.389-3.609-3.039.659-.381Zm5.508 4.617 3.431 2.877-.681.397-3.424-2.883.674-.391ZM38.32 45.006l-3.432-2.886.652-.378 3.435 2.881-.655.383Zm-5.313-4.468-3.617-3.041.642-.372 3.621 3.036-.646.377Zm-5.498-4.623-3.688-3.101.632-.367 3.692 3.096-.636.372Zm-5.569-4.683-3.594-3.022.622-.361 3.598 3.017-.626.366Zm-5.475-4.604-3.545-2.981.613-.355 3.548 2.975-.616.361Zm3.484-7.031 3.564 2.988-.619.362-3.559-2.995.614-.355Zm5.435 4.557 3.614 3.03-.63.368-3.609-3.036.625-.362Zm5.484 4.598 3.709 3.109-.642.375-3.703-3.116.636-.368Zm5.579 4.677 3.637 3.05-.653.381-3.631-3.056.647-.375Zm5.508 4.618 3.452 2.894-.664.388-3.447-2.9.659-.382Z"/>
  </g>
  <g id="yellow"/>
  <g id="white" fill="#fff" fill-rule="nonzero">
    <path d="m19.279 33.367.31 2.868 1.233-.704 3.21 2.71 1.217-.702-3.231-2.706 1.22-.704-3.959-.762Zm6.62-3.823.31 2.869 1.234-.704 3.21 2.71 1.216-.703-3.231-2.705 1.22-.705-3.959-.762ZM32 26.022l.31 2.868 1.233-.704 3.211 2.71 1.216-.702-3.231-2.706 1.22-.705L32 26.022Zm6.832-3.944.31 2.868 1.233-.703 3.21 2.709 1.217-.702-3.231-2.706 1.219-.704-3.958-.762Z"/>
  </g>
</svg>
