<svg xmlns="http://www.w3.org/2000/svg" xml:space="preserve" fill-rule="evenodd" stroke-linejoin="round" stroke-miterlimit="2" clip-rule="evenodd" viewBox="0 0 64 64">
  <g id="grey">
    <path fill="#444" fill-rule="nonzero" d="m5.349 28.291 28.964 24.303 25.094-14.488v-2.588L34.551 49.869 5.317 25.338l.032 2.953Z"/>
    <path fill="#929191" fill-rule="nonzero" d="m5.317 25.338 29.234 24.531 24.856-14.351-29.234-24.53-24.856 14.35Z"/>
    <path fill="#d4d4d4" d="m13.533 23.292 3.548 2.975-.616.361-3.545-2.981.613-.355Zm5.435 4.557 3.598 3.017-.626.366-3.594-3.022.622-.361Zm5.485 4.598 3.692 3.096-.636.372-3.688-3.101.632-.367Zm5.579 4.678 3.621 3.036-.646.377-3.617-3.041.642-.372Zm5.508 4.617 3.435 2.881-.655.383-3.432-2.886.652-.378Zm-9.076-25.917 3.547 2.974-.621.363-3.54-2.981.614-.356Zm5.436 4.557 3.596 3.015-.636.372-3.589-3.022.629-.365Zm5.484 4.598 3.691 3.094-.651.381-3.683-3.102.643-.373Zm5.579 4.678 3.62 3.034-.666.39-3.612-3.043.658-.381Zm5.508 4.617 3.434 2.879-.68.398-3.427-2.886.673-.391ZM19.88 19.626l3.547 2.974-.621.363-3.54-2.981.614-.356Zm5.436 4.557 3.596 3.015-.636.372-3.589-3.022.629-.365Zm5.484 4.598 3.691 3.094-.651.381-3.683-3.102.643-.373Zm5.579 4.678 3.62 3.034-.666.39-3.612-3.043.658-.381Zm5.508 4.617 3.434 2.879-.68.398-3.427-2.886.673-.391Z"/>
  </g>
</svg>
