<svg xmlns="http://www.w3.org/2000/svg" xmlns:xlink="http://www.w3.org/1999/xlink" xml:space="preserve" fill-rule="evenodd" stroke-linejoin="round" stroke-miterlimit="2" clip-rule="evenodd" viewBox="0 0 64 64">
  <defs>
    <path id="reuse-0" fill="#444" d="m5.349 28.291 28.964 24.303 25.094-14.488v-2.588L34.551 49.869 5.317 25.338l.032 2.953Z"/>
    <path id="reuse-1" fill="#929191" d="m5.317 25.338 29.234 24.531 24.856-14.351-29.234-24.53-24.856 14.35Z"/>
  </defs>
  <g id="blue">
    <path fill="#61a2d3" d="m43.084 49.028 2.437 2.046c-.361.55-.592 1.202-.592 1.782 0 .379.098.675.268.872l-2.765-2.353c-.069-.879.186-1.738.652-2.347Z"/>
    <path fill="#7ac6ff" d="m45.749 48.339 1.85 1.551-.023.013c-.281-.11-.641-.066-1.036.162-.386.223-.742.586-1.019 1.009l-2.439-2.045c.304-.397.697-.689 1.149-.813.875-.249 1.308-.034 1.457.072.031.023.05.042.061.051Z"/>
    <path fill="#4a6168" d="M42.435 51.412c-.13-1.464.638-2.878 1.796-3.196 1.119-.318 1.516.123 1.516.123l-1.669-1.402-4.134 2.386 2.491 2.089Zm4.105-1.347c.889-.513 1.612-.096 1.612.93 0 1.027-.723 2.278-1.612 2.791-.889.514-1.611.097-1.611-.93 0-1.027.722-2.277 1.611-2.791Zm.008.524c-.641.371-1.162 1.273-1.162 2.014 0 .741.521 1.042 1.162.672.641-.371 1.162-1.273 1.162-2.014 0-.741-.521-1.042-1.162-.672Z"/>
    <path fill="#324565" d="M46.548 50.589c.641-.37 1.162-.069 1.162.672 0 .741-.521 1.643-1.162 2.014-.641.37-1.162.069-1.162-.672 0-.741.521-1.643 1.162-2.014Z"/>
  </g>
  <g id="brown">
    <path fill="#aa7850" d="m55.036 48.049-2.765-2.344c-.071-.882.182-1.745.65-2.357l2.438 2.046c-.362.55-.591 1.202-.591 1.782 0 .38.097.677.268.873Z"/>
    <path fill="#be7a38" d="m55.359 45.394-2.439-2.045c.304-.397.696-.689 1.149-.813.875-.249 1.309-.034 1.458.072.03.023.049.042.06.051l1.851 1.551-.024.013c-.28-.11-.641-.066-1.036.162-.387.223-.742.586-1.019 1.009Z"/>
    <path fill="#66503a" d="M52.274 45.732c-.131-1.464.637-2.878 1.795-3.196 1.119-.319 1.518.123 1.518.123l-1.672-1.402-4.132 2.386 2.491 2.089Z"/>
    <path fill="#8f7148" d="M56.378 44.385c.889-.513 1.612-.097 1.612.93 0 1.027-.723 2.278-1.612 2.791-.888.514-1.61.097-1.61-.93 0-1.027.722-2.278 1.61-2.791Zm.008.524c-.642.371-1.162 1.273-1.162 2.014 0 .741.52 1.042 1.162.672.641-.371 1.162-1.273 1.162-2.014 0-.741-.521-1.042-1.162-.672Z"/>
    <path fill="#49362f" d="M56.386 44.909c.641-.37 1.162-.069 1.162.672 0 .741-.521 1.643-1.162 2.014-.642.37-1.162.069-1.162-.672 0-.741.52-1.643 1.162-2.014Z"/>
    <path fill="#74352a" d="M51.466 47.749c.643-.37 1.164-.069 1.164.672 0 .741-.521 1.643-1.164 2.014-.641.37-1.162.069-1.162-.672 0-.741.521-1.643 1.162-2.014Z"/>
  </g>
  <g id="orange">
    <path fill="#e3704a" d="m48.002 46.188 2.437 2.046c-.36.55-.592 1.202-.592 1.782 0 .379.1.675.268.872l-2.763-2.353c-.069-.879.184-1.738.65-2.347Z"/>
    <path fill="#fca303" d="m50.667 45.499 1.851 1.551-.022.013c-.28-.11-.643-.066-1.036.162-.388.223-.742.586-1.021 1.009l-2.437-2.045c.302-.397.695-.689 1.147-.813.875-.249 1.31-.034 1.457.072a.589.589 0 0 1 .061.051Z"/>
    <path fill="#b26528" d="M47.354 48.572c-.129-1.464.639-2.878 1.795-3.196 1.121-.318 1.518.123 1.518.123l-1.671-1.402-4.131 2.386 2.489 2.089Zm4.106-1.347c.889-.513 1.61-.097 1.61.93 0 1.027-.721 2.278-1.61 2.791-.891.514-1.613.097-1.613-.93 0-1.027.722-2.278 1.613-2.791Zm.006.524c-.641.371-1.162 1.273-1.162 2.014 0 .741.521 1.042 1.162.672.643-.371 1.164-1.273 1.164-2.014 0-.741-.521-1.042-1.164-.672Z"/>
  </g>
  <g id="grey" fill-rule="nonzero">
    <use xlink:href="#reuse-0"/>
    <use xlink:href="#reuse-1"/>
    <path fill="#d4d4d4" d="m10.635 22.268 29.208 24.561.662-.382-29.26-24.531-.61.352Zm-4.529 2.615L35.287 49.46l.689-.398-29.26-24.531-.61.352Zm9.068-5.235 29.198 24.566.672-.387-29.26-24.532-.61.353Zm4.565-2.636L48.92 41.589l.689-.398-29.26-24.531-.61.352Zm4.503-2.6 29.234 24.546.636-.367-29.26-24.531-.61.352Zm4.542-2.622 29.204 24.563.666-.384-29.26-24.532-.61.353Z"/>
  </g>
  <g id="grey1">
    <use xlink:href="#reuse-0" fill-rule="nonzero"/>
    <use xlink:href="#reuse-1" fill-rule="nonzero"/>
    <path fill="#d4d4d4" d="m26.589 15.749 3.538 2.966-.621.36-3.531-2.971.614-.355Zm5.435 4.557 3.587 3.007-.632.367-3.58-3.012.625-.362Zm5.484 4.598 3.682 3.087-.643.373-3.675-3.092.636-.368Zm5.579 4.677 3.611 3.027-.655.381-3.604-3.033.648-.375Zm5.508 4.618 3.425 2.872-.666.386-3.419-2.876.66-.382ZM38.128 45.137l-3.441-2.895.659-.382 3.448 2.891-.666.386Zm-5.311-4.469-3.627-3.051.649-.374 3.632 3.045-.654.38Zm-5.497-4.624-3.697-3.111.637-.368 3.704 3.105-.644.374Zm-5.567-4.684-3.603-3.031.626-.362 3.609 3.026-.632.367Zm-5.473-4.605-3.554-2.99.614-.355 3.561 2.985-.621.36Z"/>
    <path fill="#575757" fill-rule="nonzero" d="m16.919 18.64 29.199 24.567 2.157-1.245-29.26-24.532-2.096 1.21Z"/>
  </g>
  <g id="white" fill="#fff" fill-rule="nonzero">
    <path d="m30.901 34.196-.31-2.869-1.233.704-3.21-2.71-1.217.702 3.231 2.706-1.22.705 3.959.762Zm-5.97 3.526-.31-2.869-1.233.704-3.21-2.71-1.217.702 3.231 2.706-1.22.705 3.959.762Zm8.024-12.274.31 2.869 1.233-.704 3.21 2.71 1.217-.702-3.231-2.706 1.22-.705-3.959-.762Zm5.742-3.315.31 2.869 1.233-.704 3.21 2.71 1.217-.702-3.231-2.706 1.22-.705-3.959-.762Z"/>
  </g>
</svg>
