<svg xmlns="http://www.w3.org/2000/svg" xml:space="preserve" fill-rule="evenodd" stroke-linejoin="round" stroke-miterlimit="2" clip-rule="evenodd" viewBox="0 0 64 64">
  <g id="blue">
    <path fill="#00c1ff" d="m20.705 26.409 7.977-4.933L61.706 37.79 34.676 58 2.3 37.79l17.2-10.636v1.534l-1.848 1.106-.002 2.267.003.002.005 7.295 17.25 10.137v.011l11.488-8.25v-7.662l.011-.008-.011-2.086L29 23l-6.951 4.161-1.344-.752Z"/>
    <path fill="#0071a9" d="m34.902 41.973-.002-2.397.016-.012v.006l-.007 1.064-.007 1.339Zm11.494-8.379v7.662L34.916 49.5l-.006-7.536 11.486-8.37ZM34.916 49.5l-.008.006v-.011l.008.005Z"/>
    <path fill="#73e0fc" d="m34.916 39.57-.008.006-17.256-9.782 1.848-1.106V30.5l7.398 4.14v-1.323l7.903 4.444L43.051 32 29.07 24.929l-5.187 3.259-1.834-1.027L29 23l17.396 8.5-11.48 8.064v.006Z"/>
    <path fill="#3ed2ff" d="m34.801 37.761-7.903-4.444v-3.441l-3.015-1.688 5.187-3.259L43.051 32l-8.25 5.761Z"/>
    <path fill="#0089cf" d="M34.916 39.57v-.006l11.48-8.064.011 2.086-11.497 8.378.006 7.536L32 47.786l.024-7.286L20 33.574v7.16l-2.342-1.376-.005-7.295 17.249 9.91.007-1.339.007-1.064ZM19.5 30.5v-4.766l7.398 4.142v4.764L19.5 30.5Z"/>
    <path fill="#034464" fill-rule="nonzero" d="M20 40.734v-7.16L32.024 40.5 32 47.786l-12-7.052Z"/>
    <path fill="#05a3f4" fill-rule="nonzero" d="m17.65 32.061 17.252 9.912.014-2.403-17.264-9.776-.002 2.267Z"/>
  </g>
</svg>
