<svg xmlns="http://www.w3.org/2000/svg" xml:space="preserve" fill-rule="evenodd" stroke-linejoin="round" stroke-miterlimit="2" clip-rule="evenodd" viewBox="0 0 64 64">
  <g id="blue">
    <path fill="#005f95" d="m49.325 31.674 12.381 6.116L34.676 58 2.3 37.79l14.26-8.818v3.293l-.934 1.107.934.543v3.677l15.764 9.49 9-1 8-6v-4l.64-.478-.639-1.406v-2.524Zm1.563-13.034-.567 1.589-8.997 6.853v-1.254l9.564-7.188Z"/>
    <path fill="#021c29" fill-rule="nonzero" d="m41.324 42.082 8-6.082v4.082l-8 6v-4Z"/>
    <path fill="#067cb9" d="m32.35 28.082-12.351-6.633-3.477-1.867-.524-1.52 16.366 8.776-.014 1.244Zm0 0 8.974-1v13.249l-1.728.195-1.29-.66-2.405.208-1.467.832-2.128.171.04-12.995h.004Zm8.974 12.249 8.001-6.133.639 1.406-7.759 5.808-.881-1.081Zm-7.018-11.882.018 11.026L39.69 39l.019-11.167-5.403.616Zm5.219 13.816-.017.019-5.003.556-.028-.023 1.44-.952 2.407-.279 1.201.679Z"/>
    <path fill="#0071a9" d="m49.324 36.082-8 6-.036-14.996-8.938.996.014-1.244 8.96-1.01v1.254l8-6.098v13.214l-8 6.133.881 1.081 7.119-5.33Z"/>
    <path fill="#0089cf" d="M32.306 41.059 16.56 32.265V19.602l15.786 8.48-.04 12.995 2.128-.171 1.467-.832 2.405-.208 1.29.66 1.728-.195v1.751l-1.774.197-1.226-.693-2.407.279-1.486.983-2.109.233-.998-.581.982-1.441Z"/>
    <path fill="#024263" d="m16.56 33.915 15.764 9.167v4l-15.764-9.49v-3.677Zm8.691-9.193 2.073 1.114-.049 12-2.02-1.147-.004-11.967Zm-4-2.181 2.073 1.114-.049 12-2.02-1.147-.004-11.967Zm8.051 4.427 2.073 1.114-.049 12-2.02-1.147-.004-11.967Zm-12.051-6.606 2.073 1.114-.049 12-2.02-1.148-.004-11.966Zm27.767 4.702-.038 12.029-2.026 1.553.064-12.03 2-1.552Zm3.166-2.412-.037 12.028-2.027 1.553.064-12.029 2-1.552Z"/>
    <path fill="#032f47" fill-rule="nonzero" d="m32.324 43.082 9-1v4l-9 1v-4Z"/>
    <path fill="#9edeff" d="m15.998 18.062 14.026-8.936 20.864 9.514-9.564 7.188-8.96 1.01-16.366-8.776Zm1.081-.057 15.339 8.034 8.86-.977 8.476-6.375-19.699-8.869-12.976 8.187Z"/>
    <path fill="#73e0fc" d="m17.079 18.005 12.976-8.187 19.699 8.869-8.476 6.375-8.86.977-15.339-8.034Zm3.342-.411 11.967 6.37 8.336-.992 5.728-4.276-15.974-7.388-10.057 6.286Zm6.903-1.863 4-2.649 3.899 1.807-3.993 2.841-3.906-1.999Z"/>
    <path fill="#24b5ff" d="m20.421 17.594 10.057-6.286 15.974 7.388-5.728 4.276-8.336.992-11.967-6.37Zm6.903-1.863 3.906 1.999 3.993-2.841-3.899-1.807-4 2.649ZM16.56 32.265l15.765 8.805-1.001 1.43-15.698-9.128.934-1.107Zm17.746-3.816 5.403-.616L39.69 39l-5.366.475-.018-11.026Z"/>
  </g>
</svg>
