<svg xmlns="http://www.w3.org/2000/svg" xml:space="preserve" fill-rule="evenodd" stroke-linejoin="round" stroke-miterlimit="2" clip-rule="evenodd" viewBox="0 0 64 64">
  <g id="blue">
    <path fill="#00c1ff" d="m47 30.525 14.706 7.265L34.676 58 2.3 37.79l14.361-8.88-.001 1.096 18.494 9.953L16.63 30l-1.67 1.848 1.7.973.004 2.311 18.512 11.14L47 38.729v-4.441l-11.842 7.119 11.853-7.127L47 32.79l-11.839 7.169L47 32.76v-2.235Zm-11.844-5.851.001.001.004 15.284-.003.002-.004-.002.002-15.285Zm0 15.866v.868l-.002.002.002-.87Z"/>
    <path fill="#0089cf" d="m18.366 36.156-1.702-1.024-.004-2.311 1.757 1.005-.051 2.33ZM31.5 41.311l2.382 1.363 1.276-1.268.018 4.866L31.5 44.06v-2.749Z"/>
    <path fill="#0071a9" fill-rule="nonzero" d="m47 38.729-11.824 7.543-.022-4.862L47 34.288v4.441Z"/>
    <path fill="#03243e" fill-rule="nonzero" d="m18.366 36.156.052-2.354L31.5 41.311v2.749l-13.134-7.904Z"/>
    <path fill="#73d0ff" fill-rule="nonzero" d="m16.63 30-1.67 1.848 18.922 10.826 1.272-1.264.004-1.449L16.63 30Z"/>
  </g>
  <g id="green">
    <path fill="#02ff26" d="M35.156 21.29 16.67 12.281l-1.118-.545 13.346-6.338 19.284 8.544-13.026 7.348ZM32.109 8.179l-1.619-.702-1.526-.688-.029.014-.031-.014-2.202 1.055v.021l-7.67 3.651 15.98 7.84 9.846-5.401-5.583-2.517v-.043l-2.497-1.083-4.669-2.105v-.028Z"/>
    <path fill="#00ce1e" d="m39.275 11.438 5.583 2.517-9.846 5.401-15.98-7.84 7.67-3.651v2.724l3.451 1.688.002-2.972v2.976l1.954-1.102V8.207l4.669 2.105-.708-.307-2.201 1.055v2.746l3.45 1.687.002-2.972v2.976l1.954-1.102v-2.957Zm-10.34-4.635.029-.014 1.526.688-1.555-.674Z"/>
    <path fill="#00b41a" d="m16.66 30.006.01-17.725 18.486 9.009-.002 18.669-18.494-9.953Zm8.39 3.62 1.469.77V18.499l-1.5-.796.031 15.923Zm-3.559-1.871 1.47.767V16.696l-1.5-.793.03 15.852Zm10.737 5.637 1.47.784V21.999l-1.5-.81.03 16.203Zm-3.558-1.799 1.469.781v-16.14l-1.5-.809.031 16.168Zm-10.64-5.625 1.47.759V15.044l-1.5-.785.03 15.709Zm15.839-16.162V11.06l3.452 1.461-.002 2.972-3.45-1.687Zm-7.167-3.217V7.844l3.453 1.461-.002 2.972-3.451-1.688Zm8.454 29.373L47 32.79l.011 1.49-11.855 7.128v-1.446Z"/>
    <path fill="#9dffab" d="m33.869 11.06 2.201-1.055 3.205 1.39-1.954 1.126-3.452-1.461Zm-7.167-3.216 2.202-1.055 3.205 1.39-1.954 1.126-3.453-1.461Z"/>
    <path fill="#004b12" d="m35.161 39.959-.005-18.669L47 14.609V32.76l-11.839 7.199Zm2.16-24.462v-2.976l1.954-1.126v3l-1.954 1.102Zm-7.166-3.216V9.305l1.954-1.126v3l-1.954 1.102Z"/>
    <path fill="#00580d" d="m32.228 37.392-.03-16.203 1.5.81v16.177l-1.47-.784Zm-3.558-1.799-.031-16.168 1.5.809v16.14l-1.469-.781Zm-3.62-1.967-.031-15.923 1.5.796v15.897l-1.469-.77Zm-3.559-1.871-.03-15.852 1.5.793v15.826l-1.47-.767Zm-3.461-1.787L18 14.259l1.5.785v15.683l-1.47-.759Z"/>
  </g>
</svg>
