<svg xmlns="http://www.w3.org/2000/svg" xml:space="preserve" fill-rule="evenodd" stroke-linejoin="round" stroke-miterlimit="2" clip-rule="evenodd" viewBox="0 0 64 64">
  <g id="green">
    <path fill="#023b0a" fill-rule="nonzero" d="M2.3 37.79 34.676 58l27.03-20.21-33.024-16.314L2.3 37.79Z"/>
    <path fill="#02ff26" d="M35.156 21.29 16.67 12.281l-1.118-.545 13.346-6.338 19.284 8.544-13.026 7.348ZM32.109 8.179l-1.619-.702-1.526-.688-.029.014-.031-.014-2.202 1.055v.021l-7.67 3.651 15.98 7.84 9.846-5.401-5.583-2.517v-.043l-2.497-1.083-4.669-2.105v-.028ZM16.66 30l18.494 10 .002 1.408-18.496-9.92V30Z"/>
    <path fill="#00ce1e" d="m39.275 11.438 5.583 2.517-9.846 5.401-15.98-7.84 7.67-3.651v2.724l3.451 1.688.002-2.972v2.976l1.954-1.102V8.207l4.669 2.105-.708-.307-2.201 1.055v2.746l3.45 1.687.002-2.972v2.976l1.954-1.102v-2.957Zm-10.34-4.635.029-.014 1.526.688-1.555-.674Z"/>
    <path fill="#9dffab" d="m33.869 11.06 2.201-1.055 3.205 1.39-1.954 1.126-3.452-1.461Zm-7.167-3.216 2.202-1.055 3.205 1.39-1.954 1.126-3.453-1.461Z"/>
    <path fill="#004b12" d="M35.156 21.29 47 14.609V32.79L35.16 40l-.004-18.71ZM47 34.286v4.474l-11.839 7.199-.001-4.553L47 34.286Zm-9.679-21.765 1.954-1.126v3l-1.954 1.102v-2.976Zm-7.166-3.216 1.954-1.126v3l-1.954 1.102V9.305Z"/>
    <path fill="#00b41a" d="M22.748 38.944 16.656 35.5l.003-4.012 18.495 9.919-.001 4.552-8.489-4.8v-2.371a4.68 4.68 0 0 0-2.02-2.464c-1.528-.854-1.896.264-1.896.264v2.356Zm12.408 2.464L35.16 40 47 32.79l.011 1.49-11.855 7.128ZM16.66 30l.01-17.719 18.486 9.009L35.154 40 16.66 30Zm4.831 1.755 1.47.767V16.696l-1.5-.793.03 15.852Zm7.179 3.838 1.469.781v-16.14l-1.5-.809.031 16.168Zm-10.64-5.625 1.47.759V15.044l-1.5-.785.03 15.709Zm7.02 3.658 1.469.77V18.499l-1.5-.796.031 15.923Zm7.178 3.766 1.47.784V21.999l-1.5-.81.03 16.203Zm1.641-23.586V11.06l3.452 1.461-.002 2.972-3.45-1.687Zm-7.167-3.217V7.844l3.453 1.461-.002 2.972-3.451-1.688Z"/>
    <path fill="#00580d" d="m32.228 37.392-.03-16.203 1.5.81v16.177l-1.47-.784Zm-3.558-1.799-.031-16.168 1.5.809v16.14l-1.469-.781Zm-3.62-1.967-.031-15.923 1.5.796v15.897l-1.469-.77Zm-3.559-1.871-.03-15.852 1.5.793v15.826l-1.47-.767Zm-3.461-1.787L18 14.259l1.5.785v15.683l-1.47-.759ZM22.748 39v-2.412s.368-1.118 1.896-.264a4.68 4.68 0 0 1 2.02 2.464v2.371L22.748 39Z"/>
  </g>
</svg>
