<svg xmlns="http://www.w3.org/2000/svg" xml:space="preserve" fill-rule="evenodd" stroke-linejoin="round" stroke-miterlimit="2" clip-rule="evenodd" viewBox="0 0 64 64">
  <g id="green">
    <path fill="#008f15" d="m47.326 30.686 14.38 7.104L34.676 58 2.3 37.79l16.867-10.43-.003 11.442 4.544 2.8-1.224 2.15 3.2 2.076 1.388-2.154.006.004-1.432 2.242 2.389-1.652 7.587 4.674.004-19.306v19.312l11.698-9.366.002-8.896Zm-7.551-3.73.001.001-4.15 2.679v-.003l4.149-2.677Z"/>
    <path fill="#00b41a" d="m28.025 42.195-3.467-2.085-.85 1.492-4.544-2.8.004-17.955 16.458 8.786-.004 19.309-7.587-4.674.011-.008-.021-2.065Zm-.947 1.483-.006-.004.953-1.479-.947 1.483ZM25.44 33.189l3.504 2.159v-5.766l-3.504-2.14v5.747Zm-5-3.009 3.504 2.159v-5.766l-3.504-2.14v5.747Zm10 6.009 3.504 2.159v-5.766l-3.504-2.14v5.747Zm.384-23.184 14.554 6.982-9.756 6.095-14.798-7.624 10-5.453Z"/>
    <path fill="#00580d" d="M30.44 36.189v-5.747l3.504 2.14v5.766l-3.504-2.159Zm-5-3v-5.747l3.504 2.14v5.766l-3.504-2.159Zm-5-3.009v-5.747l3.504 2.14v5.766L20.44 30.18Z"/>
    <path fill="#006117" d="M35.626 48.948V29.636l11.701-7.554-.003 17.5-11.698 9.366Zm-9.98-3.028 2.379-3.725.021 2.065-2.4 1.66Z"/>
    <path fill="#02ff26" d="m18.252 18.702 12.642-6.963 17.254 8.262-12.526 7.881-17.37-9.18Zm2.572-.244 14.798 7.624 9.756-6.095-14.562-6.986-9.992 5.457Zm3.734 21.652 3.467 2.085-2.341 3.633-3.2-2.076 2.074-3.642Z"/>
    <path fill="#08961c" fill-rule="nonzero" d="m19.168 20.847-.916-2.145 17.37 9.18.004 1.754-16.458-8.789Z"/>
    <path fill="#024412" fill-rule="nonzero" d="m35.622 27.882 12.526-7.881-.824 2.083-11.702 7.552v-1.754Z"/>
  </g>
</svg>
