<svg xmlns="http://www.w3.org/2000/svg" xml:space="preserve" fill-rule="evenodd" stroke-linejoin="round" stroke-miterlimit="2" clip-rule="evenodd" viewBox="0 0 64 64">
  <g id="a">
    <g id="green">
      <path fill="#00ff25" d="m45.755 29.91 15.951 7.88L34.676 58 2.3 37.79l14.292-8.838v5.498l9.291 4.937-.005 6.239 9.142 5.316.002-8.65v8.65L48.488 41.5l.154-7.736-1.956 1.212-.001-.001 2.621-1.644-3.551-3.421Zm-19.877-6.7 2.804-1.734 14.72 7.272-13.665 8.334h-.003l11.2-6.847-15.056-7.025Z"/>
      <path fill="#7cff62" fill-rule="nonzero" d="m16.592 28.538 4.397 2.29 2.335-1.449 6.711-2.599-3.896 6.729 3.989 2.078-4.244 2.089 3.85-.594 11.2-6.847-18.996-8.863-5.346 7.166Z"/>
      <path fill="#00b41a" d="m26.74 46.127 8.28 4.815.002-8.7-5.285-5.16-3.853.594-.006 7.95.862.501v-5.773l7.068 3.824v6.038l-7.068-4.089Z"/>
      <path fill="#1fa70b" fill-rule="nonzero" d="m16.592 34.45 9.291 4.937.001-1.711 4.333-2.133-4.078-2.034-2.861-4.197-2.459 1.427-4.227-2.201v5.912Z"/>
      <path fill="#03d321" d="m35.022 42.292-5.285-5.21 14.367-8.762 5.202 5.011-2.621 1.644-1.808-3.101-3.775-1.046 1.679 6.596-7.759 4.868Zm-11.744-12.98 6.85-2.692-3.989 6.889-2.861-4.197Z"/>
      <path fill="#7bfe62" fill-rule="nonzero" d="m41.102 30.828 1.653 6.596 2.122-5.55-3.775-1.046Z"/>
      <path fill="#006117" fill-rule="nonzero" d="M35.022 50.942 48.488 41.5l.154-7.736-1.956 1.212-1.809-3.102-2.122 5.55-7.733 4.868v8.65Z"/>
      <path fill="#008620" d="M26.74 46.127v-5.773l7.068 3.824v6.038l-7.068-4.089Z"/>
    </g>
  </g>
</svg>
