<svg xmlns="http://www.w3.org/2000/svg" xml:space="preserve" fill-rule="evenodd" stroke-linejoin="round" stroke-miterlimit="2" clip-rule="evenodd" viewBox="0 0 64 64">
  <g id="green">
    <path fill="#008f15" d="m51.52 32.758 10.186 5.032L34.676 58 2.3 37.79l16.925-10.466-.014 4.046-.027-.017-2.36 1.926 2.035 1.408-1.921 1.446 9.56 6.89 2.199-1.843 1.746 1.208-1.921 1.446 9.56 6.89 2.313-1.939-.001-.002 11.126-8.11v-7.915Z"/>
    <path fill="#00b41a" d="m28.804 37.355-9.593-5.985.029-8.552 9.584 5.914-.02 8.623Zm0 0 .001 3.724-2.178-1.471 2.177-2.253Zm-3.294-5.636 1.976 1.222v-3.467l-1.976-1.223v3.468Zm-5.068-3.105 1.976 1.222V26.37l-1.976-1.224v3.468Zm19.946 16.442-9.593-5.985.029-8.552 9.568 5.923-.004 8.614Zm0 0 .007 3.729-2.184-1.476 2.177-2.253Zm-8.362-8.741 1.976 1.222v-3.466l-1.976-1.224v3.468Zm5.068 3.105 1.976 1.222v-3.467l-1.976-1.223v3.468Zm-16.8-18.075 8.59-5.335 8.726 4.174-8.86 6.099-8.456-4.938Zm11.584 7.701 8.766-6.563 9.449 4.713-9.759 6.788-8.456-4.938Z"/>
    <path fill="#00580d" d="M25.51 31.719v-3.468l1.976 1.223v3.467l-1.976-1.222Zm-5.068-3.105v-3.468l1.976 1.224v3.466l-1.976-1.222ZM37.094 39.42v-3.468l1.976 1.223v3.467l-1.976-1.222Zm-5.068-3.105v-3.468l1.976 1.224v3.466l-1.976-1.222Z"/>
    <path fill="#006117" d="m28.697 41.18-2.199 1.843-9.56-6.89 1.921-1.446 7.504 5.194.273-.283 1.887 1.288-.115.094.289.2Zm.111-.527.004-11.912 10.225-7.548v1.421l-8.785 6.48.532 1.4.04.025-.029 8.552-.027-.017-1.96 1.599Zm11.584 8.129.002-12.34 11.126-8.237v12.468l-11.126 8.11.001.002-2.313 1.939-9.56-6.89 1.921-1.446 7.504 5.194.273-.283 2.172 1.483Z"/>
    <path fill="#02ff26" d="m18.668 21.393 10.238-6.252 10.368 5.012-10.466 7.344-10.14-6.104Zm1.626-.048 8.456 4.938 8.86-6.099-8.726-4.174-8.59 5.335Zm6.069 18.536-9.539-6.602 2.36-1.926 9.62 6.002-2.441 2.526Zm3.889-10.787 10.328-7.618 11.177 5.689-11.365 8.033-10.14-6.104Zm1.626-.048 8.456 4.938 9.759-6.788-9.449-4.713-8.766 6.563Zm6.069 18.536-9.539-6.602 2.36-1.926 9.62 6.002-2.441 2.526Z"/>
    <path fill="#08961c" d="m19.2 22.793-.532-1.4 10.14 6.104v1.244L19.2 22.793Zm11.584 7.701-.532-1.4 10.14 6.104v1.244l-9.608-5.948Z"/>
    <path fill="#024412" d="m28.808 27.497 10.466-7.344-.238 1.046-10.226 7.542-.002-1.244Zm11.584 7.701 11.365-8.033-.238 1.046-11.125 8.231-.002-1.244Z"/>
  </g>
</svg>
