<svg xmlns="http://www.w3.org/2000/svg" xml:space="preserve" fill-rule="evenodd" stroke-linejoin="round" stroke-miterlimit="2" clip-rule="evenodd" viewBox="0 0 64 64">
  <g id="violet">
    <path fill="#660090" d="M46.469 30.549 61.703 38 34.679 58 2.297 38l15.352-9.409.008 9.987 17.34 9.922 11.472-8.306v-9.645Z"/>
    <path fill="#9a0ad6" d="m17.641 18.949-.002-1.75 17.358 9.009V28l-17.356-9.051Zm17.356 14.945v1.702l-17.35-9.131-.002-1.821 17.352 9.25Zm0 10.073V48.5l-17.34-9.922-.003-3.959 17.343 9.348Z"/>
    <path fill="#7902ab" d="M34.997 28v-1.792l2.672-5.366 8.8-5.718v5.068L34.997 28Zm11.472-1.864v2.056l-11.472 7.404v-1.73l11.472-7.73Zm0 9.656v4.402L34.997 48.5v-4.533l11.472-8.175Z"/>
    <path fill="#d078f5" fill-rule="nonzero" d="m19.703 11.652 17.966 9.19 8.8-5.718-17.364-8.436-9.402 4.964Z"/>
    <path fill="#64028d" d="m17.647 26.465 17.35 9.131v8.371l-17.343-9.348-.007-8.154Zm-.008-7.517L34.997 28v5.894l-17.352-9.25-.006-5.696Z"/>
    <path fill="#310146" d="m34.997 35.596 11.472-7.404v7.6l-11.472 8.175v-8.371Zm0-7.596 11.472-7.808v5.944l-11.472 7.73V28Z"/>
    <path fill="#c65af3" fill-rule="nonzero" d="m17.639 17.199 2.064-5.547 17.966 9.19-2.672 5.366-17.358-9.009Z"/>
  </g>
</svg>
