<svg xmlns="http://www.w3.org/2000/svg" xml:space="preserve" fill-rule="evenodd" stroke-linejoin="round" stroke-miterlimit="2" clip-rule="evenodd" viewBox="0 0 64 64">
  <g id="violet">
    <path fill="#b400ff" d="M46.472 30.549 61.706 38 34.682 58 2.3 38l15.36-9.414v9.992L35 48.5l11.472-8.306v-9.645Z"/>
    <path fill="#9a0ad6" d="M17.66 34.69V23.064L34.981 32.4l.012 10.229-.035-6.837-17.286-9.442-.012 8.34Zm17.335 9.287L35 48.5l-17.34-9.922V34.69l17.335 9.287Z"/>
    <path fill="#7902ab" d="M46.472 35.782v4.412L35 48.5l-.042-16.1 11.514-7.592v3.384L35 35.792v8.188l11.472-8.198Z"/>
    <path fill="#d078f5" fill-rule="nonzero" d="M17.66 23.064 34.981 32.4l11.491-7.592-17.404-8.482-11.408 6.738Z"/>
    <path fill="#64028d" fill-rule="nonzero" d="m17.672 26.35 17.286 9.442L35 43.98l-17.34-9.29.012-8.34Z"/>
    <path fill="#310146" fill-rule="nonzero" d="m35 35.792 11.472-7.6v7.59L35 43.98v-8.188Z"/>
  </g>
</svg>
