<svg xmlns="http://www.w3.org/2000/svg" xml:space="preserve" fill-rule="evenodd" stroke-linejoin="round" stroke-miterlimit="2" clip-rule="evenodd" viewBox="0 0 64 64">
  <g id="grey">
    <path fill="#646464" fill-rule="nonzero" d="M31.163 8S15.416 28.017 15.416 40.018C15.416 52.019 22.869 56 31.163 56s17.421-3.982 17.421-15.982S31.163 8 31.163 8Z"/>
    <path fill="gray" d="M27.513 31.475c5.751 0 10.483 4.733 10.483 10.484s-4.732 10.483-10.483 10.483-10.484-4.732-10.484-10.483 4.733-10.484 10.484-10.484Zm-1.614 4.839a5.647 5.647 0 0 0-5.644 5.645 5.647 5.647 0 0 0 5.644 5.644 5.647 5.647 0 0 0 5.645-5.644 5.647 5.647 0 0 0-5.645-5.645Z"/>
  </g>
  <g id="brown">
    <circle id="Ellipse_298" cx="25.899" cy="41.959" r="5.645" fill="#d6b6a4"/>
  </g>
</svg>
