<svg xmlns="http://www.w3.org/2000/svg" xml:space="preserve" fill-rule="evenodd" stroke-linejoin="round" stroke-miterlimit="2" clip-rule="evenodd" viewBox="0 0 64 64">
  <g id="grey">
    <path fill="#444" fill-rule="nonzero" d="M12.236 23.456 41.2 47.76l10.696-6.175v-2.588l-10.458 6.037-29.334-24.473.132 2.895Z"/>
    <path fill="#929191" fill-rule="nonzero" d="m12.104 20.562 29.234 24.53 10.558-6.095-29.234-24.531-10.558 6.096Z"/>
    <path fill="#c9c9c9" d="m14.54 19.156 29.234 24.53-1.276.736-29.234-24.53 1.276-.736Zm6.6-3.811 29.234 24.53-1.276.737-29.234-24.53 1.276-.737Z"/>
    <path fill="#2e2e2e" d="m20.567 15.675 29.234 24.531-.461.266-29.235-24.53.462-.267Zm-6.28 3.626 29.234 24.531-.461.266-29.235-24.531.462-.266Z"/>
  </g>
  <g id="red"/>
  <g id="white">
    <path fill="#fff" fill-rule="nonzero" d="m27.93 26.402.423 3.91 1.681-.959 4.378 3.694 1.658-.957-4.405-3.689 1.663-.961-5.398-1.038Z"/>
  </g>
</svg>
