<svg xmlns="http://www.w3.org/2000/svg" xml:space="preserve" fill-rule="evenodd" stroke-linejoin="round" stroke-miterlimit="2" clip-rule="evenodd" viewBox="0 0 64 64">
  <g id="grey">
    <path fill="#909090" d="m14.609 24.494-1.954 1.127-3.054-2.563 1.953-1.127 3.055 2.563Zm5.459 4.58-1.955 1.128-3.054-2.564 1.953-1.127 3.056 2.563Zm-.818-3.855 7.011-4.048 3.055 2.563-7.012 4.048-3.054-2.563Zm3.805-9.929 1.517-.875 3.054 2.563-1.516.876-3.055-2.564Zm5.459 4.581 1.516-.876 3.055 2.563-1.517.876-3.054-2.563Zm11.241 9.407 1.492-.871 3.054 2.562-1.492.873-3.054-2.564Zm.777 3.868-6.971 4.036-3.056-2.564 6.972-4.035 3.055 2.563Zm-9.248 5.339-1.953 1.128-3.055-2.563 1.952-1.128 3.056 2.563Zm-6.559-8.626 7.037-4.073 3.054 2.564-7.036 4.072-3.055-2.563Zm-10.933-9.22 7.011-4.048 3.055 2.563-7.012 4.048-3.054-2.563Zm20.2 3.859 1.538-.887 3.056 2.563-1.539.888-3.055-2.564Zm-8.425 9.192-1.953 1.127-3.054-2.563 1.953-1.128 3.054 2.564Zm11.825 9.921-1.954 1.127-3.054-2.563 1.952-1.127 3.056 2.563Zm4.641.724 7.011-4.047 3.055 2.563-7.012 4.048-3.054-2.564Zm.817 3.856-1.954 1.127-3.054-2.563 1.953-1.127 3.055 2.563Zm2.988-13.784 1.516-.875 3.055 2.563-1.517.875-3.054-2.563Zm5.458 4.58 1.517-.875 3.054 2.563-1.516.875-3.055-2.563Zm-14.721.768 7.01-4.048 3.055 2.564-7.011 4.048-3.054-2.564Z"/>
    <path fill="#6e6e6e" d="m15.408 25.165-2.753 1.589-3.054-2.555v-1.141l3.054 2.555 1.948-1.124.805.676Zm5.458 4.581-2.753 1.588-3.054-2.555v-1.141l3.054 2.555 1.949-1.124.804.677Zm-4.116-6.487 7.102-4.11.805.676-7.102 4.111-.805-.677Zm5.458 4.581 7.102-4.11.805.675-7.101 4.111-.806-.676Zm3.896-9.991 1.516-.876v1.141l-.711.411-.805-.676Zm5.458 4.58 1.517-.876v1.141l-.712.411-.805-.676Zm5.478 4.628 1.54-.888v1.141l-.734.423-.806-.676Zm5.764 4.781 1.492-.872v1.141l-.715.382-.777-.651Zm-1.471 1.979-6.972 4.036-.805-.676 6.971-4.036.806.676Zm-9.249 5.341-2.753 1.588-3.055-2.555V37.05l3.055 2.555 1.947-1.124.806.677Zm-5.717-4.797-2.753 1.589-3.054-2.555v-1.141l3.054 2.555 1.947-1.124.806.676Zm1.407-1.943 7.036-4.073.806.676-7.036 4.073-.806-.676Zm15.875 16.444-2.753 1.589-3.054-2.555v-1.141l3.054 2.555 1.948-1.124.805.676Zm-4.116-6.486 7.101-4.11.806.676-7.102 4.111-.805-.677Zm5.458 4.58 7.102-4.11.805.676-7.102 4.111-.805-.677Zm3.895-9.99 1.517-.876v1.141l-.711.41-.806-.675Zm5.459 4.58 1.516-.876v1.141l-.711.411-.805-.676Zm-16.154 2.736-2.753 1.589-3.054-2.555v-1.141l3.054 2.555 1.948-1.124.805.676Z"/>
    <path fill="#575656" d="m45.446 50.416.131-1.513 1.151-.672-.133 1.518-1.149.666v.001Zm9.248-5.34.132-1.513 1.151-.672-.133 1.519-1.15.665v.001Z"/>
    <path fill="#b5b5b5" d="m10.446 19.416 1.151-.665 35.137 29.485-1.157.659-35.131-29.479Zm9.249-5.339 1.151-.666 35.136 29.484-1.156.661-35.131-29.479Z"/>
    <path fill="#575757" d="m31.767 26.688-.031.263-1.838 1.083-.189-.157 2.058-1.189Zm7.304 8.709.013.279-2.048 1.217-9.275-7.6-1.898 1.105v-.321l1.987-1.137 9.168 7.638 2.053-1.181Z"/>
  </g>
  <g id="brown">
    <path fill="#877563" d="M10.446 21.046v-1.63l35.131 29.479-.133 1.52-34.998-29.369Zm9.249-5.339v-1.63l35.131 29.479-.133 1.519-34.998-29.368Z"/>
  </g>
  <g id="yellow">
    <path fill="#9a8a39" d="m43.018 50.589.131-1.513 1.151-.672-.133 1.518-1.149.665v.002Z"/>
    <path fill="#fcf565" d="M8.018 21.219v-1.63l35.131 29.479-.133 1.519L8.018 21.219Z"/>
    <path fill="#f6d636" d="m8.018 19.589 1.151-.665 35.137 29.484-1.157.66L8.018 19.589Z"/>
  </g>
  <g id="white">
    <path fill="#fefffe" d="m27.8 28.97-1.916 1.102-.8-4.862 6.695 1.471-1.915 1.102 9.22 7.612-2.064 1.187-9.22-7.612Z"/>
  </g>
</svg>
