<svg xmlns="http://www.w3.org/2000/svg" xml:space="preserve" fill-rule="evenodd" stroke-linejoin="round" stroke-miterlimit="2" clip-rule="evenodd" viewBox="0 0 64 64">
  <g id="grey">
    <path fill="#909090" d="M11.675 34.405 9.72 35.533 6.667 32.97l1.952-1.128 3.056 2.563Zm5.458 4.58-1.954 1.128-3.054-2.563 1.953-1.128 3.055 2.563Zm-6.275-8.435 7.01-4.048 3.055 2.564-7.012 4.048-3.053-2.564Zm5.458 4.58 7.011-4.048 3.055 2.564-7.012 4.048-3.054-2.564Zm3.805-9.928 1.516-.876 3.055 2.563-1.517.876-3.054-2.563Zm5.458 4.58 1.517-.876 3.054 2.563-1.516.876-3.055-2.563Zm5.478 4.628 1.539-.888 3.055 2.563-1.539.888-3.055-2.563Zm5.764 4.78 1.491-.872 3.054 2.563-1.491.872-3.054-2.563Zm.776 3.867-6.971 4.036-3.055-2.563 6.972-4.035 3.054 2.562Zm-9.248 5.34-1.953 1.127-3.055-2.563 1.953-1.127 3.055 2.563Zm-5.717-4.796-1.952 1.128-3.055-2.563 1.953-1.128 3.054 2.563Zm-.842-3.83 7.037-4.073 3.055 2.563-7.036 4.073-3.056-2.563Zm12.667 13.751-1.954 1.128-3.054-2.563 1.953-1.128 3.055 2.563Zm5.459 4.58-1.955 1.128-3.054-2.563 1.953-1.128 3.056 2.563Zm-6.276-8.435 7.011-4.048 3.055 2.564-7.012 4.047-3.054-2.563Zm5.458 4.58 7.011-4.048 3.055 2.564-7.012 4.048-3.054-2.564Zm3.805-9.928 1.517-.876 3.054 2.563-1.516.876-3.055-2.563Zm5.459 4.58 1.516-.876 3.055 2.563-1.517.876-3.054-2.563Z"/>
    <path fill="#6e6e6e" d="M12.473 35.077 9.72 36.666l-3.053-2.555V32.97l3.053 2.555 1.949-1.124.804.676Zm5.459 4.58-2.753 1.589-3.054-2.555V37.55l3.054 2.555 1.948-1.124.805.676Zm-4.117-6.486 7.102-4.11.806.676-7.102 4.11-.806-.676Zm5.459 4.58 7.102-4.11.805.676-7.102 4.11-.805-.676Zm3.895-9.991 1.517-.875v1.141l-.711.41-.806-.676Zm5.459 4.58 1.516-.875v1.141l-.711.41-.805-.676Zm5.478 4.629 1.539-.889v1.141l-.734.423-.805-.675Zm5.763 4.78 1.492-.872v1.141l-.715.382-.777-.651Zm-1.471 1.979-6.971 4.036-.806-.676 6.971-4.035.806.675Zm-9.249 5.341-2.753 1.589-3.055-2.556v-1.141l3.055 2.556 1.947-1.124.806.676Zm-5.716-4.797-2.753 1.59-3.055-2.555v-1.141l3.055 2.555 1.947-1.125.806.676Zm1.407-1.943 7.036-4.073.805.676-7.036 4.073-.805-.676Zm10.416 11.865-2.753 1.589-3.054-2.555v-1.141l3.054 2.555 1.948-1.125.805.677Zm5.458 4.58-2.753 1.589-3.054-2.555v-1.141l3.054 2.555 1.949-1.125.804.677Zm-4.116-6.486 7.102-4.11.805.676-7.102 4.11-.805-.676Zm5.458 4.58 7.102-4.11.805.676-7.101 4.11-.806-.676Zm3.896-9.991 1.516-.876v1.141l-.711.411-.805-.676Zm5.458 4.58 1.517-.876v1.141l-.712.411-.805-.676Z"/>
    <path fill="#575656" d="m42.511 60.327.132-1.512 1.151-.672-.133 1.518-1.15.665v.001Zm9.249-5.34.131-1.512 1.152-.672-.134 1.518-1.149.665v.001Z"/>
    <path fill="#b5b5b5" d="m7.511 29.328 1.151-.665L43.8 58.147l-1.157.66L7.511 29.328Zm9.249-5.34 1.151-.665 35.137 29.484-1.157.66L16.76 23.988Z"/>
    <path fill="#575757" d="m28.833 36.599-.031.264-1.838 1.083-.19-.158 2.059-1.189Zm7.303 8.709.013.28-2.048 1.217-9.274-7.601-1.899 1.105v-.321l1.988-1.136 9.167 7.637 2.053-1.181Z"/>
    <path fill="#909090" d="M30.455 26.815v.943h-.063a.508.508 0 0 1-.173.153c-.27.156-.661.137-.874-.041a.41.41 0 0 1-.095-.112h-.039V3.879h.076a.556.556 0 0 1 .161-.136c.269-.156.661-.137.874.041.035.03.063.062.084.095h.049v2.437l.862.722V5.646h.076a.54.54 0 0 1 .161-.136c.269-.156.661-.137.874.041.035.03.063.062.084.095h.049v23.879h-.063a.517.517 0 0 1-.173.153c-.27.156-.661.137-.874-.041a.393.393 0 0 1-.095-.112h-.039v-1.988l-.862-.722Zm0-19.03v4.483l.862.722V8.508l-.862-.723Zm0 5.952v5.091l.862.723v-5.092l-.862-.722Zm0 6.561v5.047l.862.723V21.02l-.862-.722Zm24.773 27.304v.943h-.063a.517.517 0 0 1-.173.153c-.27.156-.661.137-.874-.041a.41.41 0 0 1-.095-.112h-.039V24.666h.076a.54.54 0 0 1 .161-.136c.269-.156.661-.137.874.041.035.03.063.062.084.095h.049v2.437l.861.722v-1.392h.076a.553.553 0 0 1 .161-.136c.269-.156.661-.137.874.041.035.03.063.062.084.095h.049v23.879h-.063a.499.499 0 0 1-.173.153c-.27.156-.661.137-.874-.041a.445.445 0 0 1-.095-.112h-.039v-1.988l-.861-.722Zm0-19.03v4.482l.861.723v-4.482l-.861-.723Zm0 5.952v5.091l.861.723v-5.092l-.861-.722Zm0 6.561v5.047l.861.723v-5.048l-.861-.722Z"/>
    <path fill="#d4d4d4" d="m15.447 17.154-2.012 1.162-.954-.801 2.012-1.161 16.045-9.263.954.8-12.914 7.455 11.629-2.867.953.8-8.382 2.067-4.821 3.981-.989.517-.405-.339 4.944-3.845-6.06 1.494ZM40.22 37.941l-2.012 1.162-.954-.801 2.012-1.161 16.045-9.263.954.8-12.914 7.455 11.628-2.867.954.8-8.382 2.067-4.821 3.981-.989.517-.405-.34 4.942-3.844-6.058 1.494Z"/>
  </g>
  <g id="brown">
    <path fill="#877563" d="M7.511 30.958v-1.63l35.132 29.479-.133 1.519L7.511 30.958Zm9.249-5.34v-1.63l35.131 29.479-.133 1.519L16.76 25.618Z"/>
  </g>
  <g id="white">
    <path fill="#fefffe" d="m24.865 38.881-1.915 1.102-.801-4.861 6.696 1.47-1.916 1.102 9.22 7.613-2.064 1.187-9.22-7.613Z"/>
  </g>
  <g id="black">
    <path d="m17.811 19.403.546.458 20.722 17.388-.921.531-21.306-17.876.116-.06.843-.441ZM41.704 40.6l-.118.057-2.474-2.076.921-.532 2.014 1.689-.711.553.368.309Z"/>
  </g>
</svg>
