<?xml version="1.0" encoding="UTF-8" standalone="no"?><!DOCTYPE svg PUBLIC "-//W3C//DTD SVG 1.1//EN" "http://www.w3.org/Graphics/SVG/1.1/DTD/svg11.dtd"><svg width="100%" height="100%" viewBox="0 0 64 64" version="1.1" xmlns="http://www.w3.org/2000/svg" xmlns:xlink="http://www.w3.org/1999/xlink" xml:space="preserve" xmlns:serif="http://www.serif.com/" style="fill-rule:evenodd;clip-rule:evenodd;stroke-linejoin:round;stroke-miterlimit:2;"><g id="grey"><path d="M32.045,11.016C31.951,12.243 32.371,13.44 33.301,14.249C34.746,15.505 36.951,15.411 38.574,14.141L58.331,23.598C59.638,24.997 59.693,27.223 58.459,28.798L58.404,28.869L38.844,55.018C37.566,56.364 35.451,56.56 34.072,55.369C34.032,55.334 33.993,55.298 33.955,55.262C33.682,55.002 33.374,54.781 33.039,54.606L32.381,54.264C32.675,52.846 32.281,51.391 31.206,50.456C29.684,49.133 27.319,49.308 25.679,50.777L5.689,40.377C4.344,38.981 4.276,36.726 5.522,35.137L5.531,35.126L24.017,11.368C24.823,10.442 26.12,9.81 27.43,9.562C28.43,9.372 29.496,9.33 30.218,9.97C30.497,10.218 30.809,10.425 31.146,10.586L32.045,11.016Z" style="fill:#707070;"/><path d="M25.008,30.102L25.025,28.874L29.152,28.874L25.008,30.102ZM34.696,28.874L39.025,28.874L39.008,30.152L34.696,28.874ZM26,22.095L38.025,22.095L38.025,23.389L26,23.389L26,22.095ZM25,27.16L25,25.16L39,25.16L39,27.16L25,27.16Z" style="fill:#444;"/><path d="M31.946,28.059L40.89,30.71C40.875,31.369 40.849,32.028 40.812,32.686L31.946,30.059L23.078,32.673C23.041,32.015 23.015,31.356 23,30.697L31.946,28.046L31.946,28.059ZM33,21.389L33,22.095L30.6,22.095L30.6,21.389L33,21.389Z" style="fill:#d4d4d4;"/></g><g id="white"><path d="M40.812,32.686L40.812,33.686L32.131,31.07L23.079,33.691L23.078,32.673L31.946,30.059L40.812,32.686Z" style="fill:#f4f4f4;"/></g><g id="blue"><path d="M29.152,28.874L25.025,28.874L25,29.084L25,27.16L39,27.16L39,26.999L39.025,26.999L39.003,28.874L34.696,28.874L31.946,28.059L31.946,28.046L29.152,28.874ZM26,25.16L26,23.389L38.025,23.389L38.025,25.16L26,25.16Z" style="fill:#d1f8fd;"/><path d="M26.075,40.502C25.096,39.899 24.266,39.082 23.647,38.113C23.372,36.309 23.182,35.494 23.078,33.673L32.094,31.059L40.762,33.671L40.812,33.686C40.71,35.507 40.523,36.322 40.252,38.126C39.63,39.119 38.785,39.954 37.785,40.565L37.628,40.583C36.84,40.387 36.073,40.113 35.339,39.765C34.37,40.483 33.206,40.892 32,40.937C30.562,40.822 29.162,40.424 27.879,39.765C27.301,40.067 26.697,40.314 26.075,40.502ZM28.044,40.79L27.967,40.78L28,40.765L28.044,40.79ZM33,18.389L33,21.389L30.6,21.389L30.6,18.389L33,18.389Z" style="fill:#172237;"/><path d="M24.032,54.43L3.369,43.679C0.158,40.95 -0.285,36.061 2.374,32.669L20.914,8.842C23.602,5.643 29.631,4.101 32.873,6.978L33.996,7.516C35.612,6.292 37.779,6.216 39.206,7.456C40.117,8.248 40.539,9.413 40.468,10.613L60.612,20.256C63.823,22.985 64.265,27.874 61.607,31.265L41.933,57.566C39.215,60.649 34.499,61.023 31.457,58.396C31.367,58.318 31.279,58.237 31.192,58.155L29.994,57.532C28.455,58.415 26.58,58.361 25.301,57.249C24.476,56.532 24.052,55.508 24.032,54.43ZM32.045,11.016L31.146,10.586C30.809,10.425 30.497,10.218 30.218,9.97C29.496,9.33 28.43,9.372 27.43,9.562C26.12,9.81 24.823,10.442 24.017,11.368L5.531,35.126L5.522,35.137C4.276,36.726 4.344,38.981 5.689,40.377L25.679,50.777C27.319,49.308 29.684,49.133 31.206,50.456C32.281,51.391 32.675,52.846 32.381,54.264L33.039,54.606C33.373,54.781 33.682,55.001 33.955,55.262C33.993,55.298 34.032,55.334 34.072,55.369C35.451,56.56 37.566,56.364 38.844,55.018L58.404,28.869L58.459,28.798C59.693,27.223 59.638,24.997 58.331,23.598L38.574,14.141C36.951,15.411 34.746,15.505 33.301,14.249C32.371,13.44 31.951,12.243 32.045,11.016ZM19,39.765C20.415,40.456 21.956,40.855 23.529,40.937C25.047,40.87 26.532,40.469 27.879,39.765C29.162,40.424 30.562,40.822 32,40.937C33.206,40.892 34.37,40.483 35.339,39.765C36.831,40.472 38.45,40.871 40.1,40.937C41.793,40.86 43.456,40.462 45,39.765L45,41.765C41.815,42.84 38.879,42.171 36,41.106C31.47,42.752 29.747,41.747 28,40.765C24.813,42.221 21.881,42.143 19,41.765L19,39.765ZM19,42.389C20.415,43.08 21.956,43.479 23.529,43.561C25.047,43.494 26.532,43.093 27.879,42.389C29.162,43.048 30.562,43.446 32,43.561C33.206,43.516 34.37,43.107 35.339,42.389C36.831,43.096 38.45,43.495 40.1,43.561C41.793,43.484 43.456,43.086 45,42.389L45,44.389C41.815,45.464 38.879,44.795 36,43.73C31.47,45.376 29.747,44.371 28,43.389C24.813,44.845 21.881,44.767 19,44.389L19,42.389Z" style="fill:#3a57f7;"/></g></svg>