<?xml version="1.0" encoding="UTF-8" standalone="no"?><!DOCTYPE svg PUBLIC "-//W3C//DTD SVG 1.1//EN" "http://www.w3.org/Graphics/SVG/1.1/DTD/svg11.dtd"><svg width="100%" height="100%" viewBox="0 0 64 64" version="1.1" xmlns="http://www.w3.org/2000/svg" xmlns:xlink="http://www.w3.org/1999/xlink" xml:space="preserve" xmlns:serif="http://www.serif.com/" style="fill-rule:evenodd;clip-rule:evenodd;stroke-linejoin:round;stroke-miterlimit:2;"><g id="grey"><path d="M32.045,11.016C31.951,12.243 32.371,13.44 33.301,14.249C34.746,15.505 36.951,15.411 38.574,14.141L58.331,23.598C59.638,24.997 59.693,27.223 58.459,28.798L58.404,28.869L38.844,55.018C37.566,56.364 35.451,56.56 34.072,55.369C34.032,55.334 33.993,55.298 33.955,55.262C33.682,55.002 33.374,54.781 33.039,54.606L32.381,54.264C32.675,52.846 32.281,51.391 31.206,50.456C29.684,49.133 27.319,49.308 25.679,50.777L5.689,40.377C4.344,38.981 4.276,36.726 5.522,35.137L5.531,35.126L24.017,11.368C24.823,10.442 26.12,9.81 27.43,9.562C28.43,9.372 29.496,9.33 30.218,9.97C30.497,10.218 30.809,10.425 31.146,10.586L32.045,11.016Z" style="fill:#707070;"/></g><g id="green"><path d="M24.032,54.43L3.369,43.679C0.158,40.95 -0.285,36.061 2.374,32.669L20.914,8.842C23.602,5.643 29.631,4.101 32.873,6.978L33.996,7.516C35.612,6.292 37.779,6.216 39.206,7.456C40.117,8.248 40.539,9.413 40.468,10.613L60.612,20.256C63.823,22.985 64.265,27.874 61.607,31.265L41.933,57.566C39.215,60.649 34.499,61.023 31.457,58.396C31.367,58.318 31.279,58.237 31.192,58.155L29.994,57.532C28.455,58.415 26.58,58.361 25.301,57.249C24.476,56.532 24.052,55.508 24.032,54.43ZM32.045,11.016L31.146,10.586C30.809,10.425 30.497,10.218 30.218,9.97C29.496,9.33 28.43,9.372 27.43,9.562C26.12,9.81 24.823,10.442 24.017,11.368L5.531,35.126L5.522,35.137C4.276,36.726 4.344,38.981 5.689,40.377L25.679,50.777C27.319,49.308 29.684,49.133 31.206,50.456C32.281,51.391 32.675,52.846 32.381,54.264L33.039,54.606C33.373,54.781 33.682,55.001 33.955,55.262C33.993,55.298 34.032,55.334 34.072,55.369C35.451,56.56 37.566,56.364 38.844,55.018L58.404,28.869L58.459,28.798C59.693,27.223 59.638,24.997 58.331,23.598L38.574,14.141C36.951,15.411 34.746,15.505 33.301,14.249C32.371,13.44 31.951,12.243 32.045,11.016Z" style="fill:#3b9442;"/></g><g id="black"><path d="M28.088,42.363L26.945,46.276L22.652,46.276L25.373,41.499C25.739,41.687 26.155,41.845 26.614,41.981C27.102,42.126 27.593,42.253 28.088,42.363ZM38.5,41.406L41.276,46.276L36.983,46.276L35.862,42.432C36.419,42.307 36.969,42.156 37.512,41.981C38.055,41.806 37.956,41.768 38.5,41.406Z" style="fill:#010001;"/></g><g id="red"><path d="M35.296,20.784L37.512,20.784C39.142,20.784 40.483,22.219 40.483,23.964L40.483,38.802C40.483,40.558 37.512,41.981 37.512,41.981C35.789,42.538 34.002,42.838 32.203,42.874C30.309,42.821 28.43,42.521 26.614,41.981C24.793,41.441 23.643,40.558 23.643,38.802L23.643,23.964C23.643,22.219 24.984,20.784 26.614,20.784L28.83,20.784C29.177,20.132 29.858,19.724 30.596,19.724L33.53,19.724C34.294,19.724 34.959,20.153 35.296,20.784ZM26.614,25.023C25.525,25.023 24.633,26.379 24.633,28.05L24.633,31.077C24.633,32.75 25.34,33.094 26.614,34.104C26.614,34.104 29.468,36.568 32.192,36.568C34.916,36.568 37.512,34.104 37.512,34.104C38.581,33.25 39.493,32.749 39.493,31.077L39.493,28.05C39.493,26.379 38.601,25.023 37.512,25.023L26.614,25.023ZM38.378,37.003C38.255,36.606 37.885,36.334 37.47,36.334C37.355,36.334 37.241,36.355 37.133,36.396L35.263,37.085C34.745,37.275 34.462,37.857 34.631,38.383L34.663,38.482C34.786,38.879 35.156,39.151 35.571,39.151C35.686,39.151 35.8,39.13 35.908,39.089L37.778,38.4C38.296,38.209 38.579,37.627 38.41,37.102L38.378,37.003ZM29.515,38.31C29.663,37.777 29.364,37.213 28.839,37.037L26.951,36.42C26.853,36.387 26.75,36.37 26.646,36.37C26.218,36.37 25.839,36.658 25.725,37.071L25.696,37.174C25.548,37.707 25.847,38.27 26.371,38.447L28.26,39.064C28.358,39.097 28.461,39.114 28.564,39.114C28.993,39.114 29.371,38.826 29.485,38.413L29.515,38.31ZM32.063,20.784C31.243,20.784 30.577,21.496 30.577,22.374C30.577,23.252 31.243,23.964 32.063,23.964C32.883,23.964 33.549,23.252 33.549,22.374C33.549,21.496 32.883,20.784 32.063,20.784Z" style="fill:#a43819;"/></g><g id="blue"><path d="M26.614,25.023L37.512,25.023C38.601,25.023 39.493,26.379 39.493,28.05L39.493,31.077C39.493,32.749 38.581,33.25 37.512,34.104C37.512,34.104 34.916,36.568 32.192,36.568C29.468,36.568 26.614,34.104 26.614,34.104C25.34,33.094 24.633,32.75 24.633,31.077L24.633,28.05C24.633,26.379 25.525,25.023 26.614,25.023ZM32.063,20.784C32.883,20.784 33.549,21.496 33.549,22.374C33.549,23.252 32.883,23.964 32.063,23.964C31.243,23.964 30.577,23.252 30.577,22.374C30.577,21.496 31.243,20.784 32.063,20.784ZM38.378,37.003L38.41,37.102C38.575,37.631 38.296,38.204 37.778,38.4L35.908,39.089C35.8,39.13 35.686,39.151 35.571,39.151C35.156,39.151 34.786,38.879 34.663,38.482L34.631,38.383C34.466,37.854 34.745,37.281 35.263,37.085L37.133,36.396C37.241,36.355 37.355,36.334 37.47,36.334C37.885,36.334 38.255,36.606 38.378,37.003ZM29.515,38.31L29.485,38.413C29.371,38.826 28.993,39.114 28.564,39.114C28.461,39.114 28.358,39.097 28.26,39.064L26.371,38.447C25.847,38.27 25.548,37.707 25.696,37.174L25.725,37.071C25.839,36.658 26.218,36.37 26.646,36.37C26.75,36.37 26.853,36.387 26.951,36.42L28.839,37.037C29.364,37.209 29.667,37.779 29.515,38.31Z" style="fill:#d1f8fd;"/></g></svg>