<?xml version="1.0" encoding="UTF-8" standalone="no"?><!DOCTYPE svg PUBLIC "-//W3C//DTD SVG 1.1//EN" "http://www.w3.org/Graphics/SVG/1.1/DTD/svg11.dtd"><svg width="100%" height="100%" viewBox="0 0 64 64" version="1.1" xmlns="http://www.w3.org/2000/svg" xmlns:xlink="http://www.w3.org/1999/xlink" xml:space="preserve" xmlns:serif="http://www.serif.com/" style="fill-rule:evenodd;clip-rule:evenodd;stroke-linejoin:round;stroke-miterlimit:2;"><path d="M32.045,11.016C31.951,12.243 32.371,13.44 33.301,14.249C34.746,15.505 36.951,15.411 38.574,14.141L58.331,23.598C59.638,24.997 59.693,27.223 58.459,28.798L58.404,28.869L38.844,55.018C37.566,56.364 35.451,56.56 34.072,55.369C34.032,55.334 33.993,55.298 33.955,55.262C33.682,55.002 33.374,54.781 33.039,54.606L32.381,54.264C32.675,52.846 32.281,51.391 31.206,50.456C29.684,49.133 27.319,49.308 25.679,50.777L5.689,40.377C4.344,38.981 4.276,36.726 5.522,35.137L5.531,35.126L24.017,11.368C24.823,10.442 26.12,9.81 27.43,9.562C28.43,9.372 29.496,9.33 30.218,9.97C30.497,10.218 30.809,10.425 31.146,10.586L32.045,11.016Z" style="fill:#707070;"/><g id="grey"><path d="M27.522,34.226C22.529,34.618 15.271,35.124 14,34.858C12.03,34.446 12.884,34.249 14,33.828C14.705,33.562 21.842,32.659 27,32.03L27,32C27,31.289 27.149,30.612 27.417,30C25.117,29.718 22.716,29.406 22.425,29.299C21.854,29.088 21.417,28.989 22.425,28.782C22.968,28.671 25.645,28.829 28.002,28.999C28.833,27.891 30.087,27.177 31.464,27.028L31.464,21.09C31.464,20.816 31.69,20.59 31.964,20.59C32.238,20.59 32.464,20.816 32.464,21.09L32.464,27.021C33.885,27.154 35.184,27.889 36.029,29.04C38.406,28.899 40.969,28.758 41.31,28.783C41.965,28.831 42.49,29.088 41.31,29.299C40.758,29.398 38.647,29.671 36.554,29.934C36.837,30.557 36.996,31.247 37,31.974C41.993,32.604 49.403,33.554 50.9,33.828C53.2,34.249 52.18,34.761 50.9,34.858C50.029,34.924 41.744,34.423 36.54,34.096C35.723,35.863 33.947,36.999 32,37C30.105,37 28.366,35.923 27.522,34.226Z" style="fill:#b2b2b2;"/><path d="M23.5,34C24.871,34 26,35.129 26,36.5C26,37.871 24.871,39 23.5,39C22.129,39 21,37.871 21,36.5C21,35.129 22.129,34 23.5,34ZM40.5,34C41.871,34 43,35.129 43,36.5C43,37.871 41.871,39 40.5,39C39.129,39 38,37.871 38,36.5C38,35.129 39.129,34 40.5,34ZM32,29C33.617,29.042 34.924,30.383 34.924,32C34.924,33.617 33.617,34.958 32,35C30.383,34.958 29.076,33.617 29.076,32C29.076,30.383 30.383,29.042 32,29Z" style="fill:#838383;"/></g><g id="black"><path d="M23.5,35C24.323,35 25,35.678 25,36.501C25,37.324 24.323,38.001 23.5,38.001C23.499,38.001 23.499,38.001 23.499,38.001C22.676,38.001 21.999,37.323 21.999,36.501C21.999,35.677 22.676,35 23.5,35C23.5,35 23.5,35 23.5,35ZM40.5,35C41.323,35 42,35.678 42,36.501C42,37.324 41.323,38.001 40.5,38.001C40.499,38.001 40.499,38.001 40.499,38.001C39.676,38.001 38.999,37.323 38.999,36.501C38.999,35.677 39.676,35 40.5,35C40.5,35 40.5,35 40.5,35Z" style="fill:#010001;"/></g><g id="blue"><path d="M35,30C35,30.549 34.549,31 34,31L30,31C29.451,31 29,30.549 29,30C29,29.451 29.451,29 30,29L34,29C34.549,29 35,29.451 35,30Z" style="fill:#d1f8fd;"/><path d="M24.032,54.43L3.369,43.679C0.158,40.95 -0.285,36.061 2.374,32.669L20.914,8.842C23.602,5.643 29.631,4.101 32.873,6.978L33.996,7.516C35.612,6.292 37.779,6.216 39.206,7.456C40.117,8.248 40.539,9.413 40.468,10.613L60.612,20.256C63.823,22.985 64.265,27.874 61.607,31.265L41.933,57.566C39.215,60.649 34.499,61.023 31.457,58.396C31.367,58.318 31.279,58.237 31.192,58.155L29.994,57.532C28.455,58.415 26.58,58.361 25.301,57.249C24.476,56.532 24.052,55.508 24.032,54.43ZM32.045,11.016L31.146,10.586C30.809,10.425 30.497,10.218 30.218,9.97C29.496,9.33 28.43,9.372 27.43,9.562C26.12,9.81 24.823,10.442 24.017,11.368L5.531,35.126L5.522,35.137C4.276,36.726 4.344,38.981 5.689,40.377L25.679,50.777C27.319,49.308 29.684,49.133 31.206,50.456C32.281,51.391 32.675,52.846 32.381,54.264L33.039,54.606C33.373,54.781 33.682,55.001 33.955,55.262C33.993,55.298 34.032,55.334 34.072,55.369C35.451,56.56 37.566,56.364 38.844,55.018L58.404,28.869L58.459,28.798C59.693,27.223 59.638,24.997 58.331,23.598L38.574,14.141C36.951,15.411 34.746,15.505 33.301,14.249C32.371,13.44 31.951,12.243 32.045,11.016Z" style="fill:#9de2fc;"/></g></svg>