<svg xmlns="http://www.w3.org/2000/svg" xml:space="preserve" fill-rule="evenodd" stroke-linejoin="round" stroke-miterlimit="2" clip-rule="evenodd" viewBox="0 0 64 64">
  <g id="blue">
    <path fill="#61a2d3" d="m42.706 49.246 2.437 2.046c-.361.55-.592 1.202-.592 1.782 0 .379.098.675.268.872l-2.765-2.353c-.069-.879.186-1.738.652-2.347Z"/>
    <path fill="#7ac6ff" d="m45.371 48.557 1.85 1.551-.023.013c-.281-.11-.641-.066-1.036.162-.386.223-.742.586-1.019 1.009l-2.439-2.045c.304-.397.697-.689 1.149-.813.875-.249 1.308-.034 1.457.072.031.023.05.042.061.051Z"/>
    <path fill="#4a6168" d="M42.057 51.63c-.13-1.464.638-2.878 1.796-3.196 1.119-.318 1.516.123 1.516.123L43.7 47.155l-4.134 2.386 2.491 2.089Zm4.105-1.347c.889-.513 1.612-.096 1.612.93 0 1.027-.723 2.278-1.612 2.791-.889.514-1.611.097-1.611-.93 0-1.027.722-2.277 1.611-2.791Zm.008.524c-.641.371-1.162 1.273-1.162 2.014 0 .741.521 1.042 1.162.672.641-.371 1.162-1.273 1.162-2.014 0-.741-.521-1.042-1.162-.672Z"/>
    <path fill="#324565" d="M46.17 50.807c.641-.37 1.162-.069 1.162.672 0 .741-.521 1.643-1.162 2.014-.641.37-1.162.069-1.162-.672 0-.741.521-1.643 1.162-2.014Z"/>
  </g>
  <g id="orange">
    <path fill="#e3704a" d="m47.624 46.406 2.437 2.046c-.36.55-.592 1.202-.592 1.782 0 .379.1.675.268.872l-2.763-2.353c-.069-.879.184-1.738.65-2.347Z"/>
    <path fill="#fca303" d="m50.289 45.717 1.851 1.551-.022.013c-.28-.11-.643-.066-1.036.162-.388.223-.742.586-1.021 1.009l-2.437-2.045c.302-.397.695-.689 1.147-.813.875-.249 1.31-.034 1.457.072a.589.589 0 0 1 .061.051Z"/>
    <path fill="#b26528" d="M46.976 48.79c-.129-1.464.639-2.878 1.795-3.196 1.121-.318 1.518.123 1.518.123l-1.671-1.402-4.131 2.386 2.489 2.089Zm4.106-1.347c.889-.513 1.61-.097 1.61.93 0 1.027-.721 2.278-1.61 2.791-.891.514-1.613.097-1.613-.93 0-1.027.722-2.278 1.613-2.791Zm.006.524c-.641.371-1.162 1.273-1.162 2.014 0 .741.521 1.042 1.162.672.643-.371 1.164-1.273 1.164-2.014 0-.741-.521-1.042-1.164-.672Z"/>
  </g>
  <g id="brown">
    <path fill="#aa7850" d="m54.658 48.267-2.765-2.344c-.071-.882.182-1.745.65-2.357l2.438 2.046c-.362.55-.591 1.202-.591 1.782 0 .38.097.677.268.873Z"/>
    <path fill="#be7a38" d="m54.981 45.612-2.439-2.045c.304-.397.696-.689 1.149-.813.875-.249 1.309-.034 1.458.072.03.023.049.042.06.051l1.851 1.551-.024.013c-.28-.11-.641-.066-1.036.162-.387.223-.742.586-1.019 1.009Z"/>
    <path fill="#66503a" d="M51.896 45.95c-.131-1.464.637-2.878 1.795-3.196 1.119-.319 1.518.123 1.518.123l-1.672-1.402-4.132 2.386 2.491 2.089Z"/>
    <path fill="#8f7148" d="M56 44.603c.889-.513 1.612-.097 1.612.93 0 1.027-.723 2.278-1.612 2.791-.888.514-1.61.097-1.61-.93 0-1.027.722-2.278 1.61-2.791Zm.008.524c-.642.371-1.162 1.273-1.162 2.014 0 .741.52 1.042 1.162.672.641-.371 1.162-1.273 1.162-2.014 0-.741-.521-1.042-1.162-.672Z"/>
    <path fill="#49362f" d="M56.008 45.127c.641-.37 1.162-.069 1.162.672 0 .741-.521 1.643-1.162 2.014-.642.37-1.162.069-1.162-.672 0-.741.52-1.643 1.162-2.014Z"/>
    <path fill="#74352a" d="M51.088 47.967c.643-.37 1.164-.069 1.164.672 0 .741-.521 1.643-1.164 2.014-.641.37-1.162.069-1.162-.672 0-.741.521-1.643 1.162-2.014Z"/>
  </g>
  <g id="grey" fill-rule="nonzero">
    <path fill="#444" d="M6.916 27.386 35.88 51.69l21.672-12.513v-2.588L36.05 49.003 6.884 24.434l.032 2.952Z"/>
    <path fill="#929191" d="m6.884 24.434 29.234 24.53 21.434-12.375-29.234-24.53L6.884 24.434Z"/>
    <path fill="#d4d4d4" d="m15.494 19.463 29.177 24.563 4.068-2.349-29.252-24.519-3.993 2.305Zm-8.61 4.971 29.165 24.569.995-.574L7.841 23.882l-.957.552Zm20.578-11.88 29.211 24.542.879-.507-29.209-24.544-.881.509Z"/>
  </g>
</svg>
