<svg xmlns="http://www.w3.org/2000/svg" xml:space="preserve" fill-rule="evenodd" stroke-linejoin="round" stroke-miterlimit="2" clip-rule="evenodd" viewBox="0 0 64 64">
  <g id="grey">
    <path fill="#444" fill-rule="nonzero" d="m34.661 51.045-.097 2.428 25.947-14.765.034-2.607-25.884 14.944Z"/>
    <path fill="#929191" fill-rule="nonzero" d="m3.457 27.652 29.234 24.53 27.854-16.081-29.123-24.594L3.457 27.652Z"/>
    <path fill="#d4d4d4" fill-rule="nonzero" d="m17.034 19.873 29.135 24.528.956-.552-29.21-24.484-.881.508Z"/>
    <path fill="#929191" d="m33.251 26.039 1.827 1.533-9.651 5.572-1.827-1.533 9.651-5.572ZM22.288 16.84l1.827 1.533-9.651 5.572-1.827-1.533 9.651-5.572Zm16.423 13.781 1.827 1.533-9.651 5.572-1.827-1.534 9.651-5.571Zm5.401 4.532 1.827 1.533-9.651 5.572-1.827-1.533 9.651-5.572Zm5.583 4.684 1.827 1.473-9.651 5.572-1.827-1.473 9.651-5.572ZM27.769 21.44l1.827 1.533-9.65 5.572-1.827-1.534 9.65-5.571Z"/>
    <path fill="#b0abab" fill-rule="nonzero" d="m3.455 26.589 29.236 24.532L32.762 62l1.812-1 .12-11.036L5.465 25.467l-2.01 1.122Z"/>
    <path fill="#d4d4d4" fill-rule="nonzero" d="M32.773 64 3.467 39.409l-.012-12.82 1.665-.899 27.929 23.489v1.735l-.351.202L32.773 64Z"/>
    <path fill="#b5b5b5" d="m34.694 49.995-.009 1.036-.012.899 3.07-1.67-.01 1.411 2.612-1.488.038 9.472L32.773 64l-.075-12.853 1.996-1.152Z"/>
    <path fill="#c2bdbd" d="m34.715 49.982-2.017 1.145L3.455 26.589l2.009-1.052 29.251 24.445Z"/>
    <path fill="#6e6e6e" d="m4.482 25.006 29.166 24.528-.351.257L4.056 25.239l.426-.233Z"/>
    <path fill="#6e6e6e" d="m4.482 23.715 29.166 24.529-.351.257L4.056 23.949l.426-.234Z"/>
    <path fill="#525252" d="m33.648 50.634-.359.207-.351-.306V48.2l.359.301.351-.257v2.39Z"/>
    <path fill="#525252" d="m4.407 26.606-.351-.307v-2.335l.71.581v1.854l-.359.207Z"/>
    <path fill="#525252" d="m17.973 37.989-.351-.306v-2.336l.71.581v1.854l-.359.207Z"/>
    <path fill="#525252" d="m10.923 32.073-.352-.306v-2.336l.71.581v1.854l-.358.207Z"/>
    <path fill="#525252" d="m25.373 44.199-.351-.307v-2.335l.71.581v1.854l-.359.207Z"/>
  </g>
  <g id="brown">
    <path fill="#754600" fill-rule="nonzero" d="m40.371 59.655 20.174-11.647-.07-9.28-20.245 11.52.141 9.407Z"/>
  </g>
</svg>
