<svg xmlns="http://www.w3.org/2000/svg" xml:space="preserve" fill-rule="evenodd" stroke-linejoin="round" stroke-miterlimit="2" clip-rule="evenodd" viewBox="0 0 64 64">
  <g id="green">
    <path fill="#274100" fill-rule="nonzero" d="M2.297 37.79 34.673 58l27.03-20.21-33.024-16.314L2.297 37.79Z"/>
    <path fill="#00b41a" d="m36.233 29.92-.042 3.098L12.547 20.51v1.96l23.616 12.702-.02 1.478-23.596-12.482v1.96l23.568 12.676-.022 1.654-23.554-12.632.008 1.96 23.516 13.018-.024 1.77-23.492-13.092v1.958l23.464 13.336-.042 3.194-23.45-14.234.02-18.102 23.684 12.292.01-.006Z"/>
    <path fill="#00580d" d="m36.067 42.806-23.52-13.02-.008-1.96L36.097 40.46l-.03 2.346Zm.052-4L12.547 26.128v-1.96l23.6 12.484-.028 2.154Zm.048-3.632L12.547 22.47v-1.96l23.648 12.51-.028 2.154Zm-.152 11.604L12.547 33.44v-1.958l23.496 13.094-.028 2.202Z"/>
    <path fill="#0f4e06" d="m36.235 29.918 14.66-8.866-.172 6.83-14.608 8.704v2.218l14.558-8.878-.044 1.67-14.56 8.868-.006 2.34 14.514-9.118-.042 1.624-14.496 9.264-.028 2.202L50.483 37.4l-.054 2.124-14.456 10.48.262-20.086Zm-.044 3.1.004 2.14 14.568-8.902.018-2.068-14.59 8.83Z"/>
    <path fill="#002612" d="m36.191 33.018 14.628-8.936-.056 2.174-14.596 8.918.024-2.156Zm-.072 3.566 14.604-8.702L50.669 30l-14.55 8.802v-2.218Zm-.05 3.88 14.56-8.868-.052 2.09-14.51 9.12.002-2.342Zm-.026 4.112 14.492-9.266-.052 2.09-14.468 9.318.028-2.142Z"/>
    <path fill="#81f340" fill-rule="nonzero" d="m12.539 17.634 23.684 12.292 14.708-8.844-23.698-10.816-14.694 7.368Z"/>
  </g>
</svg>
