<svg xmlns="http://www.w3.org/2000/svg" xml:space="preserve" fill-rule="evenodd" stroke-linejoin="round" stroke-miterlimit="2" clip-rule="evenodd" viewBox="0 0 64 64">
  <g id="grey">
    <path fill="#b0abab" fill-rule="nonzero" d="m29.471 1.368 29.104 24.421 1.808-1.032L31.284.329l-1.813 1.039Z"/>
    <path fill="#d4d4d4" fill-rule="nonzero" d="M58.604 37.267 29.5 12.689l-.029-11.321 29.104 24.421.029 11.478Z"/>
    <path fill="#444" fill-rule="nonzero" d="M3.409 30.696 32.373 55l28.058-16.2-.048-14.054-1.808 1.043.029 11.478-25.993 15.007-29.234-24.53.032 2.952Z"/>
    <path fill="#929191" fill-rule="nonzero" d="m3.377 27.744 29.234 24.53 25.993-15.007-29.123-24.594L3.377 27.744Z"/>
    <path fill="#d4d4d4" d="m19.663 20.988 3.657 3.066-.895.516-3.647-3.07.885-.512Zm5.486 4.598 3.656 3.065-.909.525-3.647-3.07.9-.52Zm5.484 4.597 3.636 3.048-.924.533-3.625-3.053.913-.528Zm5.464 4.58 3.576 2.998-.937.541-3.567-3.003.928-.536Zm5.404 4.53 3.758 3.15-.951.55-3.748-3.156.941-.544Z"/>
  </g>
</svg>
