<?xml version="1.0" encoding="UTF-8" standalone="no"?><!DOCTYPE svg PUBLIC "-//W3C//DTD SVG 1.1//EN" "http://www.w3.org/Graphics/SVG/1.1/DTD/svg11.dtd"><svg width="100%" height="100%" viewBox="0 0 64 64" version="1.1" xmlns="http://www.w3.org/2000/svg" xmlns:xlink="http://www.w3.org/1999/xlink" xml:space="preserve" xmlns:serif="http://www.serif.com/" style="fill-rule:evenodd;clip-rule:evenodd;stroke-linejoin:round;stroke-miterlimit:2;"><g id="blue"><path d="M42.706,49.246L45.143,51.292C44.782,51.842 44.551,52.494 44.551,53.074C44.551,53.453 44.649,53.749 44.819,53.946L42.054,51.593C41.985,50.714 42.24,49.855 42.706,49.246Z" style="fill:#61a2d3;"/><path d="M45.371,48.557L47.221,50.108L47.198,50.121C46.917,50.011 46.557,50.055 46.162,50.283C45.776,50.506 45.42,50.869 45.143,51.292L42.704,49.247C43.008,48.85 43.401,48.558 43.853,48.434C44.728,48.185 45.161,48.4 45.31,48.506C45.341,48.529 45.36,48.548 45.371,48.557Z" style="fill:#7ac6ff;"/><path d="M42.057,51.63C41.927,50.166 42.695,48.752 43.853,48.434C44.972,48.116 45.369,48.557 45.369,48.557L43.7,47.155L39.566,49.541L42.057,51.63Z" style="fill:#4a6168;"/><path d="M46.162,50.283C47.051,49.77 47.774,50.187 47.774,51.213C47.774,52.24 47.051,53.491 46.162,54.004C45.273,54.518 44.551,54.101 44.551,53.074C44.551,52.047 45.273,50.797 46.162,50.283ZM46.17,50.807C45.529,51.178 45.008,52.08 45.008,52.821C45.008,53.562 45.529,53.863 46.17,53.493C46.811,53.122 47.332,52.22 47.332,51.479C47.332,50.738 46.811,50.437 46.17,50.807Z" style="fill:#4a6168;"/><path d="M46.17,50.807C46.811,50.437 47.332,50.738 47.332,51.479C47.332,52.22 46.811,53.122 46.17,53.493C45.529,53.863 45.008,53.562 45.008,52.821C45.008,52.08 45.529,51.178 46.17,50.807Z" style="fill:#324565;"/></g><g id="orange"><path d="M47.624,46.406L50.061,48.452C49.701,49.002 49.469,49.654 49.469,50.234C49.469,50.613 49.569,50.909 49.737,51.106L46.974,48.753C46.905,47.874 47.158,47.015 47.624,46.406Z" style="fill:#e3704a;"/><path d="M50.289,45.717L52.14,47.268L52.118,47.281C51.838,47.171 51.475,47.215 51.082,47.443C50.694,47.666 50.34,48.029 50.061,48.452L47.624,46.407C47.926,46.01 48.319,45.718 48.771,45.594C49.646,45.345 50.081,45.56 50.228,45.666C50.259,45.689 50.28,45.708 50.289,45.717Z" style="fill:#fca303;"/><path d="M46.976,48.79C46.847,47.326 47.615,45.912 48.771,45.594C49.892,45.276 50.289,45.717 50.289,45.717L48.618,44.315L44.487,46.701L46.976,48.79Z" style="fill:#b26528;"/><path d="M51.082,47.443C51.971,46.93 52.692,47.346 52.692,48.373C52.692,49.4 51.971,50.651 51.082,51.164C50.191,51.678 49.469,51.261 49.469,50.234C49.469,49.207 50.191,47.956 51.082,47.443ZM51.088,47.967C50.447,48.338 49.926,49.24 49.926,49.981C49.926,50.722 50.447,51.023 51.088,50.653C51.731,50.282 52.252,49.38 52.252,48.639C52.252,47.898 51.731,47.597 51.088,47.967Z" style="fill:#b26528;"/></g><g id="brown"><path d="M54.658,48.267L51.893,45.923C51.822,45.041 52.075,44.178 52.543,43.566L54.981,45.612C54.619,46.162 54.39,46.814 54.39,47.394C54.39,47.774 54.487,48.071 54.658,48.267Z" style="fill:#aa7850;"/><path d="M54.981,45.612L52.542,43.567C52.846,43.17 53.238,42.878 53.691,42.754C54.566,42.505 55,42.72 55.149,42.826C55.179,42.849 55.198,42.868 55.209,42.877L57.06,44.428L57.036,44.441C56.756,44.331 56.395,44.375 56,44.603C55.613,44.826 55.258,45.189 54.981,45.612Z" style="fill:#be7a38;"/><path d="M51.896,45.95C51.765,44.486 52.533,43.072 53.691,42.754C54.81,42.435 55.209,42.877 55.209,42.877L53.537,41.475L49.405,43.861L51.896,45.95Z" style="fill:#66503a;"/><path d="M56,44.603C56.889,44.09 57.612,44.506 57.612,45.533C57.612,46.56 56.889,47.811 56,48.324C55.112,48.838 54.39,48.421 54.39,47.394C54.39,46.367 55.112,45.116 56,44.603ZM56.008,45.127C55.366,45.498 54.846,46.4 54.846,47.141C54.846,47.882 55.366,48.183 56.008,47.813C56.649,47.442 57.17,46.54 57.17,45.799C57.17,45.058 56.649,44.757 56.008,45.127Z" style="fill:#8f7148;"/><path d="M56.008,45.127C56.649,44.757 57.17,45.058 57.17,45.799C57.17,46.54 56.649,47.442 56.008,47.813C55.366,48.183 54.846,47.882 54.846,47.141C54.846,46.4 55.366,45.498 56.008,45.127Z" style="fill:#49362f;"/><path d="M51.088,47.967C51.731,47.597 52.252,47.898 52.252,48.639C52.252,49.38 51.731,50.282 51.088,50.653C50.447,51.023 49.926,50.722 49.926,49.981C49.926,49.24 50.447,48.338 51.088,47.967Z" style="fill:#74352a;"/></g><g id="grey"><path d="M6.916,27.386L35.88,51.69L57.552,39.177L57.552,36.589L36.118,48.964L6.884,24.434L6.916,27.386Z" style="fill:#444;fill-rule:nonzero;"/><path d="M6.884,24.434L36.118,48.964L57.552,36.589L28.318,12.059L6.884,24.434Z" style="fill:#929191;fill-rule:nonzero;"/></g><g id="white"><path d="M27.732,26.284L28.18,30.425L29.961,29.41L34.596,33.321L36.352,32.308L31.687,28.401L33.448,27.384L27.732,26.284Z" style="fill:#fff;fill-rule:nonzero;"/></g></svg>