<svg xmlns="http://www.w3.org/2000/svg" xml:space="preserve" fill-rule="evenodd" stroke-linejoin="round" stroke-miterlimit="2" clip-rule="evenodd" viewBox="0 0 64 64">
  <g id="brown">
    <path fill="#aa7850" d="M13.531 28.928a4.37 4.37 0 0 1-1.068-.662c-1.287-1.08-2.059-2.961-2.059-5.494 0-3.305 1.314-7.016 3.37-10.145l24.852 20.859c-2.055 3.13-3.369 6.84-3.369 10.14 0 2.157.558 3.841 1.525 4.962l-23.251-19.66Z"/>
    <path fill="#ba7b48" d="M38.626 33.486 13.774 12.627c1.077-1.639 2.358-3.118 3.76-4.297a14.627 14.627 0 0 1 2.037-1.44c1.513-.873 2.941-1.272 4.201-1.247.145.002.287.011.424.025 1.27.126 2.347.707 3.133 1.688L50.45 26.749l-.131.074c-1.599-.626-3.648-.375-5.895.922-2.197 1.269-4.222 3.334-5.798 5.741Z"/>
    <path fill="#8a7257" d="M44.424 27.745c5.058-2.919 9.172-.546 9.172 5.292 0 5.843-4.114 12.962-9.172 15.881-5.059 2.925-9.167.552-9.167-5.292 0-5.844 4.108-12.956 9.167-15.881Zm.045 2.981c-3.647 2.112-6.612 7.244-6.612 11.46 0 4.217 2.965 5.929 6.612 3.824 3.648-2.111 6.612-7.243 6.612-11.46 0-4.216-2.964-5.929-6.612-3.824Z"/>
    <path fill="#463738" d="M44.469 30.726c3.648-2.105 6.612-.392 6.612 3.824 0 4.217-2.964 9.349-6.612 11.46-3.647 2.105-6.612.393-6.612-3.824 0-4.216 2.965-9.348 6.612-11.46Z"/>
    <path fill="#7e5234" fill-rule="nonzero" d="M45.043 42.893c-2.259 2.908-3.736 6.171-4.347 9.829 0 0-.575 5.637 4.345 5.637s4.6-5.637 4.6-5.637c-.411-3.458-1.94-6.672-4.598-9.829Z"/>
    <path fill="#aa7850" d="M43.834 51.684c.828 0 1.5.896 1.5 2 0 1.103-.672 2-1.5 2s-1.5-.897-1.5-2c0-1.104.672-2 1.5-2Zm4 4a.5.5 0 1 1 0 1 .5.5 0 0 1 0-1Z"/>
  </g>
</svg>
