<svg xmlns="http://www.w3.org/2000/svg" xml:space="preserve" fill-rule="evenodd" stroke-linejoin="round" stroke-miterlimit="2" clip-rule="evenodd" viewBox="0 0 64 64">
  <g id="grey">
    <path fill="#444" fill-rule="nonzero" d="m3.409 29.865 28.964 24.304 28.243-16.307-.082-10.465-2.697 1.55-3.792 10.121-21.434 12.375-29.234-24.53.032 2.952Z"/>
    <path fill="#929191" fill-rule="nonzero" d="m3.377 26.913 29.234 24.53 21.434-12.375-29.234-24.53L3.377 26.913Z"/>
    <path fill="#c9c9c9" d="m31.291 2.86 29.243 24.537-2.697 1.557-3.808 10.123-29.308-24.424 3.99-10.303 2.58-1.49Z"/>
    <path fill="#c2bdbd" d="m31.298 2.856 29.236 24.531-2.588 1.494L28.711 4.35l2.587-1.494Z"/>
  </g>
  <g id="yellow">
    <path fill="#fbd508" fill-rule="nonzero" d="m13.453 21.155 29.135 24.528.956-.552-29.21-24.484-.881.508Z"/>
  </g>
</svg>
