<?xml version="1.0" encoding="UTF-8" standalone="no"?><!DOCTYPE svg PUBLIC "-//W3C//DTD SVG 1.1//EN" "http://www.w3.org/Graphics/SVG/1.1/DTD/svg11.dtd"><svg width="100%" height="100%" viewBox="0 0 64 64" version="1.1" xmlns="http://www.w3.org/2000/svg" xmlns:xlink="http://www.w3.org/1999/xlink" xml:space="preserve" xmlns:serif="http://www.serif.com/" style="fill-rule:evenodd;clip-rule:evenodd;stroke-linejoin:round;stroke-miterlimit:2;"><g id="orange"><path d="M24.032,54.43L3.369,43.679C0.158,40.95 -0.285,36.061 2.374,32.669L20.914,8.842C23.602,5.643 29.631,4.101 32.873,6.978L33.996,7.516C35.612,6.292 37.779,6.216 39.206,7.456C40.117,8.248 40.539,9.413 40.468,10.613L60.612,20.256C63.823,22.985 64.265,27.874 61.607,31.265L41.933,57.566C39.215,60.649 34.499,61.023 31.457,58.396C31.367,58.318 31.279,58.237 31.192,58.155L29.994,57.532C28.455,58.415 26.58,58.361 25.301,57.249C24.476,56.532 24.052,55.508 24.032,54.43ZM32.045,11.016L31.146,10.586C30.809,10.425 30.497,10.218 30.218,9.97C29.496,9.33 28.43,9.372 27.43,9.562C26.12,9.81 24.823,10.442 24.017,11.368L5.531,35.126L5.522,35.137C4.276,36.726 4.344,38.981 5.689,40.377L25.679,50.777C27.319,49.308 29.684,49.133 31.206,50.456C32.281,51.391 32.675,52.846 32.381,54.264L33.039,54.606C33.373,54.781 33.682,55.001 33.955,55.262C33.993,55.298 34.032,55.334 34.072,55.369C35.451,56.56 37.566,56.364 38.844,55.018L58.404,28.869L58.459,28.798C59.693,27.223 59.638,24.997 58.331,23.598L38.574,14.141C36.951,15.411 34.746,15.505 33.301,14.249C32.371,13.44 31.951,12.243 32.045,11.016Z" style="fill:#f9682b;"/></g><g id="grey"><path d="M32.045,11.016C31.951,12.243 32.371,13.44 33.301,14.249C34.746,15.505 36.951,15.411 38.574,14.141L58.331,23.598C59.638,24.997 59.693,27.223 58.459,28.798L58.404,28.869L38.844,55.018C37.566,56.364 35.451,56.56 34.072,55.369C34.032,55.334 33.993,55.298 33.955,55.262C33.682,55.002 33.374,54.781 33.039,54.606L32.381,54.264C32.675,52.846 32.281,51.391 31.206,50.456C29.684,49.133 27.319,49.308 25.679,50.777L5.689,40.377C4.344,38.981 4.276,36.726 5.522,35.137L5.531,35.126L24.017,11.368C24.823,10.442 26.12,9.81 27.43,9.562C28.43,9.372 29.496,9.33 30.218,9.97C30.497,10.218 30.809,10.425 31.146,10.586L32.045,11.016Z" style="fill:#707070;"/><path d="M37.529,23.553L38.647,23.553C40.397,23.477 41.907,24.72 42,26.313L42,39.193C42,40.72 38.647,41.953 38.647,41.953C36.687,42.438 34.677,42.698 32.658,42.727C30.536,42.683 28.423,42.424 26.353,41.953C24.289,41.483 23,40.717 23,39.193L23,26.313C23.093,24.72 24.603,23.477 26.353,23.553L27.471,23.553L27.471,22.5C27.471,21.403 28.374,20.5 29.471,20.5L35.529,20.5C36.626,20.5 37.529,21.403 37.529,22.5L37.529,23.553ZM30.265,21.518C29.34,21.518 28.589,22.202 28.589,23.044C28.589,23.886 29.34,24.57 30.265,24.57C31.19,24.57 31.941,23.886 31.941,23.044C31.941,22.202 31.19,21.518 30.265,21.518ZM34.735,21.518C33.81,21.518 33.059,22.202 33.059,23.044C33.059,23.886 33.81,24.57 34.735,24.57C35.66,24.57 36.411,23.886 36.411,23.044C36.411,22.202 35.66,21.518 34.735,21.518ZM32.704,35.428C31.58,35.434 30.658,36.275 30.654,37.298L30.654,37.31C30.654,38.322 31.568,39.154 32.679,39.154L32.688,39.154C33.811,39.148 34.731,38.307 34.736,37.285L34.736,37.272C34.736,36.26 33.822,35.428 32.711,35.428L32.704,35.428ZM40.882,27.588C40.882,26.491 39.979,25.588 38.882,25.588L26.118,25.588C25.021,25.588 24.118,26.491 24.118,27.588L24.118,29.694C24.118,30.791 25.021,31.694 26.118,31.694L38.882,31.694C39.979,31.694 40.882,30.791 40.882,29.694L40.882,27.588Z" style="fill:#444;"/></g><g id="black"><path d="M39.154,41.744L42,45.994L37.156,45.994L35.95,42.474C36.857,42.347 37.758,42.173 38.647,41.953C39.536,41.733 38.849,41.879 39.154,41.744ZM29.062,42.445L27.844,45.994L23,45.994L25.798,41.814C25.976,41.863 26.161,41.909 26.353,41.953C27.247,42.157 28.151,42.321 29.062,42.445Z" style="fill:#010001;"/></g><g id="blue"><path d="M32.704,35.428L32.711,35.428C33.822,35.428 34.736,36.26 34.736,37.272L34.736,37.285C34.731,38.307 33.811,39.148 32.688,39.154L32.679,39.154C31.568,39.154 30.654,38.322 30.654,37.31L30.654,37.298C30.658,36.275 31.58,35.434 32.704,35.428ZM40.882,27.588L40.882,29.694C40.882,30.791 39.979,31.694 38.882,31.694L26.118,31.694C25.021,31.694 24.118,30.791 24.118,29.694L24.118,27.588C24.118,26.491 25.021,25.588 26.118,25.588L38.882,25.588C39.979,25.588 40.882,26.491 40.882,27.588ZM34.735,21.518C35.66,21.518 36.411,22.202 36.411,23.044C36.411,23.886 35.66,24.57 34.735,24.57C33.81,24.57 33.059,23.886 33.059,23.044C33.059,22.202 33.81,21.518 34.735,21.518ZM30.265,21.518C31.19,21.518 31.941,22.202 31.941,23.044C31.941,23.886 31.19,24.57 30.265,24.57C29.34,24.57 28.589,23.886 28.589,23.044C28.589,22.202 29.34,21.518 30.265,21.518Z" style="fill:#d1f8fd;"/></g></svg>