<?xml version="1.0" encoding="UTF-8" standalone="no"?><!DOCTYPE svg PUBLIC "-//W3C//DTD SVG 1.1//EN" "http://www.w3.org/Graphics/SVG/1.1/DTD/svg11.dtd"><svg width="100%" height="100%" viewBox="0 0 64 64" version="1.1" xmlns="http://www.w3.org/2000/svg" xmlns:xlink="http://www.w3.org/1999/xlink" xml:space="preserve" xmlns:serif="http://www.serif.com/" style="fill-rule:evenodd;clip-rule:evenodd;"><g id="blue"><path d="M32.396,9.346C33.081,9.346 33.348,9.807 33.824,10.283L35.251,11.711L36.679,13.138L38.106,14.566L43.816,20.276L49.526,25.987L50.954,27.414L52.381,28.842L53.809,30.269C54.285,30.745 54.504,31.024 54.504,31.697C54.504,32.392 54.253,32.68 53.761,33.172L50.811,36.123L49.335,37.598L37.533,49.4L34.583,52.351L33.107,53.826C32.616,54.318 32.328,54.654 31.632,54.654C30.959,54.654 30.68,54.349 30.205,53.874L27.349,51.019L25.922,49.591L20.211,43.881L14.501,38.171L10.218,33.889C9.742,33.413 9.494,33.134 9.494,32.461C9.494,31.766 9.774,31.478 10.266,30.986L30.921,10.331C31.413,9.839 31.712,9.346 32.396,9.346Z" style="fill:#4a6168;"/></g><g id="violet"><path d="M32.488,6.15C31.71,6.15 31.368,6.78 30.808,7.341L29.127,9.021L19.042,19.106L12.318,25.829L7.276,30.871C6.716,31.431 6.298,31.759 6.298,32.552C6.298,33.316 6.676,33.633 7.217,34.173L12.081,39.038L18.568,45.524L26.676,53.632L28.297,55.254L29.919,56.875C30.459,57.416 30.776,57.85 31.54,57.85C32.333,57.85 32.661,57.376 33.221,56.816L34.902,55.135L36.583,53.455L55.072,34.966L56.753,33.286C57.313,32.726 57.702,32.397 57.702,31.605C57.702,30.841 57.353,30.524 56.812,29.983L55.19,28.362L53.569,26.74L38.975,12.146L37.353,10.525L34.11,7.281C33.569,6.741 33.267,6.15 32.488,6.15ZM32.396,9.346C33.081,9.346 33.348,9.807 33.824,10.283L35.251,11.711L36.679,13.138L38.106,14.566L43.816,20.276L49.526,25.987L50.954,27.414L52.381,28.842L53.809,30.269C54.285,30.745 54.504,31.024 54.504,31.697C54.504,32.392 54.253,32.68 53.761,33.172L50.811,36.123L49.335,37.598L37.533,49.4L34.583,52.351L33.107,53.826C32.616,54.318 32.328,54.654 31.632,54.654C30.959,54.654 30.68,54.349 30.205,53.874L27.349,51.019L25.922,49.591L20.211,43.881L14.501,38.171L10.218,33.889C9.742,33.413 9.494,33.134 9.494,32.461C9.494,31.766 9.774,31.478 10.266,30.986L30.921,10.331C31.413,9.839 31.712,9.346 32.396,9.346Z" style="fill:#f9682b;fill-rule:nonzero;stroke:#324565;stroke-width:0.2px;"/></g><g id="white"><path id="white1" serif:id="white" d="M25.822,39.897C24.22,39.454 23.243,38.755 23.243,37.481L23.243,25.609C23.329,24.14 24.721,22.994 26.334,23.065L27.365,23.065L27.365,22.094C27.365,21.083 28.197,20.25 29.208,20.25L34.792,20.25C35.801,20.255 36.63,21.085 36.635,22.094L36.635,23.065L37.666,23.065C39.279,22.994 40.671,24.14 40.757,25.609L40.757,37.481C40.757,38.543 38.997,39.451 38.134,39.832C37.853,39.957 40.757,43.75 40.757,43.75L36.292,43.75L35.18,40.505C34.174,40.645 33.161,40.723 32.145,40.738C31.037,40.716 29.93,40.629 28.831,40.479L27.708,43.75L23.243,43.75L25.822,39.897ZM34.061,21.188C33.208,21.188 32.515,21.819 32.515,22.595C32.515,23.371 33.208,24.002 34.061,24.002C34.913,24.002 35.605,23.371 35.605,22.595C35.605,21.819 34.913,21.188 34.061,21.188ZM29.939,21.188C29.087,21.188 28.395,21.819 28.395,22.595C28.395,23.371 29.087,24.002 29.939,24.002C30.792,24.002 31.485,23.371 31.485,22.595C31.485,21.819 30.792,21.188 29.939,21.188ZM32.188,34.01C31.152,34.016 30.302,34.791 30.299,35.734L30.299,35.746C30.299,36.678 31.141,37.445 32.165,37.445L32.173,37.445C33.208,37.44 34.057,36.664 34.061,35.722L34.061,35.71C34.061,34.777 33.219,34.01 32.194,34.01L32.188,34.01ZM39.726,26.784C39.726,25.773 38.894,24.94 37.882,24.94L26.118,24.94C25.108,24.945 24.278,25.774 24.274,26.784L24.274,28.725C24.278,29.735 25.108,30.564 26.118,30.568L37.882,30.568C38.892,30.564 39.722,29.735 39.726,28.725L39.726,26.784Z" style="fill:#fefffe;"/></g></svg>