<svg xmlns="http://www.w3.org/2000/svg" xml:space="preserve" fill-rule="evenodd" stroke-linejoin="round" stroke-miterlimit="2" clip-rule="evenodd" viewBox="0 0 64 64">
  <g id="grey">
    <path fill="#909090" d="m27.451 42.715 5.482 4.6-11.415 6.415-5.358-4.496 11.291-6.519Z"/>
    <path fill="#575757" d="m32.933 47.314 1.959 1.575-13.47 7.687.096-2.846 11.415-6.416Z"/>
    <path fill="#ababab" d="m21.518 53.73-.096 2.846-5.358-4.496.096-2.846 5.358 4.496Z"/>
    <path fill="#c4c4c4" fill-rule="nonzero" d="m1.475 20.918 47.321 39.707 13.818-7.978v-1.765l-13.656 7.884L1.453 18.905l.022 2.013Z"/>
    <path fill="#929191" fill-rule="nonzero" d="M1.385 18.944 48.89 58.806l13.725-7.924L15.11 11.02 1.385 18.944Z"/>
    <path fill="#d4d4d4" d="m22.854 29.238 3.741 3.135-.583.337-3.73-3.141.572-.331Zm6.234 5.226 3.741 3.135-.601.347-3.73-3.141.59-.341Zm6.235 5.226 3.74 3.135-.619.357-3.729-3.141.608-.351ZM6.836 15.797l1.068.893-.583.337-1.057-.899.572-.331Zm3.561 2.983 3.741 3.136-.601.347-3.729-3.142.589-.341Zm6.235 5.226 3.74 3.135-.618.358-3.73-3.141.608-.352Zm24.919 20.921 3.741 3.135-.583.337-3.73-3.141.572-.331Zm6.234 5.225 3.741 3.136-.601.347-3.73-3.142.59-.341Zm6.235 5.226.331.275-.619.357-.32-.28.608-.352ZM27.137 26.765l3.741 3.135-.583.337-3.73-3.141.572-.331Zm6.234 5.226 3.741 3.136-.601.347-3.73-3.142.59-.341Zm6.235 5.226 3.74 3.135-.619.357-3.729-3.141.608-.351ZM11.119 13.324l1.068.893-.583.337-1.057-.899.572-.331Zm3.562 2.983 3.74 3.136-.601.347-3.729-3.142.59-.341Zm6.234 5.226 3.74 3.136-.618.357-3.73-3.141.608-.352Zm24.919 20.921 3.741 3.135-.583.337-3.73-3.141.572-.331Zm6.234 5.225 3.741 3.136-.601.347-3.73-3.142.59-.341Zm6.235 5.226.331.275-.619.357-.32-.28.608-.352Z"/>
    <path fill="#c2bdbd" d="m35.052 4.335 1.663-.96 2.073 1.739-1.664.96-.044 23.396-2.021-1.68-.007-23.455Z"/>
    <path fill="#707070" d="m38.788 5.114.026 25.865-1.734-1.509.044-23.396 1.664-.96Z"/>
    <path fill="#131313" d="M19.613 15.546v1.172L2.784 22.016l-.683-.573 17.512-5.897ZM7.26 25.772l12.353-3.865v1.173L8.027 26.416l-.767-.644Zm5.679 4.766 6.674-1.628v1.172l-5.815 1.176-.859-.72ZM35.052 7.231v1.172L17.8 13.347l-.683-.574 17.935-5.542Zm-12.776 9.872 12.776-3.51v1.172l-2.362.68-9.647 2.301-.767-.643Z"/>
    <path fill="#c2bdbd" d="m19.613 13.333 1.797-1.037 2.013 1.689-1.797 1.037-.013-.011v36.355l-2-1.587V13.333Z"/>
    <path fill="#707070" d="M23.423 13.985v36.336l-1.888 1.09.078-36.381 1.81-1.045Z"/>
    <path fill="#b5b5b5" d="m35.143 7.33 2.039 1.58-13.759 7.943v-2.746l11.72-6.777Zm0 7 2.039 1.58-13.759 7.943v-2.746l11.72-6.777Zm0 7 2.039 1.58-13.759 7.943v-2.746l11.72-6.777Z"/>
    <path fill="#707070" d="M37.181 8.91v2l-13.758 7.943v-2L37.181 8.91Zm0 7v2l-13.758 7.943v-2l13.758-7.943Zm0 7v2l-13.758 7.943v-2l13.758-7.943Z"/>
    <path fill="#131313" d="M44.555 35.742 38.098 24.94v-2.385l8.673 15.047-2.216-1.86Zm7.876 6.61L38.098 16.94v-2.385l16.413 29.542-2.08-1.745Zm7.463 6.262L38.098 9.36V6.975L61.844 50.25l-1.95-1.636ZM46.79 58.942l-1.95-1.636-22.641-38.961V15.96L46.79 58.942Zm-7.869-6.602-2.191-1.839-14.531-25.005v-2.385L38.921 52.34Zm-7.702-6.464-2.429-2.037-6.591-11.343v-2.385l9.02 15.765Z"/>
  </g>
  <g id="white">
    <path fill="#fff" d="m48.8 48.48 3.681.708-1.134.655 3.004 2.516-1.131.652-2.985-2.519-1.146.654-.289-2.666Zm4.507-2.603 3.681.708-1.134.656 3.004 2.516-1.131.652-2.985-2.519-1.146.654-.289-2.667Zm-8.86 5.116 3.681.708-1.134.655 3.004 2.516-1.131.653-2.985-2.52-1.146.654-.289-2.666Z"/>
  </g>
</svg>
