<svg xmlns="http://www.w3.org/2000/svg" xml:space="preserve" fill-rule="evenodd" stroke-linejoin="round" stroke-miterlimit="2" clip-rule="evenodd" viewBox="0 0 64 64">
  <g id="grey">
    <path fill="#909090" d="m26.505 43.278 5.482 4.6-11.415 6.415-5.358-4.496 11.291-6.519Z"/>
    <path fill="#575757" d="m31.987 47.878 1.959 1.574-13.47 7.687.096-2.846 11.415-6.415Z"/>
    <path fill="#ababab" d="m20.572 54.293-.096 2.846-5.358-4.496.096-2.846 5.358 4.496Z"/>
    <path fill="#c4c4c4" fill-rule="nonzero" d="M.529 21.481 47.85 61.189l15.71-9.071v-1.765l-15.548 8.976L.508 19.468l.021 2.013Z"/>
    <path fill="#929191" fill-rule="nonzero" d="m.439 19.507 47.505 39.862 15.617-9.016-47.505-39.862L.439 19.507Z"/>
    <path fill="#d4d4d4" d="m19.737 31.055 3.74 3.135-.583.337-3.73-3.141.573-.331Zm6.234 5.225 3.74 3.136-.6.347-3.73-3.142.59-.341Zm6.234 5.227 3.74 3.135-.618.357-3.73-3.141.608-.351ZM3.718 17.614l1.069.893-.583.337-1.058-.899.572-.331Zm3.562 2.983 3.741 3.136-.601.347-3.73-3.142.59-.341Zm6.235 5.226 3.74 3.135-.619.358-3.73-3.142.609-.351Zm24.919 20.921 3.74 3.135-.583.337-3.73-3.141.573-.331Zm6.234 5.225 3.74 3.136-.6.347-3.73-3.142.59-.341Zm6.234 5.226.331.275-.618.357-.321-.281.608-.351Zm-24.4-30.046 3.74 3.135-.583.337-3.73-3.141.573-.331Zm2.941-1.698 3.741 3.135-.583.337-3.73-3.141.572-.331Zm-6.19 3.574 3.741 3.135-.583.337-3.73-3.142.572-.33Zm9.483 3.35 3.74 3.135-.6.348-3.73-3.142.59-.341Zm2.941-1.699 3.741 3.136-.601.347-3.73-3.142.59-.341Zm-6.19 3.574 3.741 3.136-.601.347-3.73-3.142.59-.341Zm9.483 3.351 3.74 3.135-.618.357-3.73-3.141.608-.351Zm2.942-1.699 3.74 3.136-.619.357-3.729-3.141.608-.352Zm-6.19 3.574 3.74 3.135-.618.358-3.73-3.142.608-.351ZM10.483 13.708l1.069.893-.583.337-1.058-.899.572-.331Zm2.942-1.698 1.068.893-.583.337-1.057-.899.572-.331Zm-6.19 3.574 1.068.892-.583.337-1.057-.898.572-.331Zm6.81 1.107 3.741 3.136-.601.347-3.73-3.142.59-.341Zm2.942-1.698 3.74 3.136-.601.347-3.729-3.142.59-.341Zm-6.19 3.574 3.74 3.136-.6.347-3.73-3.142.59-.341Zm9.483 3.35 3.74 3.136-.619.357-3.73-3.141.609-.352Zm2.941-1.698 3.74 3.135-.618.358-3.73-3.142.608-.351Zm-6.19 3.574 3.741 3.135-.619.357-3.73-3.141.608-.351Zm28.168 19.045 3.74 3.135-.583.337-3.73-3.141.573-.331Zm2.941-1.698 3.741 3.135-.583.337-3.73-3.142.572-.33Zm-6.19 3.573 3.741 3.135-.583.337-3.73-3.141.572-.331Zm9.483 3.35 3.74 3.136-.6.347-3.73-3.142.59-.341Zm2.941-1.698 3.741 3.136-.601.347-3.73-3.142.59-.341Zm-6.19 3.574 3.741 3.136-.601.347-3.729-3.142.589-.341Zm9.483 3.35.331.275-.618.357-.321-.28.608-.352Zm2.942-1.698.331.275-.619.357-.32-.281.608-.351Zm-6.19 3.574.331.274-.618.358-.321-.281.608-.351Z"/>
    <path fill="#c2bdbd" d="m36.057 3.772 1.663-.961 2.073 1.74-1.664.96-.045 23.396-2.02-1.681-.007-23.454Z"/>
    <path fill="#707070" d="m39.793 4.551.025 25.865-1.734-1.509.045-23.396 1.664-.96Z"/>
    <path fill="#131313" d="M18.667 16.109v1.172L1.839 22.58l-.684-.574 17.512-5.897ZM6.314 26.335l12.353-3.864v1.172L7.081 26.979l-.767-.644Zm5.68 4.766 6.673-1.628v1.172l-5.815 1.176-.858-.72ZM36.057 6.668V7.84l-17.252 4.944-.683-.574 17.935-5.542ZM23.281 16.54l12.776-3.511v1.173l-2.362.68-9.647 2.301-.767-.643Z"/>
    <path fill="#c2bdbd" d="m18.667 13.896 1.797-1.037 2.013 1.689-1.797 1.037-.013-.011v36.355l-2-1.587V13.896Z"/>
    <path fill="#707070" d="M22.477 14.548v36.336l-1.887 1.09.077-36.381 1.81-1.045Z"/>
    <path fill="#b5b5b5" d="m36.204 6.623 2.038 1.579-15.765 9.102v-2.747l13.727-7.934Zm0 7 2.038 1.579-15.765 9.102v-2.747l13.727-7.934Zm0 7 2.038 1.579-15.765 9.102v-2.747l13.727-7.934Z"/>
    <path fill="#707070" d="M38.242 8.202v2l-15.765 9.102v-2l15.765-9.102Zm0 7v2l-15.765 9.102v-2l15.765-9.102Zm0 7v2l-15.765 9.102v-2l15.765-9.102Z"/>
    <path fill="#131313" d="m45.56 35.179-6.457-10.802v-2.385l8.672 15.047-2.215-1.86Zm7.876 6.61L39.103 16.377v-2.385l16.413 29.542-2.08-1.745Zm7.463 6.262L39.103 8.797V6.412l23.746 43.275-1.95-1.636ZM45.844 59.505l-1.95-1.636-22.641-38.961v-2.385l24.591 42.982Zm-7.868-6.602-2.192-1.839-14.531-25.005v-2.385l16.723 29.229Zm-7.703-6.464-2.428-2.037-6.592-11.343v-2.385l9.02 15.765Z"/>
  </g>
  <g id="white">
    <path fill="#fff" d="m47.266 52.099 2.903.546-.895.506 2.37 1.943-.892.504-2.355-1.945-.904.504-.227-2.058Zm3.555-2.009 2.903.546-.895.506 2.37 1.943-.892.503-2.354-1.944-.905.504-.227-2.058Zm3.059-1.729 2.903.546-.894.506 2.369 1.943-.892.504-2.354-1.945-.904.505-.228-2.059Zm2.934-1.694 2.903.547-.895.506 2.37 1.942-.892.504-2.354-1.945-.905.505-.227-2.059Zm-12.982 7.372 2.903.547-.894.506 2.369 1.942-.892.504-2.354-1.945-.905.505-.227-2.059Z"/>
  </g>
</svg>
