<svg xmlns="http://www.w3.org/2000/svg" xml:space="preserve" fill-rule="evenodd" stroke-linejoin="round" stroke-miterlimit="2" clip-rule="evenodd" viewBox="0 0 64 64">
  <g id="grey">
    <path fill="#909090" d="m26.974 43.004 5.482 4.599-11.415 6.416-5.358-4.496 11.291-6.519Z"/>
    <path fill="#575757" d="m32.456 47.603 1.959 1.575-13.47 7.686.096-2.845 11.415-6.416Z"/>
    <path fill="#ababab" d="m21.041 54.019-.096 2.845-5.358-4.496.096-2.845 5.358 4.496Z"/>
    <path fill="#c4c4c4" fill-rule="nonzero" d="m.998 21.207 47.321 39.707 14.772-8.529V50.62l-14.61 8.435L.976 19.193l.022 2.014Z"/>
    <path fill="#929191" fill-rule="nonzero" d="m.908 19.233 47.505 39.862 14.679-8.475-47.505-39.862L.908 19.233Z"/>
    <path fill="#d4d4d4" d="m20.835 30.417 3.741 3.135-.583.337-3.73-3.141.572-.331Zm6.234 5.225 3.741 3.136-.601.347-3.73-3.142.59-.341Zm6.235 5.226 3.74 3.136-.618.357-3.73-3.141.608-.352ZM4.817 16.976l1.068.893-.583.337-1.057-.899.572-.331Zm3.562 2.983 3.74 3.136-.6.347-3.73-3.142.59-.341Zm6.235 5.226 3.74 3.135-.619.358-3.73-3.142.609-.351Zm24.918 20.921 3.741 3.135-.583.337-3.73-3.142.572-.33Zm6.234 5.225 3.741 3.136-.601.347-3.729-3.142.589-.341Zm6.235 5.226.331.275-.618.357-.321-.281.608-.351Zm-23.68-30.462 3.741 3.135-.583.337-3.73-3.141.572-.331Zm-3.506 2.024 3.741 3.135-.583.337-3.73-3.141.572-.331Zm9.74 3.202 3.741 3.135-.601.347-3.73-3.141.59-.341Zm-3.506 2.024 3.741 3.135-.601.348-3.73-3.142.59-.341Zm9.741 3.202 3.74 3.135-.619.357-3.73-3.141.609-.351Zm-3.506 2.024 3.74 3.135-.619.357-3.729-3.141.608-.351ZM12.303 12.654l1.068.893-.583.337-1.058-.899.573-.331Zm-3.506 2.024 1.068.893-.583.337-1.057-.899.572-.331Zm7.067.959 3.741 3.136-.601.347-3.73-3.142.59-.341Zm-3.506 2.024 3.741 3.136-.601.347-3.729-3.142.589-.341Zm9.741 3.202 3.74 3.135-.618.358-3.73-3.141.608-.352Zm-3.506 2.024 3.74 3.136-.618.357-3.73-3.141.608-.352Zm28.425 18.897 3.741 3.135-.583.337-3.73-3.141.572-.331Zm-3.506 2.024 3.741 3.135-.583.337-3.73-3.141.572-.331Zm9.74 3.201 3.741 3.136-.601.347-3.73-3.142.59-.341Zm-3.506 2.024 3.741 3.136-.601.347-3.73-3.142.59-.341Zm9.741 3.202.331.275-.619.357-.321-.28.609-.352Zm-3.506 2.024.331.275-.619.357-.32-.28.608-.352Z"/>
    <path fill="#c2bdbd" d="m35.575 4.046 1.664-.96 2.072 1.739-1.663.96-.045 23.396-2.021-1.68-.007-23.455Z"/>
    <path fill="#707070" d="m39.311 4.825.026 25.866-1.734-1.51.045-23.396 1.663-.96Z"/>
    <path fill="#131313" d="M19.136 15.835v1.172L2.307 22.305l-.683-.574 17.512-5.896ZM6.783 26.061l12.353-3.865v1.172L7.55 26.704l-.767-.643Zm5.679 4.765 6.674-1.628v1.172l-5.815 1.177-.859-.721ZM35.575 6.942v1.173l-17.251 4.943-.684-.573 17.935-5.543Zm-12.776 9.872 12.776-3.51v1.172l-2.362.68-9.647 2.302-.767-.644Z"/>
    <path fill="#c2bdbd" d="m19.136 13.622 1.797-1.038 2.013 1.689-1.797 1.038-.013-.011v36.355l-2-1.587V13.622Z"/>
    <path fill="#707070" d="M22.946 14.273V50.61l-1.888 1.089.078-36.381 1.81-1.045Z"/>
    <path fill="#b5b5b5" d="m35.58 7.078 2.039 1.579-14.673 8.472v-2.747L35.58 7.078Zm0 7 2.039 1.579-14.673 8.472v-2.747l12.634-7.304Zm0 7 2.039 1.579-14.673 8.472v-2.747l12.634-7.304Z"/>
    <path fill="#707070" d="M37.618 8.658v2l-14.672 8.471v-2l14.672-8.471Zm0 7v2l-14.672 8.471v-2l14.672-8.471Zm0 7v2l-14.672 8.471v-2l14.672-8.471Z"/>
    <path fill="#131313" d="m45.078 35.454-6.457-10.802v-2.386l8.673 15.047-2.216-1.859Zm7.877 6.609L38.621 16.652v-2.386l16.413 29.542-2.079-1.745Zm7.463 6.262L38.621 9.072V6.687l23.747 43.275-1.95-1.637ZM46.313 59.231l-1.95-1.636-22.641-38.961v-2.386l24.591 42.983Zm-7.869-6.603-2.191-1.839-14.531-25.005v-2.385l16.722 29.229Zm-7.702-6.463-2.428-2.038-6.592-11.343v-2.385l9.02 15.766Z"/>
  </g>
  <g id="white">
    <path fill="#fff" d="m48.178 51.122 3.278.617-1.01.571 2.676 2.194-1.008.569-2.658-2.197-1.021.57-.257-2.324Zm4.014-2.269 3.278.617-1.01.572 2.676 2.193-1.007.569-2.659-2.196-1.021.57-.257-2.325Zm3.455-1.952 3.278.617-1.01.572 2.676 2.193-1.007.569-2.659-2.196-1.021.57-.257-2.325Zm-11.346 6.412 3.278.617-1.01.571 2.675 2.193-1.007.569-2.658-2.196-1.021.57-.257-2.324Z"/>
  </g>
</svg>
