<svg xmlns="http://www.w3.org/2000/svg" xml:space="preserve" fill-rule="evenodd" stroke-linejoin="round" stroke-miterlimit="2" clip-rule="evenodd" viewBox="0 0 64 64">
  <g id="grey">
    <path fill="#909090" d="m29.282 41.661 5.482 4.6-11.415 6.415-5.358-4.496 11.291-6.519Z"/>
    <path fill="#575757" d="m34.764 46.26 1.959 1.575-13.47 7.686.096-2.845 11.415-6.416Z"/>
    <path fill="#ababab" d="m23.349 52.676-.096 2.845-5.358-4.496.096-2.845 5.358 4.496Z"/>
    <path fill="#c4c4c4" fill-rule="nonzero" d="m3.306 19.864 47.321 39.707 10.156-5.864v-1.765l-9.994 5.77L3.285 17.85l.021 2.014Z"/>
    <path fill="#929191" fill-rule="nonzero" d="m3.216 17.89 47.505 39.862 10.063-5.81L13.279 12.08 3.216 17.89Z"/>
    <path fill="#d4d4d4" d="m24.685 28.184 3.741 3.135-.583.337-3.73-3.141.572-.331Zm6.234 5.225 3.741 3.136-.601.347-3.73-3.142.59-.341Zm6.235 5.226 3.74 3.135-.618.358-3.73-3.141.608-.352ZM8.667 14.743l1.068.893-.583.337-1.057-.899.572-.331Zm3.562 2.983 3.74 3.136-.6.347-3.73-3.142.59-.341Zm6.234 5.226 3.74 3.135-.618.358-3.73-3.142.608-.351Zm24.919 20.921 3.741 3.135-.583.337-3.73-3.142.572-.33Zm6.234 5.225 3.741 3.136-.601.347-3.73-3.142.59-.341Zm6.235 5.226.331.275-.618.357-.321-.281.608-.351Z"/>
    <path fill="#c2bdbd" d="m33.231 5.389 1.664-.96 2.072 1.739-1.663.96-.045 23.396-2.021-1.68-.007-23.455Z"/>
    <path fill="#707070" d="m36.967 6.168.026 25.866-1.734-1.51.045-23.396 1.663-.96Z"/>
    <path fill="#131313" d="M21.444 14.492v1.172L4.615 20.962l-.683-.573 17.512-5.897ZM9.091 24.718l12.353-3.865v1.172L9.858 25.362l-.767-.644Zm5.68 4.766 6.673-1.629v1.173l-5.815 1.176-.858-.72Zm18.46-21.199v1.173L15.98 14.401l-.684-.574 17.935-5.542Zm-12.776 9.872 12.776-3.51v1.172L21.222 18.8l-.767-.643Z"/>
    <path fill="#c2bdbd" d="m21.444 12.279 1.797-1.038 2.013 1.689-1.797 1.038-.013-.011v36.355l-2-1.587V12.279Z"/>
    <path fill="#707070" d="M25.254 12.93v36.337l-1.888 1.09.078-36.382 1.81-1.045Z"/>
    <path fill="#b5b5b5" d="M33.255 8.421 35.293 10l-10.039 5.796v-2.747l8.001-4.628Zm0 7L35.293 17l-10.039 5.796v-2.747l8.001-4.628Zm0 7L35.293 24l-10.039 5.796v-2.747l8.001-4.628Z"/>
    <path fill="#707070" d="M35.292 10v2l-10.038 5.796v-2L35.292 10Zm0 7v2l-10.038 5.796v-2L35.292 17Zm0 7v2l-10.038 5.796v-2L35.292 24Z"/>
    <path fill="#131313" d="m42.734 36.797-6.456-10.802v-2.386l8.672 15.047-2.216-1.859Zm7.877 6.609L36.278 17.995v-2.386L52.69 45.151l-2.079-1.745Zm7.463 6.262L36.278 10.415V8.03l23.746 43.275-1.95-1.637Zm-9.453 8.22-1.95-1.636L24.03 17.291v-2.385l24.591 42.982Zm-7.869-6.603-2.191-1.839L24.03 24.442v-2.386l16.722 29.229Zm-7.702-6.463-2.428-2.037-6.592-11.343v-2.386l9.02 15.766Z"/>
  </g>
  <g id="white">
    <path fill="#fff" fill-rule="nonzero" d="m50.631 47.425.289 2.667 1.146-.654 2.985 2.519 1.131-.652-3.004-2.516 1.134-.656-3.681-.708Zm-4.353 2.514.289 2.666 1.146-.654 2.985 2.519 1.131-.652-3.004-2.516 1.134-.656-3.681-.707Z"/>
  </g>
</svg>
