<svg xmlns="http://www.w3.org/2000/svg" xml:space="preserve" fill-rule="evenodd" stroke-linejoin="round" stroke-miterlimit="2" clip-rule="evenodd" viewBox="0 0 64 64">
  <g id="grey">
    <path fill="#c4c4c4" fill-rule="nonzero" d="m.998 18.3 47.321 39.707 14.772-8.529v-1.765l-14.61 8.435L.976 16.286.998 18.3Z"/>
    <path fill="#929191" fill-rule="nonzero" d="m.908 16.326 47.505 39.862 14.679-8.475L15.587 7.851.908 16.326Z"/>
    <path fill="#d4d4d4" d="m20.835 27.51 3.741 3.135-.583.337-3.73-3.141.572-.331Zm6.234 5.225 3.741 3.136-.601.347-3.73-3.142.59-.341Zm6.235 5.226 3.74 3.136-.618.357-3.73-3.141.608-.352ZM4.817 14.069l1.068.893-.583.337-1.057-.899.572-.331Zm3.562 2.983 3.74 3.136-.6.347-3.73-3.142.59-.341Zm6.235 5.226 3.74 3.135-.619.358-3.73-3.142.609-.351Zm24.918 20.921 3.741 3.135-.583.337-3.73-3.142.572-.33Zm6.234 5.225 3.741 3.136-.601.347-3.729-3.142.589-.341Zm6.235 5.226.331.275-.618.357-.321-.281.608-.351Zm-23.68-30.462 3.741 3.135-.583.337-3.73-3.141.572-.331Zm6.234 5.226 3.741 3.135-.601.347-3.73-3.141.59-.341Zm6.235 5.226 3.74 3.135-.619.357-3.73-3.141.609-.351ZM12.303 9.747l1.068.893-.583.337-1.058-.899.573-.331Zm3.561 2.983 3.741 3.136-.601.347-3.73-3.142.59-.341Zm6.235 5.226 3.74 3.135-.618.358-3.73-3.141.608-.352Zm24.919 20.921 3.741 3.135-.583.337-3.73-3.141.572-.331Zm6.234 5.225 3.741 3.136-.601.347-3.73-3.142.59-.341ZM8.746 11.723 56.31 51.628l-.601.347L8.156 12.064l.59-.341Zm50.741 37.605.331.275-.619.357-.321-.28.609-.352Z"/>
    <path fill="#575757" d="m18.467 32.958 1.959 1.575-12.425 7.09-1.035.252.086-2.912 1.362-.355 10.053-5.65Zm26.05 21.859 1.959 1.575-12.425 7.089-1.035.252.086-2.911 1.362-.355 10.053-5.65Z"/>
    <path fill="#909090" d="M7.267 36.537c.289.128 1.005.126 1.333.013.122-.027.242-.066.357-.115.125-.053.242-.12.35-.202l7.742-4.464 1.418 1.189-9.734 5.472c-1.136.721-2.124.746-2.929-.103l-3.268-2.743c-.665-.481-.824-.876 0-1.192l3.496-2.018v2.753c-.06.351.084.721.442 1.019.232.187.503.321.793.391Zm.072-11.355-1.32-1.114.015-1.525 1.293 1.089.015 1.057-.003.493Zm25.979 33.213c.288.128 1.004.127 1.332.014.122-.028.242-.067.357-.115.124-.053.242-.121.35-.202l7.742-4.465 1.418 1.19-9.734 5.471c-1.136.722-2.124.747-2.929-.103l-3.268-2.742c-.665-.482-.824-.876 0-1.192l3.496-2.018v2.753c-.06.35.084.721.442 1.018.232.188.504.321.794.391Zm.071-11.355-1.32-1.113.015-1.525 1.316 1.106v.002l-.023-.019.015 1.061-.003.488Z"/>
    <path fill="#ababab" d="m7.052 38.963-.086 2.912-.511-.109-4.479-4.043v-2.828l.281.455 4.097 3.438.698.175Zm26.05 21.859-.086 2.911-.511-.108-4.479-4.043v-2.829l.281.456 4.097 3.438.698.175Z"/>
    <path fill="#c2bdbd" d="m7.328 23.693.022.02-.083 12.824a2.02 2.02 0 0 1-.793-.391c-.358-.298-.502-.668-.442-1.019l.001-11.047 1.306 1.102.003-.493-.014-.996Zm-1.295-1.047v-.121l.285.257-.284-.239-.001.103Zm27.345 22.906.022.02-.082 12.823a2.01 2.01 0 0 1-.794-.391c-.358-.297-.502-.668-.442-1.018l.001-11.047 1.306 1.101.003-.488-.014-1Zm-1.295-1.047v-.121l.278.251-.277-.233-.001.103Z"/>
    <path fill="#707070" d="M8.6 36.55c-.328.113-1.044.115-1.333-.013l.075-11.848.007.51.641.523.643.195L8.6 36.55Zm26.05 21.859c-.328.113-1.044.114-1.332-.014l.074-11.843.007.506.641.523.643.194-.033 10.634Z"/>
    <path fill="#525252" d="M8.957 36.435a2.035 2.035 0 0 1-.357.115l.033-10.633-.643-.195-.641-.523-.022-1.567 1.412 1.145v.019l.218.183.848.711 7.244 6.079-7.742 4.464a1.626 1.626 0 0 1-.35.202Zm26.05 21.859a2.218 2.218 0 0 1-.357.115l.033-10.634-.643-.194-.641-.523-.022-1.567 1.412 1.145v.018l.218.183.848.711 7.244 6.079-7.742 4.465a1.694 1.694 0 0 1-.35.202Z"/>
    <path fill="#444" d="M12.446 5.884 21.225.827v1.33l-6.142 3.546a15.255 15.255 0 0 0-2.637.181Zm6.587.347 8.647-4.993.315 1.127-7.449 4.301a20.203 20.203 0 0 0-1.513-.435Zm6.191 2.574 7.825-4.518.816.837-7.549 4.358a26.712 26.712 0 0 0-1.092-.677Zm6.544 5.19 7.934-4.58 1 .731-8.131 4.694a37.751 37.751 0 0 0-.803-.845Zm7.281 10.108 9.722-5.613v1.308l-9.196 5.309a63.449 63.449 0 0 0-.526-1.004ZM44.14 36.53l11.631-6.715.554 1.009-11.842 6.837a93.332 93.332 0 0 0-.343-1.131Z"/>
    <path fill="#444" d="M21.01 2.617c-1.775 1.1-3.032 3.28-3.774 6.617l-1.283-1.076c2.571-9.883 10.059-9.771 19.114-3.596l.093.003.017.072a54.212 54.212 0 0 1 4.134 3.162c11.413 9.576 20.864 22.163 23.311 39.519l-1.785-1.497a59.722 59.722 0 0 0-.609-2.58l-1.532.784-.307-.259 1.743-.891a63.914 63.914 0 0 0-4.829-12.555l-2.787 5.031.988 4.316-.47-.394-.787-3.437-1.05 1.896-.289-.243 1.216-2.194-3.404-14.871-2.909 6.447 2.048 8.06-.486-.408-1.807-7.111-1.831 4.058-.295-.247 1.98-4.386-3.798-14.946a69.66 69.66 0 0 0-.484-.461l-2.281 9.448 1.818 8.025-.468-.393-1.546-6.821-1.109 4.593-.316-.265 1.241-5.142-3.258-14.376c-.167-.121-.334-.24-.501-.357l-2.605 8.798 2.643 8.996-.512-.43-2.324-7.912-1.414 4.776-.309-.26 1.531-5.17-3.646-12.411a13.357 13.357 0 0 0-.352-.121l-4.047 6.518 2.966 8.207-.565-.474-2.649-7.332-2.086 3.359-.286-.24 2.211-3.562-2.264-6.267Zm13.388 3.302c-2.059-1.422-4.033-2.517-5.883-3.23l3.406 11.597 2.477-8.367Zm-7.031-3.627c-1.934-.592-3.689-.717-5.2-.216a5.548 5.548 0 0 0-.831.354l2.187 6.053 3.844-6.191Zm27.732 27.632a68.893 68.893 0 0 0-6.019-9.589l3.312 14.475 2.707-4.886Zm-6.443-10.148a69.197 69.197 0 0 0-6.527-7.393l3.535 13.912 2.945-6.524.047.005Zm-7.829-8.636a64.311 64.311 0 0 0-2.48-2.192 57.27 57.27 0 0 0-2.673-2.115l2.999 13.232 2.154-8.925Z"/>
    <path fill="#444" d="M4.744 12.544c-1.059 1.629-1.841 3.623-2.274 5.97l-.084 1.009-1.41-1.171.02-.092H.991c1.027-5.59 3.891-9.337 7.695-11.199 5.64-2.76 13.45-1.367 20.576 4.612 11.525 9.671 16.629 27.003 19.106 44.539l.004-.001-.001.023.002.013-.003.001-.092 1.783-1.381-1.152-.018-.479a163.61 163.61 0 0 0-.903-5.686l-3.543 1.812-.267-.141-1.403-10.514-3.789 5.702-.336-.071-2.416-14.001-4.548 8.209-.345-.063-2.042-14.101-3.081 9.253-.18-.059-.177.036-3.166-15.54-3.788 9.809-.353-.023-4.013-16.348-5.703 7.981-.151-.108-.182.032-1.749-10.035Zm41.164 37.789c-.738-4.101-1.647-8.142-2.782-12.019l-2.053 3.09 1.425 10.673 3.41-1.744ZM42.99 37.851c-1.042-3.493-2.27-6.849-3.724-9.992l1.733 12.988 1.991-2.996Zm-4.821-12.237c-1.848-3.58-4.025-6.838-6.597-9.648l2.836 16.436 3.761-6.788Zm-7.201-10.292a34.03 34.03 0 0 0-2.67-2.499 29.007 29.007 0 0 0-3.098-2.277l2.23 15.401 3.538-10.625Zm-6.403-5.167c-2.11-1.258-4.232-2.114-6.286-2.57l2.514 12.338 3.772-9.768Zm-7.287-2.763c-2.15-.345-4.209-.244-6.082.302l1.5 6.11 4.582-6.412Zm-6.436.411c-.514.168-1.014.37-1.496.606-1.677.821-3.139 2.057-4.303 3.695l1.738 9.976 5.631-7.879-1.57-6.398Zm6.84-.34-4.87 6.814 3.949 16.086 3.785-9.8-2.661-13.062-.203-.038Zm20.69 18.548-3.864 6.973 2.415 13.997 3.765-5.666-1.941-14.549a75.785 75.785 0 0 0-.375-.755Zm-4.25 6.907-2.943-17.057-3.631 10.902 2.068 14.287 4.506-8.132Zm-6.953-6.189-2.347-16.212-3.892 10.079 3.143 15.429 3.096-9.296Z"/>
  </g>
  <g id="white">
    <path fill="#fff" d="m52.192 45.946 3.278.617-1.01.572 2.676 2.193-1.007.569-2.659-2.196-1.021.57-.257-2.325Zm3.455-1.952 3.278.617-1.01.572 2.676 2.193-1.007.569-2.659-2.196-1.021.57-.257-2.325Zm-3.048 7.905-3.278-.617 1.01-.571-2.675-2.193 1.007-.569 2.658 2.196 1.021-.57.257 2.324Zm-4.838.288.329-.211.375-.21.257 2.324-.661-.09-.3-1.813Zm-3.441-1.035-.542-.444 1.008-.569.591.48-1.057.533Zm1.374-.275.366.298.261 1.618-1.674-1.372 1.047-.544Zm.636 1.975.131.812-1.017-.191.899-.508-.013-.113Z"/>
  </g>
</svg>
