<?xml version="1.0" encoding="UTF-8" standalone="no"?><!DOCTYPE svg PUBLIC "-//W3C//DTD SVG 1.1//EN" "http://www.w3.org/Graphics/SVG/1.1/DTD/svg11.dtd"><svg width="100%" height="100%" viewBox="0 0 64 64" version="1.1" xmlns="http://www.w3.org/2000/svg" xmlns:xlink="http://www.w3.org/1999/xlink" xml:space="preserve" xmlns:serif="http://www.serif.com/" style="fill-rule:evenodd;clip-rule:evenodd;"><g id="blue"><path d="M32.396,9.346C33.081,9.346 33.348,9.807 33.824,10.283L35.251,11.711L36.679,13.138L38.106,14.566L43.816,20.276L49.526,25.987L50.954,27.414L52.381,28.842L53.809,30.269C54.285,30.745 54.504,31.024 54.504,31.697C54.504,32.392 54.253,32.68 53.761,33.172L50.811,36.123L49.335,37.598L37.533,49.4L34.583,52.351L33.107,53.826C32.616,54.318 32.328,54.654 31.632,54.654C30.959,54.654 30.68,54.349 30.205,53.874L27.349,51.019L25.922,49.591L20.211,43.881L14.501,38.171L10.218,33.889C9.742,33.413 9.494,33.134 9.494,32.461C9.494,31.766 9.774,31.478 10.266,30.986L30.921,10.331C31.413,9.839 31.712,9.346 32.396,9.346Z" style="fill:#4a6168;"/></g><g id="violet"><path d="M32.488,6.15C31.71,6.15 31.368,6.78 30.808,7.341L29.127,9.021L19.042,19.106L12.318,25.829L7.276,30.871C6.716,31.431 6.298,31.759 6.298,32.552C6.298,33.316 6.676,33.633 7.217,34.173L12.081,39.038L18.568,45.524L26.676,53.632L28.297,55.254L29.919,56.875C30.459,57.416 30.776,57.85 31.54,57.85C32.333,57.85 32.661,57.376 33.221,56.816L34.902,55.135L36.583,53.455L55.072,34.966L56.753,33.286C57.313,32.726 57.702,32.397 57.702,31.605C57.702,30.841 57.353,30.524 56.812,29.983L55.19,28.362L53.569,26.74L38.975,12.146L37.353,10.525L34.11,7.281C33.569,6.741 33.267,6.15 32.488,6.15ZM32.396,9.346C33.081,9.346 33.348,9.807 33.824,10.283L35.251,11.711L36.679,13.138L38.106,14.566L43.816,20.276L49.526,25.987L50.954,27.414L52.381,28.842L53.809,30.269C54.285,30.745 54.504,31.024 54.504,31.697C54.504,32.392 54.253,32.68 53.761,33.172L50.811,36.123L49.335,37.598L37.533,49.4L34.583,52.351L33.107,53.826C32.616,54.318 32.328,54.654 31.632,54.654C30.959,54.654 30.68,54.349 30.205,53.874L27.349,51.019L25.922,49.591L20.211,43.881L14.501,38.171L10.218,33.889C9.742,33.413 9.494,33.134 9.494,32.461C9.494,31.766 9.774,31.478 10.266,30.986L30.921,10.331C31.413,9.839 31.712,9.346 32.396,9.346Z" style="fill:#3c9442;fill-rule:nonzero;stroke:#324565;stroke-width:0.2px;"/></g><g id="white"><path d="M28.523,40.399L27.498,43.91L23.647,43.91L26.087,39.624C25.113,39.124 24.536,38.384 24.536,37.205L24.536,23.894C24.536,22.329 25.738,21.041 27.201,21.041L29.189,21.041C29.5,20.457 30.111,20.091 30.772,20.091L33.405,20.091C34.068,20.091 34.678,20.457 34.989,21.041L36.977,21.041C38.439,21.041 39.642,22.329 39.642,23.894L39.642,37.205C39.642,38.171 38.639,39.025 37.863,39.541C37.375,39.866 37.376,39.866 37.863,39.541L40.353,43.91L36.502,43.91L35.496,40.461C34.418,40.703 33.319,40.836 32.215,40.858C30.972,40.823 29.736,40.669 28.523,40.399ZM32.089,21.041C31.353,21.041 30.756,21.68 30.756,22.467C30.756,23.256 31.353,23.894 32.089,23.894C32.825,23.894 33.422,23.256 33.422,22.467C33.422,21.68 32.825,21.041 32.089,21.041ZM37.754,35.591C37.642,35.235 37.31,34.992 36.937,34.992C36.835,34.992 36.733,35.01 36.637,35.046L34.959,35.664C34.496,35.842 34.246,36.355 34.392,36.829L34.421,36.918C34.533,37.274 34.865,37.517 35.237,37.517C35.34,37.517 35.442,37.499 35.538,37.463L37.216,36.844C37.68,36.673 37.934,36.151 37.782,35.68L37.754,35.591ZM29.803,36.763C29.932,36.285 29.665,35.783 29.197,35.621L27.503,35.068C27.416,35.039 27.324,35.024 27.232,35.024C26.848,35.024 26.508,35.282 26.403,35.652L26.377,35.745C26.249,36.223 26.515,36.724 26.983,36.887L28.677,37.44C28.765,37.469 28.856,37.484 28.949,37.484C29.333,37.484 29.673,37.226 29.776,36.856L29.803,36.763ZM27.201,24.844C26.224,24.844 25.424,26.06 25.424,27.559L25.424,30.275C25.424,31.776 26.058,32.085 27.201,32.99C27.201,32.99 29.761,35.201 32.204,35.201C34.648,35.201 36.977,32.99 36.977,32.99C37.936,32.224 38.754,31.774 38.754,30.275L38.754,27.559C38.754,26.06 37.954,24.844 36.977,24.844L27.201,24.844Z" style="fill:#fefffe;"/></g></svg>