<?xml version="1.0" encoding="UTF-8" standalone="no"?><!DOCTYPE svg PUBLIC "-//W3C//DTD SVG 1.1//EN" "http://www.w3.org/Graphics/SVG/1.1/DTD/svg11.dtd"><svg width="100%" height="100%" viewBox="0 0 64 64" version="1.1" xmlns="http://www.w3.org/2000/svg" xmlns:xlink="http://www.w3.org/1999/xlink" xml:space="preserve" xmlns:serif="http://www.serif.com/" style="fill-rule:evenodd;clip-rule:evenodd;stroke-linejoin:round;stroke-miterlimit:2;"><g id="grey"><path d="M32.045,11.016C31.951,12.243 32.371,13.44 33.301,14.249C34.746,15.505 36.951,15.411 38.574,14.141L58.331,23.598C59.638,24.997 59.693,27.223 58.459,28.798L58.404,28.869L38.844,55.018C37.566,56.364 35.451,56.56 34.072,55.369C34.032,55.334 33.993,55.298 33.955,55.262C33.682,55.002 33.374,54.781 33.039,54.606L32.381,54.264C32.675,52.846 32.281,51.391 31.206,50.456C29.684,49.133 27.319,49.308 25.679,50.777L5.689,40.377C4.344,38.981 4.276,36.726 5.522,35.137L5.531,35.126L24.017,11.368C24.823,10.442 26.12,9.81 27.43,9.562C28.43,9.372 29.496,9.33 30.218,9.97C30.497,10.218 30.809,10.425 31.146,10.586L32.045,11.016Z" style="fill:#707070;"/></g><g id="black"><path d="M28.874,20.49L27.234,20.49L27.234,18.02L37.899,18.02L37.899,20.49L36.257,20.49L36.257,22.136L33.796,22.136L33.796,20.49L31.335,20.49L31.335,22.136L28.874,22.136L28.874,20.49ZM38.914,41.896L41.798,45.994L37.437,45.994L35.961,41.896L38.914,41.896ZM25.759,41.896L28.714,41.896L27.238,45.994L22.876,45.994L25.759,41.896Z" style="fill:#010001;"/></g><g id="violet"><path d="M24.032,54.43L3.369,43.679C0.158,40.95 -0.285,36.061 2.374,32.669L20.914,8.842C23.602,5.643 29.631,4.101 32.873,6.978L33.996,7.516C35.612,6.292 37.779,6.216 39.206,7.456C40.117,8.248 40.539,9.413 40.468,10.613L60.612,20.256C63.823,22.985 64.265,27.874 61.607,31.265L41.933,57.566C39.215,60.649 34.499,61.023 31.457,58.396C31.367,58.318 31.279,58.237 31.192,58.155L29.994,57.532C28.455,58.415 26.58,58.361 25.301,57.249C24.476,56.532 24.052,55.508 24.032,54.43ZM32.045,11.016L31.146,10.586C30.809,10.425 30.497,10.218 30.218,9.97C29.496,9.33 28.43,9.372 27.43,9.562C26.12,9.81 24.823,10.442 24.017,11.368L5.531,35.126L5.522,35.137C4.276,36.726 4.344,38.981 5.689,40.377L25.679,50.777C27.319,49.308 29.684,49.133 31.206,50.456C32.281,51.391 32.675,52.846 32.381,54.264L33.039,54.606C33.373,54.781 33.682,55.001 33.955,55.262C33.993,55.298 34.032,55.334 34.072,55.369C35.451,56.56 37.566,56.364 38.844,55.018L58.404,28.869L58.459,28.798C59.693,27.223 59.638,24.997 58.331,23.598L38.574,14.141C36.951,15.411 34.746,15.505 33.301,14.249C32.371,13.44 31.951,12.243 32.045,11.016Z" style="fill:#d942fc;"/><path d="M25.593,22.137L39.539,22.137C40.889,22.146 41.996,23.257 42,24.607L42,41.073C42,41.525 41.63,41.896 41.18,41.896L23.952,41.896C23.502,41.893 23.133,41.523 23.132,41.073L23.132,24.607C23.136,23.257 24.243,22.146 25.593,22.137ZM40.359,28.253C40.359,27.156 39.456,26.253 38.359,26.253L26.513,26.253C25.416,26.253 24.513,27.156 24.513,28.253L24.513,32.486C24.513,33.583 25.416,34.486 26.513,34.486L38.359,34.486C39.456,34.486 40.359,33.583 40.359,32.486L40.359,28.253ZM26.16,35.994L26.119,35.996C25.248,36.063 24.58,36.822 24.623,37.694C24.708,38.584 25.503,39.249 26.391,39.172L26.431,39.169C27.302,39.103 27.97,38.344 27.927,37.472C27.84,36.586 27.048,35.923 26.16,35.994ZM38.742,35.994L38.701,35.996C37.83,36.063 37.162,36.822 37.205,37.694C37.29,38.584 38.085,39.249 38.973,39.172L39.013,39.169C39.884,39.103 40.552,38.344 40.509,37.472C40.422,36.586 39.63,35.923 38.742,35.994Z" style="fill:#7909ab;"/></g><g id="blue"><path d="M26.16,35.994C27.048,35.923 27.84,36.586 27.927,37.472C27.97,38.344 27.302,39.103 26.431,39.169L26.391,39.172C25.503,39.243 24.71,38.581 24.623,37.694C24.58,36.822 25.248,36.063 26.119,35.996L26.16,35.994ZM38.742,35.994C39.63,35.923 40.422,36.586 40.509,37.472C40.552,38.344 39.884,39.103 39.013,39.169L38.973,39.172C38.085,39.243 37.292,38.581 37.205,37.694C37.162,36.822 37.83,36.063 38.701,35.996L38.742,35.994ZM40.359,28.253L40.359,32.486C40.359,33.583 39.456,34.486 38.359,34.486L26.513,34.486C25.416,34.486 24.513,33.583 24.513,32.486L24.513,28.253C24.513,27.156 25.416,26.253 26.513,26.253L38.359,26.253C39.456,26.253 40.359,27.156 40.359,28.253Z" style="fill:#d1f8fd;"/></g></svg>