<?xml version="1.0" encoding="UTF-8" standalone="no"?><!DOCTYPE svg PUBLIC "-//W3C//DTD SVG 1.1//EN" "http://www.w3.org/Graphics/SVG/1.1/DTD/svg11.dtd"><svg width="100%" height="100%" viewBox="0 0 64 64" version="1.1" xmlns="http://www.w3.org/2000/svg" xmlns:xlink="http://www.w3.org/1999/xlink" xml:space="preserve" xmlns:serif="http://www.serif.com/" style="fill-rule:evenodd;clip-rule:evenodd;"><g id="blue"><path d="M32.396,9.346C33.081,9.346 33.348,9.807 33.824,10.283L35.251,11.711L36.679,13.138L38.106,14.566L43.816,20.276L49.526,25.987L50.954,27.414L52.381,28.842L53.809,30.269C54.285,30.745 54.504,31.024 54.504,31.697C54.504,32.392 54.253,32.68 53.761,33.172L50.811,36.123L49.335,37.598L37.533,49.4L34.583,52.351L33.107,53.826C32.616,54.318 32.328,54.654 31.632,54.654C30.959,54.654 30.68,54.349 30.205,53.874L27.349,51.019L25.922,49.591L20.211,43.881L14.501,38.171L10.218,33.889C9.742,33.413 9.494,33.134 9.494,32.461C9.494,31.766 9.774,31.478 10.266,30.986L30.921,10.331C31.413,9.839 31.712,9.346 32.396,9.346Z" style="fill:#4a6168;"/></g><g id="violet"><path d="M32.488,6.15C31.71,6.15 31.368,6.78 30.808,7.341L29.127,9.021L19.042,19.106L12.318,25.829L7.276,30.871C6.716,31.431 6.298,31.759 6.298,32.552C6.298,33.316 6.676,33.633 7.217,34.173L12.081,39.038L18.568,45.524L26.676,53.632L28.297,55.254L29.919,56.875C30.459,57.416 30.776,57.85 31.54,57.85C32.333,57.85 32.661,57.376 33.221,56.816L34.902,55.135L36.583,53.455L55.072,34.966L56.753,33.286C57.313,32.726 57.702,32.397 57.702,31.605C57.702,30.841 57.353,30.524 56.812,29.983L55.19,28.362L53.569,26.74L38.975,12.146L37.353,10.525L34.11,7.281C33.569,6.741 33.267,6.15 32.488,6.15ZM32.396,9.346C33.081,9.346 33.348,9.807 33.824,10.283L35.251,11.711L36.679,13.138L38.106,14.566L43.816,20.276L49.526,25.987L50.954,27.414L52.381,28.842L53.809,30.269C54.285,30.745 54.504,31.024 54.504,31.697C54.504,32.392 54.253,32.68 53.761,33.172L50.811,36.123L49.335,37.598L37.533,49.4L34.583,52.351L33.107,53.826C32.616,54.318 32.328,54.654 31.632,54.654C30.959,54.654 30.68,54.349 30.205,53.874L27.349,51.019L25.922,49.591L20.211,43.881L14.501,38.171L10.218,33.889C9.742,33.413 9.494,33.134 9.494,32.461C9.494,31.766 9.774,31.478 10.266,30.986L30.921,10.331C31.413,9.839 31.712,9.346 32.396,9.346Z" style="fill:#c54bff;fill-rule:nonzero;stroke:#324565;stroke-width:0.2px;"/></g><g id="white"><path d="M28.829,40.42L27.572,43.909L23.858,43.909L26.313,40.42L24.774,40.42C24.392,40.416 24.079,40.102 24.076,39.719L24.076,25.699C24.085,24.552 25.024,23.609 26.171,23.596L38.047,23.596C39.194,23.609 40.133,24.552 40.142,25.699L40.142,39.719C40.142,40.105 39.826,40.42 39.444,40.42L37.514,40.42L39.97,43.91L36.256,43.91L35,40.42L28.829,40.42ZM38.744,28.804C38.74,27.871 37.974,27.105 37.041,27.101L26.955,27.101C26.023,27.105 25.257,27.871 25.252,28.804L25.252,32.408C25.257,33.34 26.023,34.106 26.955,34.111L37.041,34.111C37.974,34.106 38.74,33.34 38.744,32.408L38.744,28.804ZM26.655,35.395L26.62,35.397C25.88,35.457 25.313,36.101 25.346,36.842C25.42,37.597 26.095,38.162 26.851,38.101L26.885,38.099C27.625,38.039 28.192,37.395 28.159,36.653C28.082,35.9 27.41,35.338 26.655,35.395ZM37.368,35.395L37.332,35.397C36.593,35.457 36.026,36.101 36.059,36.842C36.133,37.598 36.808,38.162 37.565,38.101L37.598,38.099C38.338,38.039 38.906,37.395 38.872,36.653C38.795,35.9 38.122,35.338 37.368,35.395ZM28.965,22.194L27.569,22.194L27.569,20.09L36.65,20.09L36.65,22.194L35.251,22.194L35.251,23.595L33.156,23.595L33.156,22.194L31.061,22.194L31.061,23.595L28.965,23.595L28.965,22.194Z" style="fill:#fefffe;"/></g></svg>