<svg xmlns="http://www.w3.org/2000/svg" xml:space="preserve" fill-rule="evenodd" stroke-linejoin="round" stroke-miterlimit="2" clip-rule="evenodd" viewBox="0 0 64 64">
  <g id="grey">
    <path fill="#444" fill-rule="nonzero" d="m3.409 29.865 28.964 24.304 28.243-16.307.007-3.493-6.578 3.782v.917L32.611 51.443 3.377 26.913l.032 2.952Z"/>
    <path fill="#c2bdbd" d="M54.045 38.155v.908L24.811 14.532v-.907l29.234 24.53Z"/>
    <path fill="#929191" fill-rule="nonzero" d="m3.377 26.913 29.234 24.53 21.434-12.375-29.234-24.53L3.377 26.913Z"/>
    <path fill="#d4d4d4" fill-rule="nonzero" d="m13.453 21.155 29.135 24.528.956-.552-29.21-24.484-.881.508Z"/>
    <path fill="#929191" d="m30.139 27.05 1.827 1.533-9.651 5.572-1.827-1.533 9.651-5.572Zm-10.963-9.199 1.827 1.533-9.651 5.572-1.827-1.533 9.651-5.572Zm16.423 13.781 1.827 1.533-9.651 5.572-1.827-1.534 9.651-5.571ZM41 36.164l1.827 1.533-9.651 5.572-1.827-1.533L41 36.164Zm5.583 4.684 1.827 1.533-9.651 5.572-1.827-1.533 9.651-5.572ZM24.657 22.451l1.827 1.533-9.65 5.572-1.827-1.534 9.65-5.571Z"/>
  </g>
  <g id="green">
    <path fill="#379442" d="m31.381 9.831 29.242 24.538-6.57 3.793-29.242-24.537 6.57-3.794Z"/>
    <path fill="#006117" d="M39.43 18.379c1.132.278 1.928.932 1.928 1.693 0 1.013-1.41 1.836-3.145 1.836-1.736 0-3.145-.823-3.145-1.836 0-.826.937-1.526 2.224-1.756l-.078 1.31c.338.256.741.41 1.164.446a2.367 2.367 0 0 0 1.186-.446l-.134-1.247Zm11.42 9.583c1.132.278 1.928.932 1.928 1.693 0 1.013-1.409 1.836-3.145 1.836s-3.145-.823-3.145-1.836c0-.826.937-1.526 2.225-1.756l-.079 1.31c.338.256.742.41 1.164.446a2.36 2.36 0 0 0 1.186-.446l-.134-1.247Z"/>
    <path fill="#54b60b" d="M43.24 8.916c.711.468 1.188 1.317 1.188 2.286 0 1.275-.825 2.342-1.925 2.606-.386 2.13-2.059 3.734-4.061 3.734-1.622 0-3.028-1.052-3.709-2.583-1.337-.626-2.279-2.118-2.279-3.857 0-.1.003-.2.009-.298.111 1.602 1.214 2.92 2.673 3.294a3.902 3.902 0 0 0 2.988 1.136c.077.005.155.007.233.007 1.885 0 3.482-1.362 3.839-3.157.943-.279 1.618-1.017 1.618-1.882 0-.489-.216-.938-.574-1.286Zm11.42 9.583c.712.468 1.188 1.317 1.188 2.286 0 1.275-.824 2.342-1.925 2.606-.385 2.13-2.058 3.734-4.061 3.734-1.622 0-3.028-1.052-3.708-2.583-1.338-.626-2.28-2.118-2.28-3.857 0-.1.003-.2.009-.299.112 1.603 1.215 2.921 2.674 3.295a3.902 3.902 0 0 0 2.987 1.136c.078.005.156.007.233.007 1.885 0 3.483-1.362 3.839-3.157.944-.279 1.618-1.017 1.618-1.882 0-.489-.216-.938-.574-1.286Z"/>
    <path fill="#79dd2c" d="M35.136 14.098c-1.539-.395-2.682-1.841-2.682-3.563 0-1.309.66-2.458 1.653-3.108.471-1.85 2.303-3.231 4.488-3.231 2.541 0 4.605 1.869 4.605 4.171 0 .164-.011.325-.031.484.4.356.645.83.645 1.351 0 .865-.675 1.603-1.618 1.882-.357 1.795-1.954 3.157-3.839 3.157-.078 0-.156-.002-.233-.007a3.902 3.902 0 0 1-2.988-1.136Zm11.421 9.583c-1.54-.395-2.683-1.841-2.683-3.563 0-1.309.661-2.458 1.654-3.108.471-1.85 2.302-3.231 4.487-3.231 2.542 0 4.605 1.869 4.605 4.171 0 .164-.01.325-.031.484.401.356.645.83.645 1.351 0 .865-.674 1.603-1.618 1.882-.356 1.795-1.954 3.157-3.839 3.157-.077 0-.155-.002-.233-.007a3.902 3.902 0 0 1-2.987-1.136Z"/>
  </g>
  <g id="brown">
    <path fill="#976c4f" d="m39.329 17.435.235 2.191a2.367 2.367 0 0 1-1.186.446 2.24 2.24 0 0 1-1.164-.446l.134-2.248a3.72 3.72 0 0 0 1.981.057Zm11.42 9.583.235 2.191a2.36 2.36 0 0 1-1.186.446 2.244 2.244 0 0 1-1.164-.446l.135-2.248a3.713 3.713 0 0 0 1.98.057Z"/>
  </g>
</svg>
