<svg xmlns="http://www.w3.org/2000/svg" xml:space="preserve" fill-rule="evenodd" stroke-linejoin="round" stroke-miterlimit="2" clip-rule="evenodd" viewBox="0 0 64 64">
  <g id="grey">
    <path fill="#909090" d="m3.229 26.522 4.453-2.571.005 2.486 2.918 2.449v.074l.077-.045 8.566-4.945 1.754 1.471-11.415 6.416-6.358-5.335Z"/>
    <path fill="#575757" d="m21.002 25.441 1.959 1.575-13.47 7.686.096-2.845 11.415-6.416Z"/>
    <path fill="#ababab" d="m9.491 34.702-6.358-5.334.096-2.846 6.358 5.335-.096 2.845Z"/>
    <path fill="#c2bdbd" d="m7.687 26.437-.005-11.043.797-.46 3.013 2.528-.797.46-.013-.011v.018l-.077 10.923-2.918-2.415Z"/>
    <path fill="#707070" d="m10.682 17.929.013-.007.797-.46 7.756 6.508-8.566 4.945-.077.045v-.074l.077-10.957Z"/>
    <path fill="#2e2e2e" d="M38.855 44.776c-2.685-3.144-6.616-7.507-10.077-10.411-6.89-5.782-13.023-9.191-14.496-8.1 0-1.181 1.083-1.363 2.91-.706V22.6l.5.419v2.643l2.024-.944.423.354-1.935.902c.915.416 1.962.988 3.114 1.705v-1.617l.5.419v1.514l.011.007 1.158-.54.422.355-1.086.506a59.461 59.461 0 0 1 2.674 1.877v-1.051l.5.419v.93l.712-.332.422.354-.747.349a82.77 82.77 0 0 1 2.702 2.163v-.872l.5.42v.874a54.59 54.59 0 0 1 2.351 2.15l-.806-1.728.906.761.673 1.442v-.878l.5.42v1.243c.925.936 1.839 1.903 2.712 2.855l-1.396-2.994.907.761 1.17 2.51v-1.528l.5.42v2.136c.812.909 1.572 1.784 2.252 2.58v1.172Zm0-1.732-1.737-3.724.906.761.83 1.779.001 1.184Zm-21.86-20.61-2.618 1.221-.211-.453 2.401-1.12c-1.076-.365-1.868-.417-2.285-.108 0-.639.317-.985.896-1.064l1.817 1.524Z"/>
    <path fill="#909090" d="m34.401 52.679 4.453-2.571.005 2.486 3.143 2.548-.001.075.078-.044 8.635-4.888-.127-.107 7.991-4.622 1.755 1.472-19.349 11.086-6.583-5.435Z"/>
    <path fill="#575757" d="m60.333 47.028-.02 2.424-19.425 11.507.096-2.845 19.349-11.086Z"/>
    <path fill="#ababab" d="m40.888 60.959-6.583-5.435.096-2.845 6.583 5.435-.096 2.845Z"/>
    <path fill="#c2bdbd" d="m38.859 52.594-.005-11.043.797-.461 3.238 2.628-.797.461-.013-.011v.018l-.077 10.923-3.143-2.515Z"/>
    <path fill="#707070" d="m42.002 55.142.077-10.956.013-.007.797-.461 3.567 2.994 4.258 3.573-8.635 4.888-.078.044.001-.075Z"/>
    <path fill="#444" d="M14.511 23.298c1.058.435 2.325 1.111 3.748 2.003V23.5l.5.451v1.668c1.997 1.289 4.274 2.977 6.693 4.999v-1.083l.5.415v1.026l.051.108c2.294 1.978 4.762 4.54 6.919 6.929v-2.214l.5.419v2.352a158.211 158.211 0 0 1 3.635 4.221v-3.522l.5.419v3.707a108.05 108.05 0 0 1 1.341 1.655v1.172s-.498-.632-1.341-1.655v3.119a108.05 108.05 0 0 1 1.341 1.655v1.171s-7.346-9.315-13.301-14.311c-6.179-5.185-11.748-8.462-13.895-8.296v-.796c.497-.186 1.286-.081 2.309.287v-3.217l-2.309 1.077v-.551l1.685-.786c-.684-.232-1.254-.338-1.685-.305v-.796c.497-.186 1.286-.081 2.309.287V19.93l.5.42v2.948Zm3.616 3.066-3.105 1.447c.915.415 1.963.988 3.116 1.705v-3.145l-.011-.007Zm10.903 8.717a64.022 64.022 0 0 0-2.37-2.247l2.37 5.082v-2.835Zm7.222 11.04-2.83-6.069v2.809a155.647 155.647 0 0 1 2.83 3.26Zm-11.51-14.918a82.27 82.27 0 0 0-2.425-1.912v3.043l2.425-1.131Zm-5.6-1.043a58.719 58.719 0 0 1 2.675 1.878v-3.123l-.002-.001-2.673 1.246Zm6.263 4.709V31.75l-.235-.195-2.467 1.151a82.77 82.77 0 0 1 2.702 2.163Zm2.852 2.574-2.352-5.045v2.893c.77.66 1.56 1.387 2.352 2.152Zm4.665 1.742a116.442 116.442 0 0 0-2.475-2.661l2.475 5.308v-2.647ZM14.511 24.366v3.132l3.109-1.45c-1.149-.706-2.197-1.273-3.109-1.682Zm6.846 4.21a59.769 59.769 0 0 0-2.719-1.884v3.14l.01.007 2.709-1.263Zm10.885 12.98L29.53 35.74v2.962c.925.935 1.838 1.902 2.712 2.854Zm4.815 2.407a164.73 164.73 0 0 0-2.775-3.25l2.775 5.951v-2.701Z"/>
    <path fill="#c4c4c4" d="m3.39 11.018 47.321 39.708 10.156-5.864v-1.765l-9.994 5.77L3.368 9.005l.022 2.013Z"/>
    <path fill="#929191" d="m3.3 9.045 47.505 39.861 10.062-5.809L13.363 3.235 3.3 9.045Z"/>
    <path fill="#d4d4d4" d="m8.755 5.895 47.507 39.861-.601.347L8.165 6.236l.59-.341Z"/>
  </g>
  <g id="white" fill="#fff">
    <path d="m50.715 38.58.289 2.667 1.146-.654 2.985 2.519 1.131-.653-3.004-2.516 1.134-.655-3.681-.708Zm.617 6.728-.288-2.667-1.147.654-2.985-2.519-1.131.652 3.005 2.516-1.135.656 3.681.708Z"/>
  </g>
</svg>
