<svg xmlns="http://www.w3.org/2000/svg" xml:space="preserve" fill-rule="evenodd" stroke-linejoin="round" stroke-miterlimit="2" clip-rule="evenodd" viewBox="0 0 64 64">
  <g id="grey">
    <path fill="#444" fill-rule="nonzero" d="M3.409 30.696 32.373 55l27.958-16.142.021-2.6-27.741 16.016-29.234-24.53.032 2.952Z"/>
    <path fill="#929191" fill-rule="nonzero" d="m3.377 27.744 29.234 24.53 25.993-15.007-29.123-24.594L3.377 27.744Z"/>
    <path fill="#d4d4d4" d="m30.817 30.077 3.635 3.048-.923.532-3.626-3.052.914-.528Zm5.464 4.58 3.576 2.998-.937.541-3.567-3.003.928-.536Zm5.404 4.53 3.758 3.15-.951.549-3.748-3.155.941-.544Z"/>
    <path fill="#b5b5b5" d="M58.5 37.331 44.419 25.679l7.446-4.31L58.5 37.331ZM3.377 17.144 32.074.399 54.26 19.003 25.351 35.614 3.377 17.144Z"/>
    <path fill="#d4d4d4" d="M32.57 52.239 3.377 27.804v-10.66l21.974 18.47 7.219 16.625Z"/>
    <path fill="#c9c9c9" d="m32.57 52.239-7.221-15.54.033-1.103L54.26 19.003l-.201 1.034 6.293 16.221-1.852 1.073-6.636-15.968-24.82 14.39 7.397 15.376-1.871 1.11Z"/>
  </g>
</svg>
