<svg xmlns="http://www.w3.org/2000/svg" xml:space="preserve" fill-rule="evenodd" stroke-linejoin="round" stroke-miterlimit="2" clip-rule="evenodd" viewBox="0 0 64 64">
  <g id="grey">
    <path fill="#444" fill-rule="nonzero" d="m3.409 29.865 28.964 24.304 28.243-16.307.007-3.493-10.118 5.825v.917L32.611 51.443 3.377 26.913l.032 2.952Z"/>
    <path fill="#c2bdbd" d="M50.505 40.199v.907l-29.234-24.53v-.907l29.234 24.53Z"/>
    <path fill="#929191" fill-rule="nonzero" d="m3.377 26.913 29.234 24.53 17.894-10.332-29.234-24.53L3.377 26.913Z"/>
    <path fill="#d4d4d4" fill-rule="nonzero" d="m13.453 21.155 29.135 24.528.956-.552-29.21-24.484-.881.508Z"/>
    <path fill="#929191" d="m30.139 27.05 1.827 1.533-9.651 5.572-1.827-1.533 9.651-5.572Zm-10.963-9.199 1.827 1.533-9.651 5.572-1.827-1.533 9.651-5.572Zm16.423 13.781 1.827 1.533-9.651 5.572-1.827-1.534 9.651-5.571ZM41 36.164l1.827 1.533-9.651 5.572-1.827-1.533L41 36.164Zm5.583 4.684 1.827 1.533-9.651 5.572-1.827-1.533 9.651-5.572ZM24.657 22.451l1.827 1.533-9.65 5.572-1.827-1.534 9.65-5.571Z"/>
    <path fill="#bdbdbd" d="m31.381 9.831 29.242 24.538-10.11 5.837-29.242-24.537 10.11-5.838Z"/>
  </g>
</svg>
