<svg xmlns="http://www.w3.org/2000/svg" xml:space="preserve" fill-rule="evenodd" stroke-linejoin="round" stroke-miterlimit="2" clip-rule="evenodd" viewBox="0 0 64 64">
  <g id="grey">
    <path fill="#909090" d="m41.387 57.599 16.576-9.586 1.754 1.472-19.348 11.086-5.358-4.496 4.453-2.571.005 2.486 1.918 1.609ZM9.722 31.03l8.643-4.916 1.754 1.472-11.415 6.415-5.358-4.496 4.453-2.571.005 2.486 1.918 1.61Z"/>
    <path fill="#575757" d="m59.718 49.484-.02 2.425-19.425 11.507.096-2.845 19.349-11.087ZM20.119 27.585l1.959 1.575-13.47 7.686.096-2.845 11.415-6.416Z"/>
    <path fill="#ababab" d="m40.369 60.571-.096 2.845-5.358-4.496.096-2.845 5.358 4.496ZM8.704 34.001l-.096 2.845-5.358-4.495.096-2.846 5.358 4.496Z"/>
    <path fill="#444" fill-rule="nonzero" d="m6.996 16.573 43.597 36.583 8.678-5.01v-1.765l-8.516 4.916L8.061 15.472l-1.065 1.101Z"/>
    <path fill="#929191" fill-rule="nonzero" d="m52.498 44.509.054 5.751 6.683-3.858.016-2.132-2.566-2.155-4.187 2.394Z"/>
    <path fill="#d4d4d4" d="m49.582 42.683 3.741 3.136-.601.347-3.73-3.142.59-.341Zm6.235 5.226.331.275-.619.357-.32-.281.608-.351Z"/>
    <path fill="#c2bdbd" d="m39.464 44.947.797-.461 2.013 1.689-.797.461-.013-.011v11.004l-1.995-1.639-.005-11.043ZM7.799 18.377l.797-.46 2.013 1.689-.797.46-.013-.011v11.004L7.804 29.42l-.005-11.043Z"/>
    <path fill="#707070" d="m42.274 46.175 3.567 2.994.639 1.536 2.852 2.394-7.946 4.575.078-11.031.81-.468ZM10.609 19.606l7.756 6.508-8.643 4.99.077-11.031.81-.467Z"/>
    <path fill="#444" d="m59.278 40.622-.027 3.648-2.566-2.155 2.593-1.493Z"/>
    <path fill="#d4d4d4" d="m50.597 45.382.045 8.815-4.162-3.492-1.851-4.452L8.171 15.661l-1.795 1.393-1.277-1.072-.066-8.825 45.564 38.225Z"/>
    <path fill="#ababab" d="m55.841 40.096 4.908-1.218v9.414l-1.535.887.057-8.557-6.725 3.883.009 8.518-1.913 1.175-.121-9.915 5.32-4.187Z"/>
    <path fill="#575757" d="m55.781 40.143-5.26 4.169L5.026 6.128l5.094-4.397.019.017L15.111.584l45.638 38.294-4.968 1.265Z"/>
    <path fill="#909090" d="M10.799 13.153v1.483l-3-2.517v-1.483l3 2.517Zm28.502 23.916v1.483l-3-2.518v-1.482l3 2.517ZM18.885 19.938v1.483l-3-2.517v-1.483l3 2.517Zm28.502 23.916v1.483l-3-2.518v-1.482l3 2.517Zm3.134.429v1.035L5.033 7.157V6.122l45.488 38.161Z"/>
    <path fill="#2e2e2e" d="M43.521 38.409v1.035l-.793-.665v-1.036l.793.666Zm-7.185-6.029v1.035l-.793-.665v-1.035l.793.665Zm-15.67-13.149v1.035l-.793-.665v-1.035l.793.665Zm-6.596-5.534v1.035l-.793-.665v-1.036l.793.666ZM7.323 8.035v1.036l-.793-.666V7.37l.793.665Zm20.883 17.523v1.035l-.793-.665v-1.035l.793.665Z"/>
  </g>
  <g id="white">
    <path fill="#fff" d="m54.387 43.429-1.112.649 1.742 1.464 1.131-.652-1.761-1.461Z"/>
  </g>
</svg>
