<svg xmlns="http://www.w3.org/2000/svg" xml:space="preserve" fill-rule="evenodd" stroke-linejoin="round" stroke-miterlimit="2" clip-rule="evenodd" viewBox="0 0 64 64">
  <g id="grey">
    <path fill="#444" d="M12.83 17.727c11.956-6.902 30.273-5.28 40.879 3.62 10.606 8.9 9.512 21.729-2.443 28.631-11.956 6.902-30.273 5.28-40.879-3.62C-.219 37.459.875 24.63 12.83 17.727Z"/>
    <path fill="#ebebeb" d="M12.734 14.022C24.69 7.12 43.007 8.741 53.613 17.641c10.606 8.9 9.512 21.73-2.443 28.632-11.956 6.903-30.273 5.281-40.879-3.619-10.606-8.9-9.512-21.73 2.443-28.632Z"/>
    <path fill="#838383" d="M16.069 16.483c9.911-5.721 25.095-4.377 33.887 3 8.792 7.378 7.885 18.013-2.025 23.735-9.911 5.722-25.095 4.377-33.887-3-8.792-7.378-7.885-18.013 2.025-23.735Z"/>
  </g>
</svg>
